<svg width="455" height="414" viewBox="0 0 455 414" fill="none" xmlns="http://www.w3.org/2000/svg">
<g clip-path="url(#clip0_0_1935)">
<path d="M455 -17H0V438H455V-17Z" fill="white"/>
<path d="M90.2247 154.605C64.0331 154.605 42.801 133.373 42.801 107.181V88.6839C42.801 62.4923 64.0331 41.2601 90.2247 41.2601C116.416 41.2601 137.648 62.4923 137.648 88.6839V107.181C137.648 133.373 116.416 154.605 90.2247 154.605Z" fill="#E4002B"/>
<path d="M71.3056 70.4177H75.6747V85.8776H82.674V89.7061H71.3056V70.4177ZM88.9898 80.0473C88.9898 81.1481 89.2138 82.1466 89.6619 83.0428C90.1198 83.9293 90.7481 84.6356 91.5469 85.1616C92.3555 85.6876 93.2907 85.9507 94.3525 85.9507C95.4143 85.9507 96.3447 85.6876 97.1435 85.1616C97.952 84.6356 98.5804 83.9293 99.0285 83.0428C99.4863 82.1466 99.7153 81.1481 99.7153 80.0473C99.7153 78.9465 99.4863 77.9528 99.0285 77.0663C98.5804 76.1798 97.952 75.4736 97.1435 74.9475C96.3447 74.4117 95.4143 74.1438 94.3525 74.1438C93.2907 74.1438 92.3555 74.4117 91.5469 74.9475C90.7481 75.4736 90.1198 76.1798 89.6619 77.0663C89.2138 77.9528 88.9898 78.9465 88.9898 80.0473ZM84.4453 80.0473C84.4453 78.6445 84.6937 77.3391 85.1905 76.1311C85.6874 74.9134 86.3839 73.8516 87.2801 72.9456C88.1763 72.0397 89.2284 71.3334 90.4364 70.8268C91.6443 70.3203 92.9497 70.067 94.3525 70.067C95.7748 70.067 97.085 70.3203 98.2832 70.8268C99.4912 71.3334 100.538 72.0397 101.425 72.9456C102.321 73.8516 103.013 74.9134 103.5 76.1311C103.997 77.3391 104.245 78.6445 104.245 80.0473C104.245 81.4598 104.006 82.7749 103.529 83.9926C103.052 85.2006 102.37 86.2624 101.483 87.1781C100.597 88.0841 99.5497 88.7903 98.3417 89.2969C97.1337 89.8035 95.804 90.0568 94.3525 90.0568C92.8718 90.0568 91.5226 89.8035 90.3049 89.2969C89.0969 88.7903 88.0546 88.0841 87.1778 87.1781C86.3011 86.2624 85.624 85.2006 85.1467 83.9926C84.6791 82.7749 84.4453 81.4598 84.4453 80.0473Z" fill="#343F48"/>
<path d="M78.1001 105.366H87.9342V106.594C87.9342 107.977 87.7004 109.268 87.2328 110.466C86.775 111.664 86.1174 112.716 85.2601 113.622C84.4029 114.528 83.38 115.235 82.1915 115.741C81.0031 116.248 79.6879 116.501 78.2462 116.501C76.7557 116.501 75.4016 116.248 74.1839 115.741C72.976 115.225 71.9336 114.509 71.0569 113.593C70.1801 112.677 69.508 111.616 69.0404 110.408C68.5728 109.19 68.339 107.885 68.339 106.491C68.339 105.108 68.5728 103.813 69.0404 102.605C69.508 101.387 70.1801 100.325 71.0569 99.4191C71.9336 98.5034 72.976 97.7922 74.1839 97.2857C75.4016 96.7694 76.7557 96.5112 78.2462 96.5112C79.4639 96.5112 80.5355 96.6427 81.4609 96.9057C82.3961 97.1688 83.1998 97.5195 83.872 97.9578C84.5441 98.3962 85.114 98.8784 85.5816 99.4045C86.0492 99.9208 86.4389 100.427 86.7506 100.924L82.6007 102.882C82.2013 102.268 81.6557 101.733 80.9641 101.275C80.2822 100.817 79.3762 100.588 78.2462 100.588C77.4571 100.588 76.7314 100.744 76.0689 101.056C75.4162 101.367 74.8512 101.796 74.3739 102.342C73.8966 102.877 73.5264 103.506 73.2634 104.227C73.0101 104.938 72.8834 105.693 72.8834 106.491C72.8834 107.3 73.0101 108.06 73.2634 108.771C73.5264 109.482 73.8966 110.11 74.3739 110.656C74.8512 111.202 75.4162 111.63 76.0689 111.942C76.7314 112.244 77.4571 112.395 78.2462 112.395C78.9378 112.395 79.5662 112.307 80.1312 112.132C80.6962 111.957 81.1833 111.703 81.5924 111.372C82.0113 111.041 82.3377 110.651 82.5715 110.203C82.815 109.745 82.9611 109.243 83.0098 108.698H78.1001V105.366ZM94.3739 106.491C94.3739 107.592 94.598 108.591 95.0461 109.487C95.504 110.373 96.1323 111.08 96.9311 111.606C97.7397 112.132 98.6749 112.395 99.7367 112.395C100.799 112.395 101.729 112.132 102.528 111.606C103.336 111.08 103.965 110.373 104.413 109.487C104.871 108.591 105.099 107.592 105.099 106.491C105.099 105.391 104.871 104.397 104.413 103.511C103.965 102.624 103.336 101.918 102.528 101.392C101.729 100.856 100.799 100.588 99.7367 100.588C98.6749 100.588 97.7397 100.856 96.9311 101.392C96.1323 101.918 95.504 102.624 95.0461 103.511C94.598 104.397 94.3739 105.391 94.3739 106.491ZM89.8295 106.491C89.8295 105.089 90.0779 103.783 90.5747 102.575C91.0715 101.358 91.7681 100.296 92.6643 99.3898C93.5605 98.4839 94.6126 97.7776 95.8206 97.271C97.0285 96.7645 98.3339 96.5112 99.7367 96.5112C101.159 96.5112 102.469 96.7645 103.667 97.271C104.875 97.7776 105.923 98.4839 106.809 99.3898C107.705 100.296 108.397 101.358 108.884 102.575C109.381 103.783 109.629 105.089 109.629 106.491C109.629 107.904 109.391 109.219 108.913 110.437C108.436 111.645 107.754 112.707 106.868 113.622C105.981 114.528 104.934 115.235 103.726 115.741C102.518 116.248 101.188 116.501 99.7367 116.501C98.256 116.501 96.9068 116.248 95.6891 115.741C94.4811 115.235 93.4387 114.528 92.562 113.622C91.6853 112.707 91.0082 111.645 90.5309 110.437C90.0633 109.219 89.8295 107.904 89.8295 106.491Z" fill="#343F48"/>
<path d="M90.2247 148.349C66.8705 148.349 47.9388 129.417 47.9388 106.063V89.8031C47.9388 66.4488 66.8705 47.5172 90.2247 47.5172C113.578 47.5172 132.511 66.4488 132.511 89.8031V106.063C132.511 129.417 113.579 148.349 90.2247 148.349Z" stroke="#343F48" stroke-width="2.1908" stroke-miterlimit="10"/>
<path d="M57.6176 98.8895C59.0082 98.8895 60.1355 97.7621 60.1355 96.3715C60.1355 94.9808 59.0082 93.8535 57.6176 93.8535C56.2269 93.8535 55.0996 94.9808 55.0996 96.3715C55.0996 97.7621 56.2269 98.8895 57.6176 98.8895Z" fill="#F4EBDC"/>
<path d="M121.849 98.8895C123.24 98.8895 124.367 97.7621 124.367 96.3715C124.367 94.9808 123.24 93.8535 121.849 93.8535C120.458 93.8535 119.331 94.9808 119.331 96.3715C119.331 97.7621 120.458 98.8895 121.849 98.8895Z" fill="#F4EBDC"/>
<path d="M269.412 107.546H170.558L185.103 74.6444H283.957L269.412 107.546Z" fill="#E4002B"/>
<path d="M311.163 116.617H178.638L180.642 112.084H313.166L311.163 116.617Z" fill="#669E5C"/>
<path d="M221.467 70.1062H170.558L172.561 65.5735H223.471L221.467 70.1062Z" fill="#669E5C"/>
<path d="M253.251 70.1062H226.301L228.304 65.5735H255.255L253.251 70.1062Z" fill="#669E5C"/>
<path d="M194.225 100.19V81.9987H196.428V98.2355H204.884V100.19H194.225ZM222.935 91.0941C222.935 93.0127 222.589 94.6707 221.896 96.0682C221.203 97.4657 220.252 98.5434 219.044 99.3013C217.836 100.059 216.457 100.438 214.905 100.438C213.354 100.438 211.974 100.059 210.766 99.3013C209.558 98.5434 208.608 97.4657 207.915 96.0682C207.222 94.6707 206.876 93.0127 206.876 91.0941C206.876 89.1755 207.222 87.5175 207.915 86.12C208.608 84.7226 209.558 83.6448 210.766 82.8869C211.974 82.1289 213.354 81.75 214.905 81.75C216.457 81.75 217.836 82.1289 219.044 82.8869C220.252 83.6448 221.203 84.7226 221.896 86.12C222.589 87.5175 222.935 89.1755 222.935 91.0941ZM220.803 91.0941C220.803 89.519 220.54 88.1896 220.013 87.106C219.492 86.0223 218.784 85.2022 217.89 84.6456C217.002 84.089 216.007 83.8107 214.905 83.8107C213.804 83.8107 212.806 84.089 211.912 84.6456C211.024 85.2022 210.316 86.0223 209.789 87.106C209.268 88.1896 209.008 89.519 209.008 91.0941C209.008 92.6692 209.268 93.9986 209.789 95.0823C210.316 96.1659 211.024 96.986 211.912 97.5427C212.806 98.0993 213.804 98.3776 214.905 98.3776C216.007 98.3776 217.002 98.0993 217.89 97.5427C218.784 96.986 219.492 96.1659 220.013 95.0823C220.54 93.9986 220.803 92.6692 220.803 91.0941ZM239.074 87.6833C238.879 87.0853 238.621 86.5494 238.301 86.0756C237.987 85.596 237.611 85.1874 237.173 84.8499C236.741 84.5124 236.249 84.2548 235.699 84.0771C235.148 83.8995 234.544 83.8107 233.887 83.8107C232.809 83.8107 231.829 84.089 230.947 84.6456C230.064 85.2022 229.363 86.0223 228.842 87.106C228.321 88.1896 228.06 89.519 228.06 91.0941C228.06 92.6692 228.324 93.9986 228.851 95.0823C229.378 96.1659 230.091 96.986 230.991 97.5427C231.891 98.0993 232.904 98.3776 234.029 98.3776C235.071 98.3776 235.989 98.1555 236.782 97.7114C237.582 97.2614 238.204 96.6278 238.648 95.8106C239.098 94.9875 239.323 94.0194 239.323 92.9061L239.998 93.0482H234.526V91.0941H241.454V93.0482C241.454 94.5464 241.135 95.8491 240.495 96.9564C239.862 98.0637 238.985 98.9224 237.866 99.5323C236.753 100.136 235.474 100.438 234.029 100.438C232.418 100.438 231.003 100.059 229.783 99.3013C228.569 98.5434 227.622 97.4657 226.941 96.0682C226.266 94.6707 225.928 93.0127 225.928 91.0941C225.928 89.6552 226.121 88.3613 226.506 87.2126C226.896 86.0579 227.447 85.0749 228.158 84.2636C228.868 83.4524 229.709 82.8306 230.68 82.3984C231.651 81.9661 232.72 81.75 233.887 81.75C234.846 81.75 235.74 81.895 236.569 82.1852C237.404 82.4694 238.147 82.875 238.799 83.4021C239.456 83.9232 240.004 84.5479 240.442 85.2762C240.88 85.9987 241.182 86.801 241.348 87.6833H239.074ZM209.574 121.094C209.574 123.013 209.227 124.671 208.535 126.068C207.842 127.466 206.891 128.543 205.683 129.301C204.475 130.059 203.096 130.438 201.544 130.438C199.993 130.438 198.613 130.059 197.405 129.301C196.197 128.543 195.247 127.466 194.554 126.068C193.861 124.671 193.515 123.013 193.515 121.094C193.515 119.176 193.861 117.518 194.554 116.12C195.247 114.723 196.197 113.645 197.405 112.887C198.613 112.129 199.993 111.75 201.544 111.75C203.096 111.75 204.475 112.129 205.683 112.887C206.891 113.645 207.842 114.723 208.535 116.12C209.227 117.518 209.574 119.176 209.574 121.094ZM207.442 121.094C207.442 119.519 207.179 118.19 206.651 117.106C206.13 116.022 205.423 115.202 204.529 114.646C203.64 114.089 202.646 113.811 201.544 113.811C200.443 113.811 199.445 114.089 198.551 114.646C197.663 115.202 196.955 116.022 196.428 117.106C195.907 118.19 195.646 119.519 195.646 121.094C195.646 122.669 195.907 123.999 196.428 125.082C196.955 126.166 197.663 126.986 198.551 127.543C199.445 128.099 200.443 128.378 201.544 128.378C202.646 128.378 203.64 128.099 204.529 127.543C205.423 126.986 206.13 126.166 206.651 125.082C207.179 123.999 207.442 122.669 207.442 121.094Z" fill="#F4EBDC"/>
<path d="M273.975 130.805C284.314 130.805 292.695 122.424 292.695 112.085C292.695 101.745 284.314 93.364 273.975 93.364C263.636 93.364 255.254 101.745 255.254 112.085C255.254 122.424 263.636 130.805 273.975 130.805Z" fill="#F4EBDC" stroke="#343F48" stroke-width="3.1538" stroke-miterlimit="10"/>
<path d="M264.067 109.892C265.136 109.892 266.002 109.026 266.002 107.958C266.002 106.889 265.136 106.023 264.067 106.023C262.999 106.023 262.133 106.889 262.133 107.958C262.133 109.026 262.999 109.892 264.067 109.892Z" fill="#343F48"/>
<path d="M284.741 109.892C285.809 109.892 286.675 109.026 286.675 107.958C286.675 106.889 285.809 106.023 284.741 106.023C283.672 106.023 282.806 106.889 282.806 107.958C282.806 109.026 283.672 109.892 284.741 109.892Z" fill="#343F48"/>
<path d="M263.874 113.291C263.874 118.869 268.396 123.392 273.975 123.392C279.553 123.392 284.076 118.869 284.076 113.291" stroke="#343F48" stroke-width="2.1026" stroke-miterlimit="10"/>
<path d="M382.074 75.0812L399.813 100.473H385.865L374.957 83.9862L364.407 100.473H351.532L368.269 75.0812L353.07 53.2655H366.66L375.386 66.8556L384.005 53.2655H397.023L382.074 75.0812Z" fill="#669E5C"/>
<path d="M351.175 140.598V131.358H352.547V132.802H352.667C352.859 132.309 353.17 131.926 353.599 131.653C354.028 131.376 354.544 131.238 355.145 131.238C355.755 131.238 356.262 131.376 356.667 131.653C357.076 131.926 357.395 132.309 357.623 132.802H357.72C357.956 132.325 358.311 131.946 358.784 131.665C359.257 131.38 359.825 131.238 360.486 131.238C361.313 131.238 361.988 131.497 362.514 132.014C363.039 132.527 363.302 133.327 363.302 134.414V140.598H361.882V134.414C361.882 133.732 361.695 133.245 361.323 132.952C360.95 132.66 360.511 132.513 360.005 132.513C359.356 132.513 358.852 132.71 358.495 133.103C358.139 133.492 357.96 133.985 357.96 134.582V140.598H356.517V134.27C356.517 133.744 356.346 133.321 356.005 133.001C355.664 132.676 355.225 132.513 354.688 132.513C354.319 132.513 353.974 132.612 353.653 132.808C353.337 133.005 353.08 133.277 352.883 133.626C352.691 133.971 352.595 134.37 352.595 134.823V140.598H351.175ZM365.897 140.598V131.358H367.317V140.598H365.897ZM366.619 129.819C366.342 129.819 366.104 129.724 365.903 129.536C365.707 129.347 365.608 129.121 365.608 128.856C365.608 128.591 365.707 128.365 365.903 128.176C366.104 127.988 366.342 127.894 366.619 127.894C366.896 127.894 367.132 127.988 367.329 128.176C367.529 128.365 367.629 128.591 367.629 128.856C367.629 129.121 367.529 129.347 367.329 129.536C367.132 129.724 366.896 129.819 366.619 129.819ZM371.336 135.04V140.598H369.917V131.358H371.288V132.802H371.408C371.625 132.333 371.954 131.956 372.395 131.671C372.836 131.382 373.405 131.238 374.103 131.238C374.729 131.238 375.276 131.366 375.745 131.623C376.214 131.876 376.579 132.261 376.84 132.778C377.101 133.291 377.231 133.941 377.231 134.727V140.598H375.811V134.823C375.811 134.097 375.623 133.532 375.246 133.127C374.869 132.718 374.352 132.513 373.694 132.513C373.241 132.513 372.836 132.612 372.479 132.808C372.126 133.005 371.847 133.291 371.643 133.668C371.438 134.045 371.336 134.502 371.336 135.04ZM379.825 140.598V131.358H381.244V140.598H379.825ZM380.547 129.819C380.27 129.819 380.031 129.724 379.831 129.536C379.634 129.347 379.536 129.121 379.536 128.856C379.536 128.591 379.634 128.365 379.831 128.176C380.031 127.988 380.27 127.894 380.547 127.894C380.823 127.894 381.06 127.988 381.256 128.176C381.457 128.365 381.557 128.591 381.557 128.856C381.557 129.121 381.457 129.347 381.256 129.536C381.06 129.724 380.823 129.819 380.547 129.819ZM351.175 160.598V151.358H352.547V152.802H352.667C352.859 152.309 353.17 151.926 353.599 151.653C354.028 151.376 354.544 151.238 355.145 151.238C355.755 151.238 356.262 151.376 356.667 151.653C357.076 151.926 357.395 152.309 357.623 152.802H357.72C357.956 152.325 358.311 151.946 358.784 151.665C359.257 151.38 359.825 151.238 360.486 151.238C361.313 151.238 361.988 151.497 362.514 152.014C363.039 152.527 363.302 153.327 363.302 154.414V160.598H361.882V154.414C361.882 153.732 361.695 153.245 361.323 152.952C360.95 152.66 360.511 152.513 360.005 152.513C359.356 152.513 358.852 152.71 358.495 153.103C358.139 153.492 357.96 153.985 357.96 154.582V160.598H356.517V154.27C356.517 153.744 356.346 153.321 356.005 153.001C355.664 152.676 355.225 152.513 354.688 152.513C354.319 152.513 353.974 152.612 353.653 152.808C353.337 153.005 353.08 153.277 352.883 153.626C352.691 153.971 352.595 154.37 352.595 154.823V160.598H351.175ZM368.616 160.814C368.03 160.814 367.499 160.704 367.022 160.483C366.545 160.259 366.166 159.936 365.885 159.515C365.604 159.09 365.464 158.576 365.464 157.975C365.464 157.446 365.568 157.017 365.777 156.688C365.985 156.355 366.264 156.094 366.613 155.906C366.962 155.717 367.347 155.577 367.768 155.485C368.193 155.388 368.62 155.312 369.049 155.256C369.61 155.184 370.065 155.13 370.414 155.094C370.767 155.054 371.024 154.987 371.184 154.895C371.349 154.803 371.431 154.643 371.431 154.414V154.366C371.431 153.772 371.268 153.311 370.944 152.982C370.623 152.654 370.136 152.489 369.482 152.489C368.804 152.489 368.273 152.638 367.888 152.934C367.503 153.231 367.232 153.548 367.076 153.885L365.729 153.404C365.969 152.842 366.29 152.405 366.691 152.092C367.096 151.775 367.537 151.555 368.014 151.431C368.496 151.302 368.969 151.238 369.434 151.238C369.731 151.238 370.071 151.274 370.456 151.346C370.845 151.415 371.22 151.557 371.581 151.773C371.946 151.99 372.249 152.317 372.49 152.754C372.73 153.191 372.85 153.776 372.85 154.51V160.598H371.431V159.346H371.359C371.262 159.547 371.102 159.761 370.877 159.99C370.653 160.219 370.354 160.413 369.981 160.573C369.608 160.734 369.153 160.814 368.616 160.814ZM368.832 159.539C369.394 159.539 369.867 159.429 370.252 159.208C370.641 158.988 370.934 158.703 371.13 158.354C371.331 158.005 371.431 157.638 371.431 157.253V155.954C371.371 156.026 371.238 156.092 371.034 156.152C370.833 156.209 370.601 156.259 370.336 156.303C370.075 156.343 369.821 156.379 369.572 156.411C369.328 156.439 369.129 156.463 368.977 156.483C368.608 156.531 368.263 156.61 367.942 156.718C367.625 156.822 367.369 156.98 367.172 157.193C366.98 157.402 366.883 157.686 366.883 158.047C366.883 158.54 367.066 158.913 367.431 159.166C367.8 159.415 368.267 159.539 368.832 159.539ZM376.861 148.279V160.598H375.441V148.279H376.861Z" fill="#669E5C"/>
<path d="M342.762 124.132H413.136" stroke="#E4002B" stroke-width="2" stroke-miterlimit="10"/>
<path d="M342.762 144.403H413.136" stroke="#E4002B" stroke-width="2" stroke-miterlimit="10"/>
<path d="M342.393 73.9291V63.4241L347.645 68.6766L342.393 73.9291Z" fill="#E4002B"/>
<path d="M348.467 60.6513L351.795 57.3234L348.467 53.9946H346.159L349.487 57.3234L346.159 60.6513H348.467Z" fill="#669E5C"/>
<path d="M420.492 109.936V102.634L424.143 106.285L420.492 109.936Z" fill="#669E5C"/>
<path d="M416.722 115.997L420.051 112.67L416.722 109.341H414.414L417.743 112.67L414.414 115.997H416.722Z" fill="#E4002B"/>
<path d="M412.265 115.997L415.593 112.67L412.265 109.341H409.957L413.286 112.67L409.957 115.997H412.265Z" fill="#E4002B"/>
<path d="M53.563 211.865H57.3532V225.277H63.4251V228.598H53.563V211.865ZM68.904 220.219C68.904 221.174 69.0983 222.04 69.4871 222.818C69.8843 223.587 70.4293 224.199 71.1223 224.656C71.8237 225.112 72.635 225.34 73.5561 225.34C74.4773 225.34 75.2843 225.112 75.9773 224.656C76.6787 224.199 77.2238 223.587 77.6125 222.818C78.0097 222.04 78.2083 221.174 78.2083 220.219C78.2083 219.264 78.0097 218.402 77.6125 217.633C77.2238 216.864 76.6787 216.251 75.9773 215.795C75.2843 215.33 74.4773 215.098 73.5561 215.098C72.635 215.098 71.8237 215.33 71.1223 215.795C70.4293 216.251 69.8843 216.864 69.4871 217.633C69.0983 218.402 68.904 219.264 68.904 220.219ZM64.9617 220.219C64.9617 219.002 65.1772 217.87 65.6082 216.822C66.0391 215.765 66.6434 214.844 67.4208 214.058C68.1983 213.272 69.111 212.66 70.1589 212.22C71.2068 211.781 72.3392 211.561 73.5561 211.561C74.7899 211.561 75.9266 211.781 76.966 212.22C78.0139 212.66 78.9224 213.272 79.6914 214.058C80.4689 214.844 81.0689 215.765 81.4914 216.822C81.9224 217.87 82.1379 219.002 82.1379 220.219C82.1379 221.444 81.9309 222.585 81.5168 223.642C81.1027 224.69 80.5111 225.611 79.7421 226.405C78.9731 227.191 78.0646 227.804 77.0167 228.243C75.9688 228.683 74.8153 228.902 73.5561 228.902C72.2716 228.902 71.1012 228.683 70.0448 228.243C68.9969 227.804 68.0927 227.191 67.3321 226.405C66.5715 225.611 65.9842 224.69 65.5701 223.642C65.1645 222.585 64.9617 221.444 64.9617 220.219ZM92.2456 219.243H100.777V220.308C100.777 221.508 100.574 222.628 100.168 223.667C99.771 224.706 99.2006 225.619 98.4569 226.405C97.7133 227.191 96.8259 227.804 95.7949 228.243C94.7639 228.683 93.6231 228.902 92.3724 228.902C91.0794 228.902 89.9047 228.683 88.8484 228.243C87.8005 227.795 86.8962 227.174 86.1357 226.38C85.3751 225.585 84.792 224.664 84.3864 223.616C83.9807 222.56 83.7779 221.428 83.7779 220.219C83.7779 219.019 83.9807 217.895 84.3864 216.847C84.792 215.791 85.3751 214.87 86.1357 214.084C86.8962 213.289 87.8005 212.672 88.8484 212.233C89.9047 211.785 91.0794 211.561 92.3724 211.561C93.4287 211.561 94.3583 211.675 95.1611 211.903C95.9724 212.132 96.6696 212.436 97.2527 212.816C97.8358 213.196 98.3302 213.615 98.7358 214.071C99.1415 214.519 99.4795 214.958 99.7499 215.389L96.1499 217.088C95.8034 216.556 95.3301 216.091 94.7301 215.694C94.1386 215.296 93.3527 215.098 92.3724 215.098C91.6878 215.098 91.0583 215.233 90.4836 215.504C89.9174 215.774 89.4273 216.146 89.0132 216.619C88.5991 217.084 88.278 217.629 88.0498 218.254C87.8301 218.871 87.7202 219.526 87.7202 220.219C87.7202 220.92 87.8301 221.58 88.0498 222.197C88.278 222.813 88.5991 223.359 89.0132 223.832C89.4273 224.305 89.9174 224.677 90.4836 224.947C91.0583 225.209 91.6878 225.34 92.3724 225.34C92.9724 225.34 93.5174 225.264 94.0076 225.112C94.4977 224.96 94.9203 224.74 95.2752 224.453C95.6386 224.166 95.9217 223.828 96.1245 223.439C96.3358 223.042 96.4626 222.606 96.5048 222.133H92.2456V219.243ZM106.363 220.219C106.363 221.174 106.557 222.04 106.946 222.818C107.343 223.587 107.888 224.199 108.581 224.656C109.283 225.112 110.094 225.34 111.015 225.34C111.936 225.34 112.743 225.112 113.436 224.656C114.138 224.199 114.683 223.587 115.072 222.818C115.469 222.04 115.667 221.174 115.667 220.219C115.667 219.264 115.469 218.402 115.072 217.633C114.683 216.864 114.138 216.251 113.436 215.795C112.743 215.33 111.936 215.098 111.015 215.098C110.094 215.098 109.283 215.33 108.581 215.795C107.888 216.251 107.343 216.864 106.946 217.633C106.557 218.402 106.363 219.264 106.363 220.219ZM102.421 220.219C102.421 219.002 102.636 217.87 103.067 216.822C103.498 215.765 104.103 214.844 104.88 214.058C105.657 213.272 106.57 212.66 107.618 212.22C108.666 211.781 109.798 211.561 111.015 211.561C112.249 211.561 113.386 211.781 114.425 212.22C115.473 212.66 116.382 213.272 117.151 214.058C117.928 214.844 118.528 215.765 118.951 216.822C119.382 217.87 119.597 219.002 119.597 220.219C119.597 221.444 119.39 222.585 118.976 223.642C118.562 224.69 117.97 225.611 117.201 226.405C116.432 227.191 115.524 227.804 114.476 228.243C113.428 228.683 112.274 228.902 111.015 228.902C109.731 228.902 108.56 228.683 107.504 228.243C106.456 227.804 105.552 227.191 104.791 226.405C104.031 225.611 103.443 224.69 103.029 223.642C102.624 222.585 102.421 221.444 102.421 220.219Z" fill="#669E5C"/>
<path d="M134.432 245.075H44.074C40.0809 245.075 36.8441 241.838 36.8441 237.845V211.92C36.8441 207.927 40.0809 204.69 44.074 204.69H134.431C138.424 204.69 141.661 207.927 141.661 211.92V237.844C141.662 241.837 138.424 245.075 134.432 245.075Z" stroke="#343F48" stroke-width="4.4274" stroke-miterlimit="10"/>
<path d="M149.804 234.763V242.832C149.804 248.362 145.322 252.844 139.792 252.844H114.46" stroke="#343F48" stroke-width="4.4274" stroke-miterlimit="10"/>
<path d="M76.3445 196.92H89.2528" stroke="#343F48" stroke-width="4.4274" stroke-miterlimit="10"/>
<path d="M29.3812 218.201V206.932C29.3812 201.403 33.8638 196.92 39.393 196.92H60.2356" stroke="#343F48" stroke-width="4.4274" stroke-miterlimit="10"/>
<path d="M227.916 260.827C252.344 260.827 272.147 241.024 272.147 216.595C272.147 192.167 252.344 172.364 227.916 172.364C203.488 172.364 183.684 192.167 183.684 216.595C183.684 241.024 203.488 260.827 227.916 260.827Z" fill="#343F48"/>
<path d="M213.271 250.919V179.541H221.914V243.252H255.094V250.919H213.271Z" fill="#E4002B"/>
<path d="M264.5 188.413C261.68 188.413 259.394 190.699 259.394 193.519H257.882C257.882 190.699 255.596 188.413 252.776 188.413V187.018C255.596 187.018 257.882 184.732 257.882 181.912H259.394C259.394 184.732 261.68 187.018 264.5 187.018V188.413Z" fill="#E4002B" stroke="#343F48" stroke-miterlimit="10"/>
<path d="M251.86 193.948C250.128 193.948 248.725 195.352 248.725 197.083H247.797C247.797 195.351 246.393 193.948 244.662 193.948V193.092C246.393 193.092 247.797 191.688 247.797 189.957H248.725C248.725 191.689 250.129 193.092 251.86 193.092V193.948Z" fill="#343F48" stroke="#E4002B" stroke-miterlimit="10"/>
<path d="M207.595 254.711C205.863 254.711 204.46 256.116 204.46 257.846H203.532C203.532 256.115 202.127 254.711 200.397 254.711V253.855C202.128 253.855 203.532 252.451 203.532 250.72H204.46C204.46 252.452 205.864 253.855 207.595 253.855V254.711Z" fill="#E4002B" stroke="#343F48" stroke-miterlimit="10"/>
<path d="M269.943 189.957V195.399" stroke="#343F48" stroke-miterlimit="10"/>
<path d="M267.221 192.678H272.664" stroke="#343F48" stroke-miterlimit="10"/>
<path d="M258.638 198.275V203.719" stroke="#E4002B" stroke-miterlimit="10"/>
<path d="M255.917 200.997H261.36" stroke="#E4002B" stroke-miterlimit="10"/>
<path d="M256.714 199.072L260.563 202.922" stroke="#E4002B" stroke-miterlimit="10"/>
<path d="M256.714 202.922L260.563 199.072" stroke="#E4002B" stroke-miterlimit="10"/>
<path d="M181.895 234.185V244.1" stroke="#343F48" stroke-miterlimit="10"/>
<path d="M176.938 239.142H186.853" stroke="#343F48" stroke-miterlimit="10"/>
<path d="M178.389 235.636L185.401 242.648" stroke="#343F48" stroke-miterlimit="10"/>
<path d="M178.389 242.648L185.401 235.636" stroke="#343F48" stroke-miterlimit="10"/>
<path d="M255.917 176.708L263.167 169.172" stroke="#343F48" stroke-miterlimit="10"/>
<path d="M257.829 160.065L251.86 172.94" stroke="#343F48" stroke-miterlimit="10"/>
<path d="M188.867 248.425L178.399 251.836" stroke="#343F48" stroke-miterlimit="10"/>
<path d="M182.377 266.219L192.635 251.836" stroke="#343F48" stroke-miterlimit="10"/>
<path d="M194.728 264.336L196.403 255.753" stroke="#343F48" stroke-miterlimit="10"/>
<path d="M193.402 246.315C194.597 246.315 195.565 245.346 195.565 244.152C195.565 242.957 194.597 241.989 193.402 241.989C192.208 241.989 191.239 242.957 191.239 244.152C191.239 245.346 192.208 246.315 193.402 246.315Z" fill="#E4002B" stroke="#343F48" stroke-miterlimit="10"/>
<path d="M196.828 237.928C197.322 237.928 197.721 237.529 197.721 237.036C197.721 236.543 197.322 236.143 196.828 236.143C196.335 236.143 195.936 236.543 195.936 237.036C195.936 237.529 196.335 237.928 196.828 237.928Z" fill="#E4002B" stroke="#343F48" stroke-width="0.4128" stroke-miterlimit="10"/>
<path d="M264.5 178.603C264.993 178.603 265.392 178.203 265.392 177.71C265.392 177.217 264.993 176.817 264.5 176.817C264.007 176.817 263.607 177.217 263.607 177.71C263.607 178.203 264.007 178.603 264.5 178.603Z" fill="#343F48"/>
<path d="M248.261 182.806C248.754 182.806 249.153 182.406 249.153 181.913C249.153 181.42 248.754 181.021 248.261 181.021C247.768 181.021 247.368 181.42 247.368 181.913C247.368 182.406 247.768 182.806 248.261 182.806Z" fill="#E4002B" stroke="#343F48" stroke-width="0.4128" stroke-miterlimit="10"/>
<path d="M323.499 204.692H328.308V221.71H336.014V225.925H323.499V204.692ZM342.966 215.292C342.966 216.504 343.213 217.603 343.706 218.59C344.21 219.565 344.902 220.343 345.781 220.922C346.671 221.501 347.701 221.791 348.869 221.791C350.038 221.791 351.062 221.501 351.942 220.922C352.832 220.343 353.524 219.565 354.017 218.59C354.521 217.603 354.773 216.504 354.773 215.292C354.773 214.08 354.521 212.986 354.017 212.011C353.524 211.035 352.832 210.257 351.942 209.678C351.062 209.088 350.038 208.793 348.869 208.793C347.701 208.793 346.671 209.088 345.781 209.678C344.902 210.257 344.21 211.035 343.706 212.011C343.213 212.986 342.966 214.08 342.966 215.292ZM337.963 215.292C337.963 213.748 338.237 212.311 338.784 210.981C339.331 209.641 340.097 208.472 341.084 207.474C342.071 206.477 343.229 205.7 344.559 205.142C345.888 204.584 347.325 204.306 348.869 204.306C350.435 204.306 351.877 204.584 353.197 205.142C354.526 205.7 355.679 206.477 356.655 207.474C357.642 208.472 358.403 209.641 358.939 210.981C359.486 212.311 359.759 213.748 359.759 215.292C359.759 216.847 359.497 218.295 358.971 219.635C358.446 220.965 357.695 222.134 356.719 223.142C355.743 224.139 354.591 224.917 353.261 225.474C351.931 226.032 350.467 226.311 348.869 226.311C347.239 226.311 345.754 226.032 344.414 225.474C343.084 224.917 341.937 224.139 340.971 223.142C340.006 222.134 339.261 220.965 338.736 219.635C338.221 218.295 337.963 216.847 337.963 215.292ZM372.586 214.053H383.411V215.405C383.411 216.927 383.154 218.348 382.639 219.667C382.135 220.986 381.411 222.145 380.468 223.142C379.524 224.139 378.398 224.917 377.09 225.474C375.781 226.032 374.334 226.311 372.747 226.311C371.106 226.311 369.615 226.032 368.275 225.474C366.945 224.906 365.798 224.118 364.832 223.11C363.867 222.102 363.127 220.933 362.613 219.603C362.098 218.263 361.841 216.826 361.841 215.292C361.841 213.769 362.098 212.343 362.613 211.013C363.127 209.673 363.867 208.504 364.832 207.507C365.798 206.499 366.945 205.716 368.275 205.158C369.615 204.59 371.106 204.306 372.747 204.306C374.087 204.306 375.267 204.45 376.285 204.74C377.315 205.029 378.2 205.415 378.94 205.898C379.68 206.381 380.307 206.911 380.822 207.491C381.336 208.059 381.765 208.617 382.108 209.163L377.54 211.319C377.1 210.643 376.5 210.054 375.739 209.549C374.988 209.045 373.991 208.793 372.747 208.793C371.878 208.793 371.079 208.965 370.35 209.308C369.631 209.651 369.009 210.123 368.484 210.724C367.958 211.314 367.551 212.005 367.261 212.799C366.983 213.582 366.843 214.413 366.843 215.292C366.843 216.182 366.983 217.019 367.261 217.801C367.551 218.584 367.958 219.276 368.484 219.876C369.009 220.477 369.631 220.949 370.35 221.292C371.079 221.624 371.878 221.791 372.747 221.791C373.508 221.791 374.2 221.694 374.822 221.501C375.444 221.308 375.98 221.029 376.43 220.665C376.891 220.3 377.251 219.871 377.508 219.378C377.776 218.874 377.937 218.322 377.991 217.721H372.586V214.053ZM390.5 215.292C390.5 216.504 390.747 217.603 391.24 218.59C391.744 219.565 392.436 220.343 393.315 220.922C394.205 221.501 395.235 221.791 396.404 221.791C397.573 221.791 398.597 221.501 399.476 220.922C400.366 220.343 401.058 219.565 401.551 218.59C402.055 217.603 402.307 216.504 402.307 215.292C402.307 214.08 402.055 212.986 401.551 212.011C401.058 211.035 400.366 210.257 399.476 209.678C398.597 209.088 397.573 208.793 396.404 208.793C395.235 208.793 394.205 209.088 393.315 209.678C392.436 210.257 391.744 211.035 391.24 212.011C390.747 212.986 390.5 214.08 390.5 215.292ZM385.498 215.292C385.498 213.748 385.771 212.311 386.318 210.981C386.865 209.641 387.632 208.472 388.618 207.474C389.605 206.477 390.763 205.7 392.093 205.142C393.423 204.584 394.86 204.306 396.404 204.306C397.969 204.306 399.412 204.584 400.731 205.142C402.061 205.7 403.213 206.477 404.189 207.474C405.176 208.472 405.937 209.641 406.473 210.981C407.02 212.311 407.294 213.748 407.294 215.292C407.294 216.847 407.031 218.295 406.506 219.635C405.98 220.965 405.229 222.134 404.254 223.142C403.278 224.139 402.125 224.917 400.795 225.474C399.465 226.032 398.002 226.311 396.404 226.311C394.774 226.311 393.289 226.032 391.948 225.474C390.618 224.917 389.471 224.139 388.506 223.142C387.541 222.134 386.795 220.965 386.27 219.635C385.755 218.295 385.498 216.847 385.498 215.292Z" fill="#E4002B"/>
<path d="M297.528 196.536C302.127 196.536 302.127 202.665 306.727 202.665C311.328 202.665 311.328 196.536 315.928 196.536C320.53 196.536 320.53 202.665 325.133 202.665C329.734 202.665 329.734 196.536 334.335 196.536C338.939 196.536 338.939 202.665 343.543 202.665C348.148 202.665 348.147 196.536 352.751 196.536" stroke="#343F48" stroke-width="2" stroke-miterlimit="10"/>
<path d="M350.004 239.768C354.603 239.768 354.603 245.896 359.203 245.896C363.804 245.896 363.804 239.768 368.404 239.768C373.006 239.768 373.006 245.896 377.609 245.896C382.21 245.896 382.21 239.768 386.811 239.768C391.415 239.768 391.415 245.896 396.019 245.896C400.624 245.896 400.623 239.768 405.228 239.768" stroke="#343F48" stroke-width="2" stroke-miterlimit="10"/>
<path d="M405.097 239.768C409.697 239.768 409.697 245.896 414.297 245.896C418.898 245.896 418.898 239.768 423.498 239.768" stroke="#343F48" stroke-width="2" stroke-miterlimit="10"/>
<path d="M422.373 194.189H360.87V202.665H422.373V194.189Z" fill="#E4002B"/>
<path d="M373.355 201.144V197.261H373.932V197.868H373.982C374.063 197.66 374.194 197.499 374.374 197.385C374.554 197.269 374.771 197.21 375.024 197.21C375.28 197.21 375.493 197.269 375.663 197.385C375.835 197.499 375.969 197.66 376.065 197.868H376.106C376.205 197.667 376.354 197.508 376.553 197.39C376.752 197.27 376.99 197.21 377.268 197.21C377.616 197.21 377.9 197.319 378.12 197.537C378.341 197.752 378.451 198.088 378.451 198.545V201.144H377.855V198.545C377.855 198.259 377.777 198.054 377.62 197.931C377.463 197.808 377.279 197.746 377.066 197.746C376.793 197.746 376.582 197.829 376.432 197.994C376.282 198.158 376.207 198.365 376.207 198.616V201.144H375.6V198.484C375.6 198.264 375.528 198.086 375.385 197.951C375.242 197.815 375.057 197.746 374.832 197.746C374.677 197.746 374.532 197.788 374.397 197.87C374.264 197.953 374.156 198.067 374.073 198.214C373.992 198.359 373.952 198.527 373.952 198.717V201.144H373.355ZM379.542 201.144V197.261H380.139V201.144H379.542ZM379.845 196.614C379.729 196.614 379.629 196.574 379.545 196.495C379.462 196.416 379.421 196.321 379.421 196.209C379.421 196.098 379.462 196.003 379.545 195.924C379.629 195.845 379.729 195.805 379.845 195.805C379.962 195.805 380.061 195.845 380.144 195.924C380.228 196.003 380.27 196.098 380.27 196.209C380.27 196.321 380.228 196.416 380.144 196.495C380.061 196.574 379.962 196.614 379.845 196.614ZM381.828 198.808V201.144H381.231V197.261H381.808V197.868H381.858C381.949 197.671 382.087 197.512 382.273 197.392C382.458 197.271 382.697 197.21 382.991 197.21C383.254 197.21 383.484 197.264 383.681 197.372C383.878 197.478 384.031 197.64 384.141 197.858C384.25 198.073 384.305 198.346 384.305 198.677V201.144H383.709V198.717C383.709 198.412 383.629 198.174 383.471 198.004C383.313 197.832 383.095 197.746 382.819 197.746C382.628 197.746 382.458 197.788 382.308 197.87C382.16 197.953 382.043 198.073 381.957 198.232C381.871 198.39 381.828 198.582 381.828 198.808ZM385.395 201.144V197.261H385.992V201.144H385.395ZM385.699 196.614C385.582 196.614 385.482 196.574 385.398 196.495C385.315 196.416 385.274 196.321 385.274 196.209C385.274 196.098 385.315 196.003 385.398 195.924C385.482 195.845 385.582 195.805 385.699 195.805C385.815 195.805 385.914 195.845 385.997 195.924C386.081 196.003 386.123 196.098 386.123 196.209C386.123 196.321 386.081 196.416 385.997 196.495C385.914 196.574 385.815 196.614 385.699 196.614ZM373.355 210.144V206.261H373.932V206.868H373.982C374.063 206.66 374.194 206.499 374.374 206.385C374.554 206.269 374.771 206.21 375.024 206.21C375.28 206.21 375.493 206.269 375.663 206.385C375.835 206.499 375.969 206.66 376.065 206.868H376.106C376.205 206.667 376.354 206.508 376.553 206.39C376.752 206.27 376.99 206.21 377.268 206.21C377.616 206.21 377.9 206.319 378.12 206.537C378.341 206.752 378.451 207.088 378.451 207.545V210.144H377.855V207.545C377.855 207.259 377.777 207.054 377.62 206.931C377.463 206.808 377.279 206.746 377.066 206.746C376.793 206.746 376.582 206.829 376.432 206.994C376.282 207.158 376.207 207.365 376.207 207.616V210.144H375.6V207.484C375.6 207.264 375.528 207.086 375.385 206.951C375.242 206.815 375.057 206.746 374.832 206.746C374.677 206.746 374.532 206.788 374.397 206.87C374.264 206.953 374.156 207.067 374.073 207.214C373.992 207.359 373.952 207.527 373.952 207.717V210.144H373.355ZM380.685 210.235C380.439 210.235 380.215 210.188 380.015 210.096C379.814 210.001 379.655 209.866 379.537 209.689C379.419 209.51 379.36 209.294 379.36 209.042C379.36 208.819 379.404 208.639 379.492 208.501C379.579 208.361 379.696 208.251 379.843 208.172C379.99 208.093 380.151 208.034 380.328 207.995C380.507 207.955 380.686 207.923 380.867 207.899C381.103 207.869 381.294 207.846 381.441 207.831C381.589 207.814 381.697 207.786 381.764 207.747C381.833 207.709 381.868 207.641 381.868 207.545V207.525C381.868 207.276 381.799 207.082 381.663 206.944C381.528 206.805 381.323 206.736 381.049 206.736C380.764 206.736 380.541 206.799 380.379 206.923C380.217 207.048 380.103 207.181 380.038 207.323L379.471 207.12C379.572 206.885 379.707 206.701 379.876 206.569C380.046 206.436 380.231 206.344 380.432 206.291C380.634 206.237 380.833 206.21 381.028 206.21C381.153 206.21 381.296 206.226 381.458 206.256C381.622 206.285 381.779 206.344 381.931 206.435C382.084 206.526 382.211 206.664 382.313 206.847C382.414 207.031 382.464 207.277 382.464 207.586V210.144H381.868V209.618H381.837C381.797 209.702 381.73 209.792 381.635 209.888C381.541 209.984 381.415 210.066 381.259 210.134C381.102 210.201 380.911 210.235 380.685 210.235ZM380.776 209.699C381.012 209.699 381.21 209.652 381.372 209.56C381.536 209.467 381.659 209.347 381.741 209.201C381.826 209.054 381.868 208.9 381.868 208.738V208.192C381.842 208.223 381.787 208.25 381.701 208.276C381.617 208.299 381.519 208.32 381.408 208.339C381.298 208.356 381.191 208.371 381.087 208.384C380.984 208.396 380.9 208.406 380.836 208.415C380.681 208.435 380.536 208.468 380.402 208.513C380.268 208.557 380.161 208.624 380.078 208.713C379.997 208.801 379.957 208.92 379.957 209.072C379.957 209.279 380.033 209.436 380.187 209.542C380.342 209.647 380.538 209.699 380.776 209.699ZM384.15 204.967V210.144H383.553V204.967H384.15Z" fill="#343F48"/>
<path d="M217.012 353.468H255.95C250.36 368.452 235.914 379.117 218.975 379.117C197.18 379.117 179.514 361.451 179.514 339.655C179.514 317.86 197.18 300.187 218.975 300.187C237.652 300.187 253.304 313.164 257.397 330.597H217.012C213.85 330.597 210.993 331.877 208.928 333.949C206.856 336.014 205.576 338.878 205.576 342.033C205.576 348.343 210.694 353.468 217.012 353.468Z" stroke="#343F48" stroke-width="4.4274" stroke-miterlimit="10"/>
<path d="M218.92 336.926H220.343L223.687 345.096H223.803L227.147 336.926H228.57V346.768H227.455V339.291H227.359L224.283 346.768H223.207L220.131 339.291H220.035V346.768H218.92V336.926ZM232.151 336.926V346.768H230.959V336.926H232.151ZM242.344 336.926V346.768H241.191L235.828 339.041H235.732V346.768H234.54V336.926H235.694L241.076 344.673H241.172V336.926H242.344ZM245.921 336.926V346.768H244.729V336.926H245.921ZM248.31 336.926H249.733L253.077 345.096H253.193L256.537 336.926H257.959V346.768H256.845V339.291H256.749L253.673 346.768H252.597L249.521 339.291H249.425V346.768H248.31V336.926ZM260.753 346.768H259.503L263.117 336.926H264.347L267.961 346.768H266.711L263.77 338.483H263.694L260.753 346.768ZM261.214 342.924H266.25V343.981H261.214V342.924ZM269.494 346.768V336.926H270.685V345.711H275.26V346.768H269.494ZM218.92 362.768V352.926H220.112V361.711H224.687V362.768H218.92ZM234.453 357.847C234.453 358.885 234.265 359.782 233.89 360.538C233.516 361.294 233.001 361.877 232.348 362.287C231.694 362.697 230.948 362.902 230.109 362.902C229.269 362.902 228.523 362.697 227.869 362.287C227.216 361.877 226.702 361.294 226.327 360.538C225.952 359.782 225.765 358.885 225.765 357.847C225.765 356.809 225.952 355.912 226.327 355.156C226.702 354.4 227.216 353.817 227.869 353.407C228.523 352.997 229.269 352.792 230.109 352.792C230.948 352.792 231.694 352.997 232.348 353.407C233.001 353.817 233.516 354.4 233.89 355.156C234.265 355.912 234.453 356.809 234.453 357.847ZM233.299 357.847C233.299 356.995 233.157 356.276 232.872 355.69C232.59 355.103 232.207 354.66 231.723 354.358C231.243 354.057 230.704 353.907 230.109 353.907C229.513 353.907 228.973 354.057 228.489 354.358C228.009 354.66 227.626 355.103 227.341 355.69C227.059 356.276 226.918 356.995 226.918 357.847C226.918 358.699 227.059 359.419 227.341 360.005C227.626 360.591 228.009 361.035 228.489 361.336C228.973 361.637 229.513 361.788 230.109 361.788C230.704 361.788 231.243 361.637 231.723 361.336C232.207 361.035 232.59 360.591 232.872 360.005C233.157 359.419 233.299 358.699 233.299 357.847ZM243.184 356.002C243.078 355.678 242.939 355.388 242.766 355.132C242.596 354.873 242.393 354.652 242.156 354.469C241.922 354.286 241.656 354.147 241.358 354.051C241.06 353.955 240.733 353.907 240.378 353.907C239.795 353.907 239.264 354.057 238.787 354.358C238.31 354.66 237.93 355.103 237.648 355.69C237.366 356.276 237.225 356.995 237.225 357.847C237.225 358.699 237.368 359.419 237.653 360.005C237.938 360.591 238.324 361.035 238.811 361.336C239.298 361.637 239.846 361.788 240.455 361.788C241.018 361.788 241.515 361.668 241.944 361.427C242.377 361.184 242.713 360.841 242.953 360.399C243.197 359.954 243.319 359.43 243.319 358.828L243.684 358.904H240.724V357.847H244.472V358.904C244.472 359.715 244.299 360.42 243.953 361.019C243.61 361.618 243.136 362.082 242.531 362.412C241.928 362.739 241.236 362.902 240.455 362.902C239.583 362.902 238.818 362.697 238.158 362.287C237.501 361.877 236.988 361.294 236.62 360.538C236.255 359.782 236.072 358.885 236.072 357.847C236.072 357.069 236.176 356.369 236.384 355.747C236.596 355.123 236.894 354.591 237.278 354.152C237.663 353.713 238.118 353.377 238.643 353.143C239.168 352.909 239.747 352.792 240.378 352.792C240.897 352.792 241.38 352.87 241.829 353.027C242.281 353.181 242.683 353.401 243.035 353.686C243.391 353.968 243.687 354.306 243.924 354.7C244.161 355.091 244.325 355.525 244.414 356.002H243.184ZM254.817 357.847C254.817 358.885 254.629 359.782 254.255 360.538C253.88 361.294 253.366 361.877 252.712 362.287C252.058 362.697 251.312 362.902 250.473 362.902C249.633 362.902 248.887 362.697 248.233 362.287C247.58 361.877 247.066 361.294 246.691 360.538C246.316 359.782 246.129 358.885 246.129 357.847C246.129 356.809 246.316 355.912 246.691 355.156C247.066 354.4 247.58 353.817 248.233 353.407C248.887 352.997 249.633 352.792 250.473 352.792C251.312 352.792 252.058 352.997 252.712 353.407C253.366 353.817 253.88 354.4 254.255 355.156C254.629 355.912 254.817 356.809 254.817 357.847ZM253.663 357.847C253.663 356.995 253.521 356.276 253.236 355.69C252.954 355.103 252.571 354.66 252.087 354.358C251.607 354.057 251.069 353.907 250.473 353.907C249.877 353.907 249.337 354.057 248.853 354.358C248.373 354.66 247.99 355.103 247.705 355.69C247.423 356.276 247.282 356.995 247.282 357.847C247.282 358.699 247.423 359.419 247.705 360.005C247.99 360.591 248.373 361.035 248.853 361.336C249.337 361.637 249.877 361.788 250.473 361.788C251.069 361.788 251.607 361.637 252.087 361.336C252.571 361.035 252.954 360.591 253.236 360.005C253.521 359.419 253.663 358.699 253.663 357.847Z" fill="#E4002B"/>
<path d="M250.95 330.596C246.966 317.039 234.432 307.142 219.587 307.142C201.535 307.142 186.901 321.776 186.901 339.827C186.901 357.879 201.535 372.513 219.587 372.513C232.769 372.513 244.128 364.71 249.297 353.47" stroke="#669E5C" stroke-width="4.4274" stroke-miterlimit="10"/>
<path d="M242.969 330.595C239.289 321.283 230.207 314.696 219.588 314.696C205.707 314.696 194.456 325.948 194.456 339.827C194.456 353.707 205.708 364.959 219.588 364.959C228.438 364.959 236.22 360.384 240.698 353.47" stroke="#E4002B" stroke-width="4.4274" stroke-miterlimit="10"/>
<path d="M311.211 342.032C311.211 345.187 309.931 348.045 307.859 350.117C305.795 352.189 302.931 353.468 299.775 353.468H217.012C210.695 353.468 205.576 348.343 205.576 342.032C205.576 338.877 206.856 336.013 208.928 333.948C210.993 331.876 213.85 330.596 217.012 330.596H299.775C306.092 330.597 311.211 335.715 311.211 342.032Z" stroke="#343F48" stroke-width="4.4274" stroke-miterlimit="10"/>
<path d="M56.8159 318.806V355.76H90.9927" stroke="#343F48" stroke-width="12" stroke-miterlimit="10"/>
<path d="M43.882 349.156V368.694H59.575" stroke="#E4002B" stroke-width="6" stroke-miterlimit="10"/>
<path d="M138.095 349.156V312.203H103.918" stroke="#E4002B" stroke-width="12" stroke-miterlimit="10"/>
<path d="M68.4782 324.47H71.4063V334.831H76.0971V337.397H68.4782V324.47ZM80.3298 330.924C80.3298 331.662 80.4799 332.331 80.7802 332.931C81.0871 333.526 81.5082 333.999 82.0435 334.351C82.5854 334.704 83.2121 334.88 83.9238 334.88C84.6354 334.88 85.2589 334.704 85.7942 334.351C86.3361 333.999 86.7572 333.526 87.0575 332.931C87.3643 332.331 87.5178 331.662 87.5178 330.924C87.5178 330.186 87.3643 329.52 87.0575 328.926C86.7572 328.332 86.3361 327.859 85.7942 327.506C85.2589 327.147 84.6354 326.968 83.9238 326.968C83.2121 326.968 82.5854 327.147 82.0435 327.506C81.5082 327.859 81.0871 328.332 80.7802 328.926C80.4799 329.52 80.3298 330.186 80.3298 330.924ZM77.2842 330.924C77.2842 329.984 77.4507 329.109 77.7836 328.299C78.1166 327.483 78.5834 326.772 79.184 326.165C79.7846 325.557 80.4897 325.084 81.2993 324.745C82.1088 324.405 82.9836 324.235 83.9238 324.235C84.8769 324.235 85.755 324.405 86.5581 324.745C87.3676 325.084 88.0694 325.557 88.6635 326.165C89.2642 326.772 89.7277 327.483 90.0541 328.299C90.3871 329.109 90.5536 329.984 90.5536 330.924C90.5536 331.871 90.3936 332.752 90.0737 333.568C89.7538 334.378 89.2968 335.089 88.7027 335.703C88.1086 336.31 87.4068 336.783 86.5972 337.123C85.7877 337.462 84.8965 337.632 83.9238 337.632C82.9314 337.632 82.0272 337.462 81.2111 337.123C80.4016 336.783 79.703 336.31 79.1155 335.703C78.5279 335.089 78.0741 334.378 77.7542 333.568C77.4409 332.752 77.2842 331.871 77.2842 330.924ZM98.3622 330.17H104.953V330.992C104.953 331.92 104.796 332.785 104.483 333.588C104.176 334.391 103.735 335.096 103.161 335.703C102.586 336.31 101.901 336.783 101.104 337.123C100.308 337.462 99.4263 337.632 98.4601 337.632C97.4612 337.632 96.5538 337.462 95.7377 337.123C94.9281 336.777 94.2296 336.297 93.642 335.683C93.0544 335.07 92.6039 334.358 92.2906 333.548C91.9772 332.732 91.8205 331.858 91.8205 330.924C91.8205 329.997 91.9772 329.129 92.2906 328.319C92.6039 327.503 93.0544 326.791 93.642 326.184C94.2296 325.57 94.9281 325.094 95.7377 324.754C96.5538 324.408 97.4612 324.235 98.4601 324.235C99.2762 324.235 99.9943 324.324 100.615 324.5C101.241 324.676 101.78 324.911 102.23 325.205C102.681 325.499 103.063 325.822 103.376 326.174C103.69 326.52 103.951 326.86 104.16 327.193L101.378 328.505C101.111 328.094 100.745 327.735 100.282 327.428C99.8246 327.121 99.2174 326.968 98.4601 326.968C97.9313 326.968 97.4449 327.072 97.001 327.281C96.5635 327.49 96.1849 327.777 95.865 328.143C95.5451 328.502 95.297 328.923 95.1207 329.406C94.951 329.883 94.8661 330.389 94.8661 330.924C94.8661 331.466 94.951 331.975 95.1207 332.452C95.297 332.928 95.5451 333.349 95.865 333.715C96.1849 334.081 96.5635 334.368 97.001 334.577C97.4449 334.779 97.9313 334.88 98.4601 334.88C98.9236 334.88 99.3447 334.822 99.7234 334.704C100.102 334.586 100.428 334.417 100.703 334.195C100.983 333.973 101.202 333.712 101.359 333.411C101.522 333.104 101.62 332.768 101.653 332.403H98.3622V330.17ZM109.269 330.924C109.269 331.662 109.419 332.331 109.719 332.931C110.026 333.526 110.447 333.999 110.982 334.351C111.524 334.704 112.151 334.88 112.863 334.88C113.574 334.88 114.198 334.704 114.733 334.351C115.275 333.999 115.696 333.526 115.996 332.931C116.303 332.331 116.457 331.662 116.457 330.924C116.457 330.186 116.303 329.52 115.996 328.926C115.696 328.332 115.275 327.859 114.733 327.506C114.198 327.147 113.574 326.968 112.863 326.968C112.151 326.968 111.524 327.147 110.982 327.506C110.447 327.859 110.026 328.332 109.719 328.926C109.419 329.52 109.269 330.186 109.269 330.924ZM106.223 330.924C106.223 329.984 106.389 329.109 106.722 328.299C107.055 327.483 107.522 326.772 108.123 326.165C108.723 325.557 109.429 325.084 110.238 324.745C111.048 324.405 111.922 324.235 112.863 324.235C113.816 324.235 114.694 324.405 115.497 324.745C116.306 325.084 117.008 325.557 117.602 326.165C118.203 326.772 118.666 327.483 118.993 328.299C119.326 329.109 119.492 329.984 119.492 330.924C119.492 331.871 119.332 332.752 119.012 333.568C118.693 334.378 118.236 335.089 117.641 335.703C117.047 336.31 116.346 336.783 115.536 337.123C114.726 337.462 113.835 337.632 112.863 337.632C111.87 337.632 110.966 337.462 110.15 337.123C109.34 336.783 108.642 336.31 108.054 335.703C107.467 335.089 107.013 334.378 106.693 333.568C106.38 332.752 106.223 331.871 106.223 330.924Z" fill="#343F48"/>
<path d="M398.423 301.012H344.551V362.819H398.423V301.012Z" stroke="#669E5C" stroke-width="10" stroke-miterlimit="10"/>
<path d="M361.184 330.996V312.373H363.44V328.996H372.097V330.996H361.184ZM376.898 352.684C376.898 354.649 376.543 356.346 375.834 357.777C375.125 359.207 374.152 360.311 372.915 361.087C371.678 361.863 370.266 362.251 368.677 362.251C367.089 362.251 365.677 361.863 364.44 361.087C363.203 360.311 362.23 359.207 361.521 357.777C360.812 356.346 360.457 354.649 360.457 352.684C360.457 350.72 360.812 349.023 361.521 347.592C362.23 346.161 363.203 345.058 364.44 344.282C365.677 343.506 367.089 343.118 368.677 343.118C370.266 343.118 371.678 343.506 372.915 344.282C374.152 345.058 375.125 346.161 375.834 347.592C376.543 349.023 376.898 350.72 376.898 352.684ZM374.716 352.684C374.716 351.072 374.446 349.711 373.906 348.601C373.373 347.492 372.648 346.652 371.733 346.082C370.824 345.513 369.805 345.228 368.677 345.228C367.55 345.228 366.528 345.513 365.613 346.082C364.704 346.652 363.979 347.492 363.44 348.601C362.906 349.711 362.639 351.072 362.639 352.684C362.639 354.297 362.906 355.658 363.44 356.767C363.979 357.877 364.704 358.716 365.613 359.286C366.528 359.856 367.55 360.141 368.677 360.141C369.805 360.141 370.824 359.856 371.733 359.286C372.648 358.716 373.373 357.877 373.906 356.767C374.446 355.658 374.716 354.297 374.716 352.684Z" fill="#343F48"/>
<path d="M373.915 340.579C373.715 339.967 373.452 339.418 373.124 338.933C372.803 338.442 372.418 338.024 371.969 337.679C371.527 337.333 371.024 337.069 370.46 336.887C369.896 336.706 369.278 336.615 368.605 336.615C367.501 336.615 366.498 336.9 365.595 337.469C364.691 338.039 363.973 338.879 363.44 339.988C362.906 341.098 362.639 342.459 362.639 344.071C362.639 345.684 362.909 347.045 363.449 348.154C363.988 349.264 364.719 350.103 365.64 350.673C366.562 351.243 367.598 351.528 368.75 351.528C369.817 351.528 370.757 351.301 371.569 350.846C372.388 350.385 373.024 349.737 373.479 348.9C373.94 348.057 374.17 347.066 374.17 345.926L374.861 346.072H369.259V344.071H376.352V346.072C376.352 347.606 376.025 348.939 375.37 350.073C374.722 351.207 373.824 352.086 372.679 352.71C371.539 353.328 370.229 353.638 368.75 353.638C367.101 353.638 365.652 353.25 364.404 352.474C363.161 351.698 362.191 350.594 361.494 349.164C360.802 347.733 360.457 346.035 360.457 344.071C360.457 342.598 360.654 341.273 361.048 340.097C361.448 338.915 362.012 337.909 362.739 337.078C363.467 336.248 364.328 335.611 365.322 335.169C366.316 334.726 367.41 334.505 368.605 334.505C369.587 334.505 370.502 334.653 371.351 334.95C372.206 335.241 372.967 335.657 373.633 336.196C374.306 336.73 374.867 337.369 375.316 338.115C375.764 338.855 376.073 339.676 376.243 340.579H373.915ZM376.898 375.071C376.898 377.035 376.543 378.733 375.834 380.164C375.125 381.594 374.152 382.698 372.915 383.474C371.678 384.25 370.266 384.638 368.677 384.638C367.089 384.638 365.677 384.25 364.44 383.474C363.203 382.698 362.23 381.594 361.521 380.164C360.812 378.733 360.457 377.035 360.457 375.071C360.457 373.107 360.812 371.41 361.521 369.979C362.23 368.548 363.203 367.445 364.44 366.669C365.677 365.893 367.089 365.505 368.677 365.505C370.266 365.505 371.678 365.893 372.915 366.669C374.152 367.445 375.125 368.548 375.834 369.979C376.543 371.41 376.898 373.107 376.898 375.071ZM374.716 375.071C374.716 373.459 374.446 372.098 373.906 370.988C373.373 369.879 372.648 369.039 371.733 368.469C370.824 367.9 369.805 367.615 368.677 367.615C367.55 367.615 366.528 367.9 365.613 368.469C364.704 369.039 363.979 369.879 363.44 370.988C362.906 372.098 362.639 373.459 362.639 375.071C362.639 376.684 362.906 378.045 363.44 379.154C363.979 380.264 364.704 381.103 365.613 381.673C366.528 382.243 367.55 382.528 368.677 382.528C369.805 382.528 370.824 382.243 371.733 381.673C372.648 381.103 373.373 380.264 373.906 379.154C374.446 378.045 374.716 376.684 374.716 375.071Z" fill="#343F48"/>
<path d="M398.423 377.937C406.773 377.937 413.542 371.168 413.542 362.819C413.542 354.469 406.773 347.7 398.423 347.7C390.074 347.7 383.305 354.469 383.305 362.819C383.305 371.168 390.074 377.937 398.423 377.937Z" fill="#343F48" stroke="#669E5C" stroke-width="3.1538" stroke-miterlimit="10"/>
<path d="M390.268 359.572C389.886 359.572 389.566 359.439 389.309 359.172C389.058 358.906 388.932 358.514 388.932 357.996C388.932 357.55 389.017 357.156 389.186 356.812C389.36 356.463 389.583 356.166 389.854 355.919C390.13 355.667 390.418 355.473 390.718 355.338L391.241 355.795C391.13 355.844 390.977 355.94 390.784 356.086C390.595 356.226 390.423 356.396 390.268 356.594C390.113 356.793 390.036 357.001 390.036 357.219C390.084 357.165 390.164 357.127 390.275 357.102C390.387 357.073 390.498 357.059 390.609 357.059C390.852 357.059 391.077 357.151 391.285 357.335C391.498 357.519 391.604 357.807 391.604 358.199C391.604 358.62 391.476 358.954 391.22 359.201C390.963 359.448 390.646 359.572 390.268 359.572ZM393.633 358.286L392.108 359.085V357.023L394.781 355.534H395.805V365.12H393.633V358.286ZM397.979 365.12L400.934 361.663C400.876 361.721 400.775 361.779 400.629 361.838C400.484 361.891 400.293 361.917 400.056 361.917C399.557 361.917 399.075 361.789 398.61 361.533C398.15 361.276 397.77 360.91 397.47 360.436C397.175 359.957 397.027 359.385 397.027 358.722C397.027 358.068 397.187 357.49 397.506 356.986C397.831 356.483 398.262 356.086 398.799 355.795C399.337 355.505 399.932 355.359 400.586 355.359C401.254 355.359 401.857 355.497 402.394 355.773C402.932 356.045 403.36 356.439 403.68 356.957C404.004 357.47 404.166 358.085 404.166 358.802C404.166 359.591 404.038 360.257 403.781 360.799C403.525 361.336 403.232 361.804 402.903 362.201L400.52 365.12H397.979ZM400.593 360.182C400.879 360.182 401.135 360.114 401.363 359.978C401.595 359.843 401.779 359.659 401.915 359.426C402.055 359.194 402.125 358.937 402.125 358.657C402.125 358.376 402.055 358.119 401.915 357.887C401.779 357.654 401.595 357.47 401.363 357.335C401.13 357.199 400.874 357.131 400.593 357.131C400.312 357.131 400.056 357.202 399.823 357.342C399.596 357.478 399.412 357.662 399.271 357.894C399.136 358.122 399.068 358.376 399.068 358.657C399.068 358.937 399.136 359.194 399.271 359.426C399.412 359.659 399.598 359.843 399.83 359.978C400.063 360.114 400.317 360.182 400.593 360.182Z" fill="#E4002B"/>
</g>
<defs>
<clipPath id="clip0_0_1935">
<rect width="455" height="414" fill="white"/>
</clipPath>
</defs>
</svg>
