<svg width="191" height="306" viewBox="0 0 191 306" fill="none" xmlns="http://www.w3.org/2000/svg">
<path d="M86.1436 104.265C86.1436 104.265 87.0618 94.4935 87.9914 94.5727C88.9209 94.652 89.063 96.3845 88.9549 97.2255C88.8468 98.0655 88.995 101.33 88.995 101.33L86.1436 104.265Z" fill="#FFBE9D"/>
<path d="M169.963 96.2621L165.285 129.172L186.919 223.607L127.208 228.387L152.902 76.3071C152.902 76.3071 169.919 74.4109 169.963 96.2621Z" fill="#263238"/>
<path d="M96.5581 262.5L93.1106 301.475H107.846L114.34 262.5H96.5581Z" fill="#FFBE9D"/>
<path d="M93.1106 301.475C93.1106 301.475 83.1707 302.758 81.396 304.042L107.447 303.728L107.846 301.476H93.1106V301.475Z" fill="#FFBE9D"/>
<path d="M81.396 304.042V305.083L108.225 304.798V303.677L81.396 304.042Z" fill="#E8505B"/>
<path d="M90.8861 304.643C90.7492 304.703 90.322 303.905 89.4573 303.278C88.6059 302.633 87.7186 302.457 87.7361 302.308C87.7248 302.171 88.7768 302.125 89.764 302.864C90.7574 303.594 91.0199 304.614 90.8861 304.643Z" fill="#E8505B"/>
<path d="M108.181 300.698C108.208 300.85 106.391 301.206 104.356 302.17C102.311 303.116 100.873 304.281 100.774 304.163C100.679 304.074 102.013 302.687 104.138 301.703C106.254 300.705 108.174 300.568 108.181 300.698Z" fill="#E8505B"/>
<path d="M107.578 300.064C107.571 300.206 104.325 300.158 100.329 299.956C96.3316 299.754 93.0983 299.476 93.1055 299.333C93.1127 299.191 96.3574 299.24 100.355 299.442C104.351 299.643 107.585 299.922 107.578 300.064Z" fill="#E8505B"/>
<path d="M109.307 294.941C109.333 295.081 105.761 295.85 101.33 296.659C96.8989 297.468 93.2867 298.01 93.2609 297.87C93.2352 297.73 96.8062 296.961 101.238 296.152C105.668 295.343 109.282 294.801 109.307 294.941Z" fill="#E8505B"/>
<path d="M109.044 295.123C109.034 295.182 108.261 295.136 107.098 294.7C106.521 294.479 105.849 294.158 105.168 293.696C104.825 293.462 104.488 293.209 104.144 292.897C103.973 292.734 103.796 292.533 103.696 292.262C103.6 291.986 103.595 291.665 103.777 291.373C103.967 291.068 104.353 290.976 104.616 291.01C104.892 291.035 105.122 291.126 105.329 291.212C105.752 291.386 106.137 291.604 106.478 291.846C107.161 292.332 107.663 292.907 108 293.434C108.678 294.502 108.741 295.305 108.691 295.308C108.605 295.336 108.415 294.59 107.701 293.643C107.347 293.173 106.852 292.664 106.209 292.237C105.887 292.025 105.529 291.832 105.14 291.681C104.759 291.51 104.322 291.438 104.208 291.656C104.051 291.9 104.195 292.271 104.494 292.534C104.793 292.814 105.125 293.079 105.44 293.307C106.076 293.77 106.702 294.109 107.241 294.366C108.326 294.869 109.062 295.043 109.044 295.123Z" fill="#E8505B"/>
<path d="M108.911 295.473C108.867 295.496 108.516 294.789 108.544 293.551C108.559 292.938 108.684 292.203 108.997 291.445C109.153 291.066 109.361 290.687 109.618 290.32C109.746 290.133 109.885 289.964 110.047 289.781C110.212 289.611 110.455 289.394 110.817 289.397C111.18 289.413 111.431 289.653 111.564 289.905C111.695 290.169 111.71 290.434 111.705 290.665C111.684 291.12 111.611 291.545 111.497 291.941C111.271 292.734 110.886 293.379 110.504 293.859C109.715 294.818 108.981 295.113 108.961 295.065C108.909 294.993 109.548 294.592 110.212 293.642C110.534 293.165 110.857 292.551 111.038 291.818C111.13 291.455 111.187 291.058 111.199 290.657C111.231 290.271 111.045 289.92 110.802 289.914C110.577 289.888 110.261 290.304 110.027 290.617C109.787 290.948 109.586 291.292 109.432 291.637C109.119 292.327 108.966 293.004 108.907 293.578C108.788 294.731 109 295.454 108.911 295.473Z" fill="#E8505B"/>
<path d="M110.895 301.555C110.774 301.619 109.985 300.316 109.413 298.538C108.835 296.761 108.711 295.243 108.846 295.224C108.992 295.199 109.338 296.646 109.903 298.379C110.46 300.115 111.027 301.49 110.895 301.555Z" fill="#E8505B"/>
<path d="M112.654 300.172C112.577 300.281 111.245 299.406 110.05 297.87C108.847 296.341 108.319 294.836 108.444 294.789C108.581 294.725 109.297 296.082 110.456 297.553C111.604 299.031 112.749 300.054 112.654 300.172Z" fill="#E8505B"/>
<path d="M151.544 265.695L181.723 289.619L188.904 279.117L161.915 249.745L151.544 265.695Z" fill="#FFBE9D"/>
<path d="M179.592 290.205C179.592 290.205 174.952 299.089 174.988 301.279L189.649 279.742L188.03 278.126L179.592 290.205Z" fill="#FFBE9D"/>
<path d="M174.988 301.279L175.842 301.876L190.971 279.718L190.053 279.076L174.988 301.279Z" fill="#E8505B"/>
<path d="M180.916 293.844C180.886 293.991 179.988 293.884 178.978 294.234C177.961 294.563 177.309 295.188 177.196 295.09C177.078 295.021 177.643 294.132 178.815 293.746C179.982 293.349 180.968 293.719 180.916 293.844Z" fill="#E8505B"/>
<path d="M187.585 277.407C187.725 277.471 186.978 279.166 186.601 281.386C186.206 283.604 186.338 285.45 186.183 285.464C186.056 285.491 185.684 283.603 186.094 281.298C186.487 278.99 187.474 277.338 187.585 277.407Z" fill="#E8505B"/>
<path d="M186.761 276.837C186.873 276.925 185.159 279.32 182.933 282.188C180.707 285.056 178.811 287.311 178.698 287.223C178.586 287.136 180.299 284.741 182.527 281.872C184.752 279.004 186.649 276.75 186.761 276.837Z" fill="#E8505B"/>
<path d="M183.51 273.187C183.64 273.246 182.402 276.227 180.747 279.843C179.092 283.46 177.645 286.344 177.516 286.285C177.387 286.226 178.623 283.246 180.279 279.629C181.934 276.012 183.381 273.127 183.51 273.187Z" fill="#E8505B"/>
<path d="M183.509 273.506C183.552 273.547 183.071 274.154 182.048 274.859C181.535 275.205 180.888 275.572 180.119 275.867C179.731 276.014 179.33 276.146 178.878 276.25C178.647 276.296 178.381 276.327 178.1 276.253C177.819 276.172 177.553 275.993 177.418 275.677C177.276 275.347 177.422 274.978 177.6 274.782C177.778 274.569 177.985 274.434 178.174 274.313C178.559 274.065 178.959 273.875 179.352 273.734C180.142 273.453 180.9 273.369 181.525 273.395C182.789 273.45 183.483 273.858 183.456 273.902C183.431 273.988 182.711 273.717 181.525 273.759C180.937 273.78 180.236 273.895 179.518 274.177C179.16 274.319 178.797 274.503 178.45 274.734C178.092 274.948 177.783 275.266 177.895 275.485C178.006 275.752 178.393 275.847 178.78 275.753C179.181 275.668 179.588 275.548 179.955 275.42C180.699 275.164 181.336 274.844 181.855 274.549C182.889 273.95 183.453 273.447 183.509 273.506Z" fill="#E8505B"/>
<path d="M183.72 273.816C183.713 273.865 182.932 273.748 181.934 273.016C181.44 272.653 180.909 272.13 180.467 271.438C180.246 271.093 180.053 270.705 179.9 270.285C179.818 270.073 179.761 269.862 179.703 269.624C179.658 269.392 179.619 269.068 179.829 268.773C180.05 268.485 180.39 268.417 180.673 268.452C180.964 268.494 181.191 268.635 181.376 268.771C181.737 269.048 182.044 269.351 182.303 269.672C182.824 270.311 183.132 270.994 183.307 271.583C183.641 272.779 183.462 273.55 183.412 273.538C183.324 273.54 183.362 272.787 182.961 271.699C182.754 271.161 182.435 270.546 181.938 269.976C181.693 269.691 181.401 269.419 181.078 269.179C180.78 268.93 180.387 268.883 180.241 269.079C180.091 269.25 180.252 269.746 180.374 270.116C180.508 270.502 180.676 270.865 180.869 271.189C181.256 271.841 181.723 272.354 182.16 272.731C183.041 273.492 183.756 273.732 183.72 273.816Z" fill="#E8505B"/>
<path d="M189.842 275.673C189.825 275.809 188.305 275.709 186.52 275.159C184.732 274.616 183.416 273.848 183.478 273.726C183.542 273.593 184.925 274.137 186.67 274.666C188.412 275.204 189.864 275.527 189.842 275.673Z" fill="#E8505B"/>
<path d="M189.715 273.438C189.76 273.564 188.28 274.155 186.338 274.254C184.395 274.365 182.859 273.936 182.891 273.808C182.918 273.658 184.44 273.848 186.31 273.741C188.179 273.646 189.673 273.293 189.715 273.438Z" fill="#E8505B"/>
<path d="M122.446 148.117C122.446 148.117 110.92 224.687 112.597 228.387C114.274 232.089 151.605 270.312 151.605 270.312L165.615 246.317C165.615 246.317 140.911 218.949 141.265 217.528C141.62 216.107 159.076 141.959 159.076 141.959L122.446 148.117Z" fill="#E8505B"/>
<path d="M125.111 242.88L134.95 221.268L146.327 196.985C139.532 206.928 133.543 217.414 128.788 228.731C126.911 233.375 125.683 238.091 125.111 242.88Z" fill="#E8505B"/>
<path opacity="0.4" d="M125.111 242.88L134.95 221.268L146.327 196.985C139.532 206.928 133.543 217.414 128.788 228.731C126.911 233.375 125.683 238.091 125.111 242.88Z" fill="black"/>
<path d="M118.35 176.382C118.465 175.57 127.762 154.658 127.762 154.658L123.247 148.29L122.446 148.117L118.35 176.382Z" fill="#E8505B"/>
<path opacity="0.4" d="M118.35 176.382C118.465 175.57 127.762 154.658 127.762 154.658L123.247 148.29L122.446 148.117L118.35 176.382Z" fill="black"/>
<path d="M165.62 140.91L166.317 143.752C168.368 152.123 167.109 160.963 162.802 168.428L131.551 222.598C129.337 226.434 127.722 230.587 126.762 234.912L118.98 269.941C118.98 269.941 94.4138 270.774 93.3484 269.941C92.283 269.107 96.5179 245.938 99.3395 228.387C101.468 215.15 119.182 174.061 127.763 154.658L122.448 148.117L131.683 146.575L165.62 140.91Z" fill="#E8505B"/>
<path d="M118.98 269.941C118.982 269.976 118.623 270.033 117.971 270.105C117.319 270.179 116.374 270.257 115.204 270.333C112.865 270.487 109.626 270.6 106.051 270.593C102.474 270.583 99.2397 270.473 96.8999 270.359C95.7305 270.301 94.7844 270.244 94.1308 270.191C93.4781 270.139 93.1168 270.092 93.1178 270.057C93.1188 270.021 93.4822 270 94.1369 269.99C94.9069 269.991 95.8303 269.994 96.9101 269.995C99.3807 270.017 102.548 270.045 106.052 270.077C109.62 270.084 112.849 270.03 115.188 269.969C116.266 269.943 117.189 269.921 117.958 269.904C118.613 269.895 118.976 269.906 118.98 269.941Z" fill="#263238"/>
<path d="M120.332 263.367C120.331 263.509 114.424 263.603 107.14 263.576C99.8532 263.549 93.9486 263.412 93.9496 263.269C93.9506 263.127 99.8563 263.034 107.142 263.062C114.428 263.088 120.333 263.225 120.332 263.367Z" fill="#263238"/>
<path d="M161.322 241.378C161.352 241.398 161.163 241.742 160.794 242.345C160.36 243.039 159.829 243.885 159.206 244.88C157.783 247.114 155.941 250.006 153.904 253.203C151.879 256.41 150.049 259.309 148.635 261.547C148 262.537 147.46 263.377 147.019 264.065C146.629 264.655 146.399 264.973 146.369 264.955C146.338 264.936 146.51 264.584 146.847 263.962C147.183 263.341 147.688 262.45 148.324 261.358C149.596 259.174 151.404 256.185 153.47 252.927C155.536 249.67 157.468 246.762 158.902 244.68C159.618 243.639 160.208 242.803 160.628 242.234C161.046 241.665 161.292 241.359 161.322 241.378Z" fill="#263238"/>
<path d="M150.132 268.261C149.998 268.306 149.462 266.865 148.936 265.044C148.411 263.223 148.097 261.719 148.235 261.685C148.373 261.651 148.908 263.092 149.431 264.902C149.954 266.712 150.267 268.217 150.132 268.261Z" fill="#263238"/>
<path d="M152.31 268.194C152.17 268.218 151.652 265.803 151.155 262.802C150.656 259.801 150.367 257.349 150.507 257.325C150.647 257.301 151.165 259.716 151.663 262.718C152.16 265.719 152.451 268.171 152.31 268.194Z" fill="#263238"/>
<path d="M155.17 264.123C155.027 264.15 154.517 262.031 153.877 259.425C153.241 256.817 152.716 254.703 152.855 254.661C152.988 254.62 153.737 256.679 154.378 259.302C155.021 261.924 155.307 264.098 155.17 264.123Z" fill="#263238"/>
<path d="M157.594 258.501C157.455 258.533 156.934 256.497 156.429 253.955C155.925 251.411 155.629 249.331 155.769 249.307C155.909 249.283 156.431 251.318 156.935 253.854C157.437 256.389 157.733 258.47 157.594 258.501Z" fill="#263238"/>
<path d="M160.737 253.837C160.591 253.857 160.216 251.823 159.636 249.346C159.062 246.867 158.5 244.876 158.64 244.829C158.769 244.784 159.557 246.721 160.137 249.229C160.724 251.734 160.873 253.821 160.737 253.837Z" fill="#263238"/>
<path d="M163.531 249.883C163.393 249.917 162.867 248.279 162.357 246.224C161.846 244.168 161.543 242.474 161.681 242.439C161.819 242.406 162.345 244.043 162.856 246.099C163.367 248.155 163.669 249.849 163.531 249.883Z" fill="#263238"/>
<path d="M106.191 263.109C106.253 263.242 103.473 264.657 100.078 266.458C96.6785 268.254 93.9444 269.756 93.8693 269.63C93.8343 269.571 94.4725 269.116 95.5462 268.448C96.6198 267.781 98.132 266.905 99.8367 266.003C101.541 265.101 103.115 264.343 104.271 263.832C105.426 263.319 106.161 263.046 106.191 263.109Z" fill="#263238"/>
<path d="M113.758 263.224C113.792 263.285 113.057 263.771 111.826 264.485C110.596 265.2 108.868 266.135 106.922 267.098C104.976 268.059 103.181 268.863 101.867 269.407C100.552 269.95 99.7194 270.24 99.6916 270.176C99.6628 270.109 100.443 269.702 101.716 269.075C103.167 268.364 104.843 267.544 106.694 266.636C108.538 265.717 110.208 264.885 111.654 264.164C112.926 263.534 113.723 263.161 113.758 263.224Z" fill="#263238"/>
<path d="M119.532 263.222C119.619 263.331 117.499 265.162 114.708 267.191C111.918 269.224 109.524 270.678 109.448 270.562C109.368 270.441 111.624 268.799 114.405 266.774C117.185 264.752 119.442 263.108 119.532 263.222Z" fill="#263238"/>
<path d="M120.158 266.845C120.245 266.958 119.285 267.841 118.016 268.818C116.746 269.795 115.646 270.496 115.559 270.383C115.472 270.27 116.432 269.387 117.702 268.409C118.971 267.432 120.072 266.731 120.158 266.845Z" fill="#263238"/>
<path d="M99.4672 262.981C99.5403 263.104 98.1166 264.087 96.2884 265.177C94.4601 266.267 92.9191 267.053 92.846 266.93C92.7729 266.808 94.1956 265.826 96.0248 264.734C97.8531 263.644 99.3941 262.859 99.4672 262.981Z" fill="#263238"/>
<path d="M127.087 154.51C127.154 154.54 126.634 155.841 125.781 157.935C124.927 160.028 123.752 162.921 122.501 166.135C121.251 169.351 120.164 172.277 119.379 174.398C118.593 176.518 118.098 177.828 118.028 177.805C117.994 177.794 118.074 177.451 118.246 176.842C118.416 176.231 118.685 175.355 119.035 174.278C119.734 172.124 120.77 169.171 122.021 165.947C123.275 162.726 124.506 159.849 125.447 157.789C125.918 156.759 126.311 155.931 126.597 155.366C126.881 154.801 127.054 154.495 127.087 154.51Z" fill="#263238"/>
<path d="M124.518 245.33C124.5 245.328 124.515 245.119 124.56 244.723C124.618 244.272 124.691 243.699 124.78 242.992C124.871 242.239 125.008 241.322 125.239 240.27C125.459 239.216 125.667 238.004 126.038 236.699C126.211 236.041 126.391 235.354 126.579 234.64C126.779 233.927 127.029 233.199 127.266 232.437C127.718 230.906 128.348 229.321 128.966 227.638C130.298 224.308 131.945 220.721 133.885 217.068C137.803 209.774 141.997 203.559 145.074 199.11C146.616 196.885 147.889 195.105 148.781 193.882C149.204 193.309 149.548 192.845 149.817 192.481C150.059 192.164 150.193 192.002 150.208 192.012C150.222 192.022 150.117 192.204 149.903 192.54C149.654 192.919 149.337 193.402 148.945 193.997C148.065 195.308 146.855 197.112 145.376 199.316C142.379 203.814 138.243 210.047 134.34 217.312C132.408 220.951 130.757 224.513 129.407 227.815C128.78 229.485 128.139 231.055 127.673 232.572C127.429 233.326 127.17 234.049 126.96 234.754C126.763 235.462 126.572 236.143 126.391 236.793C125.999 238.086 125.767 239.286 125.522 240.329C125.265 241.371 125.1 242.28 124.98 243.026C124.851 243.726 124.746 244.293 124.665 244.738C124.585 245.127 124.535 245.332 124.518 245.33Z" fill="#263238"/>
<path d="M155.164 76.4141L130.986 78.4708C130.986 78.4708 123.731 78.6386 115.877 97.0382L110.193 115.259L120.415 117.437L120.437 118.437L122.447 148.117L166.084 141.049C166.183 137.281 164.063 131.789 162.457 126.623C164.086 122.551 170.979 104.807 170.966 96.261C170.938 77.9921 155.164 76.4141 155.164 76.4141Z" fill="white"/>
<path d="M165.615 246.317C165.646 246.334 165.486 246.689 165.17 247.318C164.855 247.948 164.376 248.846 163.769 249.946C162.555 252.148 160.804 255.148 158.831 258.434C156.885 261.663 155.126 264.582 153.765 266.84C153.16 267.838 152.645 268.687 152.223 269.383C151.854 269.982 151.634 270.304 151.603 270.286C151.573 270.269 151.732 269.914 152.048 269.285C152.363 268.656 152.842 267.758 153.449 266.658C154.663 264.456 156.414 261.456 158.388 258.169C160.334 254.941 162.093 252.021 163.453 249.765C164.058 248.767 164.573 247.917 164.995 247.221C165.364 246.622 165.584 246.3 165.615 246.317Z" fill="#263238"/>
<path d="M159.881 120.053C159.916 120.185 158.411 120.69 156.478 120.946C154.544 121.208 152.96 121.117 152.959 120.979C152.956 120.833 154.511 120.693 156.41 120.436C158.308 120.184 159.845 119.911 159.881 120.053Z" fill="white"/>
<path d="M122.557 118.604L122.055 150.811L135.131 77.4518C130.788 76.6808 122.686 80.1025 119.641 84.4374C117.463 87.0263 116.264 92.9989 110.193 110.971L106.464 123.168L91.3575 106.625L81.1664 115.828C81.1664 115.828 98.7373 144.518 106.07 146.107C116.062 148.273 122.557 118.604 122.557 118.604Z" fill="#455A64"/>
<path d="M124.646 88.7979C124.681 88.8051 124.632 89.2519 124.513 90.0528C124.373 90.9566 124.198 92.092 123.989 93.4426C123.542 96.3033 122.953 100.258 122.411 104.641C121.87 109.026 121.479 113.006 121.216 115.89C121.091 117.251 120.985 118.394 120.9 119.305C120.821 120.111 120.76 120.557 120.724 120.555C120.689 120.553 120.682 120.104 120.7 119.293C120.716 118.482 120.767 117.309 120.852 115.862C121.022 112.967 121.356 108.972 121.898 104.579C122.441 100.186 123.089 96.2313 123.628 93.3819C123.897 91.9572 124.133 90.8073 124.315 90.0167C124.495 89.2251 124.611 88.7907 124.646 88.7979Z" fill="#263238"/>
<path d="M121.258 87.3835C121.202 87.2415 123.235 86.3819 125.534 84.9582C127.841 83.5469 129.524 82.1201 129.626 82.2334C129.719 82.326 128.161 83.9535 125.803 85.3967C123.454 86.8503 121.298 87.5091 121.258 87.3835Z" fill="white"/>
<path d="M117.074 108.626C116.93 108.656 116.478 106.975 115.812 104.943C115.152 102.909 114.526 101.285 114.66 101.224C114.784 101.165 115.631 102.717 116.301 104.784C116.977 106.848 117.209 108.601 117.074 108.626Z" fill="white"/>
<path d="M127.682 97.0384C127.818 97.0445 127.819 98.9798 127.376 101.317C126.941 103.655 126.237 105.458 126.108 105.415C125.967 105.37 126.442 103.525 126.87 101.222C127.306 98.9211 127.534 97.0281 127.682 97.0384Z" fill="white"/>
<path d="M112.972 125.112C113.116 125.143 112.87 126.823 112.657 128.898C112.439 130.974 112.334 132.668 112.188 132.668C112.05 132.67 111.923 130.952 112.145 128.845C112.36 126.739 112.837 125.082 112.972 125.112Z" fill="white"/>
<path d="M93.6428 124.86C93.5317 124.938 92.177 123.169 90.9087 120.74C89.6333 118.313 88.9508 116.192 89.0774 116.145C89.2164 116.092 90.1048 118.105 91.3648 120.501C92.6165 122.899 93.7664 124.777 93.6428 124.86Z" fill="white"/>
<path d="M104.705 125.618C104.779 125.734 103.562 126.621 101.881 127.385C100.201 128.154 98.7343 128.491 98.6951 128.359C98.6509 128.219 100.021 127.671 101.667 126.917C103.315 126.167 104.628 125.492 104.705 125.618Z" fill="white"/>
<path d="M157.063 135.826L164.63 225.758L187.414 223.608L165.78 129.173L168.423 103.82L157.063 135.826Z" fill="#455A64"/>
<path d="M164.63 225.76C164.487 225.771 162.815 205.819 160.893 181.202C158.971 156.577 157.528 136.611 157.67 136.6C157.812 136.589 159.485 156.537 161.406 181.162C163.328 205.779 164.772 225.749 164.63 225.76Z" fill="#263238"/>
<path d="M162.432 137.905C162.301 137.85 162.732 136.522 163.395 134.94C164.059 133.357 164.703 132.119 164.834 132.174C164.965 132.228 164.534 133.556 163.871 135.139C163.207 136.721 162.562 137.959 162.432 137.905Z" fill="white"/>
<path d="M168.72 151.28C168.602 151.372 167.462 150.063 165.873 148.651C164.291 147.231 162.861 146.247 162.94 146.119C163.006 146.002 164.591 146.811 166.217 148.268C167.846 149.716 168.829 151.201 168.72 151.28Z" fill="white"/>
<path d="M167.336 169.33C167.212 169.246 168.004 167.926 168.76 166.202C169.525 164.481 169.968 163.007 170.114 163.042C170.247 163.068 170.02 164.637 169.231 166.41C168.451 168.186 167.444 169.41 167.336 169.33Z" fill="white"/>
<path d="M172.239 183.816C172.145 183.923 170.738 182.857 169.095 181.434C167.451 180.01 166.195 178.77 166.288 178.662C166.381 178.555 167.789 179.621 169.432 181.044C171.076 182.467 172.332 183.708 172.239 183.816Z" fill="white"/>
<path d="M176.383 193.759C176.241 193.758 176.138 191.811 176.154 189.413C176.169 187.012 176.297 185.069 176.439 185.069C176.581 185.07 176.684 187.015 176.668 189.416C176.653 191.815 176.525 193.76 176.383 193.759Z" fill="white"/>
<path d="M169.057 200.514C168.91 200.516 168.782 198.959 168.511 197.063C168.247 195.165 167.938 193.635 168.08 193.596C168.212 193.558 168.751 195.056 169.021 196.991C169.298 198.925 169.194 200.515 169.057 200.514Z" fill="white"/>
<path d="M176.606 209.117C176.585 209.258 175.126 209.157 173.349 208.892C171.571 208.628 170.146 208.299 170.168 208.158C170.188 208.017 171.647 208.118 173.425 208.383C175.203 208.647 176.626 208.976 176.606 209.117Z" fill="white"/>
<path d="M175.383 220.559C175.264 220.48 176.089 219.025 177.224 217.308C178.36 215.591 179.377 214.263 179.495 214.341C179.614 214.419 178.79 215.875 177.654 217.592C176.518 219.309 175.501 220.638 175.383 220.559Z" fill="white"/>
<path d="M123.476 146.732L85.2017 94.5862C87.4437 92.8506 89.5695 90.9329 91.5438 88.8205C101.16 78.5285 106.193 65.1072 105.716 51.029C105.239 36.9519 99.3076 23.9021 89.0156 14.2865C78.7236 4.66978 65.2992 -0.361945 51.2251 0.11364C37.147 0.591284 24.0983 6.52271 14.4816 16.8147C4.86487 27.1067 -0.168919 40.5281 0.309754 54.6052C1.2321 81.7609 22.6365 103.485 49.1509 105.411C51.01 105.546 52.8969 105.585 54.8013 105.52C62.5949 105.255 70.0705 103.312 76.8265 99.8897L115.503 152.583C117.119 154.785 120.215 155.259 122.417 153.643C124.618 152.028 125.092 148.934 123.476 146.732ZM54.4647 95.6352C52.9154 95.6887 51.3868 95.6578 49.8725 95.5477C28.3332 93.9799 10.9415 76.3308 10.192 54.2706C9.39117 30.6602 27.9483 10.8009 51.5577 9.99901C53.1172 9.94651 54.6644 9.97636 56.1982 10.0875C65.9189 10.7937 75.0394 14.7641 82.2607 21.5129C90.6225 29.3261 95.4412 39.9279 95.8293 51.3646C96.2173 62.8023 92.1286 73.7058 84.3164 82.0686C76.5032 90.4295 65.9024 95.2471 54.4647 95.6352Z" fill="#263238"/>
<path d="M108.278 118.377L103.741 133.862C103.741 133.862 127.495 142.502 140.36 142.343C152.414 142.195 155.867 140.829 160.109 131.094C164.352 121.359 169.164 110.179 170.173 103.738C170.173 103.738 176.977 74.0958 151.021 76.7424L150.319 99.9287C150.319 99.9287 147.444 109.43 147.237 109.98C145.299 115.109 142.79 122.617 140.361 123.525C137.932 124.433 108.278 118.377 108.278 118.377Z" fill="#455A64"/>
<path d="M145.558 130.784C145.444 130.862 144.235 129.294 143.01 127.19C141.781 125.087 141.01 123.264 141.135 123.203C141.266 123.139 142.236 124.845 143.455 126.931C144.669 129.019 145.678 130.703 145.558 130.784Z" fill="#263238"/>
<path d="M147.994 128.361C147.907 128.473 146.362 127.422 144.544 126.013C142.725 124.603 141.321 123.369 141.408 123.257C141.496 123.145 143.04 124.196 144.859 125.605C146.678 127.014 148.082 128.248 147.994 128.361Z" fill="#263238"/>
<path d="M156.057 86.0925C156.188 86.1471 154.965 89.3958 153.327 93.3477C151.687 97.3017 150.252 100.461 150.12 100.406C149.988 100.352 151.211 97.104 152.851 93.1501C154.49 89.1982 155.926 86.0379 156.057 86.0925Z" fill="#263238"/>
<path d="M169.135 108.153C169.168 108.165 169.048 108.585 168.8 109.333C168.507 110.178 168.143 111.235 167.71 112.488C166.768 115.144 165.441 118.806 163.87 122.811C162.297 126.818 160.745 130.396 159.526 132.942C158.918 134.215 158.407 135.235 158.03 135.929C157.656 136.624 157.435 137.001 157.403 136.984C157.371 136.969 157.532 136.562 157.85 135.841C158.21 135.023 158.66 134.002 159.195 132.789C160.327 130.212 161.82 126.622 163.391 122.622C164.924 118.667 166.311 115.09 167.369 112.36C167.884 111.048 168.307 109.989 168.612 109.262C168.917 108.537 169.101 108.14 169.135 108.153Z" fill="#263238"/>
<path d="M130.984 122.833C130.959 122.973 125.787 122.152 119.434 120.999C113.078 119.846 107.947 118.797 107.973 118.657C107.999 118.517 113.17 119.338 119.525 120.491C125.88 121.645 131.01 122.693 130.984 122.833Z" fill="#263238"/>
<path d="M157.921 108.692C157.779 108.69 157.689 106.815 157.72 104.504C157.752 102.193 157.892 100.322 158.035 100.323C158.177 100.325 158.267 102.2 158.236 104.511C158.204 106.822 158.063 108.693 157.921 108.692Z" fill="white"/>
<path d="M148.674 137.177C148.549 137.096 149.298 135.76 150.038 134.038C150.787 132.319 151.249 130.859 151.393 130.895C151.526 130.923 151.279 132.476 150.51 134.243C149.748 136.011 148.785 137.254 148.674 137.177Z" fill="white"/>
<path d="M136.104 136.376C135.969 136.433 135.143 134.775 134.041 132.784C132.943 130.789 131.98 129.207 132.101 129.124C132.214 129.044 133.38 130.513 134.492 132.535C135.609 134.553 136.23 136.323 136.104 136.376Z" fill="white"/>
<path d="M118.752 128.361C118.805 128.494 117.299 129.214 115.389 129.972C113.478 130.73 111.888 131.237 111.835 131.104C111.783 130.973 113.289 130.251 115.199 129.493C117.109 128.736 118.7 128.229 118.752 128.361Z" fill="white"/>
<path d="M167.463 91.9847C167.35 92.0866 166.208 90.9151 164.56 89.791C162.92 88.6535 161.418 88.005 161.472 87.8629C161.509 87.7363 163.148 88.1872 164.852 89.3669C166.562 90.5363 167.569 91.9044 167.463 91.9847Z" fill="white"/>
<path d="M160.053 117.581C160.088 117.714 158.279 118.282 155.967 118.571C153.655 118.867 151.763 118.766 151.763 118.629C151.761 118.482 153.624 118.352 155.902 118.06C158.18 117.776 160.018 117.438 160.053 117.581Z" fill="white"/>
<path d="M157.614 38.2264C158.833 35.622 162.173 34.4166 164.941 35.1938C167.709 35.97 169.819 38.3942 170.735 41.1201C171.651 43.8449 171.504 46.8291 170.89 49.6384C170.444 51.6828 169.835 54.0772 171.199 55.6635C172.466 57.1376 174.83 57.1026 176.294 58.3821C177.746 59.6514 177.829 62.1776 176.463 63.5395C175.096 64.9014 172.57 64.8097 171.306 63.3542C171.322 64.7892 172.082 66.0924 172.535 67.4543C172.987 68.8162 173.039 70.5353 171.939 71.4566C171.123 72.1412 169.899 72.1453 168.912 71.7459C167.925 71.3454 167.119 70.6074 166.336 69.8837C166.779 71.3681 166.851 73.0059 166.278 74.445C165.704 75.8841 164.418 77.0823 162.885 77.3067C160.969 77.5867 159.076 76.2989 158.154 74.5973C157.231 72.8957 157.114 70.8719 157.252 68.9408C157.467 65.9339 158.249 62.9959 158.617 60.0035C158.984 57.011 158.903 53.8394 157.502 51.1691" fill="#E8505B"/>
<path d="M175.062 55.7716C175.067 55.7808 174.936 55.8508 174.671 55.8189C174.416 55.785 174.017 55.61 173.763 55.1529C173.483 54.7082 173.597 53.9166 174.189 53.4564C174.748 52.9448 175.81 52.9592 176.502 53.5882C177.23 54.2017 177.481 55.3289 177.2 56.3511C177.061 56.8648 176.79 57.3764 176.359 57.7738C175.926 58.1732 175.333 58.4089 174.727 58.4439C174.12 58.483 173.493 58.3492 172.932 58.0476C172.368 57.7398 171.906 57.2642 171.568 56.7114C170.883 55.5986 170.717 54.2007 170.902 52.8862C171.287 50.2396 172.56 48.0202 172.532 45.8018C172.59 43.5978 171.856 41.6605 170.989 40.2451C170.101 38.8224 169.075 37.8929 168.316 37.3442C167.555 36.7873 167.069 36.5742 167.095 36.5238C167.102 36.5073 167.227 36.5536 167.457 36.6555C167.693 36.7482 168.02 36.9252 168.43 37.1795C169.241 37.689 170.338 38.6032 171.298 40.0495C172.235 41.4886 173.042 43.4908 173.009 45.8111C173.05 48.1715 171.762 50.4568 171.414 52.9531C171.24 54.1956 171.399 55.4576 172.001 56.4499C172.573 57.4546 173.654 58.0424 174.7 57.9714C175.76 57.9498 176.555 57.1417 176.791 56.2379C177.054 55.3454 176.847 54.3767 176.264 53.863C175.687 53.3236 174.85 53.2856 174.37 53.685C173.862 54.0556 173.741 54.6783 173.947 55.0654C174.136 55.4689 174.474 55.6583 174.697 55.7191C174.924 55.7778 175.058 55.7479 175.062 55.7716Z" fill="#E8505B"/>
<path d="M151.246 77.3232L152.62 45.9058L140.145 36.4548L128.804 41.9992C128.804 41.9992 128.425 56.2379 128.804 62.4133C129.182 68.5877 135.408 69.2476 135.408 69.2476C135.408 69.2476 135.263 72.8659 135.12 76.6685C134.947 81.27 138.655 85.0839 143.259 85.0396C147.55 84.9985 151.058 81.6086 151.246 77.3232Z" fill="#FFBE9D"/>
<path d="M130.038 52.3787C130.038 52.8152 130.393 53.1693 130.829 53.1693C131.264 53.1693 131.62 52.8162 131.62 52.3787C131.62 51.9412 131.265 51.5881 130.829 51.5881C130.394 51.5881 130.038 51.9423 130.038 52.3787Z" fill="#263238"/>
<path d="M129.274 51.5171C129.377 51.619 129.959 51.1228 130.811 51.0775C131.661 51.0188 132.3 51.4409 132.389 51.3266C132.432 51.2762 132.327 51.0878 132.047 50.8963C131.773 50.7059 131.309 50.5309 130.779 50.5638C130.25 50.5968 129.81 50.8253 129.561 51.0487C129.307 51.2721 129.224 51.4718 129.274 51.5171Z" fill="#263238"/>
<path d="M139.197 52.3787C139.197 52.8152 139.55 53.1693 139.988 53.1693C140.424 53.1693 140.778 52.8162 140.778 52.3787C140.778 51.9412 140.425 51.5881 139.988 51.5881C139.551 51.5881 139.197 51.9423 139.197 52.3787Z" fill="#263238"/>
<path d="M138.706 51.5171C138.808 51.619 139.392 51.1228 140.243 51.0775C141.093 51.0188 141.732 51.4409 141.821 51.3266C141.864 51.2762 141.759 51.0878 141.479 50.8963C141.205 50.7059 140.741 50.5309 140.211 50.5638C139.682 50.5968 139.242 50.8253 138.993 51.0487C138.739 51.2721 138.657 51.4718 138.706 51.5171Z" fill="#263238"/>
<path d="M138.447 59.5083C137.388 60.0323 135.512 60.7878 134.333 60.9248C134.333 60.9248 135.382 62.4225 137.154 61.7246C138.989 61.003 138.447 59.5083 138.447 59.5083Z" fill="white"/>
<path d="M135.405 69.2463C135.405 69.2463 139.562 69.2926 143.585 66.4834C143.585 66.4834 141.73 71.0169 135.54 70.7616L135.405 69.2463Z" fill="#EB996E"/>
<path d="M170.585 63.6567C170.037 63.6876 169.222 63.5981 168.347 63.1503C167.466 62.719 166.595 61.9026 165.907 60.7847C165.208 59.6771 164.665 58.3049 164.083 56.873C162.93 54.003 162.059 51.3389 161.47 49.3974C161.378 49.0907 161.293 48.8096 161.213 48.541C161.16 48.2105 161.108 47.9151 161.05 47.6989C157.681 34.8221 146.364 32.4215 144.125 32.4215C141.723 32.4215 137.523 31.1008 131.4 37.4635C130.374 38.531 129.632 39.6099 129.077 40.6701C127.499 42.6507 126.665 44.8382 126.348 46.4853C125.975 48.366 126.133 49.5549 126.205 49.5498C126.321 49.5549 126.34 48.3835 126.821 46.5975C127.056 45.7019 127.438 44.6467 128.004 43.5576C127.111 47.5445 128.632 50.6698 128.632 50.6698L130.829 50.0655L138.693 47.3901C137.978 44.9545 139.03 41.9301 139.625 40.5209L139.684 40.4663C141.484 49.7093 150.08 50.5617 150.08 50.5617L151.533 70.7843C161.987 68.5505 161.749 54.562 161.683 51.7198C162.157 53.3225 162.774 55.1611 163.549 57.0891C164.135 58.5262 164.697 59.9169 165.461 61.074C166.207 62.2341 167.197 63.106 168.174 63.5209C169.143 63.9563 170.038 63.9851 170.611 63.8812C171.192 63.77 171.467 63.5837 171.453 63.5569C171.435 63.5085 171.135 63.6187 170.585 63.6567Z" fill="#E8505B"/>
<path d="M135.637 58.7033C135.638 58.656 135.106 58.5932 134.245 58.5293C134.028 58.5191 133.814 58.4872 133.769 58.3266C133.71 58.1608 133.794 57.9086 133.889 57.6399C134.074 57.081 134.268 56.4932 134.473 55.8766C134.878 54.6217 135.226 53.4811 135.461 52.6494C135.697 51.8176 135.82 51.2968 135.774 51.2813C135.73 51.2669 135.525 51.762 135.231 52.5742C134.936 53.3864 134.551 54.5157 134.147 55.7706C133.952 56.3903 133.765 56.9811 133.589 57.5422C133.516 57.8046 133.385 58.1032 133.504 58.4316C133.568 58.5952 133.729 58.7064 133.867 58.7383C134.006 58.7744 134.128 58.7702 134.236 58.7713C135.099 58.7733 135.635 58.7507 135.637 58.7033Z" fill="#263238"/>
<path d="M153.276 58.4458C153.239 57.4164 153.236 56.3571 153.608 55.3967C153.978 54.4362 154.805 53.5859 155.828 53.4789C157.007 53.3564 158.147 54.3353 158.336 55.5058C158.523 56.6752 157.842 57.894 156.808 58.4746C155.776 59.0562 154.467 59.0387 153.378 58.5703" fill="#FFBE9D"/>
<path d="M155.077 57.5473C155.115 57.4793 155.411 57.6306 155.847 57.4978C156.285 57.3918 156.735 56.8926 156.772 56.1854C156.797 55.8395 156.722 55.5183 156.552 55.3629C156.379 55.1971 156.1 55.1498 155.879 55.1621C155.415 55.2023 155.09 55.3258 155.063 55.2476C155.044 55.1961 155.272 54.9593 155.824 54.8029C156.099 54.7411 156.497 54.7246 156.861 55.0036C157.224 55.3011 157.316 55.7942 157.286 56.2204C157.258 56.6609 157.09 57.0779 156.825 57.3743C156.563 57.6759 156.205 57.8283 155.916 57.8561C155.306 57.9148 155.026 57.5843 155.077 57.5473Z" fill="#EB996E"/>
<path d="M156.929 58.3882C156.96 58.3408 157.393 58.7073 157.386 59.538C157.378 59.9354 157.217 60.448 156.804 60.8258C156.406 61.2005 155.789 61.4445 155.14 61.3426C154.493 61.2324 153.987 60.8042 153.729 60.3214C153.458 59.8304 153.47 59.293 153.59 58.9142C153.849 58.1257 154.376 57.9157 154.391 57.9713C154.449 58.03 154.066 58.3326 153.944 58.9997C153.888 59.326 153.918 59.7285 154.142 60.0867C154.357 60.4439 154.758 60.7568 155.224 60.8341C155.691 60.9092 156.17 60.7414 156.488 60.4717C156.814 60.2041 156.972 59.8324 157.022 59.5051C157.121 58.8349 156.854 58.4253 156.929 58.3882Z" fill="#263238"/>
<path d="M153.304 54.1347C153.317 54.1542 153.06 54.3745 152.508 54.6247C151.96 54.8748 151.097 55.1229 150.005 55.1332C148.919 55.1373 147.607 54.8861 146.323 54.2139C145.036 53.5459 143.839 52.4444 142.892 51.0887C140.989 48.3371 140.458 45.3044 140.157 43.2209C140.016 42.1637 139.942 41.3052 139.902 40.7112C139.863 40.1173 139.86 39.7879 139.895 39.7838C139.974 39.7735 140.154 41.0798 140.517 43.1643C140.906 45.2211 141.491 48.161 143.314 50.7943C144.221 52.0934 145.349 53.1454 146.547 53.796C147.745 54.4517 148.978 54.7286 150.011 54.7698C152.113 54.8429 153.27 54.0276 153.304 54.1347Z" fill="#E8505B"/>
<path d="M160.23 45.2892C160.078 45.3283 159.616 43.5031 158.405 41.573C157.214 39.6305 155.784 38.4066 155.886 38.2871C155.952 38.177 157.594 39.2682 158.843 41.3012C160.108 43.323 160.359 45.2799 160.23 45.2892Z" fill="#263238"/>
<path d="M104.198 132.303L100.566 132.263C97.2642 131.941 95.4144 131.889 94.4931 131.011C93.2588 129.834 94.9553 128.679 94.9553 128.679C94.9553 128.679 92.565 127.86 92.7894 126.402C92.9418 125.409 94.0751 125.296 94.0751 125.296C94.0751 125.296 91.9669 124.474 91.55 123.596C90.9818 122.398 92.4703 121.758 92.4703 121.758C89.5952 119.986 89.8567 118.234 90.5196 118.059C91.1836 117.884 93.4277 118.914 93.4277 118.914C95.3218 119.456 100.487 121.033 98.5726 118.183C96.6579 115.333 96.2606 112.422 96.7001 111.559C97.1407 110.696 98.5016 110.995 98.6715 112.047C98.8084 112.898 99.4775 114.244 100.021 115.234C100.47 116.051 101.049 116.792 101.744 117.411C102.556 118.134 103.272 118.713 103.893 119.192L107.125 122.312L104.198 132.303Z" fill="#FFBE9D"/>
<path d="M81.5885 96.0367C81.8531 95.2543 82.4975 94.6964 83.1995 95.0639C83.531 95.4304 83.5403 95.9317 83.4311 96.2724L81.1881 103.576L81.1912 103.582L83.3158 98.4198C83.5804 97.6374 84.2897 97.1659 84.7776 97.5901C85.0473 97.8248 85.0576 98.4352 84.9495 98.7749L83.0122 104.837L84.5892 101.048C84.9186 100.182 85.3057 99.9515 85.7453 100.14C86.1797 100.326 86.1982 100.972 86.0891 101.311L84.7539 105.788C85.0411 106.647 86.0294 109.354 85.0792 110.878C85.0309 110.955 85.1739 111.206 85.1708 111.29L85.6217 111.806L82.6437 114.495C82.6437 114.495 79.8941 107.542 79.3732 105.459C78.9182 103.637 79.3331 102.439 79.5359 101.811L81.5885 96.0367Z" fill="#FFBE9D"/>
</svg>
