<svg width="85" height="81" viewBox="0 0 85 81" fill="none" xmlns="http://www.w3.org/2000/svg">
<path d="M85 40.5C85 34.7765 81.9544 29.7313 77.3223 26.7548C78.3883 21.5307 76.7982 15.9118 72.5521 11.8621C68.306 7.81585 62.4096 6.3006 56.924 7.31639C53.8005 2.90226 48.5062 0 42.5 0C36.4938 0 31.1995 2.90226 28.076 7.31639C22.594 6.3006 16.694 7.81585 12.4479 11.8621C8.20182 15.9084 6.61174 21.5273 7.67769 26.7548C3.04558 29.7313 0 34.7765 0 40.5C0 46.2235 3.04558 51.2687 7.67769 54.2452C6.61174 59.4693 8.20182 65.0916 12.4479 69.1379C16.694 73.1842 22.5904 74.6994 28.076 73.6836C31.1995 78.0977 36.4938 81 42.5 81C48.5062 81 53.8005 78.0977 56.924 73.6836C62.4061 74.6994 68.306 73.1842 72.5521 69.1379C76.7982 65.0916 78.3883 59.4727 77.3223 54.2452C81.9544 51.2687 85 46.2235 85 40.5ZM42.1813 52.0382C40.8108 53.3442 39.0082 53.9955 37.1986 53.9955C35.3889 53.9955 33.5687 53.3374 32.184 52.0213L22.3319 42.9231L27.265 38.0736L37.1561 47.2089L57.7279 27.9697L62.7 32.7786L42.1813 52.0382Z" fill="#E4002B"/>
</svg>
