<svg width="450" height="278" viewBox="0 0 450 278" fill="none" xmlns="http://www.w3.org/2000/svg">
<path d="M417.055 273.68H33.1891C24.9076 273.68 18.1938 266.966 18.1938 258.684V14.9953C18.1938 6.71376 24.9076 0 33.1891 0H417.055C425.337 0 432.05 6.71376 432.05 14.9953V258.684C432.05 266.966 425.337 273.68 417.055 273.68Z" fill="#263238"/>
<path d="M430.949 277.384H19.2077C9.08973 277.384 0.886414 269.182 0.886414 259.063V253.437H449.269V259.063C449.269 269.182 441.067 277.384 430.949 277.384Z" fill="#263238"/>
<path d="M419.784 10.8726H29.3021V241.991H419.784V10.8726Z" fill="#E0E0E0"/>
<path d="M184.324 253.437L189.888 262.288H268.182L273.348 253.437H184.324Z" fill="#455A64"/>
<path d="M409.176 241.251H40.7151C38.8539 241.251 37.3458 239.742 37.3458 237.882V22.0663C37.3458 20.2051 38.8539 18.697 40.7151 18.697H409.177C411.037 18.697 412.545 20.2051 412.545 22.0663V237.883C412.545 239.743 411.036 241.251 409.176 241.251Z" fill="#455A64"/>
<path d="M412.545 35.0039H37.3458V241.252H412.545V35.0039Z" fill="#FAFAFA"/>
<path d="M68.1178 27.2915C68.1178 28.9468 66.7765 30.2881 65.1212 30.2881C63.4659 30.2881 62.1256 28.9468 62.1256 27.2915C62.1256 25.6362 63.467 24.2959 65.1212 24.2959C66.7755 24.2959 68.1178 25.6372 68.1178 27.2915Z" fill="#E8505B"/>
<path d="M49.9571 27.2915C49.9571 28.9468 48.6157 30.2881 46.9605 30.2881C45.3062 30.2881 43.9639 28.9468 43.9639 27.2915C43.9639 25.6362 45.3062 24.2959 46.9605 24.2959C48.6157 24.2959 49.9571 25.6372 49.9571 27.2915Z" fill="#E8505B"/>
<path d="M58.674 27.2915C58.674 28.9468 57.3327 30.2881 55.6775 30.2881C54.0222 30.2881 52.6808 28.9468 52.6808 27.2915C52.6808 25.6362 54.0222 24.2959 55.6775 24.2959C57.3327 24.2959 58.674 25.6372 58.674 27.2915Z" fill="#E8505B"/>
<path d="M317.984 120.909C317.984 120.909 318.378 120.871 319.146 120.822C319.528 120.784 320 120.694 320.561 120.603C321.11 120.452 321.758 120.315 322.452 120.026C323.837 119.484 325.508 118.573 327.025 116.99C327.788 116.205 328.481 115.243 329.088 114.143C329.676 113.031 330.118 111.751 330.359 110.356C330.861 107.579 330.364 104.241 328.461 101.353C326.598 98.4729 323.203 96.166 319.185 95.781C318.189 95.712 317.154 95.7202 316.104 95.7254C315.054 95.7274 313.988 95.7285 312.904 95.7305C310.736 95.7336 308.5 95.7367 306.198 95.7408C301.595 95.747 296.729 95.7532 291.62 95.7604C250.737 95.7799 194.276 95.8077 131.917 95.8386C128.099 95.8427 124.332 97.6689 122.072 100.705C120.929 102.2 120.12 103.947 119.749 105.783C119.39 107.62 119.444 109.53 119.906 111.328C120.798 114.952 123.441 118.022 126.779 119.526C128.443 120.298 130.266 120.665 132.091 120.645C133.945 120.645 135.792 120.646 137.63 120.646C152.335 120.651 166.521 120.657 180.034 120.662C207.057 120.683 231.392 120.703 251.833 120.719C272.263 120.755 288.797 120.784 300.236 120.805C305.943 120.826 310.376 120.844 313.396 120.855C314.893 120.867 316.036 120.876 316.819 120.882C317.589 120.89 317.984 120.909 317.984 120.909C317.984 120.909 317.589 120.927 316.818 120.937C316.035 120.943 314.892 120.951 313.395 120.963C310.375 120.975 305.942 120.992 300.235 121.014C288.795 121.034 272.261 121.063 251.832 121.099C231.391 121.116 207.057 121.135 180.033 121.157C166.52 121.162 152.335 121.167 137.629 121.172C135.791 121.172 133.945 121.173 132.09 121.173C130.205 121.195 128.291 120.813 126.559 120.009C123.077 118.442 120.32 115.242 119.388 111.461C118.906 109.584 118.85 107.594 119.224 105.677C119.61 103.761 120.454 101.938 121.646 100.378C124.001 97.2129 127.934 95.3044 131.915 95.3013C194.274 95.3322 250.735 95.3599 291.618 95.3795C296.727 95.3867 301.593 95.3929 306.196 95.398C308.498 95.4011 310.734 95.4052 312.902 95.4083C313.986 95.4104 315.053 95.4114 316.102 95.4135C317.151 95.4124 318.182 95.4063 319.212 95.4804C323.326 95.8891 326.786 98.2639 328.673 101.211C330.603 104.166 331.089 107.571 330.563 110.39C330.311 111.807 329.854 113.104 329.251 114.229C328.627 115.342 327.919 116.311 327.14 117.1C325.591 118.692 323.894 119.596 322.49 120.126C321.788 120.409 321.132 120.54 320.577 120.683C320.01 120.767 319.535 120.848 319.15 120.878C318.378 120.908 317.984 120.909 317.984 120.909Z" fill="#263238"/>
<path d="M317.984 120.909H293.635V95.5688H317.984C324.982 95.5688 330.654 101.241 330.654 108.239C330.654 115.237 324.982 120.909 317.984 120.909Z" fill="#E8505B"/>
<path d="M313.728 105.855C313.676 105.857 313.681 105.425 313.475 104.703C313.272 103.993 312.778 102.961 311.708 102.171C310.672 101.38 308.979 100.943 307.346 101.557C305.727 102.12 304.332 103.844 304.35 105.854C304.331 107.865 305.726 109.589 307.346 110.152C308.98 110.766 310.673 110.329 311.709 109.538C312.779 108.749 313.273 107.716 313.476 107.006C313.681 106.284 313.676 105.851 313.728 105.855C313.746 105.855 313.758 105.961 313.766 106.165C313.777 106.369 313.757 106.675 313.678 107.058C313.529 107.813 313.066 108.945 311.937 109.839C310.849 110.735 308.998 111.27 307.176 110.618C305.371 110.023 303.791 108.105 303.812 105.855C303.791 103.605 305.371 101.688 307.176 101.094C308.998 100.441 310.848 100.975 311.936 101.871C313.064 102.765 313.527 103.897 313.677 104.652C313.757 105.035 313.776 105.34 313.766 105.545C313.758 105.749 313.746 105.855 313.728 105.855Z" fill="white"/>
<path d="M320.208 113.907C320.125 114.029 318.372 112.998 316.294 111.603C314.214 110.207 312.596 108.977 312.679 108.853C312.761 108.731 314.513 109.762 316.592 111.157C318.672 112.552 320.29 113.783 320.208 113.907Z" fill="white"/>
<path d="M134.973 115.363C134.825 115.363 134.706 112.155 134.706 108.198C134.706 104.239 134.826 101.031 134.973 101.031C135.121 101.031 135.241 104.239 135.241 108.198C135.242 112.155 135.122 115.363 134.973 115.363Z" fill="#455A64"/>
<path d="M164.986 164.622H104.159V223.472H164.986V164.622Z" fill="#E0E0E0"/>
<path d="M108.875 218.435L125.702 188.151L139.465 207.508L147.828 197.229L160.27 218.435H108.875Z" fill="#E8505B"/>
<path d="M145.327 182.262C145.327 184.68 143.368 186.639 140.95 186.639C138.532 186.639 136.572 184.679 136.572 182.262C136.572 179.845 138.532 177.885 140.95 177.885C143.368 177.884 145.327 179.844 145.327 182.262Z" fill="#E8505B"/>
<path d="M160.27 218.599C160.266 218.595 160.261 218.514 160.256 218.358C160.253 218.182 160.247 217.958 160.242 217.672C160.235 217.046 160.225 216.162 160.213 215.023C160.198 212.689 160.176 209.314 160.149 205.029C160.119 196.433 160.075 184.192 160.022 169.496L160.27 169.744C145.385 169.756 127.74 169.769 108.88 169.785C108.811 169.846 109.424 169.24 109.165 169.504V169.517V169.543V169.595V169.7V169.91V170.33V171.168V172.84C109.165 173.953 109.165 175.059 109.164 176.163C109.164 178.368 109.163 180.553 109.163 182.715C109.16 187.04 109.158 191.274 109.156 195.396C109.147 203.638 109.136 211.43 109.128 218.599L108.876 218.347C124.214 218.401 137.028 218.445 146.037 218.476C150.528 218.503 154.07 218.526 156.518 218.542C157.714 218.554 158.643 218.564 159.298 218.571C159.599 218.578 159.835 218.582 160.018 218.586C160.181 218.59 160.265 218.594 160.27 218.599C160.275 218.603 160.2 218.608 160.046 218.614C159.868 218.617 159.641 218.622 159.352 218.628C158.707 218.634 157.795 218.644 156.621 218.657C154.186 218.672 150.664 218.695 146.197 218.723C137.15 218.754 124.281 218.798 108.875 218.851L108.623 218.852V218.598C108.615 211.43 108.605 203.638 108.595 195.395C108.593 191.274 108.591 187.039 108.588 182.714C108.587 180.551 108.586 178.367 108.586 176.162C108.586 175.059 108.585 173.952 108.585 172.839V171.167V170.329V169.909V169.699V169.594V169.542V169.516V169.503C108.326 169.757 108.936 169.14 108.879 169.205C127.74 169.221 145.384 169.234 160.269 169.245L160.519 169.246L160.518 169.496C160.465 184.257 160.421 196.552 160.391 205.187C160.363 209.449 160.341 212.805 160.326 215.125C160.312 216.243 160.303 217.111 160.297 217.725C160.291 218 160.287 218.215 160.282 218.385C160.279 218.532 160.275 218.603 160.27 218.599Z" fill="#455A64"/>
<path d="M261.807 164.622H200.981V223.472H261.807V164.622Z" fill="#E8505B"/>
<path d="M205.697 218.435L222.523 188.151L236.287 207.508L244.649 197.229L257.092 218.435H205.697Z" fill="#E0E0E0"/>
<path d="M242.149 182.262C242.149 184.68 240.19 186.639 237.772 186.639C235.354 186.639 233.394 184.679 233.394 182.262C233.394 179.845 235.354 177.885 237.772 177.885C240.19 177.884 242.149 179.844 242.149 182.262Z" fill="#E0E0E0"/>
<path d="M257.092 218.599C257.088 218.595 257.083 218.514 257.077 218.358C257.074 218.182 257.069 217.958 257.064 217.672C257.057 217.046 257.047 216.162 257.035 215.023C257.02 212.689 256.998 209.314 256.97 205.029C256.94 196.433 256.896 184.192 256.844 169.496L257.092 169.744C242.207 169.756 224.562 169.769 205.702 169.785C205.633 169.846 206.245 169.24 205.987 169.504V169.517V169.543V169.595V169.7V169.91V170.33V171.168V172.84C205.987 173.953 205.987 175.059 205.986 176.163C205.986 178.368 205.985 180.553 205.985 182.715C205.982 187.04 205.98 191.274 205.978 195.396C205.969 203.638 205.958 211.43 205.95 218.599L205.698 218.347C221.036 218.401 233.85 218.445 242.858 218.476C247.35 218.503 250.892 218.526 253.34 218.542C254.536 218.554 255.464 218.564 256.12 218.571C256.421 218.578 256.656 218.582 256.84 218.586C257.002 218.59 257.087 218.594 257.092 218.599C257.097 218.603 257.022 218.608 256.867 218.614C256.689 218.617 256.463 218.622 256.174 218.628C255.529 218.634 254.617 218.644 253.443 218.657C251.008 218.672 247.485 218.695 243.019 218.723C233.971 218.754 221.103 218.798 205.697 218.851L205.445 218.852V218.598C205.436 211.43 205.427 203.638 205.417 195.395C205.415 191.274 205.413 187.039 205.41 182.714C205.409 180.551 205.407 178.367 205.407 176.162C205.407 175.059 205.406 173.952 205.406 172.839V171.167V170.329V169.909V169.699V169.594V169.542V169.516V169.503C205.148 169.757 205.757 169.14 205.701 169.205C224.562 169.221 242.206 169.234 257.091 169.245L257.341 169.246L257.34 169.496C257.286 184.257 257.243 196.552 257.212 205.187C257.184 209.449 257.163 212.805 257.147 215.125C257.134 216.243 257.125 217.111 257.119 217.725C257.112 218 257.108 218.215 257.104 218.385C257.101 218.532 257.097 218.603 257.092 218.599Z" fill="#455A64"/>
<path d="M358.629 164.622H297.803V223.472H358.629V164.622Z" fill="#E0E0E0"/>
<path d="M302.518 218.435L319.345 188.151L333.108 207.508L341.471 197.229L353.913 218.435H302.518Z" fill="#E8505B"/>
<path d="M338.971 182.262C338.971 184.68 337.012 186.639 334.594 186.639C332.176 186.639 330.216 184.679 330.216 182.262C330.216 179.845 332.176 177.885 334.594 177.885C337.012 177.884 338.971 179.844 338.971 182.262Z" fill="#E8505B"/>
<path d="M353.913 218.599C353.909 218.595 353.904 218.514 353.899 218.358C353.896 218.182 353.891 217.958 353.886 217.672C353.878 217.046 353.868 216.162 353.857 215.023C353.841 212.689 353.82 209.314 353.792 205.029C353.762 196.433 353.718 184.192 353.665 169.496L353.913 169.744C339.028 169.756 321.383 169.769 302.524 169.785C302.455 169.846 303.067 169.24 302.809 169.504V169.517V169.543V169.595V169.7V169.91V170.33V171.168V172.84C302.809 173.953 302.809 175.059 302.808 176.163C302.808 178.368 302.807 180.553 302.807 182.715C302.804 187.04 302.801 191.274 302.799 195.396C302.79 203.638 302.78 211.43 302.772 218.599L302.519 218.347C317.858 218.401 330.672 218.445 339.68 218.476C344.171 218.503 347.713 218.526 350.161 218.542C351.357 218.554 352.286 218.564 352.942 218.571C353.242 218.578 353.478 218.582 353.661 218.586C353.824 218.59 353.908 218.594 353.913 218.599C353.919 218.603 353.843 218.608 353.689 218.614C353.511 218.617 353.284 218.622 352.995 218.628C352.351 218.634 351.439 218.644 350.264 218.657C347.83 218.672 344.307 218.695 339.84 218.723C330.793 218.754 317.924 218.798 302.518 218.851L302.266 218.852V218.598C302.258 211.43 302.249 203.638 302.238 195.395C302.236 191.274 302.234 187.039 302.231 182.714C302.23 180.551 302.229 178.367 302.229 176.162C302.229 175.059 302.228 173.952 302.228 172.839V171.167V170.329V169.909V169.699V169.594V169.542V169.516V169.503C301.97 169.757 302.579 169.14 302.522 169.205C321.383 169.221 339.027 169.234 353.912 169.245L354.163 169.246L354.162 169.496C354.108 184.257 354.065 196.552 354.034 205.187C354.006 209.449 353.984 212.805 353.969 215.125C353.956 216.243 353.947 217.111 353.94 217.725C353.934 218 353.93 218.215 353.926 218.385C353.923 218.532 353.919 218.603 353.913 218.599Z" fill="#455A64"/>
<path d="M263.463 65.7778H186.427V72.2343H263.463V65.7778Z" fill="#455A64"/>
<path d="M428.494 253.437C428.494 253.586 336.638 253.705 223.353 253.705C110.029 253.705 18.1927 253.585 18.1927 253.437C18.1927 253.289 110.029 253.17 223.353 253.17C336.638 253.17 428.494 253.289 428.494 253.437Z" fill="#455A64"/>
</svg>
