<svg width="405" height="236" viewBox="0 0 405 236" fill="none" xmlns="http://www.w3.org/2000/svg">
<rect width="405" height="236" fill="white"/>
<path d="M262.653 125.141C262.086 125.916 261.114 128.047 260.076 130.408C259.956 130.63 259.834 130.859 259.713 131.085C259.803 130.884 259.901 130.686 259.988 130.486C259.934 130.614 259.866 130.737 259.793 130.858C259.757 130.956 259.734 131.019 259.703 131.102C258.583 133.19 257.438 135.382 256.447 136.837C255.663 137.628 255.189 138.164 254.386 139.069C253.113 140.501 255.188 136.604 255.676 135.585C254.556 136.859 253.264 138.769 251.673 140.979C251.527 141.156 251.375 141.354 251.228 141.537C253.313 138.441 255.121 135.178 256.629 131.781L256.762 132.002C257.456 130.451 257.947 129.57 258.326 128.587C258.741 127.619 259.171 126.601 259.754 124.803C259.766 124.764 259.778 124.731 259.792 124.688L259.786 124.698C259.317 125.254 258.842 126.374 258.325 127.654C258.197 127.967 258.059 128.305 257.926 128.632C263.595 113.783 263.753 96.8095 257.027 81.0338C256.035 78.7039 254.906 76.4759 253.677 74.3309C255.118 76.4192 256.431 78.5579 257.643 80.7712C257.867 79.9497 258.145 79.1314 257.748 77.1513C257.525 76.1734 257.233 74.8488 256.491 73.1848C256.096 72.3655 255.624 71.4432 255.061 70.4001C254.771 69.877 254.467 69.3255 254.146 68.7435C253.833 68.149 253.459 67.5492 253.001 66.9536C252.036 65.5218 250.955 64.1436 249.816 62.7948C249.639 62.5469 249.471 62.3022 249.286 62.0511C248.499 61.1036 247.679 60.1162 246.83 59.0941C246.397 58.5815 245.958 58.0615 245.512 57.5321C245.035 57.031 244.519 56.5541 244.011 56.053C241.284 53.9732 237.358 51.0718 233.093 48.6999C232.276 48.2503 231.465 47.8039 230.656 47.3585C230.327 47.1242 229.999 46.891 229.668 46.6547C228.627 46.2282 227.17 45.6315 225.691 45.0265C225.03 44.7366 224.357 44.4403 223.742 44.1704C222.791 43.7911 221.864 43.5275 221.042 43.2428C213 40.1314 204.7 38.8236 196.667 39.019C188.63 39.2175 180.814 40.8699 173.608 43.9172C172.147 44.3889 170.812 45.1662 169.426 45.8269C168.071 46.5496 166.634 47.1253 165.356 47.9866L161.483 50.4857L160.523 51.1149L159.627 51.8334L157.843 53.2736C155.394 55.0982 153.34 57.343 151.228 59.4408C150.201 60.5185 149.323 61.7223 148.383 62.8453C147.78 63.5764 147.202 64.3169 146.653 65.0743C146.396 65.4052 146.108 65.8128 145.782 66.337C145.13 66.9483 144.274 67.7855 143.255 68.9263C142.191 70.0366 141.268 71.648 140.111 73.5367C137.166 78.7974 134.21 85.4079 132.984 92.0572L132.698 93.281L132.53 94.5163C132.425 95.3346 132.322 96.1445 132.22 96.9439C132.126 97.7401 132.035 98.5259 131.944 99.298C131.857 100.068 131.901 100.836 131.881 101.577C131.875 103.064 131.892 104.476 131.936 105.787C132.028 107.098 132.266 108.307 132.452 109.391C132.404 110.378 132.382 111.396 132.382 112.404C132.424 113.408 132.577 114.393 132.69 115.33C132.976 117.197 133.159 118.884 133.579 119.988C134.452 123.035 135.54 126.164 136.831 129.302C136.854 129.367 136.876 129.431 136.898 129.496C139.421 136.51 143.284 143.43 148.104 148.813C147.998 148.645 147.768 148.312 147.628 148.093C147.834 148.353 148.052 148.602 148.262 148.857C148.555 149.254 148.886 149.65 149.252 150.053C151.91 153.148 154.834 155.987 157.951 158.426C158.864 159.067 159.786 159.716 160.711 160.367C161.637 161.017 162.537 161.715 163.539 162.249C164.516 162.824 165.49 163.397 166.456 163.966L167.899 164.816C168.391 165.07 168.897 165.292 169.389 165.529C173.297 167.513 177.193 168.869 180.439 169.752C182.41 170.14 184.271 170.542 186.06 170.934C187.88 171.18 189.625 171.416 191.332 171.646C191.835 171.725 192.337 171.772 192.838 171.807C192.881 171.813 192.922 171.818 192.964 171.823C193.087 171.84 193.218 171.854 193.344 171.869C193.459 171.883 193.567 171.895 193.677 171.907C194.01 171.945 194.347 171.981 194.699 172.011C194.747 172.015 194.804 172.022 194.85 172.025L194.851 172.023C195.606 172.086 196.388 172.137 197.196 172.179C196.328 172.128 195.569 172.068 194.866 172.004L194.949 171.902C195.432 171.918 195.914 171.937 196.393 171.968C197.139 171.994 197.883 172.031 198.627 172.042C198.856 172.053 199.072 172.08 199.305 172.084C200.825 172.062 202.393 172.038 203.867 172.016C205.349 172.054 206.709 171.817 207.838 171.739C208.964 171.64 209.848 171.589 210.339 171.619C212.323 170.858 208.386 171.531 204.91 171.97C206.729 171.752 208.706 171.386 210.73 171.073C212.752 170.742 214.75 170.077 216.711 169.63C216.95 169.571 217.183 169.513 217.419 169.454C217.009 169.577 216.618 169.7 216.252 169.818C215.156 170.171 214.161 170.488 212.751 170.668C211.829 171.051 212.199 171.074 213.422 170.882C217.239 170.084 224.103 167.715 224.412 167.25C224.423 167.247 224.438 167.242 224.449 167.239C225.16 167.007 225.789 166.753 226.364 166.58L228.021 165.454L228.803 165.161C228.595 165.212 228.36 165.279 228.119 165.35C232.564 163.058 237.227 160.345 239.93 157.634C240.206 157.305 240.403 157.056 240.548 156.859C241.762 156.143 240.04 157.475 239.728 157.924C240.423 157.386 241.095 156.904 241.674 156.415C242.223 155.891 242.723 155.413 243.172 154.983C244.054 154.115 244.686 153.424 244.981 152.948L242.568 155.114L241.362 156.193L240.645 156.726C240.852 156.431 240.9 156.295 240.87 156.238C241.149 155.961 241.413 155.687 241.651 155.414C242.629 154.318 243.406 153.47 243.811 153.156C247.266 150.149 249.726 147.646 251.901 145.24C251.857 145.343 251.809 145.449 251.761 145.551C251.539 145.838 251.308 146.139 251.064 146.457C249.698 148.199 247.849 150.069 247.148 150.891L250.164 148.039C250.441 147.638 250.715 147.236 250.937 146.796C251.298 146.328 251.502 146.118 251.623 146.029C251.646 146.039 251.69 146.025 251.763 145.977C251.789 145.988 251.8 146.018 251.807 146.042L251.948 145.834C252.031 145.765 252.127 145.681 252.247 145.568L252.272 145.361L253.336 143.807C253.363 143.733 253.36 143.705 253.34 143.703C253.804 143.234 254.266 142.771 254.769 142.212C255.547 141.211 256.462 139.936 257.728 137.881C257.748 137.824 257.779 137.738 257.81 137.648C258.829 136.054 259.835 134.28 260.849 132.174C261.155 131.736 261.614 130.098 261.993 128.513C262.033 128.4 262.065 128.313 262.107 128.194C262.426 126.914 262.556 126.215 262.548 125.939C262.631 125.483 262.675 125.173 262.653 125.141ZM252.337 144.817L252.345 144.746C252.405 144.678 252.468 144.61 252.528 144.543C252.6 144.466 252.671 144.392 252.743 144.318C252.622 144.463 252.485 144.632 252.337 144.817Z" fill="#EFC5CD"/>
<path d="M261.218 82.6145L260.786 81.3855C260.761 81.3445 260.745 81.3256 260.723 81.292C260.863 81.6702 261.025 82.1061 261.197 82.6261C261.208 82.6303 261.21 82.6145 261.218 82.6145Z" fill="#EFC5CD"/>
<path d="M260.723 81.2932C260.531 80.769 260.387 80.3709 260.374 80.1482C259.809 79.2501 260.33 80.8888 261.037 82.9519C261.988 85.0422 259.773 79.8478 260.723 81.2932Z" fill="#EFC5CD"/>
<path d="M261.097 80.7234C261.601 81.9976 262.315 84.0848 261.941 83.5963L262.815 85.3642L260.682 79.4775C260.92 80.6519 261.507 82.5995 261.217 82.6205L262.099 85.13C261.378 82.6867 261.338 81.9272 261.097 80.7234Z" fill="#EFC5CD"/>
<path d="M264.772 94.3834C264.708 94.3497 264.726 94.8792 264.753 95.4905C264.796 95.3676 264.812 95.0598 264.772 94.3834Z" fill="#EFC5CD"/>
<path d="M264.753 95.4962C264.586 95.9773 263.978 93.4363 264.415 97.8334C264.346 96.596 264.276 95.3523 264.544 95.8922L264.695 97.1811C264.857 97.5152 264.795 96.4143 264.753 95.4962Z" fill="#EFC5CD"/>
<path d="M261.987 86.4777C261.875 85.9651 261.706 85.4682 261.568 84.9619C261.424 85.2981 261.73 85.9829 261.931 86.9378C262.152 87.8853 262.437 89.0534 262.543 90.2383L262.841 91.1217L262.275 88.0303L261.987 86.4777Z" fill="#EFC5CD"/>
<path d="M248.258 151.035L248.022 151.18C247.913 151.33 247.776 151.519 247.656 151.686C247.838 151.489 248.018 151.295 248.258 151.035Z" fill="#C3D8CC"/>
<path d="M245.865 153.264C245.439 153.58 244.986 153.958 243.812 155.142C244.899 154.251 246.027 153.39 247.092 152.458C247.305 152.165 247.47 151.938 247.656 151.683C246.715 152.725 246.284 152.941 245.865 153.264Z" fill="#C3D8CC"/>
<path d="M247.609 151.442L248.021 151.193C249.131 149.732 250.046 148.802 251.107 147.725C252.059 146.564 253.141 145.241 254.604 143.074C253.38 144.548 252.181 146.075 251.059 147.552C249.819 148.949 248.648 150.27 247.609 151.442Z" fill="#C3D8CC"/>
<path d="M55.0522 99.3643V99.7246C53.9691 99.7246 53.0541 100.4 53.0541 101.94V111.929C53.0541 117.61 50.0202 119.751 46.0966 120.329L46 119.969C48.0705 119.223 50.0203 117.296 50.0203 112.073V104.876C50.0203 100.35 49.9961 99.7246 48.143 99.7246V99.3643H55.0522Z" fill="black"/>
<path d="M85.7496 116.31H79.5631V115.95C81.1515 115.95 80.4056 113.976 80.1157 113.302L79.3457 111.376H73.3757C73.0385 112.338 71.7632 116.095 75.3496 115.95V116.31H69.6926V115.95C70.4616 115.926 71.0635 115.95 73.279 110.341L77.396 99.3643H77.709C82.138 109.981 83.7515 114.097 83.7515 114.097C84.5457 116.022 85.0993 115.903 85.7496 115.951V116.31ZM79.2007 111.015L76.2163 103.505L73.4482 111.015H79.2007Z" fill="black"/>
<path d="M122.625 115.949V116.309H115.909V115.949C116.919 115.949 117.642 115.251 117.642 113.446V100.399L111.551 116.527H111.191L104.45 101.94V110.269C104.45 111.664 104.642 115.95 107.652 115.95V116.31H100.599V115.95C103.872 115.95 104.09 111.641 104.09 110.269V101.362C103.199 99.7739 101.995 99.7739 101.393 99.7246V99.3643H106.835L112.853 112.291L117.643 99.3643H122.458V99.7246C121.422 99.7246 120.603 100.302 120.603 101.843V113.447C120.603 115.251 121.59 115.949 122.625 115.949Z" fill="black"/>
<path d="M145.107 99.3643V99.7246C144.071 99.7246 143.23 100.255 143.23 101.748V113.566C143.23 115.204 144.096 115.95 145.107 115.95V116.31H138.39V115.95C139.426 115.95 140.269 115.204 140.269 113.566V101.748C140.269 100.255 139.449 99.7246 138.39 99.7246V99.3643H145.107Z" fill="black"/>
<path d="M173.684 111.184V116.31H160.854V115.95C161.864 115.95 162.202 114.891 162.202 113.253V102.301C162.202 100.809 161.913 99.7246 160.854 99.7246V99.3643H173.372V103.818H173.01C172.602 99.7487 167.257 99.7246 166.27 99.7246H165.187V107.572H166.39C166.727 107.572 169.832 107.572 170.026 105.118H170.386V110.413H170.026C169.833 107.934 166.704 107.934 166.39 107.934H165.187V115.95H166.174C167.232 115.95 172.552 115.998 173.323 111.184H173.684Z" fill="black"/>
<path d="M207.604 113.516C207.604 115.467 206.16 116.381 204.836 116.526C204.836 116.526 202.454 116.743 201.49 115.322L200.142 113.349C199.227 116.094 194.292 118.138 191.885 114.792C189.478 111.496 192.631 108.847 194.533 107.738L195.736 107.017L194.46 105.091C192.198 101.962 193.715 98.9525 196.411 98.4945C198.024 98.2057 199.155 98.6395 199.901 99.483C200.84 100.589 201.899 103.43 198.241 106.03L201.274 110.531C202.189 108.51 203.417 108.052 204.042 107.908C204.548 107.788 205.222 107.836 205.656 108.196C206.233 108.653 206.353 109.544 205.801 110.146C205.319 110.724 204.429 110.819 203.827 110.315C203.538 110.051 203.393 109.762 203.37 109.376C203.37 108.87 202.069 109.255 201.468 110.819L203.37 113.564C204.116 114.673 205.368 114.673 205.368 114.673C206.21 114.673 207.053 114.407 207.245 113.516H207.604ZM199.877 112.987L195.953 107.33L194.749 108.101C193.401 109.063 192.462 111.446 194.34 113.781C195.64 115.393 198.697 115.515 199.877 112.987ZM196.29 103.142L198.024 105.693C201.177 103.623 200.624 101.071 199.565 99.7467C198.867 99.0492 197.856 98.7362 196.99 99.0492C195.736 99.483 195.135 101.433 196.29 103.142Z" fill="black"/>
<path d="M239.452 116.31H233.266V115.95C234.854 115.95 234.108 113.976 233.818 113.302L233.048 111.376H227.078C226.741 112.338 225.466 116.095 229.052 115.95V116.31H223.395V115.95C224.165 115.926 224.767 115.95 226.982 110.341L231.099 99.3643H231.412C235.841 109.981 237.454 114.097 237.454 114.097C238.248 116.022 238.802 115.903 239.452 115.951V116.31ZM232.904 111.015L229.92 103.505L227.152 111.015H232.904Z" fill="black"/>
<path d="M273.271 99.3643V99.7246C269.709 99.7004 269.782 104.298 269.782 105.406V116.31H268.746L258.371 103.094V110.22C258.371 111.304 258.346 115.95 261.597 115.95V116.31H254.47V115.95C258.01 115.95 258.01 111.304 258.01 110.22V102.71L257.046 101.482C255.505 99.5565 254.808 99.7739 254.182 99.7246V99.3643H259.357L269.42 112.049V105.406C269.42 104.298 269.42 99.7004 266.194 99.7246V99.3643H273.271Z" fill="black"/>
<path d="M307.214 99.3643V99.7246C303.652 99.7004 303.724 104.298 303.724 105.406V116.31H302.688L292.314 103.094V110.22C292.314 111.304 292.289 115.95 295.54 115.95V116.31H288.413V115.95C291.952 115.95 291.952 111.304 291.952 110.22V102.71L290.989 101.482C289.449 99.5565 288.75 99.7739 288.124 99.7246V99.3643H293.3L303.363 112.049V105.406C303.363 104.298 303.363 99.7004 300.137 99.7246V99.3643H307.214Z" fill="black"/>
<path d="M329.695 99.3643V99.7246C328.659 99.7246 327.818 100.255 327.818 101.748V113.566C327.818 115.204 328.684 115.95 329.695 115.95V116.31H322.978V115.95C324.014 115.95 324.856 115.204 324.856 113.566V101.748C324.856 100.255 324.037 99.7246 322.978 99.7246V99.3643H329.695Z" fill="black"/>
<path d="M358.272 111.184V116.31H345.442V115.95C346.452 115.95 346.789 114.891 346.789 113.253V102.301C346.789 100.809 346.501 99.7246 345.442 99.7246V99.3643H357.959V103.818H357.598C357.189 99.7487 351.846 99.7246 350.858 99.7246H349.775V107.572H350.978C351.315 107.572 354.42 107.572 354.613 105.118H354.974V110.413H354.613C354.42 107.934 351.291 107.934 350.978 107.934H349.775V115.95H350.761C351.82 115.95 357.14 115.998 357.911 111.184H358.272Z" fill="black"/>
<path d="M158.761 199.651C156.358 199.651 155.306 198.856 155.306 198.856V196.265H155.507C155.724 197.493 156.412 199.45 158.761 199.45C160.502 199.45 160.866 197.331 159.246 196.17L157.1 194.794C155.494 193.769 154.522 192.487 155.602 190.948C155.602 190.948 156.263 189.909 158.273 189.909C160.406 189.909 161.539 190.557 161.539 190.557V192.824H161.338C161.149 191.799 160.474 190.112 158.274 190.112C156.816 190.112 155.994 191.948 157.884 193.175L160.042 194.591C161.837 195.779 162.364 197.251 161.501 198.546C161.501 198.544 160.893 199.651 158.761 199.651Z" fill="black"/>
<path d="M179.343 190.035V192.586H179.14C179.059 190.277 176.495 190.237 176.4 190.237H175.874V198.065C175.874 198.968 176.373 199.333 176.939 199.333V199.535H173.16V199.333C173.728 199.333 174.226 198.968 174.226 198.065V190.237H173.699C173.496 190.237 171.054 190.277 170.973 192.586H170.77V190.035H179.343Z" fill="black"/>
<path d="M188.799 196.258V191.412C188.799 190.549 188.381 190.239 187.786 190.239V190.036H191.619V190.239C191.039 190.239 190.445 190.414 190.445 191.427V196.366C190.445 198 191.444 198.957 192.82 198.957C194.022 198.957 195.142 198.039 195.142 196.324V192.492C195.142 191.844 195.142 190.225 193.427 190.238V190.035H197.219V190.238C195.316 190.225 195.343 191.844 195.343 192.492V196.324C195.357 198.984 193.467 199.657 192.036 199.657C190.256 199.658 188.799 198.458 188.799 196.258Z" fill="black"/>
<path d="M209.203 199.535H205.963V199.333C206.543 199.333 206.921 198.726 206.921 197.809V191.762C206.921 190.926 206.557 190.238 205.963 190.238V190.035H209.203C211.888 190.035 214.708 190.859 214.708 194.814C214.708 198.835 211.888 199.535 209.203 199.535ZM209.203 190.238H208.609V199.333H209.203C210.579 199.333 212.711 199.158 212.711 194.814C212.71 190.535 210.606 190.238 209.203 190.238Z" fill="black"/>
<path d="M227.65 190.035V190.238C227.07 190.238 226.597 190.535 226.597 191.371V197.999C226.597 198.915 227.083 199.334 227.65 199.334V199.536H223.885V199.334C224.465 199.334 224.937 198.916 224.937 197.999V191.371C224.937 190.535 224.478 190.238 223.885 190.238V190.035H227.65Z" fill="black"/>
<path d="M241.151 199.652C238.181 199.652 236.63 197.533 236.63 194.848C236.63 192.176 238.181 189.909 241.151 189.909C244.12 189.909 245.671 192.176 245.671 194.848C245.671 197.533 244.12 199.652 241.151 199.652ZM241.151 190.111C239.545 190.111 238.559 191.15 238.559 194.847C238.559 198.56 239.545 199.45 241.151 199.45C242.743 199.45 243.715 198.56 243.715 194.847C243.714 191.151 242.743 190.111 241.151 190.111Z" fill="black"/>
</svg>
