<svg width="363" height="293" viewBox="0 0 363 293" fill="none" xmlns="http://www.w3.org/2000/svg">
<rect width="363" height="293" fill="white"/>
<path d="M78 150H105V122H78V150Z" fill="black"/>
<path d="M50 177H78V150H50V177Z" fill="black"/>
<path d="M163.976 114.096L161.224 124.528H143.88L142.856 131.696H158.984L157.576 141.552H141.448L139.144 158H126.024L132.232 114.096H163.976ZM180.647 111.92L179.367 121.072H166.759L168.039 111.92H180.647ZM178.791 125.296L174.183 158H161.639L166.183 125.296H178.791ZM206.816 124.656C209.76 124.656 212.021 125.424 213.6 126.96C215.221 128.496 216.032 130.48 216.032 132.912C216.032 133.765 215.669 136.688 214.944 141.68L214.304 146.16L213.728 150.32C213.173 154.373 212.811 156.933 212.64 158H199.968C200.565 153.349 201.163 149.189 201.76 145.52C202.528 140.144 202.912 137.264 202.912 136.88C202.912 135.941 202.656 135.173 202.144 134.576C201.632 133.979 200.907 133.68 199.968 133.68C198.901 133.68 198.027 134.043 197.344 134.768C196.661 135.493 196.235 136.411 196.064 137.52L193.184 158H180.512L185.12 125.296H194.656L195.232 130.032C197.963 126.448 201.824 124.656 206.816 124.656ZM254.732 129.712L254.284 132.976C252.833 142.875 252.129 148.101 252.172 148.656C252.172 149.424 252.257 150 252.428 150.384C252.641 150.768 253.089 150.96 253.772 150.96C254.497 150.96 255.286 150.683 256.14 150.128L255.18 157.168C254.284 157.637 253.217 158 251.979 158.256C250.785 158.512 249.654 158.64 248.588 158.64C246.369 158.64 244.513 158.341 243.02 157.744C241.569 157.147 240.588 155.973 240.076 154.224C238.796 155.589 237.452 156.677 236.044 157.488C234.678 158.256 232.929 158.64 230.796 158.64C227.254 158.64 224.46 157.552 222.411 155.376C220.364 153.157 219.34 149.915 219.34 145.648C219.34 141.168 220.044 137.349 221.452 134.192C222.902 131.035 224.78 128.667 227.084 127.088C229.388 125.467 231.82 124.656 234.38 124.656C238.39 124.656 241.014 126 242.252 128.688L244.62 111.92H257.292L254.732 129.712ZM237.708 132.656C236.556 132.656 235.532 133.083 234.635 133.936C233.782 134.789 233.27 135.856 233.1 137.136C232.204 143.451 231.756 146.779 231.756 147.12C231.756 148.229 232.076 149.147 232.716 149.872C233.356 150.555 234.166 150.896 235.148 150.896C236.47 150.896 237.516 150.491 238.284 149.68C239.052 148.827 239.542 147.739 239.756 146.416L240.396 141.808L240.652 139.76C240.95 137.883 241.1 136.752 241.1 136.368C241.1 135.173 240.78 134.256 240.14 133.616C239.542 132.976 238.732 132.656 237.708 132.656ZM283.767 124.656C286.284 124.656 288.204 125.296 289.527 126.576C290.892 127.813 291.575 129.541 291.575 131.76C291.575 132.528 291.319 134.192 290.807 136.752C290.764 137.221 290.657 137.819 290.487 138.544H280.119C280.119 138.117 280.14 137.733 280.183 137.392C280.268 137.051 280.311 136.752 280.311 136.496C280.311 134.704 279.564 133.808 278.071 133.808C277.217 133.808 276.492 134.107 275.895 134.704C275.34 135.301 274.999 136.069 274.871 137.008L271.927 158H259.575L264.183 125.296H273.655L274.359 130.032C274.615 129.563 275.169 128.901 276.023 128.048C276.919 127.195 278.028 126.427 279.351 125.744C280.716 125.019 282.188 124.656 283.767 124.656Z" fill="black"/>
<path d="M101.844 180.396V190H100.472V182.006H100.388L97.07 190H95.908L92.604 182.006H92.534V190H91.288V180.396H93.444L96.538 187.956H96.594L99.702 180.396H101.844ZM107.115 182.706C108.057 182.706 108.757 182.893 109.215 183.266C109.681 183.639 109.915 184.181 109.915 184.89V188.6C109.915 188.768 109.952 188.894 110.027 188.978C110.101 189.053 110.195 189.09 110.307 189.09C110.521 189.09 110.736 189.025 110.951 188.894V189.86C110.633 190.047 110.274 190.14 109.873 190.14C109.471 190.14 109.173 190.028 108.977 189.804C108.781 189.571 108.673 189.253 108.655 188.852C108.076 189.711 107.241 190.14 106.149 190.14C105.365 190.14 104.777 189.972 104.385 189.636C104.002 189.291 103.811 188.749 103.811 188.012C103.811 187.433 103.96 186.981 104.259 186.654C104.557 186.318 105.052 186.075 105.743 185.926C106.433 185.777 107.385 185.702 108.599 185.702V185.044C108.599 184.568 108.459 184.237 108.179 184.05C107.899 183.854 107.493 183.756 106.961 183.756C106.457 183.756 106.065 183.854 105.785 184.05C105.505 184.246 105.365 184.521 105.365 184.876V185.044H104.077C104.058 184.913 104.049 184.759 104.049 184.582C104.049 184.255 104.179 183.947 104.441 183.658C104.702 183.369 105.057 183.14 105.505 182.972C105.953 182.795 106.447 182.706 106.989 182.706H107.115ZM108.599 186.724C107.619 186.724 106.877 186.775 106.373 186.878C105.878 186.971 105.547 187.116 105.379 187.312C105.211 187.508 105.127 187.779 105.127 188.124C105.127 188.768 105.617 189.09 106.597 189.09C106.942 189.09 107.269 189.006 107.577 188.838C107.885 188.661 108.132 188.413 108.319 188.096C108.505 187.779 108.599 187.415 108.599 187.004V186.724ZM113.806 179.92V186.836L116.998 182.846H118.44L115.682 186.318L118.622 190H117.026L114.884 187.34L113.806 188.46V190H112.49V179.92H113.806ZM121.326 179.92V181.138H119.954V179.92H121.326ZM121.298 182.846V190H119.982V182.846H121.298ZM127.147 182.706C127.931 182.706 128.547 182.916 128.995 183.336C129.443 183.756 129.667 184.372 129.667 185.184V190H128.351V185.422C128.351 184.311 127.847 183.756 126.839 183.756C126.503 183.756 126.19 183.845 125.901 184.022C125.612 184.199 125.378 184.442 125.201 184.75C125.024 185.049 124.935 185.38 124.935 185.744V190H123.619V182.846H124.571L124.753 183.896C125.35 183.103 126.148 182.706 127.147 182.706ZM138.47 181.558C138.47 182.034 138.344 182.435 138.092 182.762C137.84 183.079 137.49 183.285 137.042 183.378L137.014 183.42C137.481 183.831 137.714 184.344 137.714 184.96C137.714 185.632 137.462 186.173 136.958 186.584C136.454 186.995 135.768 187.2 134.9 187.2H133.948C133.668 187.2 133.435 187.275 133.248 187.424C133.061 187.564 132.968 187.746 132.968 187.97C132.968 188.194 133.057 188.371 133.234 188.502C133.411 188.633 133.649 188.698 133.948 188.698H136.65C137.201 188.698 137.639 188.871 137.966 189.216C138.302 189.561 138.47 190 138.47 190.532C138.47 191.167 138.227 191.675 137.742 192.058C137.266 192.441 136.622 192.632 135.81 192.632H132.996C132.679 192.632 132.385 192.548 132.114 192.38C131.853 192.212 131.643 191.997 131.484 191.736C131.335 191.484 131.26 191.223 131.26 190.952C131.26 190.56 131.353 190.219 131.54 189.93C131.736 189.641 131.993 189.426 132.31 189.286C131.881 189.025 131.666 188.637 131.666 188.124C131.666 187.788 131.764 187.499 131.96 187.256C132.156 187.013 132.431 186.831 132.786 186.71C132.161 186.365 131.848 185.781 131.848 184.96C131.848 184.269 132.1 183.723 132.604 183.322C133.117 182.911 133.827 182.706 134.732 182.706H134.788C135.311 182.706 135.787 182.785 136.216 182.944C136.879 182.617 137.257 182.155 137.35 181.558H138.47ZM134.774 183.756C134.279 183.756 133.883 183.854 133.584 184.05C133.295 184.237 133.15 184.54 133.15 184.96C133.15 185.38 133.295 185.683 133.584 185.87C133.883 186.057 134.279 186.15 134.774 186.15C135.269 186.15 135.665 186.057 135.964 185.87C136.263 185.683 136.412 185.38 136.412 184.96C136.412 184.54 136.263 184.237 135.964 184.05C135.665 183.854 135.269 183.756 134.774 183.756ZM133.374 189.958C133.15 189.958 132.959 190.037 132.8 190.196C132.641 190.355 132.562 190.546 132.562 190.77C132.562 190.994 132.641 191.185 132.8 191.344C132.959 191.503 133.15 191.582 133.374 191.582H136.076C136.375 191.582 136.631 191.493 136.846 191.316C137.061 191.148 137.168 190.952 137.168 190.728C137.168 190.495 137.089 190.308 136.93 190.168C136.771 190.028 136.547 189.958 136.258 189.958H133.374ZM144.637 179.92V181.138H143.265V179.92H144.637ZM144.609 182.846V190H143.293V182.846H144.609ZM150.458 182.706C151.242 182.706 151.858 182.916 152.306 183.336C152.754 183.756 152.978 184.372 152.978 185.184V190H151.662V185.422C151.662 184.311 151.158 183.756 150.15 183.756C149.814 183.756 149.501 183.845 149.212 184.022C148.922 184.199 148.689 184.442 148.512 184.75C148.334 185.049 148.246 185.38 148.246 185.744V190H146.93V182.846H147.882L148.064 183.896C148.661 183.103 149.459 182.706 150.458 182.706ZM156.7 182.846H158.366V183.896H156.7V188.166C156.7 188.502 156.765 188.745 156.896 188.894C157.027 189.043 157.227 189.118 157.498 189.118C157.741 189.118 158.03 189.048 158.366 188.908V189.888C158.03 190.056 157.596 190.14 157.064 190.14C156.513 190.14 156.093 189.977 155.804 189.65C155.524 189.323 155.384 188.805 155.384 188.096V183.896H154.6V182.846H155.426L155.874 180.564H156.7V182.846ZM162.87 182.706C163.458 182.706 163.976 182.832 164.424 183.084C164.881 183.327 165.236 183.677 165.488 184.134C165.74 184.591 165.866 185.123 165.866 185.73V186.724H160.868C160.887 187.48 161.064 188.063 161.4 188.474C161.736 188.885 162.235 189.09 162.898 189.09C163.486 189.09 163.92 188.917 164.2 188.572C164.48 188.227 164.62 187.816 164.62 187.34H165.866C165.866 187.9 165.735 188.39 165.474 188.81C165.222 189.23 164.867 189.557 164.41 189.79C163.962 190.023 163.449 190.14 162.87 190.14H162.814C161.806 190.14 161.008 189.818 160.42 189.174C159.841 188.521 159.552 187.653 159.552 186.57V186.29C159.552 185.581 159.683 184.955 159.944 184.414C160.205 183.873 160.579 183.453 161.064 183.154C161.549 182.855 162.119 182.706 162.772 182.706H162.87ZM162.8 183.756C162.268 183.756 161.834 183.919 161.498 184.246C161.171 184.573 160.971 185.058 160.896 185.702H164.564V185.534C164.564 185.002 164.401 184.573 164.074 184.246C163.757 183.919 163.332 183.756 162.8 183.756ZM170.999 182.706C171.662 182.706 172.18 182.921 172.553 183.35C172.927 183.77 173.113 184.302 173.113 184.946L173.071 185.478H171.909V185.17C171.909 184.89 171.839 184.643 171.699 184.428C171.559 184.213 171.382 184.05 171.167 183.938C170.953 183.817 170.738 183.756 170.523 183.756C170.075 183.756 169.725 183.933 169.473 184.288C169.221 184.643 169.095 185.123 169.095 185.73V190H167.779V182.846H168.717L168.913 183.91C168.969 183.723 169.095 183.537 169.291 183.35C169.487 183.163 169.73 183.009 170.019 182.888C170.318 182.767 170.645 182.706 170.999 182.706ZM178.17 182.706C178.954 182.706 179.57 182.916 180.018 183.336C180.466 183.756 180.69 184.372 180.69 185.184V190H179.374V185.422C179.374 184.311 178.87 183.756 177.862 183.756C177.526 183.756 177.214 183.845 176.924 184.022C176.635 184.199 176.402 184.442 176.224 184.75C176.047 185.049 175.958 185.38 175.958 185.744V190H174.642V182.846H175.594L175.776 183.896C176.374 183.103 177.172 182.706 178.17 182.706ZM185.811 182.706C186.399 182.706 186.917 182.832 187.365 183.084C187.823 183.327 188.177 183.677 188.429 184.134C188.681 184.591 188.807 185.123 188.807 185.73V186.724H183.809C183.828 187.48 184.005 188.063 184.341 188.474C184.677 188.885 185.177 189.09 185.839 189.09C186.427 189.09 186.861 188.917 187.141 188.572C187.421 188.227 187.561 187.816 187.561 187.34H188.807C188.807 187.9 188.677 188.39 188.415 188.81C188.163 189.23 187.809 189.557 187.351 189.79C186.903 190.023 186.39 190.14 185.811 190.14H185.755C184.747 190.14 183.949 189.818 183.361 189.174C182.783 188.521 182.493 187.653 182.493 186.57V186.29C182.493 185.581 182.624 184.955 182.885 184.414C183.147 183.873 183.52 183.453 184.005 183.154C184.491 182.855 185.06 182.706 185.713 182.706H185.811ZM185.741 183.756C185.209 183.756 184.775 183.919 184.439 184.246C184.113 184.573 183.912 185.058 183.837 185.702H187.505V185.534C187.505 185.002 187.342 184.573 187.015 184.246C186.698 183.919 186.273 183.756 185.741 183.756ZM192.261 182.846H193.927V183.896H192.261V188.166C192.261 188.502 192.326 188.745 192.457 188.894C192.587 189.043 192.788 189.118 193.059 189.118C193.301 189.118 193.591 189.048 193.927 188.908V189.888C193.591 190.056 193.157 190.14 192.625 190.14C192.074 190.14 191.654 189.977 191.365 189.65C191.085 189.323 190.945 188.805 190.945 188.096V183.896H190.161V182.846H190.987L191.435 180.564H192.261V182.846ZM201.848 182.706C202.436 182.706 202.954 182.832 203.402 183.084C203.86 183.327 204.214 183.677 204.466 184.134C204.718 184.591 204.844 185.123 204.844 185.73V186.724H199.846C199.865 187.48 200.042 188.063 200.378 188.474C200.714 188.885 201.214 189.09 201.876 189.09C202.464 189.09 202.898 188.917 203.178 188.572C203.458 188.227 203.598 187.816 203.598 187.34H204.844C204.844 187.9 204.714 188.39 204.452 188.81C204.2 189.23 203.846 189.557 203.388 189.79C202.94 190.023 202.427 190.14 201.848 190.14H201.792C200.784 190.14 199.986 189.818 199.398 189.174C198.82 188.521 198.53 187.653 198.53 186.57V186.29C198.53 185.581 198.661 184.955 198.922 184.414C199.184 183.873 199.557 183.453 200.042 183.154C200.528 182.855 201.097 182.706 201.75 182.706H201.848ZM201.778 183.756C201.246 183.756 200.812 183.919 200.476 184.246C200.15 184.573 199.949 185.058 199.874 185.702H203.542V185.534C203.542 185.002 203.379 184.573 203.052 184.246C202.735 183.919 202.31 183.756 201.778 183.756ZM209.572 182.706C210.514 182.706 211.214 182.893 211.672 183.266C212.138 183.639 212.372 184.181 212.372 184.89V188.6C212.372 188.768 212.409 188.894 212.484 188.978C212.558 189.053 212.652 189.09 212.764 189.09C212.978 189.09 213.193 189.025 213.408 188.894V189.86C213.09 190.047 212.731 190.14 212.33 190.14C211.928 190.14 211.63 190.028 211.434 189.804C211.238 189.571 211.13 189.253 211.112 188.852C210.533 189.711 209.698 190.14 208.606 190.14C207.822 190.14 207.234 189.972 206.842 189.636C206.459 189.291 206.268 188.749 206.268 188.012C206.268 187.433 206.417 186.981 206.716 186.654C207.014 186.318 207.509 186.075 208.2 185.926C208.89 185.777 209.842 185.702 211.056 185.702V185.044C211.056 184.568 210.916 184.237 210.636 184.05C210.356 183.854 209.95 183.756 209.418 183.756C208.914 183.756 208.522 183.854 208.242 184.05C207.962 184.246 207.822 184.521 207.822 184.876V185.044H206.534C206.515 184.913 206.506 184.759 206.506 184.582C206.506 184.255 206.636 183.947 206.898 183.658C207.159 183.369 207.514 183.14 207.962 182.972C208.41 182.795 208.904 182.706 209.446 182.706H209.572ZM211.056 186.724C210.076 186.724 209.334 186.775 208.83 186.878C208.335 186.971 208.004 187.116 207.836 187.312C207.668 187.508 207.584 187.779 207.584 188.124C207.584 188.768 208.074 189.09 209.054 189.09C209.399 189.09 209.726 189.006 210.034 188.838C210.342 188.661 210.589 188.413 210.776 188.096C210.962 187.779 211.056 187.415 211.056 187.004V186.724ZM217.677 182.706C218.209 182.706 218.68 182.79 219.091 182.958C219.511 183.126 219.833 183.359 220.057 183.658C220.29 183.957 220.407 184.288 220.407 184.652L220.393 184.904H219.091V184.778C219.091 184.097 218.564 183.756 217.509 183.756C216.464 183.756 215.941 184.069 215.941 184.694C215.941 184.983 216.09 185.198 216.389 185.338C216.688 185.469 217.145 185.595 217.761 185.716C218.349 185.837 218.83 185.963 219.203 186.094C219.586 186.225 219.908 186.43 220.169 186.71C220.44 186.99 220.575 187.368 220.575 187.844C220.575 188.609 220.314 189.183 219.791 189.566C219.268 189.949 218.517 190.14 217.537 190.14H217.327C216.739 190.14 216.226 190.051 215.787 189.874C215.348 189.687 215.008 189.44 214.765 189.132C214.532 188.815 214.42 188.46 214.429 188.068V187.76H215.731V187.9C215.731 188.693 216.398 189.09 217.733 189.09C218.125 189.09 218.475 189.001 218.783 188.824C219.1 188.647 219.259 188.404 219.259 188.096C219.259 187.835 219.17 187.629 218.993 187.48C218.825 187.331 218.615 187.219 218.363 187.144C218.111 187.069 217.761 186.995 217.313 186.92C216.734 186.808 216.268 186.696 215.913 186.584C215.558 186.463 215.255 186.262 215.003 185.982C214.751 185.702 214.625 185.319 214.625 184.834C214.625 184.171 214.886 183.653 215.409 183.28C215.932 182.897 216.646 182.706 217.551 182.706H217.677ZM225.59 189.72C225.272 190.504 224.978 191.101 224.708 191.512C224.437 191.932 224.162 192.217 223.882 192.366C223.602 192.525 223.275 192.604 222.902 192.604C222.556 192.604 222.23 192.539 221.922 192.408V191.33C222.23 191.461 222.463 191.526 222.622 191.526C223.004 191.526 223.322 191.395 223.574 191.134C223.835 190.882 224.05 190.481 224.218 189.93L221.432 182.846H222.832L224.89 188.124H224.946L226.976 182.846H228.264L225.59 189.72ZM234.954 179.808C235.486 179.808 235.924 179.897 236.27 180.074V181.04C235.99 180.919 235.752 180.858 235.556 180.858C235.182 180.858 234.93 180.928 234.8 181.068C234.669 181.199 234.604 181.423 234.604 181.74V182.846H236.27V183.896H234.604V190H233.288V183.896H232.504V182.846H233.288V181.88C233.288 180.499 233.843 179.808 234.954 179.808ZM240.526 182.706C241.524 182.706 242.322 183.014 242.92 183.63C243.517 184.246 243.816 185.091 243.816 186.164V186.682C243.816 187.755 243.522 188.6 242.934 189.216C242.346 189.832 241.543 190.14 240.526 190.14C239.508 190.14 238.706 189.832 238.118 189.216C237.53 188.6 237.236 187.755 237.236 186.682V186.164C237.236 185.091 237.534 184.246 238.132 183.63C238.729 183.014 239.527 182.706 240.526 182.706ZM240.526 183.756C239.9 183.756 239.415 183.971 239.07 184.4C238.724 184.829 238.552 185.459 238.552 186.29V186.556C238.552 187.368 238.72 187.993 239.056 188.432C239.401 188.871 239.891 189.09 240.526 189.09C241.142 189.09 241.622 188.875 241.968 188.446C242.322 188.007 242.5 187.377 242.5 186.556V186.29C242.5 185.478 242.327 184.853 241.982 184.414C241.646 183.975 241.16 183.756 240.526 183.756ZM248.929 182.706C249.592 182.706 250.11 182.921 250.483 183.35C250.856 183.77 251.043 184.302 251.043 184.946L251.001 185.478H249.839V185.17C249.839 184.89 249.769 184.643 249.629 184.428C249.489 184.213 249.312 184.05 249.097 183.938C248.882 183.817 248.668 183.756 248.453 183.756C248.005 183.756 247.655 183.933 247.403 184.288C247.151 184.643 247.025 185.123 247.025 185.73V190H245.709V182.846H246.647L246.843 183.91C246.899 183.723 247.025 183.537 247.221 183.35C247.417 183.163 247.66 183.009 247.949 182.888C248.248 182.767 248.574 182.706 248.929 182.706ZM257.306 183.756C257.521 183.448 257.81 183.196 258.174 183C258.547 182.804 258.949 182.706 259.378 182.706C260.293 182.706 261.002 183.028 261.506 183.672C262.01 184.307 262.262 185.17 262.262 186.262V186.416C262.262 187.573 262.001 188.483 261.478 189.146C260.965 189.809 260.26 190.14 259.364 190.14C258.3 190.14 257.497 189.715 256.956 188.866L256.494 190H255.99V179.92H257.306V183.756ZM259.112 183.756C258.487 183.756 258.025 183.975 257.726 184.414C257.437 184.843 257.292 185.515 257.292 186.43C257.292 187.345 257.441 188.017 257.74 188.446C258.039 188.875 258.496 189.09 259.112 189.09C260.335 189.09 260.946 188.203 260.946 186.43C260.946 185.515 260.792 184.843 260.484 184.414C260.176 183.975 259.719 183.756 259.112 183.756ZM270.13 188.6C270.13 188.768 270.168 188.894 270.242 188.978C270.317 189.053 270.41 189.09 270.522 189.09C270.728 189.09 270.938 189.025 271.152 188.894V189.86C270.863 190.047 270.569 190.14 270.27 190.14C269.766 190.14 269.412 190.037 269.206 189.832C269.01 189.627 268.903 189.337 268.884 188.964C268.632 189.337 268.306 189.627 267.904 189.832C267.512 190.037 267.06 190.14 266.546 190.14C265.828 190.14 265.235 189.93 264.768 189.51C264.311 189.081 264.082 188.465 264.082 187.662V182.846H265.398V187.424C265.398 188.535 265.902 189.09 266.91 189.09C267.237 189.09 267.545 189.001 267.834 188.824C268.133 188.647 268.371 188.409 268.548 188.11C268.726 187.802 268.814 187.466 268.814 187.102V182.846H270.13V188.6ZM275.537 182.706C276.069 182.706 276.54 182.79 276.951 182.958C277.371 183.126 277.693 183.359 277.917 183.658C278.15 183.957 278.267 184.288 278.267 184.652L278.253 184.904H276.951V184.778C276.951 184.097 276.423 183.756 275.369 183.756C274.323 183.756 273.801 184.069 273.801 184.694C273.801 184.983 273.95 185.198 274.249 185.338C274.547 185.469 275.005 185.595 275.621 185.716C276.209 185.837 276.689 185.963 277.063 186.094C277.445 186.225 277.767 186.43 278.029 186.71C278.299 186.99 278.435 187.368 278.435 187.844C278.435 188.609 278.173 189.183 277.651 189.566C277.128 189.949 276.377 190.14 275.397 190.14H275.187C274.599 190.14 274.085 190.051 273.647 189.874C273.208 189.687 272.867 189.44 272.625 189.132C272.391 188.815 272.279 188.46 272.289 188.068V187.76H273.591V187.9C273.591 188.693 274.258 189.09 275.593 189.09C275.985 189.09 276.335 189.001 276.643 188.824C276.96 188.647 277.119 188.404 277.119 188.096C277.119 187.835 277.03 187.629 276.853 187.48C276.685 187.331 276.475 187.219 276.223 187.144C275.971 187.069 275.621 186.995 275.173 186.92C274.594 186.808 274.127 186.696 273.773 186.584C273.418 186.463 273.115 186.262 272.863 185.982C272.611 185.702 272.485 185.319 272.485 184.834C272.485 184.171 272.746 183.653 273.269 183.28C273.791 182.897 274.505 182.706 275.411 182.706H275.537ZM281.629 179.92V181.138H280.257V179.92H281.629ZM281.601 182.846V190H280.285V182.846H281.601ZM287.45 182.706C288.234 182.706 288.85 182.916 289.298 183.336C289.746 183.756 289.97 184.372 289.97 185.184V190H288.654V185.422C288.654 184.311 288.15 183.756 287.142 183.756C286.806 183.756 286.493 183.845 286.204 184.022C285.914 184.199 285.681 184.442 285.504 184.75C285.326 185.049 285.238 185.38 285.238 185.744V190H283.922V182.846H284.874L285.056 183.896C285.653 183.103 286.451 182.706 287.45 182.706ZM295.091 182.706C295.679 182.706 296.197 182.832 296.645 183.084C297.102 183.327 297.457 183.677 297.709 184.134C297.961 184.591 298.087 185.123 298.087 185.73V186.724H293.089C293.107 187.48 293.285 188.063 293.621 188.474C293.957 188.885 294.456 189.09 295.119 189.09C295.707 189.09 296.141 188.917 296.421 188.572C296.701 188.227 296.841 187.816 296.841 187.34H298.087C298.087 187.9 297.956 188.39 297.695 188.81C297.443 189.23 297.088 189.557 296.631 189.79C296.183 190.023 295.669 190.14 295.091 190.14H295.035C294.027 190.14 293.229 189.818 292.641 189.174C292.062 188.521 291.773 187.653 291.773 186.57V186.29C291.773 185.581 291.903 184.955 292.165 184.414C292.426 183.873 292.799 183.453 293.285 183.154C293.77 182.855 294.339 182.706 294.993 182.706H295.091ZM295.021 183.756C294.489 183.756 294.055 183.919 293.719 184.246C293.392 184.573 293.191 185.058 293.117 185.702H296.785V185.534C296.785 185.002 296.621 184.573 296.295 184.246C295.977 183.919 295.553 183.756 295.021 183.756ZM302.73 182.706C303.262 182.706 303.733 182.79 304.144 182.958C304.564 183.126 304.886 183.359 305.11 183.658C305.343 183.957 305.46 184.288 305.46 184.652L305.446 184.904H304.144V184.778C304.144 184.097 303.617 183.756 302.562 183.756C301.517 183.756 300.994 184.069 300.994 184.694C300.994 184.983 301.143 185.198 301.442 185.338C301.741 185.469 302.198 185.595 302.814 185.716C303.402 185.837 303.883 185.963 304.256 186.094C304.639 186.225 304.961 186.43 305.222 186.71C305.493 186.99 305.628 187.368 305.628 187.844C305.628 188.609 305.367 189.183 304.844 189.566C304.321 189.949 303.57 190.14 302.59 190.14H302.38C301.792 190.14 301.279 190.051 300.84 189.874C300.401 189.687 300.061 189.44 299.818 189.132C299.585 188.815 299.473 188.46 299.482 188.068V187.76H300.784V187.9C300.784 188.693 301.451 189.09 302.786 189.09C303.178 189.09 303.528 189.001 303.836 188.824C304.153 188.647 304.312 188.404 304.312 188.096C304.312 187.835 304.223 187.629 304.046 187.48C303.878 187.331 303.668 187.219 303.416 187.144C303.164 187.069 302.814 186.995 302.366 186.92C301.787 186.808 301.321 186.696 300.966 186.584C300.611 186.463 300.308 186.262 300.056 185.982C299.804 185.702 299.678 185.319 299.678 184.834C299.678 184.171 299.939 183.653 300.462 183.28C300.985 182.897 301.699 182.706 302.604 182.706H302.73ZM310.208 182.706C310.74 182.706 311.212 182.79 311.622 182.958C312.042 183.126 312.364 183.359 312.588 183.658C312.822 183.957 312.938 184.288 312.938 184.652L312.924 184.904H311.622V184.778C311.622 184.097 311.095 183.756 310.04 183.756C308.995 183.756 308.472 184.069 308.472 184.694C308.472 184.983 308.622 185.198 308.92 185.338C309.219 185.469 309.676 185.595 310.292 185.716C310.88 185.837 311.361 185.963 311.734 186.094C312.117 186.225 312.439 186.43 312.7 186.71C312.971 186.99 313.106 187.368 313.106 187.844C313.106 188.609 312.845 189.183 312.322 189.566C311.8 189.949 311.048 190.14 310.068 190.14H309.858C309.27 190.14 308.757 190.051 308.318 189.874C307.88 189.687 307.539 189.44 307.296 189.132C307.063 188.815 306.951 188.46 306.96 188.068V187.76H308.262V187.9C308.262 188.693 308.93 189.09 310.264 189.09C310.656 189.09 311.006 189.001 311.314 188.824C311.632 188.647 311.79 188.404 311.79 188.096C311.79 187.835 311.702 187.629 311.524 187.48C311.356 187.331 311.146 187.219 310.894 187.144C310.642 187.069 310.292 186.995 309.844 186.92C309.266 186.808 308.799 186.696 308.444 186.584C308.09 186.463 307.786 186.262 307.534 185.982C307.282 185.702 307.156 185.319 307.156 184.834C307.156 184.171 307.418 183.653 307.94 183.28C308.463 182.897 309.177 182.706 310.082 182.706H310.208Z" fill="black"/>
</svg>
