<svg width="405" height="438" viewBox="0 0 405 438" fill="none" xmlns="http://www.w3.org/2000/svg">
<rect width="405" height="438" fill="#DDFDFF"/>
<path d="M108.878 180.885C114.979 176.821 121.744 173.084 129.107 170.368C132.764 168.941 136.51 167.602 140.298 166.313C144.111 165.097 148.012 164.07 151.887 162.977C167.41 158.559 183.149 155.481 196.933 149.818C213.503 143.039 231.648 138.279 250.122 136.137L257.045 135.263C259.359 135.041 261.678 134.898 263.994 134.732C268.626 134.418 273.251 134.143 277.857 133.923C282.471 133.906 287.061 133.891 291.616 133.874C293.894 133.889 296.164 133.903 298.422 133.919C300.681 134.026 302.929 134.132 305.166 134.238C304.996 137.84 301.861 143.104 304.707 145.05C316.096 151.023 315.446 158.224 314.981 165.42C314.738 169.019 306.664 165.009 309.221 168.747C305.087 168.562 299.552 168.682 296.096 169.501C292.632 170.386 291.266 171.732 295.32 173.552C297.929 177.148 308.929 174.179 311.302 179.679C313.605 185.21 308.006 190.354 310.291 195.878C312.878 195.918 318.01 196.44 320.578 196.688C322.783 200.527 317.096 207.234 319.616 207.473C323.19 209.676 327.49 210.366 332.112 211.021C336.73 211.677 341.724 211.925 346.66 212.611C346.368 214.392 346.739 216.281 346.485 217.838C346.357 218.616 346.073 219.312 345.47 219.87C344.911 220.447 344.066 220.899 342.792 221.178C300.466 216.291 256.896 219.89 215.328 229.595C173.658 239.286 133.969 254.815 96.6756 273.93C87.4601 277.182 89.7997 267.507 93.5944 259.035C92.3576 261.844 89.6159 257.175 88.3612 259.992C86.9751 257.668 86.2092 253.942 86.841 249.923C87.1563 247.914 87.8213 245.831 88.9215 243.821C90.0269 241.82 91.5343 239.829 93.662 238.265C91.316 239.427 89.0926 240.801 86.8244 242.106C83.6654 241.86 84.1364 237.412 82.3635 234.27C84.6788 232.924 86.9865 231.58 86.116 229.996C85.2468 228.42 83.5033 225.258 82.6328 223.681C80.2702 225.055 75.5361 227.808 73.1723 229.182C75.5349 227.807 77.8987 226.433 77.0091 224.865C76.1169 223.298 74.3312 220.162 73.4378 218.591C77.3448 214.063 86.5845 213.534 90.6689 209.306L88.2183 204.488C82.3814 205.552 75.5744 210.919 70.7625 213.893C72.3248 210.896 71.4543 209.318 69.6877 206.171C71.3215 204.662 73.2323 203.644 75.2362 202.807C77.2325 201.953 79.3053 201.252 81.322 200.453C85.3834 198.902 89.1028 196.763 91.884 192.576C89.2457 193.754 86.6866 195.104 84.1275 196.447C84.3917 193.778 85.6004 191.714 87.4103 190.127C89.2419 188.585 91.6453 187.464 94.2224 186.512C99.4019 184.643 105.162 183.283 108.878 180.885Z" fill="#C6D2DB"/>
<path d="M61.1062 321.641C63.8759 321.641 66.1518 322.444 67.9323 324.052C69.7116 325.659 70.6012 327.744 70.6012 330.307C70.6012 332.87 69.7103 334.959 67.9323 336.575C66.1518 338.19 63.8759 338.998 61.1062 338.998H55V321.64L61.1062 321.641ZM59.2287 335.784H61.1062C62.7221 335.784 63.9908 335.289 64.9136 334.299C65.8365 333.31 66.2986 331.983 66.2986 330.319C66.2986 328.654 65.8365 327.327 64.9136 326.338C63.9895 325.349 62.7221 324.853 61.1062 324.853H59.2287V335.784Z" fill="black"/>
<path d="M99.6062 321.591V324.805H93.3251V328.539H98.8633V331.753H93.3251V335.784H99.6062V338.998H89.0964V321.59L99.6062 321.591Z" fill="black"/>
<path d="M124.955 324.725C124.428 324.725 123.993 324.864 123.656 325.145C123.319 325.425 123.149 325.829 123.149 326.356C123.149 326.884 123.306 327.308 123.619 327.63C123.933 327.951 124.34 328.199 124.843 328.371C125.346 328.545 125.906 328.709 126.525 328.866C127.144 329.023 127.757 329.212 128.368 329.434C128.977 329.658 129.534 329.933 130.037 330.263C130.54 330.593 130.948 331.059 131.261 331.66C131.575 332.263 131.73 332.982 131.73 333.824C131.73 335.291 131.133 336.547 129.938 337.595C128.744 338.642 127.17 339.164 125.214 339.164C123.262 339.164 121.688 338.694 120.493 337.755C119.298 336.815 118.701 335.48 118.701 333.749H123.202C123.317 335.134 124.025 335.827 125.328 335.827C125.937 335.827 126.417 335.666 126.761 335.345C127.109 335.023 127.281 334.615 127.281 334.121C127.281 333.626 127.124 333.222 126.811 332.908C126.497 332.596 126.09 332.348 125.587 332.167C125.083 331.986 124.524 331.817 123.905 331.66C123.286 331.504 122.673 331.31 122.062 331.079C121.453 330.848 120.896 330.571 120.394 330.251C119.889 329.929 119.482 329.469 119.17 328.866C118.856 328.265 118.7 327.552 118.7 326.727C118.7 325.111 119.301 323.817 120.503 322.845C121.706 321.872 123.245 321.386 125.115 321.386C126.986 321.386 128.5 321.811 129.654 322.66C130.806 323.508 131.409 324.847 131.457 326.677H126.858C126.792 326.051 126.59 325.568 126.253 325.23C125.915 324.893 125.483 324.725 124.955 324.725Z" fill="black"/>
<path d="M150.891 338.997V321.639H155.12V338.997H150.891Z" fill="black"/>
<path d="M176.225 336.63C174.501 334.957 173.641 332.836 173.641 330.263C173.641 327.692 174.503 325.569 176.225 323.896C177.948 322.223 180.054 321.386 182.543 321.386C184.473 321.386 186.185 321.896 187.686 322.92C189.186 323.942 190.234 325.359 190.828 327.173H185.782C185.122 325.903 184.068 325.268 182.618 325.268C181.167 325.268 180.024 325.721 179.192 326.628C178.36 327.535 177.943 328.746 177.943 330.261C177.943 331.779 178.36 332.99 179.192 333.896C180.024 334.804 181.141 335.255 182.543 335.255C183.55 335.255 184.371 335.004 185.005 334.502C185.639 334.001 186.064 333.328 186.277 332.487H181.381V329.273H190.828V332.487C190.514 334.07 189.648 335.545 188.23 336.912C187.555 337.572 186.718 338.108 185.72 338.52C184.723 338.933 183.663 339.138 182.543 339.138C180.054 339.141 177.946 338.305 176.225 336.63Z" fill="black"/>
<path d="M220.671 321.59H224.899V338.998H220.671L213.599 328.044V338.998H209.37V321.59H213.599L220.671 332.543V321.59Z" fill="black"/>
<path d="M278.613 321.639H282.842V338.997H278.613V331.801H271.913V338.997H267.685V321.639H271.913V328.587H278.613V321.639Z" fill="black"/>
<path d="M302.3 332V321.64H306.529V332C306.529 333.038 306.783 333.837 307.294 334.398C307.805 334.958 308.556 335.239 309.545 335.239C310.534 335.239 311.291 334.958 311.818 334.398C312.345 333.837 312.609 333.038 312.609 332V321.64H316.838V332C316.838 333.532 316.479 334.856 315.763 335.969C315.046 337.081 314.14 337.894 313.042 338.404C311.946 338.916 310.755 339.17 309.469 339.17C307.459 339.17 305.76 338.544 304.377 337.291C302.992 336.038 302.3 334.275 302.3 332Z" fill="black"/>
<path d="M336.276 321.639H343.818C345.581 321.639 346.988 322.068 348.033 322.925C349.081 323.783 349.604 324.869 349.604 326.189C349.604 328.15 348.458 329.478 346.167 330.17C347.336 330.336 348.268 330.822 348.96 331.63C349.652 332.438 350 333.385 350 334.473C350 335.857 349.492 336.958 348.48 337.774C347.465 338.589 346.051 338.998 344.24 338.998H336.276V321.639ZM340.505 324.852V328.611H343.275C343.884 328.611 344.375 328.455 344.745 328.141C345.115 327.829 345.302 327.363 345.302 326.745C345.302 326.126 345.115 325.657 344.745 325.335C344.375 325.013 343.884 324.852 343.275 324.852H340.505ZM340.505 335.782H343.693C344.272 335.782 344.749 335.608 345.129 335.262C345.507 334.916 345.697 334.439 345.697 333.829C345.697 333.219 345.515 332.732 345.152 332.369C344.79 332.007 344.32 331.826 343.744 331.826H340.505V335.782Z" fill="black"/>
<path d="M234.54 179.661C237.301 176.983 240.272 175.052 243.709 173.799C244.641 173.261 245.967 173.154 247.112 173.365C248.759 173.432 250.297 174.072 252.266 174.321C252.192 175.96 250.83 176.891 249.721 177.745C243.702 183.247 238.72 189.531 233.095 195.458C232.055 196.564 231.589 197.777 232.018 199.274C232.66 201.52 232.873 204.158 233.514 206.402C233.764 208.222 234.19 209.717 232.401 211.039C231.292 211.897 231.648 213.144 232.148 214.89C232.864 213.606 232.901 212.785 233.257 212.144C234.832 211.962 235.19 215.1 233.72 216.601C233.541 216.919 233.29 216.992 233.362 217.242C233.112 217.314 232.932 217.636 232.572 218.278C234.359 224.517 236.285 231.25 237.889 237.807C238.389 239.553 238.568 241.122 238.817 242.939C238.992 248.288 240.919 253.133 243.101 257.907C244.996 261.686 246.317 265.353 247.71 269.274C248.495 272.018 249.531 274.689 250.317 277.435C250.888 279.431 251.208 281.498 251.6 283.814C250.634 283.28 249.668 282.747 248.701 282.216C248.593 282.784 248.413 283.106 248.234 283.428C248.055 283.75 248.197 284.249 248.341 284.748C246.408 285.571 243.616 285.29 244.473 288.284C242.861 289.283 241.141 288.966 239.924 288.505C238.065 287.688 236.274 287.122 234.844 285.911C229.764 281.424 225.794 276.085 222.506 270.279C222.222 269.283 221.364 268.179 222.652 266.999C222.902 266.928 222.473 265.429 222.26 264.683C221.189 262.831 220.114 260.976 219.043 259.126C212.785 249.579 208.964 239.067 205.072 228.31C204.463 227.134 203.856 225.958 203.177 224.531C202.315 225.319 201.386 225.855 200.777 226.567C197.264 231.352 192.428 234.354 187.734 237.858C184.081 240.252 179.926 242.789 175.951 245.007C172.118 247.724 170.252 252.574 169.175 256.392C167.055 265.095 163.397 273.16 161.133 281.362C160.417 282.647 159.808 283.36 158.374 284.042C152.751 286.19 161.449 289.101 155.684 288.86C143.473 294.512 146.702 284.953 140.406 280.009C142.917 273.622 145.679 267.163 148.512 260.955C150.056 257.815 151.668 254.925 153.282 252.033C155.791 247.537 152.923 252.676 154.969 247.504C154.001 246.97 153.107 246.685 152.141 246.153C150.029 245.408 148.168 244.592 146.057 243.846C144.448 242.957 143.588 241.853 143.59 239.964C145.131 238.714 146.849 239.031 148.638 239.599C151.251 240.203 154.045 240.483 156.835 240.762C157.409 240.867 158.59 240.259 158.95 239.617C160.849 235.835 162.428 231.876 164.329 228.093C164.616 227.201 164.653 226.38 165.012 225.738C169.638 216.319 171.83 205.975 174.988 196.164C178.65 184.318 181.99 172.3 185.653 160.456C187.268 155.675 187.63 151.255 186.596 146.692C185.526 141.06 185.03 135.535 184.533 130.008C184.219 120.382 185.481 110.578 187.136 101.195C187.854 98.0224 188.537 97.5566 191.509 97.5145C195.554 97.4392 199.529 97.1099 203.574 97.0333C204.898 96.9235 206.294 97.064 207.583 97.7736C210.158 99.1954 212.735 100.619 215.131 102.359C216.243 103.393 217.17 104.747 217.778 105.923C220.6 111.051 221.671 116.682 222.238 122.458C223.306 129.978 224.302 137.253 225.119 144.843C225.335 145.592 225.368 146.66 225.655 147.657C227.224 153.147 227.47 158.743 227.215 164.484C226.853 168.907 227.816 173.221 228.278 177.676C228.527 179.494 229.027 181.24 229.528 182.987C229.849 183.163 229.849 183.163 230.171 183.34C231.71 182.092 233.249 180.841 234.54 179.661ZM197.458 212.133C199 210.883 199.216 209.742 198.966 207.925C197.825 203.933 196.861 199.619 195.971 195.557C190.266 168.043 187.96 184.626 183.757 203.1C174.463 226.541 182.156 229.737 197.458 212.133Z" fill="#272525"/>
</svg>
