<svg width="429" height="244" viewBox="0 0 429 244" fill="none" xmlns="http://www.w3.org/2000/svg">
<rect width="429" height="244" fill="#FFA1A1"/>
<path d="M200.669 128.07C200.702 126.223 202.223 123.1 203.595 124.055C202.224 123.098 202.228 123.108 202.486 120.477C203.398 121.116 204.276 119.161 204.92 117.977C203.652 118.486 202.724 119.717 200.861 122.139C201.394 125.789 195.222 128.624 195.997 132.203C197.521 130.979 199.933 130.35 200.669 128.07Z" fill="#C6D2DB"/>
<path d="M213.576 121.408L213.237 120.704L211.518 125.372C211.588 124.249 212.832 121.124 213.576 121.408Z" fill="#C6D2DB"/>
<path d="M220.5 107.208C221.28 108.234 223.223 106.547 224.13 107.199C222.037 105.939 225.817 103.677 226.762 101.759L225.682 100.002C223.384 100.954 220.975 105.659 218.446 109.301L220.5 107.208Z" fill="#C6D2DB"/>
<path d="M223.852 104.632L223.615 102.798C223.238 103.951 221.908 106.313 223.852 104.632Z" fill="#C6D2DB"/>
<path d="M216.67 103.527C214.631 106.37 218.49 102.202 216.913 105.368C217.278 104.204 217.963 103.014 216.67 103.527Z" fill="#C6D2DB"/>
<path d="M227.97 93.4932C226.794 95.69 225.641 97.8915 224.524 100.108L226.911 98.0338L227.97 93.4932Z" fill="#C6D2DB"/>
<path d="M231.484 95.4651C230.928 96.2428 229.5 97.0893 229.751 95.5896C232.455 94.2784 231.727 91.7579 234.179 90.5096L233.325 92.7703C234.769 93.4331 234.892 87.8812 237.072 89.6524C237.411 85.9642 233.721 90.1527 235.095 86.0342C233.129 89.4284 230.997 91.4189 228.702 93.8101C229.71 93.3619 229.835 92.9766 230.999 92.1681C229.71 94.1029 228.619 97.1533 227.257 99.4911C229.551 99.286 229.349 96.7348 231.484 95.4651Z" fill="#C6D2DB"/>
<path d="M238.701 86.2968C240.35 84.4391 242.746 81.4931 241.579 79.6543C238.746 80.7402 239.855 82.2566 239.797 83.7136C239.05 84.0835 237.398 85.9554 237.15 84.483C237.728 84.4687 237.395 86.7046 238.701 86.2968Z" fill="#C6D2DB"/>
<path d="M245.105 78.9981L244.864 76.3994L244.346 77.4949L243.247 76.7266C243.361 77.1048 244.647 79.3561 242.944 81.1403C244.556 80.812 243.904 79.6964 245.105 78.9981Z" fill="#C6D2DB"/>
<path d="M238.497 72.5172C240.313 71.7668 240.629 70.6796 241.593 68.8018C239.792 71.0009 237.174 74.0264 237.227 75.1621L237.117 74.7828C237.117 74.7828 236.147 77.4194 236.049 79.6826C236.759 76.6263 241.599 74.0762 238.497 72.5172Z" fill="#C6D2DB"/>
<path d="M249.865 73.0195C248.838 73.7795 247.867 74.6034 246.861 75.3977L247.904 75.093C248.561 74.4042 249.183 73.6811 249.865 73.0195Z" fill="#C6D2DB"/>
<path d="M242.615 72.6095C244.926 70.4483 240.363 72.9082 242.387 70.7257C242.762 69.9776 239.49 74.0203 240.052 74.8004C240.791 74.4269 241.213 71.8045 242.615 72.6095Z" fill="#C6D2DB"/>
<path d="M257.861 66.6552L257.656 65.5159C259.073 64.8626 260.268 63.5633 261.586 62.5686C262.902 61.5775 264.244 60.7666 265.728 60.9788C264.59 60.3043 265.217 58.162 262.891 59.4945C262.965 60.2746 262.211 60.8449 262.812 61.3665C261.778 61.868 261.408 61.031 260.594 61.2266C259.752 63.2764 256.957 64.6528 256.442 66.4169C256.85 65.7293 257.16 65.7992 257.656 65.5147C256.388 68.9705 253.101 66.3445 254.017 69.4032C254.271 67.9735 257.022 67.9735 257.861 66.6552Z" fill="#C6D2DB"/>
<path d="M253.106 61.7877L250.826 63.4178C250.544 61.8482 253.257 61.0325 252.818 59.847C252.15 59.3479 249.819 60.9922 250.219 59.8932C252.072 62.4196 247.53 62.6686 250.972 64.1896C248.651 66.9483 248.806 63.553 246.257 66.4006L246.699 68.32C249.023 64.7005 250.612 65.2839 253.106 61.7877Z" fill="#C6D2DB"/>
<path d="M261.731 55.3594L263.435 55.4163L261.983 54.6493C263.23 53.7068 264.571 53.1745 265.897 52.8793C267.245 52.6137 268.608 52.6291 269.854 52.6564C272.336 52.6659 274.518 53.0796 275.895 51.8799C276.652 50.8971 277.598 50.2972 278.614 49.8858C279.625 49.4638 280.692 49.197 281.775 49.0097C282.883 48.8911 283.999 48.8259 285.092 48.6872C285.638 48.6185 286.18 48.5284 286.717 48.411C287.265 48.3339 287.808 48.2225 288.343 48.0601C290.204 46.36 286.09 47.7625 285.672 47.1745C285.633 44.5509 288.117 47.9083 288.641 45.6926C288.59 44.788 287.306 44.59 285.72 44.5557C284.165 44.6244 282.332 44.9007 281.157 44.7098C279.502 45.4946 279.764 46.1087 279.614 47.2243C278.841 46.4679 277.031 46.8888 276.197 46.1573C274.699 47.4875 273.358 47.9842 271.907 48.3482C270.456 48.7169 269.079 49.2207 267.9 50.8378C266.205 50.2865 270.14 49.1638 268.981 49.6333L267.268 50.7157L267.567 50.7916C267.165 51.4472 266.548 52.0174 265.839 52.5449C265.147 53.0974 264.346 53.5811 263.523 53.9925C261.861 54.7892 260.178 55.3772 259.213 55.5752C260.591 55.0879 262.003 55.4151 260.989 56.7417L258.981 56.3066C258.533 57.6427 258.063 58.9148 257.693 60.2604C258.785 57.395 263.047 57.9877 261.731 55.3594Z" fill="#C6D2DB"/>
<path d="M256.914 55.501C253.055 57.5045 258.737 56.9651 254.763 59.3765L256.544 57.7381L258.411 56.1826L256.914 55.501Z" fill="#C6D2DB"/>
<path d="M276.035 48.0504L278.354 48.2566C277.419 47.4493 276.474 48.0409 275.967 48.5056C275.483 49.0177 275.377 49.3568 276.035 48.0504Z" fill="#C6D2DB"/>
<path d="M283.131 45.333L282.74 47.582L284.198 45.9139L283.131 45.333Z" fill="#C6D2DB"/>
<path d="M290.322 45.962C291.588 44.6164 289.668 44.1766 287.983 44.8251C289.563 44.5453 290.534 45.2234 290.322 45.962Z" fill="#C6D2DB"/>
<path d="M301.277 48.6699C299.713 48.7446 300.415 48.8383 301.215 49.1489C302.021 49.5282 302.883 50.1376 301.803 51.0114C302.173 50.1661 303.785 49.0683 301.277 48.6699Z" fill="#C6D2DB"/>
<path d="M310.396 54.2921C309.35 54.4272 308.999 54.0585 308.934 53.5547C309.676 53.6472 310.218 53.9518 310.396 54.2921Z" fill="#C6D2DB"/>
<path d="M272.872 55.1602C272.557 55.3629 272.214 55.5739 271.867 55.7102C272.21 55.5229 272.533 55.3463 272.872 55.1602Z" fill="#C6D2DB"/>
<path d="M273.53 54.8076L272.872 55.1609C273.109 55.0127 273.329 54.8882 273.53 54.8076Z" fill="#C6D2DB"/>
<path d="M296.619 51.8524L296.609 51.8559C296.524 51.8002 296.445 51.7694 296.359 51.6982L296.619 51.8524Z" fill="#C6D2DB"/>
<path d="M219.585 113.629C219.324 114.236 219.084 114.681 218.852 115.014C219.09 114.555 219.329 114.091 219.564 113.636C219.573 113.629 219.577 113.631 219.585 113.629Z" fill="#C6D2DB"/>
<path d="M216.245 113.653C216.632 110.619 220.398 112.795 222.028 108.53C221.29 110.2 220.445 111.903 219.564 113.636C216.488 114.716 219.721 111.383 216.245 113.653Z" fill="#C6D2DB"/>
<path d="M235.63 81.3463C235.643 81.2859 235.67 81.248 235.68 81.1839C235.797 80.9243 235.761 81.076 235.63 81.3463Z" fill="#C6D2DB"/>
<path d="M131.737 195.624L131.776 196.18L129.198 195.705L131.737 195.624Z" fill="#C6D2DB"/>
<path d="M132.208 196.591C133.685 196.77 135.167 196.816 136.682 196.926C128.19 198.624 119.19 198.901 110.594 196.58L111.612 196.074C111.6 195.935 111.912 195.947 112.472 196.021C113.04 196.064 113.856 196.179 114.836 196.343C115.82 196.473 116.954 196.791 118.198 196.877C119.44 197.002 120.766 197.136 122.088 197.269C127.402 197.585 132.648 196.964 132.208 196.591Z" fill="#C6D2DB"/>
<path d="M133.303 195.551C135.306 192.845 137.507 195.756 140.044 193.349C139.222 194.123 138.518 194.896 137.764 195.466C136.997 195.977 136.174 196.274 135.154 196.157L133.303 195.551Z" fill="#C6D2DB"/>
<path d="M141.369 182.1C141.524 182.01 141.687 181.955 141.857 181.916C141.698 182.086 141.557 182.252 141.459 182.403L141.369 182.1Z" fill="#C6D2DB"/>
<path d="M141.459 182.403L141.689 183.166C141.235 182.995 141.256 182.725 141.459 182.403Z" fill="#C6D2DB"/>
<path d="M141.857 181.917C142.213 181.525 142.641 181.104 142.791 180.708L142.298 180.749C142.859 180.376 143.651 179.29 144.104 179.591C142.884 179.975 143.067 180.505 143.431 181.556L145.446 180.843C146.096 183.413 143.683 181.538 141.857 181.917Z" fill="#C6D2DB"/>
<path d="M151.436 178.778C151.189 179.396 149.173 180.284 150.675 180.278C150.493 180.71 150.083 180.853 149.678 181.058C150.84 180.043 148.764 179.11 151.436 178.778Z" fill="#C6D2DB"/>
<path d="M149.678 181.059C149.539 181.18 149.379 181.303 149.142 181.426C149.302 181.263 149.491 181.153 149.678 181.059Z" fill="#C6D2DB"/>
<path d="M156.145 177.809C156.393 177.668 156.638 177.516 156.879 177.34C156.672 177.49 156.502 177.654 156.336 177.796L156.145 177.809Z" fill="#C6D2DB"/>
<path d="M82.5815 182.271C83.6829 183.835 84.7736 185.385 86.1583 186.963C86.8921 187.714 87.7611 188.414 88.7096 189.141C89.6924 189.827 90.668 190.654 91.9982 191.204C93.0249 189.609 94.1369 192.047 95.5145 190.57C94.3491 189.841 94.8731 190.155 96.259 190.975C96.6099 191.173 96.9964 191.43 97.4552 191.66C97.9223 191.873 98.4333 192.105 98.9739 192.35C100.06 192.826 101.239 193.394 102.463 193.862C107.44 195.669 112.706 196.258 110.768 195.334L109.312 195.822C109.926 195.312 110.523 194.796 111.105 194.276C112.206 194.911 113.53 195.69 114.841 196.236C116.145 196.785 117.414 197.186 118.331 196.646C118.38 196.727 118.085 196.762 117.531 196.759C116.98 196.731 116.176 196.599 115.2 196.45C114.229 196.272 113.067 196.148 111.861 195.827C110.657 195.485 109.372 195.119 108.091 194.753C106.811 194.379 105.603 193.793 104.44 193.358C103.863 193.128 103.307 192.906 102.783 192.696C102.28 192.439 101.808 192.197 101.376 191.976C99.6461 191.089 98.5317 190.565 98.6431 190.787C98.508 190.061 100.136 190.463 102.593 191.41C103.824 191.883 105.378 192.258 106.992 192.811C107.793 193.109 108.667 193.292 109.556 193.485C110.439 193.688 111.341 193.895 112.248 194.103C114.073 194.45 115.946 194.629 117.691 194.881C119.455 194.942 121.121 194.999 122.568 195.049C125.461 194.856 127.454 194.685 127.628 194.395L128.025 195.571C129.859 194.747 131.294 193.903 132.598 193.017C133.896 192.075 135.08 191.209 136.449 190.544L137.421 191.812C135.148 191.801 134.753 192.822 132.559 193.868C134.513 193.385 135.7 193.337 136.788 193.305C137.869 193.26 138.821 193.116 140.278 192.605C139.671 190.808 137.55 192.353 140.922 190.389C141.558 190.636 141.419 191.413 141.507 191.978C141.59 192.528 141.947 192.941 143.536 192.163C145.617 191.716 146.232 190.9 146.716 190.041C147.185 189.127 147.534 188.167 149.127 187.39L146.669 187.683C147.819 187.053 149.877 185.829 151.421 186.133C150.077 186.707 146.996 189.082 147.779 190.84C149.044 189.826 152.527 189.167 153.67 188.366L153.518 189.938C155.444 190.331 155.352 188.279 157.601 188.36C158.765 186.759 155.715 187.271 156.307 186.28C156.827 186.487 160.171 185.251 160.709 183.89C159.571 182.954 158.844 183.65 157.959 184.458C157.077 185.257 156.044 186.218 154.42 185.494C155.455 185.178 156.425 184.736 157.417 184.314C157.54 182.615 156.472 183.289 155.348 184.081C154.194 184.829 152.918 185.616 152.857 184.414C153.217 182.633 154.574 182.688 155.877 182.531C157.181 182.408 158.489 182.186 158.376 180.099C156.778 180.274 152.983 182.599 152.956 181.377C154.828 181.499 154.763 179.172 156.338 177.799C157.294 177.694 158.246 177.501 159.218 177.346C159.617 175.985 158.87 176.503 157.843 176.541C158.852 176.308 159.891 175.812 160.937 175.135C161.959 174.418 163.003 173.549 164.094 172.662C166.233 170.812 168.504 168.836 171.186 167.558C173.295 164.973 170.63 166.401 171.014 164.671C173.417 164.565 174.53 161.496 175.724 160.117C176.179 159.785 175.592 157.953 174.742 157.893C174 159.27 173.24 160.637 172.431 161.957C171.936 161.19 170.422 160.665 169.461 161.957C171.01 162.687 169.559 163.512 167.975 164.388C166.41 165.299 164.77 166.318 165.865 167.761L164.789 166.483C163.632 167.984 162.508 169.582 161.261 171.004L161.532 171.074C161.365 170.853 160.62 171.815 159.546 173.021C158.45 174.181 156.967 175.512 155.511 176.124C155.932 175.155 160.491 172.681 156.949 172.963C158.203 170.934 162.309 169.543 164.98 166.176L163.61 165.881C165.741 161.812 171.32 159.145 174.343 155.036L174.508 157.163C176.138 156.253 178.586 155.251 178.659 153.112C177.32 154.844 177.371 153.416 177.11 152.697C178.336 149.941 181.741 147.107 183.678 143.466C183.678 143.466 183.825 143.821 184.112 143.817C184.719 142.506 185.279 141.135 185.858 139.798C187.244 138.304 188.383 138.245 189.936 137.779C190.192 137.032 191.278 135.505 190.128 135.583C189.828 135.867 189.531 136.151 189.454 136.419C189.297 133.658 190.741 135.455 191.417 132.583C191.407 135.146 193.457 133.154 194.518 134.166C195.802 131.121 192.557 132.498 192.234 131.789C195.105 129.006 196.402 129.224 198.811 126.055C198.191 125.383 196.77 128.09 195.746 127.822C196.561 127.007 197.208 125.848 197.041 125.497L195.125 127.148C198.264 124.292 200.645 121.06 202.522 116.768L201.947 116.834L203.521 114.425L204.368 116.187C204.839 114.645 206.977 114.015 206.301 112.606L205.895 113.026L206.49 111.095L206.805 113.665C208.722 111.955 207.687 107.208 210.141 103.91C212.486 104.379 207.01 110.279 209.183 112.259C210.293 111.374 211.929 109.689 211.718 108.588C210.971 108.306 210.441 109.116 209.909 109.931C210.538 106.111 215.468 102.913 214.609 99.6335L212.346 101.393C213.84 98.5878 217.471 98.5665 216.686 96.7716L217.705 100.419C218.288 96.9838 220.811 93.7212 221.67 90.6376C220.338 89.6252 219.226 94.2535 219.091 93.8931L218.899 92.0247C222.394 88.691 220.49 91.4817 224.582 87.381L223.707 86.691C226.179 86.1279 226.612 80.0568 227.855 83.3869L226.376 84.231L227.531 84.9151L230.799 79.074C231.182 80.1931 232.957 77.4984 233.459 78.9922L234.057 76.333C236.229 76.6721 233.028 81.2589 234.031 82.3437C234.766 82.806 235.387 81.8576 235.637 81.3478C234.951 84.4705 231.506 83.6134 229.707 85.905L229.838 87.7782L228.538 86.7325C228.089 87.8884 228.378 89.3644 228.671 90.0887C225.172 91.0869 225.649 95.1592 222.87 98.4029C224.062 94.9292 220.283 99.3963 220.256 98.6554C219.143 100.271 218.967 105.886 216.383 106.175C215.101 106.698 216.671 103.527 214.896 105.6C214.111 107.189 214.194 108.673 215.476 108.148C213.788 111.703 210.992 115.4 208.772 119.006L208.383 117.565C206.183 119.314 206.094 122.288 206.362 124.117C205.787 124.183 205.951 124.533 205.618 123.836C202.255 125.681 205.218 128.707 201.835 133.125C203.312 133.72 204.803 131.708 205.125 129.824L206.368 131.172C209.031 127.158 211.618 122.391 212.804 118.527L212.953 120.743C216.769 119.167 212.296 117.47 216.282 116.25C217.001 113.93 214.6 117.192 214.909 115.297C216.229 114.168 217.28 117.297 218.858 115.016C214.042 124.274 207.663 134.306 201.684 143.532C201.837 143.892 202.264 143.48 202.69 143.075C202.608 145.311 196.906 151.904 191.193 157.96C185.527 164.069 179.763 169.486 181.062 171.459C180.189 171.391 180.889 169.567 179.316 171.328C179.405 171.714 179.296 172.462 180.165 172.528C177.136 173.786 174.674 176.231 171.98 178.737C169.315 181.249 166.395 183.824 162.937 185.218C163.518 185.766 162.44 187.057 162.7 187.516C161.106 187.44 159.679 188.365 158.292 189.376C156.87 190.311 155.455 191.277 154.171 191.373L155.263 191.822L153.582 192.698L151.841 193.453C150.677 193.947 149.525 194.474 148.349 194.936C148.261 195.337 149.227 194.969 149.831 194.827C148.459 195.902 147.715 195.001 147.306 194.346L144.739 197.293C139.462 197.181 134.281 198.878 128.43 199.786C122.67 200.719 116.207 200.928 110.674 198.456C109.625 198.954 108.66 199.243 107.576 199.318C107.034 199.354 106.463 199.34 105.836 199.265C105.224 199.14 104.557 198.953 103.81 198.699L105.088 199.715C101.616 199.711 105.194 198.919 102.424 198.476C100.298 198.657 100.966 200.404 103.717 200.587C105.043 201.685 103.941 201.822 102.693 201.722C101.473 201.203 100.266 200.682 99.0972 200.119C97.9662 199.467 96.8577 198.8 95.7801 198.119L94.1855 197.089C93.671 196.727 93.1991 196.306 92.7178 195.914C91.7623 195.114 90.8388 194.304 89.9544 193.487C88.2318 191.801 86.8222 189.893 85.4991 188.095C84.3314 186.149 83.364 184.187 82.5815 182.271Z" fill="#C6D2DB"/>
<path d="M328.65 68.3456C328.711 67.3177 330.941 70.0089 330.989 67.6983C330.805 66.93 330.541 66.1227 330.141 65.3734C329.695 64.6728 329.166 63.9721 328.582 63.2727C328.289 62.9241 327.985 62.5708 327.666 62.2247C327.305 61.9283 326.94 61.6283 326.57 61.3248C325.812 60.7392 325.069 60.0907 324.241 59.5465C320.899 57.3592 317.134 55.837 313.994 53.6699C312.399 52.0848 311.854 51.9663 310.205 50.9408C310.126 51.1826 310.068 51.5051 310.103 51.8038C309.108 51.5833 307.761 51.549 306.442 51.3771C305.123 51.1696 303.778 51.1886 302.76 50.7381C302.162 51.0392 301.744 52.2354 302.84 51.9828C301.31 52.4061 300.003 51.9686 298.789 51.4612C297.586 50.9514 296.487 50.4002 295.661 51.0439C297.254 51.6142 294.314 52.4037 296.169 52.7736C293.05 53.4269 292.602 49.038 289.783 49.2052C289.695 49.5703 289.608 49.9378 290.167 49.9129C289.343 49.6319 288.37 49.6877 287.373 49.8809C286.385 50.1133 285.397 50.5674 284.474 50.9135C282.609 51.5703 281.125 52.2318 280.399 50.8981L279.739 52.5235C278.134 52.1643 278.114 51.3083 275.914 52.0066C274.806 53.1091 276.462 52.9775 276.185 53.6319C275.641 53.2301 274.55 53.6035 273.286 53.9947C272.045 54.4405 270.668 54.9751 269.426 54.7274C268.877 53.9544 269.927 54.0552 271.169 54.0682C271.791 54.0765 272.456 54.0528 273.016 53.8951C273.59 53.7659 274.048 53.4826 274.25 52.9005C274.125 52.5413 273.839 52.5638 273.486 52.6966C274.577 52.201 275.669 51.7896 276.747 51.4446C277.83 51.1127 278.958 50.9692 280.028 50.7985C282.159 50.4191 284.301 50.5235 286.277 50.5057C288.262 50.5009 290.187 50.7416 291.984 50.5946C293.819 50.6598 295.559 50.3883 297.336 49.8975C299.024 51.1387 300.121 49.8264 300.839 48.4761C299.524 47.9616 295.452 46.8792 295.69 49.6248L293.147 48.2591C292.284 48.5116 291.842 45.8798 291.357 45.5063C293.101 45.5632 294.803 42.6954 292.208 42.1003C294.61 41.6012 294.378 43.0558 294.119 44.4666C293.86 45.8774 293.573 47.2455 295.49 46.6278L295.866 44.6421C295.228 45.6818 298.751 46.3682 300.007 45.6545L299.452 45.3059C304.837 45.53 311.057 46.0813 317.209 47.8169C323.358 49.5027 329.353 52.4405 334.119 56.1369C333.89 57.5359 334.208 58.4902 334.837 59.2347C335.496 59.9461 336.359 60.5661 337.24 61.2015C338.131 61.8216 339.059 62.4381 339.687 63.1778C340.27 63.9496 340.484 64.8909 340.086 65.9852C341.35 66.6834 340.4 63.479 342.309 65.217C343.277 66.1073 342.301 66.8767 341.973 67.0202C342.292 67.262 342.616 67.5062 342.943 67.754C341.234 69.3746 339.171 70.1464 336.787 70.2211C335.598 70.2507 334.335 70.0919 333.021 69.7338C332.692 69.6449 332.363 69.5394 332.024 69.4291C331.659 69.3438 331.291 69.2466 330.918 69.1375C330.176 68.9217 329.419 68.6597 328.65 68.3456Z" fill="#C6D2DB"/>
<path d="M93.2193 96.4096V102.27C95.7456 98.0777 99.7693 95.9805 105.297 95.9805C109.872 95.9805 113.575 97.5051 116.411 100.554C119.244 103.603 120.663 107.749 120.663 112.989V136.287H108.513V114.632C108.513 112.06 107.835 110.072 106.476 108.664C105.118 107.26 103.249 106.557 100.866 106.557C98.4831 106.557 96.6134 107.26 95.256 108.664C93.8986 110.071 93.2193 112.06 93.2193 114.632V136.287H81V96.4096H93.2193Z" fill="#272525"/>
<path d="M132.669 131.069C129.142 127.258 127.379 122.374 127.379 116.418C127.379 110.463 129.141 105.568 132.669 101.732C136.194 97.8979 140.495 95.9785 145.569 95.9785C150.643 95.9785 154.537 97.8611 157.253 101.625V96.4077H169.475V136.285H157.253V130.496C154.298 134.69 150.344 136.785 145.39 136.785C140.434 136.787 136.194 134.882 132.669 131.069ZM154.61 123.637C156.371 121.923 157.253 119.492 157.253 116.347C157.253 113.202 156.371 110.785 154.61 109.093C152.846 107.402 150.821 106.556 148.534 106.556C146.247 106.556 144.221 107.413 142.458 109.128C140.696 110.844 139.814 113.274 139.814 116.418C139.814 119.562 140.696 121.981 142.458 123.673C144.22 125.364 146.247 126.21 148.534 126.21C150.821 126.21 152.847 125.352 154.61 123.637Z" fill="#272525"/>
<path d="M196.419 125.925H200.778V136.288H194.561C190.081 136.288 186.615 135.3 184.163 133.321C181.707 131.345 180.482 127.95 180.482 123.138V106.557H176.765V96.4087H180.482V86.6885H192.703V96.4087H200.708V106.557H192.703V123.138C192.702 124.997 193.94 125.925 196.419 125.925Z" fill="#272525"/>
<path d="M235.509 96.4094H247.731V136.287H235.509V130.427C232.983 134.62 228.958 136.716 223.431 136.716C218.858 136.716 215.152 135.192 212.319 132.141C209.483 129.093 208.066 124.948 208.066 119.706V96.4082H220.216V118.062C220.216 120.635 220.895 122.625 222.252 124.03C223.61 125.436 225.479 126.138 227.862 126.138C230.245 126.138 232.115 125.436 233.472 124.03C234.831 122.625 235.509 120.636 235.509 118.062V96.4094Z" fill="#272525"/>
<path d="M269.955 96.4096V103.843C272.814 98.6017 276.626 95.9805 281.39 95.9805V108.417H278.389C275.577 108.417 273.469 109.084 272.064 110.418C270.658 111.753 269.955 114.087 269.955 117.421V136.289H257.735V96.4108H269.955V96.4096Z" fill="#272525"/>
<path d="M289.68 131.069C286.154 127.258 284.392 122.374 284.392 116.418C284.392 110.463 286.154 105.568 289.68 101.732C293.205 97.8979 297.505 95.9785 302.581 95.9785C307.655 95.9785 311.549 97.8611 314.264 101.625V96.4077H326.486V136.285H314.264V130.496C311.31 134.69 307.356 136.785 302.402 136.785C297.446 136.787 293.205 134.882 289.68 131.069ZM311.62 123.637C313.382 121.923 314.264 119.492 314.264 116.347C314.264 113.202 313.382 110.785 311.62 109.093C309.859 107.402 307.832 106.556 305.547 106.556C303.259 106.556 301.234 107.413 299.471 109.128C297.707 110.844 296.827 113.274 296.827 116.418C296.827 119.562 297.707 121.981 299.471 123.673C301.233 125.364 303.258 126.21 305.547 126.21C307.832 126.21 309.859 125.352 311.62 123.637Z" fill="#272525"/>
<path d="M336.492 136.287V83.4014H348.711V136.287H336.492Z" fill="#272525"/>
<path d="M94.1701 143.269V155.263H92.2022V147.048L88.5436 155.263H87.1814L83.5051 147.048V155.263H81.5371V143.269H83.6604L87.8702 152.675L92.0634 143.269H94.1701Z" fill="black"/>
<path d="M107.804 155.263V143.269H109.772V155.263H107.804Z" fill="black"/>
<path d="M131.292 143.251H133.258V155.263H131.292L125.371 146.306V155.263H123.403V143.251H125.371L131.292 152.19V143.251Z" fill="black"/>
<path d="M153.519 143.251V144.787H148.859V148.428H153V149.947H148.859V153.726H153.519V155.263H146.891V143.251H153.519Z" fill="black"/>
<path d="M168.946 150.396V155.263H166.981V143.269H171.122C172.479 143.269 173.526 143.605 174.263 144.277C174.998 144.951 175.368 145.806 175.368 146.841C175.368 147.646 175.124 148.371 174.635 149.015C174.145 149.659 173.393 150.078 172.382 150.274L175.557 155.261H173.16L170.157 150.395L168.946 150.396ZM168.946 144.804V148.86H171.122C171.869 148.86 172.427 148.68 172.796 148.324C173.163 147.967 173.347 147.47 173.347 146.831C173.347 146.192 173.163 145.694 172.796 145.338C172.426 144.982 171.869 144.803 171.122 144.803L168.946 144.804Z" fill="black"/>
<path d="M197.026 155.263L196.163 152.812H191.141L190.278 155.263H188.224L192.521 143.251H194.799L199.097 155.263H197.026ZM191.675 151.276H195.628L193.66 145.633L191.675 151.276Z" fill="black"/>
<path d="M212.006 143.269H213.972V153.76H218.029V155.261H212.005L212.006 143.269Z" fill="black"/>
<path d="M260.444 143.269H262.55L258.996 155.263H256.768L254.249 146.185L251.574 155.263L249.366 155.279L245.964 143.269H248.053L250.538 153.036L253.229 143.269H255.438L257.941 152.984L260.444 143.269Z" fill="black"/>
<path d="M283.312 155.263L282.449 152.812H277.427L276.564 155.263H274.511L278.807 143.251H281.086L285.383 155.263H283.312ZM277.962 151.276H281.915L279.946 145.633L277.962 151.276Z" fill="black"/>
<path d="M297.67 144.804V143.269H306.04V144.804H302.848V155.263H300.88V144.804H297.67Z" fill="black"/>
<path d="M325.696 143.251V144.787H321.036V148.428H325.179V149.947H321.036V153.726H325.696V155.263H319.069V143.251H325.696Z" fill="black"/>
<path d="M341.125 150.396V155.263H339.159V143.269H343.3C344.658 143.269 345.704 143.605 346.442 144.277C347.177 144.951 347.547 145.806 347.547 146.841C347.547 147.646 347.302 148.371 346.813 149.015C346.324 149.659 345.572 150.078 344.56 150.274L347.735 155.261H345.337L342.334 150.395L341.125 150.396ZM341.125 144.804V148.86H343.3C344.047 148.86 344.605 148.68 344.974 148.324C345.342 147.967 345.525 147.47 345.525 146.831C345.525 146.192 345.342 145.694 344.974 145.338C344.604 144.982 344.047 144.803 343.3 144.803L341.125 144.804Z" fill="black"/>
</svg>
