<svg width="429" height="403" viewBox="0 0 429 403" fill="none" xmlns="http://www.w3.org/2000/svg">
<rect width="429" height="403" fill="#E5BAD6"/>
<path d="M162.369 117.179L233.972 135.617C236.992 136.395 240.053 134.507 240.685 131.478L248.339 94.7113C248.86 92.212 247.549 89.6902 245.19 88.6696C231.569 82.7717 186.445 67.4654 159.148 109.034C157.125 112.113 158.782 116.256 162.369 117.179Z" fill="#EAAB28"/>
<path d="M217.401 198.435L196.508 128.256C195.622 125.278 192.43 123.653 189.508 124.691L153.891 137.357C151.552 138.189 150.07 140.505 150.308 142.982C151.653 156.998 160.004 201.038 211.798 205.405C215.584 205.723 218.489 202.086 217.401 198.435Z" fill="#83E8B7"/>
<path d="M260.498 112.279L208.938 164.051C206.75 166.248 206.848 169.827 209.153 171.901L237.261 197.183C239.106 198.843 241.845 199.043 243.903 197.656C255.548 189.801 290.177 161.498 269.284 113.887C267.755 110.408 263.18 109.586 260.498 112.279Z" fill="#BAC2FC"/>
<path d="M84.2256 272.387H76.146V246.205H84.5835C87.1233 246.205 89.2966 246.729 91.1034 247.777C92.9102 248.817 94.2952 250.313 95.2582 252.265C96.2213 254.208 96.7028 256.534 96.7028 259.245C96.7028 261.972 96.217 264.32 95.2455 266.289C94.2739 268.249 92.8591 269.757 91.0011 270.814C89.1432 271.863 86.8847 272.387 84.2256 272.387ZM79.3165 269.574H84.021C86.1858 269.574 87.9798 269.157 89.4031 268.321C90.8264 267.486 91.8875 266.297 92.5864 264.755C93.2852 263.212 93.6347 261.375 93.6347 259.245C93.6347 257.131 93.2895 255.311 92.5992 253.786C91.9088 252.252 90.8776 251.076 89.5054 250.257C88.1332 249.431 86.4244 249.017 84.379 249.017H79.3165V269.574ZM102.021 272.387V246.205H117.822V249.017H105.191V257.864H117.004V260.676H105.191V269.574H118.027V272.387H102.021ZM137.855 252.75C137.701 251.455 137.079 250.449 135.988 249.733C134.897 249.017 133.559 248.659 131.974 248.659C130.815 248.659 129.801 248.847 128.932 249.222C128.071 249.597 127.397 250.113 126.912 250.769C126.434 251.425 126.196 252.171 126.196 253.006C126.196 253.705 126.362 254.306 126.694 254.809C127.035 255.303 127.47 255.716 127.998 256.049C128.527 256.373 129.081 256.641 129.66 256.854C130.24 257.059 130.772 257.225 131.258 257.353L133.917 258.069C134.599 258.248 135.358 258.495 136.193 258.81C137.037 259.125 137.842 259.556 138.609 260.101C139.385 260.638 140.024 261.328 140.527 262.172C141.03 263.016 141.281 264.051 141.281 265.279C141.281 266.694 140.91 267.972 140.169 269.114C139.436 270.256 138.362 271.164 136.947 271.837C135.541 272.51 133.832 272.847 131.821 272.847C129.946 272.847 128.322 272.544 126.95 271.939C125.586 271.334 124.513 270.49 123.728 269.408C122.953 268.326 122.514 267.069 122.412 265.637H125.684C125.77 266.625 126.102 267.444 126.682 268.091C127.27 268.73 128.011 269.208 128.906 269.523C129.809 269.83 130.781 269.983 131.821 269.983C133.031 269.983 134.118 269.787 135.081 269.395C136.044 268.995 136.807 268.441 137.369 267.733C137.932 267.017 138.213 266.182 138.213 265.228C138.213 264.358 137.97 263.651 137.484 263.105C136.998 262.56 136.359 262.117 135.566 261.776C134.774 261.435 133.917 261.137 132.997 260.881L129.775 259.961C127.73 259.373 126.111 258.533 124.917 257.442C123.724 256.351 123.128 254.924 123.128 253.159C123.128 251.694 123.524 250.415 124.316 249.324C125.118 248.225 126.191 247.373 127.538 246.767C128.893 246.154 130.406 245.847 132.076 245.847C133.764 245.847 135.264 246.15 136.576 246.755C137.889 247.351 138.929 248.169 139.696 249.209C140.471 250.249 140.88 251.429 140.923 252.75H137.855ZM149.664 246.205V272.387H146.494V246.205H149.664ZM173.919 254.387C173.638 253.526 173.267 252.755 172.807 252.073C172.355 251.382 171.814 250.794 171.183 250.309C170.561 249.823 169.853 249.452 169.061 249.196C168.268 248.941 167.399 248.813 166.453 248.813C164.902 248.813 163.491 249.213 162.221 250.015C160.951 250.816 159.941 251.996 159.191 253.556C158.441 255.115 158.066 257.029 158.066 259.296C158.066 261.563 158.446 263.476 159.204 265.036C159.963 266.596 160.99 267.776 162.285 268.577C163.581 269.378 165.038 269.779 166.657 269.779C168.157 269.779 169.478 269.459 170.62 268.82C171.771 268.172 172.666 267.26 173.305 266.084C173.953 264.9 174.277 263.506 174.277 261.904L175.248 262.108H167.373V259.296H177.345V262.108C177.345 264.265 176.885 266.14 175.964 267.733C175.052 269.327 173.791 270.563 172.18 271.441C170.578 272.31 168.737 272.745 166.657 272.745C164.339 272.745 162.302 272.199 160.547 271.108C158.799 270.017 157.436 268.466 156.456 266.455C155.484 264.444 154.998 262.057 154.998 259.296C154.998 257.225 155.275 255.363 155.829 253.709C156.392 252.047 157.184 250.632 158.207 249.465C159.23 248.297 160.44 247.402 161.838 246.78C163.236 246.158 164.774 245.847 166.453 245.847C167.834 245.847 169.12 246.056 170.314 246.473C171.515 246.882 172.585 247.466 173.522 248.225C174.468 248.975 175.257 249.874 175.888 250.922C176.518 251.962 176.953 253.117 177.191 254.387H173.919ZM203.536 246.205V272.387H200.468L186.201 251.83H185.945V272.387H182.775V246.205H185.843L200.161 266.813H200.417V246.205H203.536ZM231.971 259.296C231.971 262.057 231.473 264.444 230.476 266.455C229.478 268.466 228.111 270.017 226.372 271.108C224.633 272.199 222.647 272.745 220.414 272.745C218.182 272.745 216.196 272.199 214.457 271.108C212.718 270.017 211.351 268.466 210.353 266.455C209.356 264.444 208.858 262.057 208.858 259.296C208.858 256.534 209.356 254.148 210.353 252.137C211.351 250.125 212.718 248.574 214.457 247.483C216.196 246.392 218.182 245.847 220.414 245.847C222.647 245.847 224.633 246.392 226.372 247.483C228.111 248.574 229.478 250.125 230.476 252.137C231.473 254.148 231.971 256.534 231.971 259.296ZM228.903 259.296C228.903 257.029 228.524 255.115 227.765 253.556C227.015 251.996 225.997 250.816 224.71 250.015C223.432 249.213 222 248.813 220.414 248.813C218.829 248.813 217.393 249.213 216.106 250.015C214.828 250.816 213.809 251.996 213.051 253.556C212.301 255.115 211.926 257.029 211.926 259.296C211.926 261.563 212.301 263.476 213.051 265.036C213.809 266.596 214.828 267.776 216.106 268.577C217.393 269.378 218.829 269.779 220.414 269.779C222 269.779 223.432 269.378 224.71 268.577C225.997 267.776 227.015 266.596 227.765 265.036C228.524 263.476 228.903 261.563 228.903 259.296ZM258.37 254.387H255.2C255.013 253.475 254.684 252.674 254.216 251.983C253.755 251.293 253.193 250.713 252.528 250.245C251.872 249.767 251.143 249.409 250.342 249.171C249.541 248.932 248.706 248.813 247.836 248.813C246.251 248.813 244.815 249.213 243.528 250.015C242.25 250.816 241.231 251.996 240.473 253.556C239.723 255.115 239.348 257.029 239.348 259.296C239.348 261.563 239.723 263.476 240.473 265.036C241.231 266.596 242.25 267.776 243.528 268.577C244.815 269.378 246.251 269.779 247.836 269.779C248.706 269.779 249.541 269.659 250.342 269.421C251.143 269.182 251.872 268.828 252.528 268.36C253.193 267.882 253.755 267.299 254.216 266.608C254.684 265.909 255.013 265.108 255.2 264.205H258.37C258.132 265.543 257.697 266.74 257.066 267.797C256.436 268.854 255.652 269.753 254.714 270.495C253.777 271.228 252.724 271.786 251.557 272.169C250.397 272.553 249.157 272.745 247.836 272.745C245.603 272.745 243.618 272.199 241.879 271.108C240.14 270.017 238.772 268.466 237.775 266.455C236.778 264.444 236.28 262.057 236.28 259.296C236.28 256.534 236.778 254.148 237.775 252.137C238.772 250.125 240.14 248.574 241.879 247.483C243.618 246.392 245.603 245.847 247.836 245.847C249.157 245.847 250.397 246.039 251.557 246.422C252.724 246.806 253.777 247.368 254.714 248.11C255.652 248.843 256.436 249.738 257.066 250.794C257.697 251.843 258.132 253.04 258.37 254.387ZM263.494 272.387V246.205H272.34C274.386 246.205 276.065 246.554 277.377 247.253C278.69 247.944 279.661 248.894 280.292 250.104C280.923 251.314 281.238 252.691 281.238 254.233C281.238 255.776 280.923 257.144 280.292 258.337C279.661 259.53 278.694 260.468 277.39 261.15C276.086 261.823 274.42 262.159 272.391 262.159H265.232V259.296H272.289C273.687 259.296 274.812 259.091 275.664 258.682C276.525 258.273 277.147 257.694 277.531 256.944C277.923 256.185 278.119 255.282 278.119 254.233C278.119 253.185 277.923 252.269 277.531 251.485C277.139 250.701 276.512 250.096 275.651 249.669C274.791 249.235 273.653 249.017 272.238 249.017H266.664V272.387H263.494ZM275.818 260.625L282.261 272.387H278.579L272.238 260.625H275.818ZM287.595 272.387H284.271L293.885 246.205H297.157L306.771 272.387H303.447L295.623 250.347H295.419L287.595 272.387ZM288.822 262.159H302.22V264.972H288.822V262.159ZM330.687 254.387H327.516C327.329 253.475 327.001 252.674 326.532 251.983C326.072 251.293 325.509 250.713 324.845 250.245C324.188 249.767 323.46 249.409 322.658 249.171C321.857 248.932 321.022 248.813 320.153 248.813C318.568 248.813 317.131 249.213 315.845 250.015C314.566 250.816 313.548 251.996 312.789 253.556C312.039 255.115 311.664 257.029 311.664 259.296C311.664 261.563 312.039 263.476 312.789 265.036C313.548 266.596 314.566 267.776 315.845 268.577C317.131 269.378 318.568 269.779 320.153 269.779C321.022 269.779 321.857 269.659 322.658 269.421C323.46 269.182 324.188 268.828 324.845 268.36C325.509 267.882 326.072 267.299 326.532 266.608C327.001 265.909 327.329 265.108 327.516 264.205H330.687C330.448 265.543 330.014 266.74 329.383 267.797C328.752 268.854 327.968 269.753 327.031 270.495C326.093 271.228 325.041 271.786 323.873 272.169C322.714 272.553 321.474 272.745 320.153 272.745C317.92 272.745 315.934 272.199 314.195 271.108C312.457 270.017 311.089 268.466 310.092 266.455C309.095 264.444 308.596 262.057 308.596 259.296C308.596 256.534 309.095 254.148 310.092 252.137C311.089 250.125 312.457 248.574 314.195 247.483C315.934 246.392 317.92 245.847 320.153 245.847C321.474 245.847 322.714 246.039 323.873 246.422C325.041 246.806 326.093 247.368 327.031 248.11C327.968 248.843 328.752 249.738 329.383 250.794C330.014 251.843 330.448 253.04 330.687 254.387ZM333.56 246.205H337.191L344.452 258.426H344.759L352.02 246.205H355.651L346.191 261.597V272.387H343.02V261.597L333.56 246.205Z" fill="black"/>
<path d="M118.889 311.525C117.968 311.525 117.176 311.308 116.511 310.873C115.846 310.438 115.335 309.839 114.977 309.077C114.619 308.314 114.44 307.442 114.44 306.462C114.44 305.465 114.623 304.585 114.99 303.822C115.36 303.055 115.876 302.457 116.537 302.026C117.201 301.592 117.977 301.374 118.863 301.374C119.554 301.374 120.176 301.502 120.73 301.758C121.284 302.013 121.737 302.371 122.091 302.832C122.445 303.292 122.664 303.829 122.75 304.442H121.241C121.126 303.995 120.87 303.599 120.474 303.254C120.082 302.904 119.554 302.729 118.889 302.729C118.301 302.729 117.785 302.883 117.342 303.19C116.903 303.492 116.56 303.92 116.313 304.474C116.07 305.024 115.948 305.67 115.948 306.411C115.948 307.17 116.068 307.83 116.306 308.393C116.549 308.955 116.89 309.392 117.329 309.703C117.772 310.014 118.292 310.17 118.889 310.17C119.281 310.17 119.637 310.102 119.956 309.965C120.276 309.829 120.546 309.633 120.768 309.377C120.99 309.121 121.147 308.815 121.241 308.457H122.75C122.664 309.036 122.453 309.558 122.117 310.023C121.784 310.483 121.343 310.849 120.794 311.122C120.248 311.391 119.613 311.525 118.889 311.525ZM124.955 311.32V301.502H126.412V302.985H126.514C126.693 302.499 127.017 302.105 127.486 301.803C127.955 301.5 128.483 301.349 129.071 301.349C129.182 301.349 129.321 301.351 129.487 301.355C129.653 301.359 129.779 301.366 129.864 301.374V302.908C129.813 302.896 129.696 302.876 129.512 302.851C129.333 302.821 129.144 302.806 128.943 302.806C128.466 302.806 128.04 302.906 127.665 303.107C127.294 303.303 127 303.575 126.783 303.925C126.57 304.27 126.463 304.664 126.463 305.107V311.32H124.955ZM135.47 311.525C134.524 311.525 133.708 311.316 133.022 310.898C132.34 310.477 131.813 309.888 131.443 309.134C131.076 308.376 130.893 307.494 130.893 306.488C130.893 305.482 131.076 304.596 131.443 303.829C131.813 303.058 132.329 302.457 132.99 302.026C133.654 301.592 134.43 301.374 135.316 301.374C135.828 301.374 136.333 301.46 136.831 301.63C137.33 301.8 137.784 302.077 138.193 302.461C138.602 302.84 138.928 303.343 139.171 303.969C139.414 304.596 139.535 305.367 139.535 306.283V306.923H131.967V305.619H138.001C138.001 305.065 137.89 304.57 137.669 304.136C137.451 303.701 137.14 303.358 136.735 303.107C136.335 302.855 135.862 302.729 135.316 302.729C134.715 302.729 134.196 302.879 133.757 303.177C133.322 303.471 132.987 303.854 132.753 304.327C132.519 304.8 132.402 305.308 132.402 305.849V306.718C132.402 307.46 132.529 308.088 132.785 308.604C133.045 309.115 133.405 309.505 133.865 309.773C134.326 310.038 134.86 310.17 135.47 310.17C135.866 310.17 136.224 310.114 136.544 310.004C136.867 309.888 137.147 309.718 137.381 309.492C137.615 309.262 137.796 308.977 137.924 308.636L139.382 309.045C139.228 309.539 138.97 309.974 138.608 310.349C138.246 310.719 137.799 311.009 137.266 311.218C136.733 311.423 136.135 311.525 135.47 311.525ZM144.719 311.55C144.097 311.55 143.532 311.433 143.025 311.199C142.518 310.96 142.115 310.617 141.817 310.17C141.519 309.718 141.37 309.173 141.37 308.533C141.37 307.971 141.48 307.515 141.702 307.165C141.924 306.812 142.22 306.535 142.59 306.335C142.961 306.134 143.37 305.985 143.818 305.887C144.269 305.785 144.723 305.704 145.179 305.644C145.776 305.567 146.26 305.51 146.63 305.472C147.005 305.429 147.278 305.359 147.448 305.261C147.623 305.163 147.711 304.992 147.711 304.749V304.698C147.711 304.067 147.538 303.577 147.193 303.228C146.852 302.879 146.334 302.704 145.639 302.704C144.919 302.704 144.355 302.862 143.946 303.177C143.537 303.492 143.249 303.829 143.083 304.187L141.651 303.675C141.907 303.079 142.247 302.614 142.674 302.282C143.104 301.945 143.573 301.711 144.08 301.579C144.591 301.442 145.094 301.374 145.588 301.374C145.904 301.374 146.266 301.413 146.675 301.489C147.088 301.562 147.487 301.713 147.87 301.943C148.258 302.173 148.58 302.521 148.836 302.985C149.091 303.45 149.219 304.072 149.219 304.852V311.32H147.711V309.991H147.634C147.532 310.204 147.361 310.432 147.122 310.675C146.884 310.918 146.566 311.124 146.17 311.295C145.774 311.465 145.29 311.55 144.719 311.55ZM144.949 310.195C145.546 310.195 146.049 310.078 146.458 309.844C146.871 309.609 147.182 309.307 147.391 308.936C147.604 308.565 147.711 308.175 147.711 307.766V306.386C147.647 306.462 147.506 306.533 147.289 306.597C147.076 306.656 146.828 306.71 146.547 306.756C146.27 306.799 146 306.837 145.735 306.871C145.475 306.901 145.264 306.927 145.103 306.948C144.711 306.999 144.344 307.082 144.003 307.197C143.666 307.308 143.394 307.477 143.185 307.702C142.98 307.924 142.878 308.227 142.878 308.61C142.878 309.134 143.072 309.531 143.46 309.799C143.852 310.063 144.348 310.195 144.949 310.195ZM156.242 301.502V302.781H151.154V301.502H156.242ZM152.637 299.15H154.146V308.508C154.146 308.934 154.207 309.254 154.331 309.467C154.459 309.675 154.621 309.816 154.817 309.888C155.017 309.957 155.228 309.991 155.45 309.991C155.616 309.991 155.752 309.982 155.859 309.965C155.965 309.944 156.051 309.927 156.114 309.914L156.421 311.269C156.319 311.308 156.176 311.346 155.993 311.384C155.81 311.427 155.578 311.448 155.296 311.448C154.87 311.448 154.453 311.357 154.043 311.173C153.639 310.99 153.302 310.711 153.033 310.336C152.769 309.961 152.637 309.488 152.637 308.917V299.15ZM158.511 311.32V301.502H160.02V311.32H158.511ZM159.279 299.866C158.984 299.866 158.731 299.766 158.518 299.565C158.309 299.365 158.205 299.124 158.205 298.843C158.205 298.562 158.309 298.321 158.518 298.121C158.731 297.92 158.984 297.82 159.279 297.82C159.573 297.82 159.824 297.92 160.033 298.121C160.246 298.321 160.352 298.562 160.352 298.843C160.352 299.124 160.246 299.365 160.033 299.565C159.824 299.766 159.573 299.866 159.279 299.866ZM170.811 301.502L167.181 311.32H165.647L162.016 301.502H163.652L166.362 309.326H166.465L169.175 301.502H170.811ZM176.567 311.525C175.621 311.525 174.805 311.316 174.119 310.898C173.437 310.477 172.911 309.888 172.54 309.134C172.174 308.376 171.991 307.494 171.991 306.488C171.991 305.482 172.174 304.596 172.54 303.829C172.911 303.058 173.427 302.457 174.087 302.026C174.752 301.592 175.528 301.374 176.414 301.374C176.925 301.374 177.43 301.46 177.929 301.63C178.427 301.8 178.881 302.077 179.29 302.461C179.699 302.84 180.025 303.343 180.268 303.969C180.511 304.596 180.633 305.367 180.633 306.283V306.923H173.065V305.619H179.099C179.099 305.065 178.988 304.57 178.766 304.136C178.549 303.701 178.238 303.358 177.833 303.107C177.432 302.855 176.959 302.729 176.414 302.729C175.813 302.729 175.293 302.879 174.854 303.177C174.42 303.471 174.085 303.854 173.851 304.327C173.616 304.8 173.499 305.308 173.499 305.849V306.718C173.499 307.46 173.627 308.088 173.883 308.604C174.143 309.115 174.503 309.505 174.963 309.773C175.423 310.038 175.958 310.17 176.567 310.17C176.964 310.17 177.322 310.114 177.641 310.004C177.965 309.888 178.244 309.718 178.479 309.492C178.713 309.262 178.894 308.977 179.022 308.636L180.479 309.045C180.326 309.539 180.068 309.974 179.706 310.349C179.344 310.719 178.896 311.009 178.364 311.218C177.831 311.423 177.232 311.525 176.567 311.525ZM190.879 311.55C190.257 311.55 189.692 311.433 189.185 311.199C188.678 310.96 188.275 310.617 187.977 310.17C187.679 309.718 187.53 309.173 187.53 308.533C187.53 307.971 187.641 307.515 187.862 307.165C188.084 306.812 188.38 306.535 188.751 306.335C189.121 306.134 189.53 305.985 189.978 305.887C190.43 305.785 190.883 305.704 191.339 305.644C191.936 305.567 192.42 305.51 192.79 305.472C193.165 305.429 193.438 305.359 193.609 305.261C193.783 305.163 193.871 304.992 193.871 304.749V304.698C193.871 304.067 193.698 303.577 193.353 303.228C193.012 302.879 192.494 302.704 191.8 302.704C191.079 302.704 190.515 302.862 190.106 303.177C189.697 303.492 189.409 303.829 189.243 304.187L187.811 303.675C188.067 303.079 188.408 302.614 188.834 302.282C189.264 301.945 189.733 301.711 190.24 301.579C190.751 301.442 191.254 301.374 191.749 301.374C192.064 301.374 192.426 301.413 192.835 301.489C193.249 301.562 193.647 301.713 194.03 301.943C194.418 302.173 194.74 302.521 194.996 302.985C195.251 303.45 195.379 304.072 195.379 304.852V311.32H193.871V309.991H193.794C193.692 310.204 193.521 310.432 193.283 310.675C193.044 310.918 192.726 311.124 192.33 311.295C191.934 311.465 191.45 311.55 190.879 311.55ZM191.109 310.195C191.706 310.195 192.209 310.078 192.618 309.844C193.031 309.609 193.342 309.307 193.551 308.936C193.764 308.565 193.871 308.175 193.871 307.766V306.386C193.807 306.462 193.666 306.533 193.449 306.597C193.236 306.656 192.989 306.71 192.707 306.756C192.43 306.799 192.16 306.837 191.896 306.871C191.636 306.901 191.425 306.927 191.263 306.948C190.871 306.999 190.504 307.082 190.163 307.197C189.827 307.308 189.554 307.477 189.345 307.702C189.141 307.924 189.038 308.227 189.038 308.61C189.038 309.134 189.232 309.531 189.62 309.799C190.012 310.063 190.508 310.195 191.109 310.195ZM199.641 305.414V311.32H198.133V301.502H199.59V303.036H199.718C199.948 302.538 200.297 302.137 200.766 301.835C201.235 301.528 201.84 301.374 202.581 301.374C203.246 301.374 203.828 301.511 204.326 301.783C204.825 302.052 205.213 302.461 205.49 303.011C205.767 303.556 205.905 304.246 205.905 305.082V311.32H204.397V305.184C204.397 304.413 204.196 303.812 203.796 303.381C203.395 302.947 202.846 302.729 202.147 302.729C201.665 302.729 201.235 302.834 200.856 303.043C200.481 303.251 200.184 303.556 199.967 303.957C199.75 304.357 199.641 304.843 199.641 305.414ZM212.369 311.525C211.551 311.525 210.829 311.318 210.202 310.905C209.576 310.487 209.086 309.899 208.732 309.141C208.378 308.378 208.202 307.477 208.202 306.437C208.202 305.406 208.378 304.511 208.732 303.752C209.086 302.994 209.578 302.408 210.209 301.994C210.839 301.581 211.568 301.374 212.395 301.374C213.034 301.374 213.539 301.481 213.91 301.694C214.285 301.903 214.57 302.141 214.766 302.41C214.967 302.674 215.122 302.891 215.233 303.062H215.361V298.229H216.869V311.32H215.412V309.812H215.233C215.122 309.991 214.964 310.217 214.76 310.489C214.555 310.758 214.263 310.999 213.884 311.212C213.505 311.42 213 311.525 212.369 311.525ZM212.574 310.17C213.179 310.17 213.69 310.012 214.108 309.697C214.525 309.377 214.843 308.936 215.06 308.374C215.278 307.807 215.386 307.153 215.386 306.411C215.386 305.678 215.28 305.037 215.067 304.487C214.854 303.933 214.538 303.503 214.121 303.196C213.703 302.885 213.187 302.729 212.574 302.729C211.935 302.729 211.402 302.893 210.976 303.222C210.554 303.545 210.236 303.987 210.023 304.545C209.815 305.099 209.71 305.721 209.71 306.411C209.71 307.11 209.817 307.745 210.03 308.316C210.247 308.883 210.567 309.335 210.989 309.671C211.415 310.004 211.943 310.17 212.574 310.17ZM224.904 315.002V301.502H226.361V303.062H226.54C226.651 302.891 226.805 302.674 227.001 302.41C227.201 302.141 227.486 301.903 227.857 301.694C228.232 301.481 228.739 301.374 229.378 301.374C230.205 301.374 230.934 301.581 231.565 301.994C232.195 302.408 232.687 302.994 233.041 303.752C233.395 304.511 233.572 305.406 233.572 306.437C233.572 307.477 233.395 308.378 233.041 309.141C232.687 309.899 232.197 310.487 231.571 310.905C230.945 311.318 230.222 311.525 229.404 311.525C228.773 311.525 228.268 311.42 227.889 311.212C227.51 310.999 227.218 310.758 227.013 310.489C226.809 310.217 226.651 309.991 226.54 309.812H226.413V315.002H224.904ZM226.387 306.411C226.387 307.153 226.496 307.807 226.713 308.374C226.93 308.936 227.248 309.377 227.665 309.697C228.083 310.012 228.594 310.17 229.199 310.17C229.83 310.17 230.356 310.004 230.778 309.671C231.204 309.335 231.524 308.883 231.737 308.316C231.954 307.745 232.063 307.11 232.063 306.411C232.063 305.721 231.957 305.099 231.744 304.545C231.535 303.987 231.217 303.545 230.791 303.222C230.369 302.893 229.839 302.729 229.199 302.729C228.586 302.729 228.07 302.885 227.653 303.196C227.235 303.503 226.92 303.933 226.707 304.487C226.494 305.037 226.387 305.678 226.387 306.411ZM238.762 311.55C238.14 311.55 237.575 311.433 237.068 311.199C236.561 310.96 236.158 310.617 235.86 310.17C235.562 309.718 235.413 309.173 235.413 308.533C235.413 307.971 235.523 307.515 235.745 307.165C235.967 306.812 236.263 306.535 236.633 306.335C237.004 306.134 237.413 305.985 237.861 305.887C238.312 305.785 238.766 305.704 239.222 305.644C239.819 305.567 240.302 305.51 240.673 305.472C241.048 305.429 241.321 305.359 241.491 305.261C241.666 305.163 241.753 304.992 241.753 304.749V304.698C241.753 304.067 241.581 303.577 241.236 303.228C240.895 302.879 240.377 302.704 239.682 302.704C238.962 302.704 238.398 302.862 237.989 303.177C237.579 303.492 237.292 303.829 237.126 304.187L235.694 303.675C235.949 303.079 236.29 302.614 236.717 302.282C237.147 301.945 237.616 301.711 238.123 301.579C238.634 301.442 239.137 301.374 239.631 301.374C239.947 301.374 240.309 301.413 240.718 301.489C241.131 301.562 241.53 301.713 241.913 301.943C242.301 302.173 242.623 302.521 242.878 302.985C243.134 303.45 243.262 304.072 243.262 304.852V311.32H241.753V309.991H241.677C241.574 310.204 241.404 310.432 241.165 310.675C240.927 310.918 240.609 311.124 240.213 311.295C239.817 311.465 239.333 311.55 238.762 311.55ZM238.992 310.195C239.589 310.195 240.092 310.078 240.501 309.844C240.914 309.609 241.225 309.307 241.434 308.936C241.647 308.565 241.753 308.175 241.753 307.766V306.386C241.69 306.462 241.549 306.533 241.332 306.597C241.119 306.656 240.871 306.71 240.59 306.756C240.313 306.799 240.043 306.837 239.778 306.871C239.518 306.901 239.307 306.927 239.146 306.948C238.753 306.999 238.387 307.082 238.046 307.197C237.709 307.308 237.437 307.477 237.228 307.702C237.023 307.924 236.921 308.227 236.921 308.61C236.921 309.134 237.115 309.531 237.503 309.799C237.895 310.063 238.391 310.195 238.992 310.195ZM252.97 303.701L251.615 304.085C251.53 303.859 251.404 303.639 251.238 303.426C251.076 303.209 250.854 303.03 250.573 302.889C250.292 302.749 249.932 302.678 249.493 302.678C248.892 302.678 248.391 302.817 247.991 303.094C247.594 303.366 247.396 303.714 247.396 304.136C247.396 304.511 247.532 304.807 247.805 305.024C248.078 305.241 248.504 305.423 249.084 305.567L250.541 305.925C251.419 306.138 252.073 306.464 252.503 306.903C252.934 307.338 253.149 307.898 253.149 308.585C253.149 309.147 252.987 309.65 252.663 310.093C252.343 310.536 251.896 310.886 251.321 311.141C250.745 311.397 250.076 311.525 249.314 311.525C248.312 311.525 247.483 311.308 246.827 310.873C246.171 310.438 245.755 309.803 245.581 308.968L247.013 308.61C247.149 309.138 247.407 309.535 247.786 309.799C248.169 310.063 248.67 310.195 249.288 310.195C249.991 310.195 250.549 310.046 250.963 309.748C251.38 309.445 251.589 309.083 251.589 308.661C251.589 308.32 251.47 308.035 251.231 307.805C250.993 307.57 250.626 307.396 250.132 307.281L248.495 306.897C247.596 306.684 246.936 306.354 246.514 305.906C246.096 305.455 245.888 304.89 245.888 304.212C245.888 303.658 246.043 303.168 246.354 302.742C246.669 302.316 247.098 301.982 247.639 301.739C248.184 301.496 248.802 301.374 249.493 301.374C250.464 301.374 251.227 301.587 251.781 302.013C252.339 302.44 252.736 303.002 252.97 303.701ZM262.374 303.701L261.019 304.085C260.934 303.859 260.808 303.639 260.642 303.426C260.48 303.209 260.258 303.03 259.977 302.889C259.696 302.749 259.336 302.678 258.897 302.678C258.296 302.678 257.795 302.817 257.395 303.094C256.999 303.366 256.8 303.714 256.8 304.136C256.8 304.511 256.937 304.807 257.209 305.024C257.482 305.241 257.908 305.423 258.488 305.567L259.945 305.925C260.823 306.138 261.477 306.464 261.908 306.903C262.338 307.338 262.553 307.898 262.553 308.585C262.553 309.147 262.391 309.65 262.067 310.093C261.748 310.536 261.3 310.886 260.725 311.141C260.15 311.397 259.481 311.525 258.718 311.525C257.717 311.525 256.888 311.308 256.231 310.873C255.575 310.438 255.16 309.803 254.985 308.968L256.417 308.61C256.553 309.138 256.811 309.535 257.19 309.799C257.574 310.063 258.074 310.195 258.692 310.195C259.396 310.195 259.954 310.046 260.367 309.748C260.785 309.445 260.994 309.083 260.994 308.661C260.994 308.32 260.874 308.035 260.636 307.805C260.397 307.57 260.03 307.396 259.536 307.281L257.9 306.897C257.001 306.684 256.34 306.354 255.918 305.906C255.501 305.455 255.292 304.89 255.292 304.212C255.292 303.658 255.447 303.168 255.758 302.742C256.074 302.316 256.502 301.982 257.043 301.739C257.589 301.496 258.207 301.374 258.897 301.374C259.869 301.374 260.631 301.587 261.185 302.013C261.744 302.44 262.14 303.002 262.374 303.701ZM264.824 311.32V301.502H266.332V311.32H264.824ZM265.591 299.866C265.297 299.866 265.043 299.766 264.83 299.565C264.622 299.365 264.517 299.124 264.517 298.843C264.517 298.562 264.622 298.321 264.83 298.121C265.043 297.92 265.297 297.82 265.591 297.82C265.885 297.82 266.136 297.92 266.345 298.121C266.558 298.321 266.665 298.562 266.665 298.843C266.665 299.124 266.558 299.365 266.345 299.565C266.136 299.766 265.885 299.866 265.591 299.866ZM273.084 311.525C272.198 311.525 271.42 311.314 270.751 310.892C270.086 310.47 269.566 309.88 269.191 309.121C268.821 308.363 268.635 307.477 268.635 306.462C268.635 305.44 268.821 304.547 269.191 303.784C269.566 303.021 270.086 302.429 270.751 302.007C271.42 301.585 272.198 301.374 273.084 301.374C273.97 301.374 274.746 301.585 275.411 302.007C276.08 302.429 276.6 303.021 276.97 303.784C277.345 304.547 277.533 305.44 277.533 306.462C277.533 307.477 277.345 308.363 276.97 309.121C276.6 309.88 276.08 310.47 275.411 310.892C274.746 311.314 273.97 311.525 273.084 311.525ZM273.084 310.17C273.757 310.17 274.311 309.997 274.746 309.652C275.181 309.307 275.502 308.853 275.711 308.29C275.92 307.728 276.024 307.119 276.024 306.462C276.024 305.806 275.92 305.195 275.711 304.628C275.502 304.061 275.181 303.603 274.746 303.254C274.311 302.904 273.757 302.729 273.084 302.729C272.411 302.729 271.857 302.904 271.422 303.254C270.987 303.603 270.666 304.061 270.457 304.628C270.248 305.195 270.144 305.806 270.144 306.462C270.144 307.119 270.248 307.728 270.457 308.29C270.666 308.853 270.987 309.307 271.422 309.652C271.857 309.997 272.411 310.17 273.084 310.17ZM281.344 305.414V311.32H279.836V301.502H281.293V303.036H281.421C281.651 302.538 282 302.137 282.469 301.835C282.938 301.528 283.543 301.374 284.285 301.374C284.949 301.374 285.531 301.511 286.03 301.783C286.528 302.052 286.916 302.461 287.193 303.011C287.47 303.556 287.608 304.246 287.608 305.082V311.32H286.1V305.184C286.1 304.413 285.9 303.812 285.499 303.381C285.098 302.947 284.549 302.729 283.85 302.729C283.368 302.729 282.938 302.834 282.559 303.043C282.184 303.251 281.888 303.556 281.67 303.957C281.453 304.357 281.344 304.843 281.344 305.414ZM293.254 311.55C292.632 311.55 292.067 311.433 291.56 311.199C291.053 310.96 290.65 310.617 290.352 310.17C290.054 309.718 289.905 309.173 289.905 308.533C289.905 307.971 290.016 307.515 290.237 307.165C290.459 306.812 290.755 306.535 291.126 306.335C291.496 306.134 291.905 305.985 292.353 305.887C292.805 305.785 293.258 305.704 293.714 305.644C294.311 305.567 294.795 305.51 295.165 305.472C295.54 305.429 295.813 305.359 295.984 305.261C296.158 305.163 296.246 304.992 296.246 304.749V304.698C296.246 304.067 296.073 303.577 295.728 303.228C295.387 302.879 294.869 302.704 294.175 302.704C293.454 302.704 292.89 302.862 292.481 303.177C292.072 303.492 291.784 303.829 291.618 304.187L290.186 303.675C290.442 303.079 290.783 302.614 291.209 302.282C291.639 301.945 292.108 301.711 292.615 301.579C293.126 301.442 293.629 301.374 294.124 301.374C294.439 301.374 294.801 301.413 295.21 301.489C295.624 301.562 296.022 301.713 296.405 301.943C296.793 302.173 297.115 302.521 297.371 302.985C297.626 303.45 297.754 304.072 297.754 304.852V311.32H296.246V309.991H296.169C296.067 310.204 295.896 310.432 295.658 310.675C295.419 310.918 295.101 311.124 294.705 311.295C294.309 311.465 293.825 311.55 293.254 311.55ZM293.484 310.195C294.081 310.195 294.584 310.078 294.993 309.844C295.406 309.609 295.717 309.307 295.926 308.936C296.139 308.565 296.246 308.175 296.246 307.766V306.386C296.182 306.462 296.041 306.533 295.824 306.597C295.611 306.656 295.364 306.71 295.082 306.756C294.805 306.799 294.535 306.837 294.271 306.871C294.011 306.901 293.8 306.927 293.638 306.948C293.246 306.999 292.879 307.082 292.538 307.197C292.202 307.308 291.929 307.477 291.72 307.702C291.516 307.924 291.413 308.227 291.413 308.61C291.413 309.134 291.607 309.531 291.995 309.799C292.387 310.063 292.883 310.195 293.484 310.195ZM304.777 301.502V302.781H299.689V301.502H304.777ZM301.172 299.15H302.681V308.508C302.681 308.934 302.743 309.254 302.866 309.467C302.994 309.675 303.156 309.816 303.352 309.888C303.552 309.957 303.763 309.991 303.985 309.991C304.151 309.991 304.287 309.982 304.394 309.965C304.5 309.944 304.586 309.927 304.65 309.914L304.956 311.269C304.854 311.308 304.711 311.346 304.528 311.384C304.345 311.427 304.113 311.448 303.831 311.448C303.405 311.448 302.988 311.357 302.579 311.173C302.174 310.99 301.837 310.711 301.569 310.336C301.304 309.961 301.172 309.488 301.172 308.917V299.15ZM311.058 311.525C310.112 311.525 309.296 311.316 308.609 310.898C307.928 310.477 307.401 309.888 307.031 309.134C306.664 308.376 306.481 307.494 306.481 306.488C306.481 305.482 306.664 304.596 307.031 303.829C307.401 303.058 307.917 302.457 308.578 302.026C309.242 301.592 310.018 301.374 310.904 301.374C311.416 301.374 311.921 301.46 312.419 301.63C312.918 301.8 313.372 302.077 313.781 302.461C314.19 302.84 314.516 303.343 314.759 303.969C315.002 304.596 315.123 305.367 315.123 306.283V306.923H307.555V305.619H313.589C313.589 305.065 313.478 304.57 313.256 304.136C313.039 303.701 312.728 303.358 312.323 303.107C311.923 302.855 311.45 302.729 310.904 302.729C310.303 302.729 309.783 302.879 309.345 303.177C308.91 303.471 308.575 303.854 308.341 304.327C308.107 304.8 307.989 305.308 307.989 305.849V306.718C307.989 307.46 308.117 308.088 308.373 308.604C308.633 309.115 308.993 309.505 309.453 309.773C309.913 310.038 310.448 310.17 311.058 310.17C311.454 310.17 311.812 310.114 312.131 310.004C312.455 309.888 312.734 309.718 312.969 309.492C313.203 309.262 313.384 308.977 313.512 308.636L314.97 309.045C314.816 309.539 314.558 309.974 314.196 310.349C313.834 310.719 313.386 311.009 312.854 311.218C312.321 311.423 311.722 311.525 311.058 311.525Z" fill="black"/>
</svg>
