<svg width="440" height="293" viewBox="0 0 440 293" fill="none" xmlns="http://www.w3.org/2000/svg">
<rect width="440" height="293" fill="#DDC1D0"/>
<path d="M106.905 111.333C141.839 107.711 184.116 115.276 219.367 112.102C261.685 107.715 307.335 109.196 349.47 110.562C349.378 113.438 345.727 117.637 349.192 119.191C363.097 123.958 362.912 129.713 362.726 135.465C362.633 138.341 352.194 135.123 355.609 138.114C345.076 137.772 327.463 138.64 337.914 141.856C341.333 144.848 355.47 142.425 358.838 146.853C362.215 151.284 355.051 155.369 358.42 159.793C361.936 159.907 368.96 160.134 372.472 160.248C375.883 163.243 368.681 168.768 372.193 168.881C382.633 172.099 396.728 171.114 410.764 171.57C410.671 174.447 414.098 177.436 407.028 178.648C284.033 177.537 157.438 179.19 34.6789 170.886C20.6807 168.995 31.4029 163.586 42.074 159.613C38.5192 160.939 38.6591 156.622 35.0967 157.949C35.2356 153.634 42.4918 146.673 56.5866 145.689C53.074 145.575 49.5669 145.461 46.051 145.347C42.5851 143.797 46.1899 141.035 46.2832 138.159C49.7991 138.274 53.3073 138.387 53.3539 136.946C53.4006 135.512 53.4929 132.633 53.5395 131.197C50.0313 131.084 43.004 130.855 39.4957 130.741C43.004 130.855 46.5155 130.968 46.5621 129.532C46.6088 128.094 46.7011 125.218 46.7477 123.776C53.8184 122.569 64.2574 125.787 71.3313 124.574L71.4702 120.263C64.4885 118.596 53.9107 119.694 46.8866 119.466C50.4491 118.14 50.4958 116.704 50.588 113.825C61.1659 112.729 71.5635 117.387 82.2315 113.412C78.7222 113.298 75.2107 113.184 71.7024 113.07C78.9555 106.105 96.323 112.429 106.905 111.333Z" fill="#C3D8CC"/>
<path d="M93.1519 126.509H105.723C108.892 126.509 111.387 127.282 113.208 128.825C115.029 130.37 115.94 132.328 115.94 134.703C115.94 138.177 113.926 140.507 109.898 141.694C111.941 141.991 113.577 142.874 114.807 144.345C116.035 145.814 116.649 147.514 116.649 149.443C116.649 151.877 115.731 153.846 113.896 155.343C112.059 156.842 109.572 157.592 106.434 157.592H93.1519V126.509ZM99.4152 131.32V139.38H105.056C106.448 139.38 107.552 139.032 108.366 138.332C109.18 137.636 109.587 136.649 109.587 135.372C109.587 134.096 109.18 133.1 108.366 132.387C107.552 131.675 106.448 131.32 105.056 131.32H99.4152ZM99.4152 152.784H105.723C107.115 152.784 108.233 152.405 109.077 151.648C109.921 150.89 110.342 149.844 110.342 148.508C110.342 147.171 109.914 146.118 109.056 145.346C108.196 144.576 107.071 144.188 105.679 144.188H99.4152V152.784Z" fill="white"/>
<path d="M156.271 157.596L154.272 151.762H142.189L140.19 157.596H133.572L144.544 126.423H151.962L162.889 157.596H156.271ZM143.832 146.952H152.671L148.23 133.993L143.832 146.952Z" fill="white"/>
<path d="M187.405 157.594H181.142V126.509H187.405V140.404L198.6 126.509H206.772L193.313 142.095L206.772 157.594H198.644L187.405 143.788V157.594Z" fill="white"/>
<path d="M242.885 126.424V131.232H231.246V139.382H241.551V144.191H231.246V152.786H242.885V157.596H224.984V126.423L242.885 126.424Z" fill="white"/>
<path d="M269.445 145.213V157.594H263.182V126.509H274.598C278.18 126.509 280.942 127.407 282.882 129.205C284.823 131.001 285.792 133.22 285.792 135.862C285.792 137.822 285.199 139.647 284.015 141.339C282.831 143.032 280.966 144.189 278.419 144.813L286.327 157.594H278.909L271.49 145.213H269.445ZM269.445 131.32V140.404H274.598C276.169 140.404 277.368 139.996 278.196 139.177C279.025 138.361 279.439 137.256 279.439 135.86C279.439 134.467 279.024 133.36 278.196 132.543C277.367 131.729 276.168 131.32 274.598 131.32H269.445Z" fill="white"/>
<path d="M319.992 157.594H313.729V146.906L303.247 126.509H310.264L316.882 141.161L323.456 126.509H330.476L319.993 146.906L319.992 157.594Z" fill="white"/>
<path d="M158.456 220.782C158.186 220.782 157.966 220.855 157.793 220.999C157.621 221.142 157.534 221.349 157.534 221.619C157.534 221.89 157.614 222.107 157.775 222.272C157.935 222.437 158.144 222.562 158.4 222.652C158.657 222.74 158.944 222.825 159.261 222.906C159.576 222.986 159.891 223.082 160.203 223.196C160.515 223.311 160.799 223.452 161.056 223.621C161.312 223.79 161.521 224.029 161.681 224.338C161.842 224.646 161.922 225.016 161.922 225.447C161.922 226.199 161.616 226.844 161.005 227.379C160.394 227.917 159.59 228.185 158.59 228.185C157.591 228.185 156.787 227.944 156.176 227.463C155.565 226.98 155.259 226.297 155.259 225.41H157.561C157.62 226.118 157.982 226.475 158.647 226.475C158.959 226.475 159.204 226.391 159.381 226.228C159.558 226.063 159.647 225.854 159.647 225.599C159.647 225.347 159.566 225.14 159.408 224.979C159.247 224.818 159.039 224.691 158.782 224.599C158.526 224.506 158.238 224.419 157.922 224.339C157.605 224.258 157.293 224.159 156.98 224.042C156.669 223.923 156.384 223.782 156.127 223.616C155.869 223.452 155.661 223.216 155.5 222.908C155.342 222.599 155.262 222.233 155.262 221.811C155.262 220.983 155.569 220.32 156.184 219.822C156.798 219.323 157.586 219.074 158.542 219.074C159.497 219.074 160.27 219.291 160.862 219.726C161.451 220.162 161.758 220.848 161.785 221.786H159.433C159.399 221.464 159.295 221.217 159.122 221.043C158.947 220.871 158.726 220.782 158.456 220.782Z" fill="black"/>
<path d="M167.585 228.104V219.205H169.745V228.104H167.585Z" fill="black"/>
<path d="M181.378 219.161H183.541V228.084H181.378L177.762 222.469V228.084H175.601V219.161H177.762L181.378 224.776V219.161Z" fill="black"/>
<path d="M190.195 226.89C189.315 226.032 188.874 224.943 188.874 223.625C188.874 222.308 189.315 221.218 190.195 220.361C191.077 219.504 192.154 219.075 193.426 219.075C194.412 219.075 195.289 219.336 196.056 219.86C196.823 220.384 197.358 221.112 197.663 222.04H195.084C194.747 221.39 194.206 221.065 193.465 221.065C192.723 221.065 192.139 221.297 191.714 221.761C191.289 222.227 191.077 222.847 191.077 223.625C191.077 224.403 191.289 225.024 191.714 225.489C192.14 225.954 192.723 226.186 193.465 226.186C194.206 226.186 194.747 225.862 195.084 225.21H197.663C197.36 226.14 196.823 226.867 196.056 227.39C195.289 227.914 194.412 228.177 193.426 228.177C192.154 228.176 191.077 227.747 190.195 226.89Z" fill="black"/>
<path d="M208.385 219.161V220.809H205.173V222.723H208.005V224.371H205.173V226.437H208.385V228.085H203.012V219.162H208.385V219.161Z" fill="black"/>
<path d="M221.495 227.962V226.353C221.724 226.151 222.043 225.872 222.457 225.517C222.869 225.162 223.19 224.886 223.417 224.688C223.646 224.489 223.911 224.239 224.214 223.939C224.517 223.64 224.745 223.383 224.897 223.173C225.293 222.624 225.492 222.146 225.492 221.741C225.492 221.023 225.175 220.664 224.544 220.664C224.24 220.664 224 220.77 223.824 220.987C223.646 221.202 223.558 221.513 223.558 221.918H221.471C221.471 220.903 221.764 220.137 222.349 219.617C222.936 219.097 223.704 218.837 224.656 218.837C225.608 218.837 226.351 219.109 226.882 219.654C227.412 220.2 227.678 220.856 227.678 221.625C227.678 222.208 227.551 222.721 227.298 223.16C227.148 223.413 227.016 223.629 226.907 223.805C226.797 223.984 226.617 224.203 226.364 224.465C226.111 224.728 225.926 224.918 225.808 225.036C225.69 225.154 225.473 225.358 225.157 225.644C224.841 225.932 224.64 226.117 224.557 226.202H227.844V227.963H221.495V227.962Z" fill="black"/>
<path d="M234.639 219.244C235.107 219.017 235.661 218.902 236.301 218.902C236.942 218.902 237.496 219.017 237.965 219.244C238.433 219.473 238.802 219.798 239.07 220.22C239.34 220.642 239.537 221.122 239.664 221.659C239.791 222.197 239.854 222.801 239.854 223.477C239.854 224.154 239.791 224.76 239.664 225.297C239.537 225.833 239.34 226.313 239.07 226.736C238.801 227.158 238.433 227.484 237.965 227.711C237.496 227.94 236.942 228.055 236.301 228.055C235.661 228.055 235.107 227.941 234.639 227.711C234.171 227.484 233.802 227.158 233.532 226.736C233.262 226.314 233.065 225.834 232.938 225.297C232.811 224.76 232.748 224.154 232.748 223.477C232.748 222.801 232.811 222.195 232.938 221.659C233.065 221.122 233.262 220.643 233.532 220.22C233.802 219.797 234.171 219.473 234.639 219.244ZM236.941 221.076C236.76 220.978 236.547 220.93 236.301 220.93C236.057 220.93 235.845 220.978 235.663 221.076C235.481 221.174 235.342 221.295 235.246 221.436C235.148 221.58 235.071 221.77 235.012 222.007C234.953 222.244 234.916 222.473 234.898 222.691C234.881 222.912 234.873 223.175 234.873 223.478C234.873 223.783 234.881 224.045 234.898 224.265C234.916 224.484 234.953 224.713 235.012 224.95C235.071 225.187 235.148 225.375 235.246 225.519C235.342 225.663 235.482 225.783 235.663 225.881C235.844 225.979 236.057 226.027 236.301 226.027C236.547 226.027 236.759 225.979 236.941 225.881C237.122 225.783 237.262 225.663 237.357 225.519C237.455 225.375 237.533 225.186 237.592 224.95C237.65 224.713 237.689 224.484 237.706 224.265C237.723 224.045 237.731 223.784 237.731 223.478C237.731 223.175 237.723 222.913 237.706 222.691C237.688 222.473 237.65 222.244 237.592 222.007C237.533 221.77 237.454 221.581 237.357 221.436C237.262 221.295 237.121 221.174 236.941 221.076Z" fill="black"/>
<path d="M246.264 228.096V221.111H244.734V219.097H248.502V228.096H246.264Z" fill="black"/>
<path d="M254.558 221.072C254.558 220.379 254.838 219.783 255.393 219.285C255.95 218.786 256.738 218.536 257.758 218.536C258.778 218.536 259.563 218.789 260.116 219.291C260.667 219.794 260.943 220.391 260.943 221.084C260.943 221.963 260.551 222.622 259.766 223.062C260.703 223.518 261.17 224.283 261.17 225.356C261.17 226.243 260.845 226.951 260.197 227.479C259.547 228.006 258.736 228.271 257.763 228.271C256.79 228.271 255.976 228.004 255.323 227.472C254.669 226.94 254.343 226.234 254.343 225.355C254.343 224.281 254.81 223.517 255.746 223.061C254.955 222.623 254.558 221.959 254.558 221.072ZM258.997 225.23C258.997 224.867 258.888 224.571 258.675 224.342C258.46 224.115 258.152 224.001 257.751 224.001C257.35 224.001 257.031 224.111 256.79 224.33C256.551 224.55 256.431 224.848 256.431 225.225C256.431 225.601 256.547 225.907 256.778 226.144C257.009 226.381 257.33 226.499 257.739 226.499C258.148 226.499 258.46 226.378 258.675 226.138C258.888 225.896 258.997 225.593 258.997 225.23ZM258.844 221.39C258.844 221.06 258.745 220.797 258.548 220.603C258.35 220.408 258.091 220.311 257.77 220.311C257.451 220.311 257.186 220.408 256.98 220.603C256.773 220.797 256.669 221.061 256.669 221.395C256.669 221.729 256.776 221.996 256.986 222.194C257.198 222.392 257.454 222.491 257.758 222.491C258.061 222.491 258.318 222.39 258.529 222.187C258.739 221.986 258.844 221.719 258.844 221.39Z" fill="black"/>
<path d="M132.57 80.6681L134.485 79.665L138.596 87.5524L136.679 88.5554L134.976 85.2862L131.94 86.8767L133.642 90.1459L131.727 91.149L127.616 83.2616L129.533 82.2586L131.178 85.4157L134.214 83.8262L132.57 80.6681Z" fill="black"/>
<path d="M143.985 83.7424C142.842 83.2844 142.019 82.4466 141.516 81.2282C141.011 80.0108 141.003 78.837 141.489 77.7056C141.975 76.5752 142.808 75.7647 143.986 75.2752C145.167 74.7845 146.323 74.7682 147.456 75.2262C148.589 75.6832 149.408 76.5209 149.912 77.7382C150.416 78.9556 150.427 80.1316 149.946 81.2641C149.466 82.3966 148.637 83.2071 147.461 83.6956C146.288 84.1851 145.128 84.2004 143.985 83.7424ZM148.004 80.5494C148.219 79.9565 148.178 79.3016 147.882 78.5824C147.584 77.8644 147.151 77.3726 146.579 77.1061C146.009 76.8406 145.395 76.844 144.736 77.1181C144.079 77.3923 143.642 77.8253 143.425 78.4182C143.21 79.0111 143.251 79.6659 143.547 80.384C143.844 81.1031 144.278 81.5949 144.849 81.8603C145.42 82.1258 146.034 82.1224 146.692 81.8483C147.35 81.5752 147.786 81.1423 148.004 80.5494Z" fill="black"/>
<path d="M163.455 68.6348L166.054 77.1422L163.986 77.7765L162.521 72.9777L162.016 78.3813L160.481 78.8524L157.044 74.6574L158.51 79.4573L156.442 80.0915L153.844 71.5841L156.213 70.8563L160.446 75.9727L161.085 69.3615L163.455 68.6348Z" fill="black"/>
<path d="M174.966 66L175.307 67.6112L172.166 68.2824L172.564 70.1547L175.335 69.5629L175.678 71.1752L172.907 71.7659L173.336 73.7873L176.476 73.116L176.819 74.7272L171.564 75.8499L169.709 67.1227L174.966 66Z" fill="black"/>
<path d="M191.257 63.6045L192.346 72.4361L190.201 72.7016L189.586 67.7201L188.155 72.955L186.561 73.152L183.901 68.4239L184.516 73.4054L182.37 73.6709L181.282 64.8403L183.741 64.5358L187.027 70.3104L188.799 63.9102L191.257 63.6045Z" fill="black"/>
<path d="M203.628 71.8958L203.087 70.4162L199.904 70.5164L199.458 72.0264L197.158 72.0981L199.962 63.0827L202.59 63L205.939 71.8229L203.628 71.8958ZM200.395 68.8518L202.493 68.7855L201.345 65.6512L200.395 68.8518Z" fill="black"/>
<path d="M214.343 63.1825C215.757 63.2554 216.898 63.7264 217.765 64.5956C218.632 65.4649 219.032 66.556 218.964 67.8681C218.897 69.1801 218.389 70.2267 217.437 71.0067C216.484 71.7878 215.302 72.1403 213.887 72.0685L210.77 71.9086L211.223 63.0215L214.343 63.1825ZM213.013 70.3736L213.973 70.4225C214.798 70.4649 215.46 70.2451 215.957 69.7632C216.454 69.2802 216.724 68.6133 216.768 67.7615C216.812 66.9097 216.611 66.2178 216.165 65.6869C215.719 65.156 215.084 64.8698 214.26 64.8274L213.301 64.7784L213.013 70.3736Z" fill="black"/>
<path d="M230.352 64.6862L230.14 66.3202L226.954 65.9057L226.709 67.8041L229.518 68.1696L229.305 69.8048L226.498 69.4393L226.232 71.4878L229.416 71.9023L229.205 73.5363L223.875 72.8422L225.022 63.9932L230.352 64.6862Z" fill="black"/>
<path d="M243.32 75.0574C242.688 74.0032 242.539 72.838 242.874 71.5641C243.211 70.2902 243.915 69.3502 244.984 68.7475C246.054 68.1437 247.205 68.0044 248.435 68.3308C249.388 68.5832 250.17 69.0608 250.777 69.7647C251.385 70.4675 251.717 71.3073 251.772 72.2843L249.28 71.6239C249.119 70.9081 248.681 70.4555 247.964 70.2651C247.247 70.0758 246.622 70.1509 246.093 70.4903C245.563 70.8308 245.2 71.377 245 72.1276C244.803 72.8794 244.85 73.5354 245.143 74.0924C245.435 74.6505 245.941 75.0258 246.657 75.2162C247.374 75.4055 247.98 75.2292 248.47 74.6874L250.964 75.3478C250.433 76.1692 249.731 76.7338 248.856 77.0449C247.981 77.355 247.067 77.3833 246.113 77.1309C244.885 76.8024 243.953 76.1126 243.32 75.0574Z" fill="black"/>
<path d="M260.444 81.6118L260.482 80.0376L257.483 78.9595L256.515 80.2008L254.348 79.4229L260.254 72.0654L262.729 72.9543L262.62 82.394L260.444 81.6118ZM258.551 77.5931L260.527 78.3024L260.606 74.9647L258.551 77.5931Z" fill="black"/>
<path d="M269.071 85.1628L267.104 84.2642L270.786 76.168L272.754 77.0676L271.138 80.6197L275.423 78.2883L278 79.4665L272.832 81.9937L274.316 87.5616L271.786 86.4052L270.697 81.5879L269.071 85.1628Z" fill="black"/>
<path d="M287.725 84.6468L286.928 86.0894L284.118 84.5293L283.193 86.2047L285.672 87.5798L284.875 89.0223L282.398 87.6462L281.4 89.4543L284.209 91.0132L283.415 92.4558L278.714 89.8459L283.024 82.0391L287.725 84.6468Z" fill="black"/>
<path d="M223.67 198.524H196.12V201.694H223.67V198.524Z" fill="#272525"/>
</svg>
