<svg width="405" height="267" viewBox="0 0 405 267" fill="none" xmlns="http://www.w3.org/2000/svg">
<rect width="405" height="267" fill="#BBBBBB"/>
<path d="M89 155H58L58.0937 117.649L89 104V155Z" fill="#BB1521"/>
<path d="M93.5664 154.51V91.5644L218.422 112.83L219.179 108.404L93.5664 87L37 111.299L38.7771 115.424L46.7568 111.996L46.636 159H92.6H93.5664H345V154.51H93.5664ZM89.0701 154.51H51.1428L51.2566 110.062L89.0701 93.8195V154.51Z" fill="#3266B1"/>
<path d="M129.052 174.072C128.412 174.072 127.82 173.968 127.276 173.76C126.74 173.544 126.272 173.244 125.872 172.86C125.48 172.476 125.172 172.024 124.948 171.504C124.732 170.984 124.624 170.416 124.624 169.8C124.624 169.184 124.732 168.616 124.948 168.096C125.172 167.576 125.484 167.124 125.884 166.74C126.284 166.356 126.752 166.06 127.288 165.852C127.832 165.636 128.424 165.528 129.064 165.528C129.704 165.528 130.288 165.628 130.816 165.828C131.352 166.028 131.808 166.332 132.184 166.74L131.632 167.304C131.28 166.952 130.892 166.7 130.468 166.548C130.044 166.396 129.588 166.32 129.1 166.32C128.58 166.32 128.1 166.408 127.66 166.584C127.228 166.752 126.848 166.996 126.52 167.316C126.2 167.628 125.948 167.996 125.764 168.42C125.588 168.836 125.5 169.296 125.5 169.8C125.5 170.296 125.588 170.756 125.764 171.18C125.948 171.604 126.2 171.976 126.52 172.296C126.848 172.608 127.228 172.852 127.66 173.028C128.1 173.196 128.576 173.28 129.088 173.28C129.568 173.28 130.02 173.208 130.444 173.064C130.876 172.92 131.272 172.676 131.632 172.332L132.136 173.004C131.736 173.356 131.268 173.624 130.732 173.808C130.196 173.984 129.636 174.072 129.052 174.072ZM131.284 172.896V169.8H132.136V173.004L131.284 172.896ZM134.469 174V167.7H135.285V169.416L135.201 169.116C135.377 168.636 135.673 168.272 136.089 168.024C136.505 167.768 137.021 167.64 137.637 167.64V168.468C137.605 168.468 137.573 168.468 137.541 168.468C137.509 168.46 137.477 168.456 137.445 168.456C136.781 168.456 136.261 168.66 135.885 169.068C135.509 169.468 135.321 170.04 135.321 170.784V174H134.469ZM141.809 174.06C141.153 174.06 140.577 173.924 140.081 173.652C139.585 173.372 139.197 172.992 138.917 172.512C138.637 172.024 138.497 171.468 138.497 170.844C138.497 170.22 138.629 169.668 138.893 169.188C139.165 168.708 139.533 168.332 139.997 168.06C140.469 167.78 140.997 167.64 141.581 167.64C142.173 167.64 142.697 167.776 143.153 168.048C143.617 168.312 143.981 168.688 144.245 169.176C144.509 169.656 144.641 170.212 144.641 170.844C144.641 170.884 144.637 170.928 144.629 170.976C144.629 171.016 144.629 171.06 144.629 171.108H139.145V170.472H144.173L143.837 170.724C143.837 170.268 143.737 169.864 143.537 169.512C143.345 169.152 143.081 168.872 142.745 168.672C142.409 168.472 142.021 168.372 141.581 168.372C141.149 168.372 140.761 168.472 140.417 168.672C140.073 168.872 139.805 169.152 139.613 169.512C139.421 169.872 139.325 170.284 139.325 170.748V170.88C139.325 171.36 139.429 171.784 139.637 172.152C139.853 172.512 140.149 172.796 140.525 173.004C140.909 173.204 141.345 173.304 141.833 173.304C142.217 173.304 142.573 173.236 142.901 173.1C143.237 172.964 143.525 172.756 143.765 172.476L144.245 173.028C143.965 173.364 143.613 173.62 143.189 173.796C142.773 173.972 142.313 174.06 141.809 174.06ZM150.148 174V172.608L150.112 172.38V170.052C150.112 169.516 149.96 169.104 149.656 168.816C149.36 168.528 148.916 168.384 148.324 168.384C147.916 168.384 147.528 168.452 147.16 168.588C146.792 168.724 146.48 168.904 146.224 169.128L145.84 168.492C146.16 168.22 146.544 168.012 146.992 167.868C147.44 167.716 147.912 167.64 148.408 167.64C149.224 167.64 149.852 167.844 150.292 168.252C150.74 168.652 150.964 169.264 150.964 170.088V174H150.148ZM147.976 174.06C147.504 174.06 147.092 173.984 146.74 173.832C146.396 173.672 146.132 173.456 145.948 173.184C145.764 172.904 145.672 172.584 145.672 172.224C145.672 171.896 145.748 171.6 145.9 171.336C146.06 171.064 146.316 170.848 146.668 170.688C147.028 170.52 147.508 170.436 148.108 170.436H150.28V171.072H148.132C147.524 171.072 147.1 171.18 146.86 171.396C146.628 171.612 146.512 171.88 146.512 172.2C146.512 172.56 146.652 172.848 146.932 173.064C147.212 173.28 147.604 173.388 148.108 173.388C148.588 173.388 149 173.28 149.344 173.064C149.696 172.84 149.952 172.52 150.112 172.104L150.304 172.692C150.144 173.108 149.864 173.44 149.464 173.688C149.072 173.936 148.576 174.06 147.976 174.06ZM155.27 174.06C154.678 174.06 154.222 173.9 153.902 173.58C153.582 173.26 153.422 172.808 153.422 172.224V166.308H154.274V172.176C154.274 172.544 154.366 172.828 154.55 173.028C154.742 173.228 155.014 173.328 155.366 173.328C155.742 173.328 156.054 173.22 156.302 173.004L156.602 173.616C156.434 173.768 156.23 173.88 155.99 173.952C155.758 174.024 155.518 174.06 155.27 174.06ZM152.294 168.408V167.7H156.194V168.408H152.294ZM163.801 174.06C163.201 174.06 162.661 173.924 162.181 173.652C161.709 173.38 161.337 173.004 161.065 172.524C160.793 172.036 160.657 171.476 160.657 170.844C160.657 170.204 160.793 169.644 161.065 169.164C161.337 168.684 161.709 168.312 162.181 168.048C162.661 167.776 163.201 167.64 163.801 167.64C164.353 167.64 164.845 167.764 165.277 168.012C165.717 168.26 166.065 168.624 166.321 169.104C166.585 169.576 166.717 170.156 166.717 170.844C166.717 171.524 166.589 172.104 166.333 172.584C166.077 173.064 165.729 173.432 165.289 173.688C164.857 173.936 164.361 174.06 163.801 174.06ZM163.861 173.304C164.309 173.304 164.709 173.204 165.061 173.004C165.421 172.796 165.701 172.508 165.901 172.14C166.109 171.764 166.213 171.332 166.213 170.844C166.213 170.348 166.109 169.916 165.901 169.548C165.701 169.18 165.421 168.896 165.061 168.696C164.709 168.488 164.309 168.384 163.861 168.384C163.421 168.384 163.025 168.488 162.673 168.696C162.321 168.896 162.041 169.18 161.833 169.548C161.625 169.916 161.521 170.348 161.521 170.844C161.521 171.332 161.625 171.764 161.833 172.14C162.041 172.508 162.321 172.796 162.673 173.004C163.025 173.204 163.421 173.304 163.861 173.304ZM166.237 174V172.104L166.321 170.832L166.201 169.56V165.096H167.053V174H166.237ZM172.102 174.06C171.446 174.06 170.87 173.924 170.374 173.652C169.878 173.372 169.49 172.992 169.21 172.512C168.93 172.024 168.79 171.468 168.79 170.844C168.79 170.22 168.922 169.668 169.186 169.188C169.458 168.708 169.826 168.332 170.29 168.06C170.762 167.78 171.29 167.64 171.874 167.64C172.466 167.64 172.99 167.776 173.446 168.048C173.91 168.312 174.274 168.688 174.538 169.176C174.802 169.656 174.934 170.212 174.934 170.844C174.934 170.884 174.93 170.928 174.922 170.976C174.922 171.016 174.922 171.06 174.922 171.108H169.438V170.472H174.466L174.13 170.724C174.13 170.268 174.03 169.864 173.83 169.512C173.638 169.152 173.374 168.872 173.038 168.672C172.702 168.472 172.314 168.372 171.874 168.372C171.442 168.372 171.054 168.472 170.71 168.672C170.366 168.872 170.098 169.152 169.906 169.512C169.714 169.872 169.618 170.284 169.618 170.748V170.88C169.618 171.36 169.722 171.784 169.93 172.152C170.146 172.512 170.442 172.796 170.818 173.004C171.202 173.204 171.638 173.304 172.126 173.304C172.51 173.304 172.866 173.236 173.194 173.1C173.53 172.964 173.818 172.756 174.058 172.476L174.538 173.028C174.258 173.364 173.906 173.62 173.482 173.796C173.066 173.972 172.606 174.06 172.102 174.06ZM178.36 174.06C177.84 174.06 177.348 173.988 176.884 173.844C176.42 173.692 176.056 173.504 175.792 173.28L176.176 172.608C176.432 172.8 176.76 172.968 177.16 173.112C177.56 173.248 177.98 173.316 178.42 173.316C179.02 173.316 179.452 173.224 179.716 173.04C179.98 172.848 180.112 172.596 180.112 172.284C180.112 172.052 180.036 171.872 179.884 171.744C179.74 171.608 179.548 171.508 179.308 171.444C179.068 171.372 178.8 171.312 178.504 171.264C178.208 171.216 177.912 171.16 177.616 171.096C177.328 171.032 177.064 170.94 176.824 170.82C176.584 170.692 176.388 170.52 176.236 170.304C176.092 170.088 176.02 169.8 176.02 169.44C176.02 169.096 176.116 168.788 176.308 168.516C176.5 168.244 176.78 168.032 177.148 167.88C177.524 167.72 177.98 167.64 178.516 167.64C178.924 167.64 179.332 167.696 179.74 167.808C180.148 167.912 180.484 168.052 180.748 168.228L180.376 168.912C180.096 168.72 179.796 168.584 179.476 168.504C179.156 168.416 178.836 168.372 178.516 168.372C177.948 168.372 177.528 168.472 177.256 168.672C176.992 168.864 176.86 169.112 176.86 169.416C176.86 169.656 176.932 169.844 177.076 169.98C177.228 170.116 177.424 170.224 177.664 170.304C177.912 170.376 178.18 170.436 178.468 170.484C178.764 170.532 179.056 170.592 179.344 170.664C179.64 170.728 179.908 170.82 180.148 170.94C180.396 171.052 180.592 171.216 180.736 171.432C180.888 171.64 180.964 171.916 180.964 172.26C180.964 172.628 180.86 172.948 180.652 173.22C180.452 173.484 180.156 173.692 179.764 173.844C179.38 173.988 178.912 174.06 178.36 174.06ZM182.528 174V167.7H183.38V174H182.528ZM182.96 166.308C182.784 166.308 182.636 166.248 182.516 166.128C182.396 166.008 182.336 165.864 182.336 165.696C182.336 165.528 182.396 165.388 182.516 165.276C182.636 165.156 182.784 165.096 182.96 165.096C183.136 165.096 183.284 165.152 183.404 165.264C183.524 165.376 183.584 165.516 183.584 165.684C183.584 165.86 183.524 166.008 183.404 166.128C183.292 166.248 183.144 166.308 182.96 166.308ZM188.439 176.388C187.863 176.388 187.311 176.304 186.783 176.136C186.255 175.968 185.827 175.728 185.499 175.416L185.931 174.768C186.227 175.032 186.591 175.24 187.023 175.392C187.463 175.552 187.927 175.632 188.415 175.632C189.215 175.632 189.803 175.444 190.179 175.068C190.555 174.7 190.743 174.124 190.743 173.34V171.768L190.863 170.688L190.779 169.608V167.7H191.595V173.232C191.595 174.32 191.327 175.116 190.791 175.62C190.263 176.132 189.479 176.388 188.439 176.388ZM188.283 173.76C187.683 173.76 187.143 173.632 186.663 173.376C186.183 173.112 185.803 172.748 185.523 172.284C185.251 171.82 185.115 171.288 185.115 170.688C185.115 170.088 185.251 169.56 185.523 169.104C185.803 168.64 186.183 168.28 186.663 168.024C187.143 167.768 187.683 167.64 188.283 167.64C188.843 167.64 189.347 167.756 189.795 167.988C190.243 168.22 190.599 168.564 190.863 169.02C191.127 169.476 191.259 170.032 191.259 170.688C191.259 171.344 191.127 171.9 190.863 172.356C190.599 172.812 190.243 173.16 189.795 173.4C189.347 173.64 188.843 173.76 188.283 173.76ZM188.367 173.004C188.831 173.004 189.243 172.908 189.603 172.716C189.963 172.516 190.247 172.244 190.455 171.9C190.663 171.548 190.767 171.144 190.767 170.688C190.767 170.232 190.663 169.832 190.455 169.488C190.247 169.144 189.963 168.876 189.603 168.684C189.243 168.484 188.831 168.384 188.367 168.384C187.911 168.384 187.499 168.484 187.131 168.684C186.771 168.876 186.487 169.144 186.279 169.488C186.079 169.832 185.979 170.232 185.979 170.688C185.979 171.144 186.079 171.548 186.279 171.9C186.487 172.244 186.771 172.516 187.131 172.716C187.499 172.908 187.911 173.004 188.367 173.004ZM197.181 167.64C197.693 167.64 198.141 167.74 198.525 167.94C198.917 168.132 199.221 168.428 199.437 168.828C199.661 169.228 199.773 169.732 199.773 170.34V174H198.921V170.424C198.921 169.76 198.753 169.26 198.417 168.924C198.089 168.58 197.625 168.408 197.025 168.408C196.577 168.408 196.185 168.5 195.849 168.684C195.521 168.86 195.265 169.12 195.081 169.464C194.905 169.8 194.817 170.208 194.817 170.688V174H193.965V167.7H194.781V169.428L194.649 169.104C194.849 168.648 195.169 168.292 195.609 168.036C196.049 167.772 196.573 167.64 197.181 167.64ZM203.767 174.06C203.247 174.06 202.755 173.988 202.291 173.844C201.827 173.692 201.463 173.504 201.199 173.28L201.583 172.608C201.839 172.8 202.167 172.968 202.567 173.112C202.967 173.248 203.387 173.316 203.827 173.316C204.427 173.316 204.859 173.224 205.123 173.04C205.387 172.848 205.519 172.596 205.519 172.284C205.519 172.052 205.443 171.872 205.291 171.744C205.147 171.608 204.955 171.508 204.715 171.444C204.475 171.372 204.207 171.312 203.911 171.264C203.615 171.216 203.319 171.16 203.023 171.096C202.735 171.032 202.471 170.94 202.231 170.82C201.991 170.692 201.795 170.52 201.643 170.304C201.499 170.088 201.427 169.8 201.427 169.44C201.427 169.096 201.523 168.788 201.715 168.516C201.907 168.244 202.187 168.032 202.555 167.88C202.931 167.72 203.387 167.64 203.923 167.64C204.331 167.64 204.739 167.696 205.147 167.808C205.555 167.912 205.891 168.052 206.155 168.228L205.783 168.912C205.503 168.72 205.203 168.584 204.883 168.504C204.563 168.416 204.243 168.372 203.923 168.372C203.355 168.372 202.935 168.472 202.663 168.672C202.399 168.864 202.267 169.112 202.267 169.416C202.267 169.656 202.339 169.844 202.483 169.98C202.635 170.116 202.831 170.224 203.071 170.304C203.319 170.376 203.587 170.436 203.875 170.484C204.171 170.532 204.463 170.592 204.751 170.664C205.047 170.728 205.315 170.82 205.555 170.94C205.803 171.052 205.999 171.216 206.143 171.432C206.295 171.64 206.371 171.916 206.371 172.26C206.371 172.628 206.267 172.948 206.059 173.22C205.859 173.484 205.563 173.692 205.171 173.844C204.787 173.988 204.319 174.06 203.767 174.06ZM211.219 174V166.908C211.219 166.348 211.383 165.896 211.711 165.552C212.039 165.208 212.511 165.036 213.127 165.036C213.367 165.036 213.599 165.068 213.823 165.132C214.047 165.196 214.235 165.296 214.387 165.432L214.099 166.068C213.979 165.964 213.839 165.888 213.679 165.84C213.519 165.784 213.347 165.756 213.163 165.756C212.803 165.756 212.527 165.856 212.335 166.056C212.143 166.256 212.047 166.552 212.047 166.944V167.904L212.071 168.3V174H211.219ZM210.091 168.408V167.7H213.991V168.408H210.091ZM217.604 174.06C216.996 174.06 216.448 173.924 215.96 173.652C215.48 173.372 215.1 172.992 214.82 172.512C214.54 172.024 214.4 171.468 214.4 170.844C214.4 170.212 214.54 169.656 214.82 169.176C215.1 168.696 215.48 168.32 215.96 168.048C216.44 167.776 216.988 167.64 217.604 167.64C218.228 167.64 218.78 167.776 219.26 168.048C219.748 168.32 220.128 168.696 220.4 169.176C220.68 169.656 220.82 170.212 220.82 170.844C220.82 171.468 220.68 172.024 220.4 172.512C220.128 172.992 219.748 173.372 219.26 173.652C218.772 173.924 218.22 174.06 217.604 174.06ZM217.604 173.304C218.06 173.304 218.464 173.204 218.816 173.004C219.168 172.796 219.444 172.508 219.644 172.14C219.852 171.764 219.956 171.332 219.956 170.844C219.956 170.348 219.852 169.916 219.644 169.548C219.444 169.18 219.168 168.896 218.816 168.696C218.464 168.488 218.064 168.384 217.616 168.384C217.168 168.384 216.768 168.488 216.416 168.696C216.064 168.896 215.784 169.18 215.576 169.548C215.368 169.916 215.264 170.348 215.264 170.844C215.264 171.332 215.368 171.764 215.576 172.14C215.784 172.508 216.064 172.796 216.416 173.004C216.768 173.204 217.164 173.304 217.604 173.304ZM222.559 174V167.7H223.375V169.416L223.291 169.116C223.467 168.636 223.763 168.272 224.179 168.024C224.595 167.768 225.111 167.64 225.727 167.64V168.468C225.695 168.468 225.663 168.468 225.631 168.468C225.599 168.46 225.567 168.456 225.535 168.456C224.871 168.456 224.351 168.66 223.975 169.068C223.599 169.468 223.411 170.04 223.411 170.784V174H222.559ZM233.204 176.388C232.628 176.388 232.076 176.304 231.548 176.136C231.02 175.968 230.592 175.728 230.264 175.416L230.696 174.768C230.992 175.032 231.356 175.24 231.788 175.392C232.228 175.552 232.692 175.632 233.18 175.632C233.98 175.632 234.568 175.444 234.944 175.068C235.32 174.7 235.508 174.124 235.508 173.34V171.768L235.628 170.688L235.544 169.608V167.7H236.36V173.232C236.36 174.32 236.092 175.116 235.556 175.62C235.028 176.132 234.244 176.388 233.204 176.388ZM233.048 173.76C232.448 173.76 231.908 173.632 231.428 173.376C230.948 173.112 230.568 172.748 230.288 172.284C230.016 171.82 229.88 171.288 229.88 170.688C229.88 170.088 230.016 169.56 230.288 169.104C230.568 168.64 230.948 168.28 231.428 168.024C231.908 167.768 232.448 167.64 233.048 167.64C233.608 167.64 234.112 167.756 234.56 167.988C235.008 168.22 235.364 168.564 235.628 169.02C235.892 169.476 236.024 170.032 236.024 170.688C236.024 171.344 235.892 171.9 235.628 172.356C235.364 172.812 235.008 173.16 234.56 173.4C234.112 173.64 233.608 173.76 233.048 173.76ZM233.132 173.004C233.596 173.004 234.008 172.908 234.368 172.716C234.728 172.516 235.012 172.244 235.22 171.9C235.428 171.548 235.532 171.144 235.532 170.688C235.532 170.232 235.428 169.832 235.22 169.488C235.012 169.144 234.728 168.876 234.368 168.684C234.008 168.484 233.596 168.384 233.132 168.384C232.676 168.384 232.264 168.484 231.896 168.684C231.536 168.876 231.252 169.144 231.044 169.488C230.844 169.832 230.744 170.232 230.744 170.688C230.744 171.144 230.844 171.548 231.044 171.9C231.252 172.244 231.536 172.516 231.896 172.716C232.264 172.908 232.676 173.004 233.132 173.004ZM238.731 174V167.7H239.547V169.416L239.463 169.116C239.639 168.636 239.935 168.272 240.351 168.024C240.767 167.768 241.283 167.64 241.899 167.64V168.468C241.867 168.468 241.835 168.468 241.803 168.468C241.771 168.46 241.739 168.456 241.707 168.456C241.043 168.456 240.523 168.66 240.147 169.068C239.771 169.468 239.583 170.04 239.583 170.784V174H238.731ZM246.071 174.06C245.415 174.06 244.839 173.924 244.343 173.652C243.847 173.372 243.459 172.992 243.179 172.512C242.899 172.024 242.759 171.468 242.759 170.844C242.759 170.22 242.891 169.668 243.155 169.188C243.427 168.708 243.795 168.332 244.259 168.06C244.731 167.78 245.259 167.64 245.843 167.64C246.435 167.64 246.959 167.776 247.415 168.048C247.879 168.312 248.243 168.688 248.507 169.176C248.771 169.656 248.903 170.212 248.903 170.844C248.903 170.884 248.899 170.928 248.891 170.976C248.891 171.016 248.891 171.06 248.891 171.108H243.407V170.472H248.435L248.099 170.724C248.099 170.268 247.999 169.864 247.799 169.512C247.607 169.152 247.343 168.872 247.007 168.672C246.671 168.472 246.283 168.372 245.843 168.372C245.411 168.372 245.023 168.472 244.679 168.672C244.335 168.872 244.067 169.152 243.875 169.512C243.683 169.872 243.587 170.284 243.587 170.748V170.88C243.587 171.36 243.691 171.784 243.899 172.152C244.115 172.512 244.411 172.796 244.787 173.004C245.171 173.204 245.607 173.304 246.095 173.304C246.479 173.304 246.835 173.236 247.163 173.1C247.499 172.964 247.787 172.756 248.027 172.476L248.507 173.028C248.227 173.364 247.875 173.62 247.451 173.796C247.035 173.972 246.575 174.06 246.071 174.06ZM254.409 174V172.608L254.373 172.38V170.052C254.373 169.516 254.221 169.104 253.917 168.816C253.621 168.528 253.177 168.384 252.585 168.384C252.177 168.384 251.789 168.452 251.421 168.588C251.053 168.724 250.741 168.904 250.485 169.128L250.101 168.492C250.421 168.22 250.805 168.012 251.253 167.868C251.701 167.716 252.173 167.64 252.669 167.64C253.485 167.64 254.113 167.844 254.553 168.252C255.001 168.652 255.225 169.264 255.225 170.088V174H254.409ZM252.237 174.06C251.765 174.06 251.353 173.984 251.001 173.832C250.657 173.672 250.393 173.456 250.209 173.184C250.025 172.904 249.933 172.584 249.933 172.224C249.933 171.896 250.009 171.6 250.161 171.336C250.321 171.064 250.577 170.848 250.929 170.688C251.289 170.52 251.769 170.436 252.369 170.436H254.541V171.072H252.393C251.785 171.072 251.361 171.18 251.121 171.396C250.889 171.612 250.773 171.88 250.773 172.2C250.773 172.56 250.913 172.848 251.193 173.064C251.473 173.28 251.865 173.388 252.369 173.388C252.849 173.388 253.261 173.28 253.605 173.064C253.957 172.84 254.213 172.52 254.373 172.104L254.565 172.692C254.405 173.108 254.125 173.44 253.725 173.688C253.333 173.936 252.837 174.06 252.237 174.06ZM259.532 174.06C258.94 174.06 258.484 173.9 258.164 173.58C257.844 173.26 257.684 172.808 257.684 172.224V166.308H258.536V172.176C258.536 172.544 258.628 172.828 258.812 173.028C259.004 173.228 259.276 173.328 259.628 173.328C260.004 173.328 260.316 173.22 260.564 173.004L260.864 173.616C260.696 173.768 260.492 173.88 260.252 173.952C260.02 174.024 259.78 174.06 259.532 174.06ZM256.556 168.408V167.7H260.456V168.408H256.556ZM273.427 167.64C273.939 167.64 274.383 167.74 274.759 167.94C275.143 168.132 275.439 168.428 275.647 168.828C275.863 169.228 275.971 169.732 275.971 170.34V174H275.119V170.424C275.119 169.76 274.959 169.26 274.639 168.924C274.327 168.58 273.883 168.408 273.307 168.408C272.875 168.408 272.499 168.5 272.179 168.684C271.867 168.86 271.623 169.12 271.447 169.464C271.279 169.8 271.195 170.208 271.195 170.688V174H270.343V170.424C270.343 169.76 270.183 169.26 269.863 168.924C269.543 168.58 269.095 168.408 268.519 168.408C268.095 168.408 267.723 168.5 267.403 168.684C267.083 168.86 266.835 169.12 266.659 169.464C266.491 169.8 266.407 170.208 266.407 170.688V174H265.555V167.7H266.371V169.404L266.239 169.104C266.431 168.648 266.739 168.292 267.163 168.036C267.595 167.772 268.103 167.64 268.687 167.64C269.303 167.64 269.827 167.796 270.259 168.108C270.691 168.412 270.971 168.872 271.099 169.488L270.763 169.356C270.947 168.844 271.271 168.432 271.735 168.12C272.207 167.8 272.771 167.64 273.427 167.64ZM280.85 174.06C280.242 174.06 279.694 173.924 279.206 173.652C278.726 173.372 278.346 172.992 278.066 172.512C277.786 172.024 277.646 171.468 277.646 170.844C277.646 170.212 277.786 169.656 278.066 169.176C278.346 168.696 278.726 168.32 279.206 168.048C279.686 167.776 280.234 167.64 280.85 167.64C281.474 167.64 282.026 167.776 282.506 168.048C282.994 168.32 283.374 168.696 283.646 169.176C283.926 169.656 284.066 170.212 284.066 170.844C284.066 171.468 283.926 172.024 283.646 172.512C283.374 172.992 282.994 173.372 282.506 173.652C282.018 173.924 281.466 174.06 280.85 174.06ZM280.85 173.304C281.306 173.304 281.71 173.204 282.062 173.004C282.414 172.796 282.69 172.508 282.89 172.14C283.098 171.764 283.202 171.332 283.202 170.844C283.202 170.348 283.098 169.916 282.89 169.548C282.69 169.18 282.414 168.896 282.062 168.696C281.71 168.488 281.31 168.384 280.862 168.384C280.414 168.384 280.014 168.488 279.662 168.696C279.31 168.896 279.03 169.18 278.822 169.548C278.614 169.916 278.51 170.348 278.51 170.844C278.51 171.332 278.614 171.764 278.822 172.14C279.03 172.508 279.31 172.796 279.662 173.004C280.014 173.204 280.41 173.304 280.85 173.304ZM293.677 167.64C294.189 167.64 294.633 167.74 295.009 167.94C295.393 168.132 295.689 168.428 295.897 168.828C296.113 169.228 296.221 169.732 296.221 170.34V174H295.369V170.424C295.369 169.76 295.209 169.26 294.889 168.924C294.577 168.58 294.133 168.408 293.557 168.408C293.125 168.408 292.749 168.5 292.429 168.684C292.117 168.86 291.873 169.12 291.697 169.464C291.529 169.8 291.445 170.208 291.445 170.688V174H290.593V170.424C290.593 169.76 290.433 169.26 290.113 168.924C289.793 168.58 289.345 168.408 288.769 168.408C288.345 168.408 287.973 168.5 287.653 168.684C287.333 168.86 287.085 169.12 286.909 169.464C286.741 169.8 286.657 170.208 286.657 170.688V174H285.805V167.7H286.621V169.404L286.489 169.104C286.681 168.648 286.989 168.292 287.413 168.036C287.845 167.772 288.353 167.64 288.937 167.64C289.553 167.64 290.077 167.796 290.509 168.108C290.941 168.412 291.221 168.872 291.349 169.488L291.013 169.356C291.197 168.844 291.521 168.432 291.985 168.12C292.457 167.8 293.021 167.64 293.677 167.64ZM301.208 174.06C300.552 174.06 299.976 173.924 299.48 173.652C298.984 173.372 298.596 172.992 298.316 172.512C298.036 172.024 297.896 171.468 297.896 170.844C297.896 170.22 298.028 169.668 298.292 169.188C298.564 168.708 298.932 168.332 299.396 168.06C299.868 167.78 300.396 167.64 300.98 167.64C301.572 167.64 302.096 167.776 302.552 168.048C303.016 168.312 303.38 168.688 303.644 169.176C303.908 169.656 304.04 170.212 304.04 170.844C304.04 170.884 304.036 170.928 304.028 170.976C304.028 171.016 304.028 171.06 304.028 171.108H298.544V170.472H303.572L303.236 170.724C303.236 170.268 303.136 169.864 302.936 169.512C302.744 169.152 302.48 168.872 302.144 168.672C301.808 168.472 301.42 168.372 300.98 168.372C300.548 168.372 300.16 168.472 299.816 168.672C299.472 168.872 299.204 169.152 299.012 169.512C298.82 169.872 298.724 170.284 298.724 170.748V170.88C298.724 171.36 298.828 171.784 299.036 172.152C299.252 172.512 299.548 172.796 299.924 173.004C300.308 173.204 300.744 173.304 301.232 173.304C301.616 173.304 301.972 173.236 302.3 173.1C302.636 172.964 302.924 172.756 303.164 172.476L303.644 173.028C303.364 173.364 303.012 173.62 302.588 173.796C302.172 173.972 301.712 174.06 301.208 174.06ZM308.99 167.64C309.502 167.64 309.95 167.74 310.334 167.94C310.726 168.132 311.03 168.428 311.246 168.828C311.47 169.228 311.582 169.732 311.582 170.34V174H310.73V170.424C310.73 169.76 310.562 169.26 310.226 168.924C309.898 168.58 309.434 168.408 308.834 168.408C308.386 168.408 307.994 168.5 307.658 168.684C307.33 168.86 307.074 169.12 306.89 169.464C306.714 169.8 306.626 170.208 306.626 170.688V174H305.774V167.7H306.59V169.428L306.458 169.104C306.658 168.648 306.978 168.292 307.418 168.036C307.858 167.772 308.382 167.64 308.99 167.64ZM315.875 174.06C315.283 174.06 314.827 173.9 314.507 173.58C314.187 173.26 314.027 172.808 314.027 172.224V166.308H314.879V172.176C314.879 172.544 314.971 172.828 315.155 173.028C315.347 173.228 315.619 173.328 315.971 173.328C316.347 173.328 316.659 173.22 316.907 173.004L317.207 173.616C317.039 173.768 316.835 173.88 316.595 173.952C316.363 174.024 316.123 174.06 315.875 174.06ZM312.899 168.408V167.7H316.799V168.408H312.899ZM320.45 174.06C319.93 174.06 319.438 173.988 318.974 173.844C318.51 173.692 318.146 173.504 317.882 173.28L318.266 172.608C318.522 172.8 318.85 172.968 319.25 173.112C319.65 173.248 320.07 173.316 320.51 173.316C321.11 173.316 321.542 173.224 321.806 173.04C322.07 172.848 322.202 172.596 322.202 172.284C322.202 172.052 322.126 171.872 321.974 171.744C321.83 171.608 321.638 171.508 321.398 171.444C321.158 171.372 320.89 171.312 320.594 171.264C320.298 171.216 320.002 171.16 319.706 171.096C319.418 171.032 319.154 170.94 318.914 170.82C318.674 170.692 318.478 170.52 318.326 170.304C318.182 170.088 318.11 169.8 318.11 169.44C318.11 169.096 318.206 168.788 318.398 168.516C318.59 168.244 318.87 168.032 319.238 167.88C319.614 167.72 320.07 167.64 320.606 167.64C321.014 167.64 321.422 167.696 321.83 167.808C322.238 167.912 322.574 168.052 322.838 168.228L322.466 168.912C322.186 168.72 321.886 168.584 321.566 168.504C321.246 168.416 320.926 168.372 320.606 168.372C320.038 168.372 319.618 168.472 319.346 168.672C319.082 168.864 318.95 169.112 318.95 169.416C318.95 169.656 319.022 169.844 319.166 169.98C319.318 170.116 319.514 170.224 319.754 170.304C320.002 170.376 320.27 170.436 320.558 170.484C320.854 170.532 321.146 170.592 321.434 170.664C321.73 170.728 321.998 170.82 322.238 170.94C322.486 171.052 322.682 171.216 322.826 171.432C322.978 171.64 323.054 171.916 323.054 172.26C323.054 172.628 322.95 172.948 322.742 173.22C322.542 173.484 322.246 173.692 321.854 173.844C321.47 173.988 321.002 174.06 320.45 174.06Z" fill="black"/>
<path d="M124.93 142V117.87H134.754C137.328 117.87 139.58 118.387 141.51 119.421C143.464 120.433 144.98 121.846 146.06 123.661C147.141 125.477 147.681 127.568 147.681 129.935C147.681 132.302 147.141 134.393 146.06 136.209C144.98 138.024 143.464 139.449 141.51 140.483C139.58 141.494 137.328 142 134.754 142H124.93ZM127.481 139.794H134.616C136.753 139.794 138.603 139.38 140.166 138.553C141.752 137.703 142.981 136.542 143.854 135.071C144.728 133.578 145.164 131.866 145.164 129.935C145.164 127.982 144.728 126.27 143.854 124.799C142.981 123.328 141.752 122.179 140.166 121.352C138.603 120.502 136.753 120.076 134.616 120.076H127.481V139.794ZM152.892 142V123.903H155.339V142H152.892ZM154.133 119.904C153.627 119.904 153.202 119.732 152.857 119.387C152.512 119.042 152.34 118.629 152.34 118.146C152.34 117.663 152.512 117.261 152.857 116.94C153.202 116.595 153.627 116.423 154.133 116.423C154.638 116.423 155.063 116.583 155.408 116.905C155.753 117.227 155.925 117.629 155.925 118.112C155.925 118.617 155.753 119.042 155.408 119.387C155.086 119.732 154.661 119.904 154.133 119.904ZM162.149 142V123.903H164.493V128.832L164.252 127.97C164.757 126.591 165.608 125.546 166.803 124.833C167.998 124.098 169.48 123.73 171.249 123.73V126.109C171.157 126.109 171.065 126.109 170.974 126.109C170.882 126.086 170.79 126.074 170.698 126.074C168.79 126.074 167.297 126.66 166.217 127.832C165.136 128.981 164.596 130.625 164.596 132.762V142H162.149ZM183.234 142.172C181.349 142.172 179.695 141.782 178.27 141C176.845 140.196 175.731 139.104 174.926 137.726C174.122 136.324 173.72 134.727 173.72 132.934C173.72 131.142 174.099 129.556 174.857 128.177C175.639 126.798 176.696 125.718 178.029 124.937C179.385 124.133 180.901 123.73 182.579 123.73C184.28 123.73 185.785 124.121 187.095 124.902C188.428 125.661 189.473 126.741 190.232 128.143C190.99 129.521 191.369 131.119 191.369 132.934C191.369 133.049 191.358 133.175 191.335 133.313C191.335 133.428 191.335 133.555 191.335 133.692H175.581V131.866H190.025L189.059 132.589C189.059 131.28 188.772 130.119 188.198 129.108C187.646 128.074 186.888 127.269 185.923 126.695C184.957 126.12 183.843 125.833 182.579 125.833C181.338 125.833 180.223 126.12 179.235 126.695C178.247 127.269 177.477 128.074 176.926 129.108C176.374 130.142 176.098 131.325 176.098 132.658V133.038C176.098 134.416 176.397 135.634 176.995 136.691C177.615 137.726 178.465 138.541 179.546 139.139C180.649 139.713 181.901 140.001 183.303 140.001C184.406 140.001 185.429 139.805 186.371 139.415C187.336 139.024 188.163 138.427 188.853 137.622L190.232 139.208C189.427 140.173 188.416 140.908 187.198 141.414C186.003 141.92 184.682 142.172 183.234 142.172ZM203.865 142.172C202.073 142.172 200.464 141.782 199.039 141C197.638 140.196 196.535 139.104 195.73 137.726C194.926 136.324 194.524 134.727 194.524 132.934C194.524 131.119 194.926 129.521 195.73 128.143C196.535 126.764 197.638 125.684 199.039 124.902C200.464 124.121 202.073 123.73 203.865 123.73C205.405 123.73 206.795 124.029 208.036 124.627C209.277 125.224 210.254 126.12 210.966 127.315L209.139 128.556C208.519 127.637 207.749 126.959 206.83 126.523C205.911 126.086 204.911 125.868 203.831 125.868C202.544 125.868 201.383 126.166 200.349 126.764C199.315 127.338 198.499 128.154 197.902 129.211C197.304 130.268 197.006 131.509 197.006 132.934C197.006 134.359 197.304 135.6 197.902 136.657C198.499 137.714 199.315 138.541 200.349 139.139C201.383 139.713 202.544 140.001 203.831 140.001C204.911 140.001 205.911 139.782 206.83 139.346C207.749 138.909 208.519 138.243 209.139 137.346L210.966 138.587C210.254 139.759 209.277 140.656 208.036 141.276C206.795 141.874 205.405 142.172 203.865 142.172ZM221.698 142.172C219.998 142.172 218.688 141.713 217.769 140.794C216.85 139.874 216.39 138.576 216.39 136.898V119.904H218.837V136.76C218.837 137.818 219.102 138.633 219.63 139.208C220.182 139.782 220.963 140.07 221.974 140.07C223.054 140.07 223.951 139.759 224.663 139.139L225.525 140.897C225.042 141.334 224.456 141.655 223.767 141.862C223.1 142.069 222.411 142.172 221.698 142.172ZM213.15 125.937V123.903H224.353V125.937H213.15ZM230.557 142V117.5H240.532C243.146 117.5 245.432 118.025 247.392 119.075C249.376 120.102 250.916 121.537 252.012 123.38C253.109 125.223 253.657 127.347 253.657 129.75C253.657 132.153 253.109 134.277 252.012 136.12C250.916 137.963 249.376 139.41 247.392 140.46C245.432 141.487 243.146 142 240.532 142H230.557ZM233.147 139.76H240.392C242.562 139.76 244.441 139.34 246.027 138.5C247.637 137.637 248.886 136.458 249.772 134.965C250.659 133.448 251.102 131.71 251.102 129.75C251.102 127.767 250.659 126.028 249.772 124.535C248.886 123.042 247.637 121.875 246.027 121.035C244.441 120.172 242.562 119.74 240.392 119.74H233.147V139.76ZM266.753 142.175C264.84 142.175 263.16 141.778 261.713 140.985C260.267 140.168 259.135 139.06 258.318 137.66C257.502 136.237 257.093 134.615 257.093 132.795C257.093 130.975 257.478 129.365 258.248 127.965C259.042 126.565 260.115 125.468 261.468 124.675C262.845 123.858 264.385 123.45 266.088 123.45C267.815 123.45 269.343 123.847 270.673 124.64C272.027 125.41 273.088 126.507 273.858 127.93C274.628 129.33 275.013 130.952 275.013 132.795C275.013 132.912 275.002 133.04 274.978 133.18C274.978 133.297 274.978 133.425 274.978 133.565H258.983V131.71H273.648L272.668 132.445C272.668 131.115 272.377 129.937 271.793 128.91C271.233 127.86 270.463 127.043 269.483 126.46C268.503 125.877 267.372 125.585 266.088 125.585C264.828 125.585 263.697 125.877 262.693 126.46C261.69 127.043 260.908 127.86 260.348 128.91C259.788 129.96 259.508 131.162 259.508 132.515V132.9C259.508 134.3 259.812 135.537 260.418 136.61C261.048 137.66 261.912 138.488 263.008 139.095C264.128 139.678 265.4 139.97 266.823 139.97C267.943 139.97 268.982 139.772 269.938 139.375C270.918 138.978 271.758 138.372 272.458 137.555L273.858 139.165C273.042 140.145 272.015 140.892 270.778 141.405C269.565 141.918 268.223 142.175 266.753 142.175ZM287.702 142.175C285.882 142.175 284.248 141.778 282.802 140.985C281.378 140.168 280.258 139.06 279.442 137.66C278.625 136.237 278.217 134.615 278.217 132.795C278.217 130.952 278.625 129.33 279.442 127.93C280.258 126.53 281.378 125.433 282.802 124.64C284.248 123.847 285.882 123.45 287.702 123.45C289.265 123.45 290.677 123.753 291.937 124.36C293.197 124.967 294.188 125.877 294.912 127.09L293.057 128.35C292.427 127.417 291.645 126.728 290.712 126.285C289.778 125.842 288.763 125.62 287.667 125.62C286.36 125.62 285.182 125.923 284.132 126.53C283.082 127.113 282.253 127.942 281.647 129.015C281.04 130.088 280.737 131.348 280.737 132.795C280.737 134.242 281.04 135.502 281.647 136.575C282.253 137.648 283.082 138.488 284.132 139.095C285.182 139.678 286.36 139.97 287.667 139.97C288.763 139.97 289.778 139.748 290.712 139.305C291.645 138.862 292.427 138.185 293.057 137.275L294.912 138.535C294.188 139.725 293.197 140.635 291.937 141.265C290.677 141.872 289.265 142.175 287.702 142.175ZM306.976 142.175C305.202 142.175 303.604 141.778 302.181 140.985C300.781 140.168 299.672 139.06 298.856 137.66C298.039 136.237 297.631 134.615 297.631 132.795C297.631 130.952 298.039 129.33 298.856 127.93C299.672 126.53 300.781 125.433 302.181 124.64C303.581 123.847 305.179 123.45 306.976 123.45C308.796 123.45 310.406 123.847 311.806 124.64C313.229 125.433 314.337 126.53 315.131 127.93C315.947 129.33 316.356 130.952 316.356 132.795C316.356 134.615 315.947 136.237 315.131 137.66C314.337 139.06 313.229 140.168 311.806 140.985C310.382 141.778 308.772 142.175 306.976 142.175ZM306.976 139.97C308.306 139.97 309.484 139.678 310.511 139.095C311.537 138.488 312.342 137.648 312.926 136.575C313.532 135.478 313.836 134.218 313.836 132.795C313.836 131.348 313.532 130.088 312.926 129.015C312.342 127.942 311.537 127.113 310.511 126.53C309.484 125.923 308.317 125.62 307.011 125.62C305.704 125.62 304.537 125.923 303.511 126.53C302.484 127.113 301.667 127.942 301.061 129.015C300.454 130.088 300.151 131.348 300.151 132.795C300.151 134.218 300.454 135.478 301.061 136.575C301.667 137.648 302.484 138.488 303.511 139.095C304.537 139.678 305.692 139.97 306.976 139.97ZM321.429 142V123.625H323.809V128.63L323.564 127.755C324.077 126.355 324.941 125.293 326.154 124.57C327.367 123.823 328.872 123.45 330.669 123.45V125.865C330.576 125.865 330.482 125.865 330.389 125.865C330.296 125.842 330.202 125.83 330.109 125.83C328.172 125.83 326.656 126.425 325.559 127.615C324.462 128.782 323.914 130.45 323.914 132.62V142H321.429Z" fill="black"/>
</svg>
