<svg width="21" height="14" viewBox="0 0 21 14" fill="none" xmlns="http://www.w3.org/2000/svg">
<path d="M19.9697 2.0933C19.8566 1.68932 19.6364 1.32359 19.3323 1.03497C19.0196 0.737469 18.6364 0.524662 18.2188 0.416632C16.656 0.00413232 10.3947 0.00413241 10.3947 0.00413241C7.78446 -0.0256071 5.17483 0.105194 2.58059 0.395799C2.16299 0.51181 1.7805 0.729371 1.46713 1.02913C1.15923 1.3258 0.936206 1.69163 0.819701 2.09247C0.539835 3.60225 0.403856 5.13525 0.4136 6.6708C0.403613 8.20497 0.539258 9.73746 0.819701 11.2491C0.93371 11.6483 1.1559 12.0125 1.46464 12.3066C1.77337 12.6008 2.15784 12.8133 2.58059 12.9258C4.16422 13.3375 10.3947 13.3375 10.3947 13.3375C13.0083 13.3672 15.6212 13.2364 18.2188 12.9458C18.6364 12.8378 19.0196 12.625 19.3323 12.3275C19.6363 12.0389 19.8563 11.6731 19.9689 11.2691C20.2561 9.75993 20.3957 8.22629 20.3858 6.68997C20.4074 5.14714 20.268 3.60627 19.9697 2.09247V2.0933ZM8.40415 9.52413V3.8183L13.6136 6.67163L8.40415 9.52413Z" fill="#E4002B"/>
</svg>
