<svg width="374" height="306" viewBox="0 0 374 306" fill="none" xmlns="http://www.w3.org/2000/svg">
<rect width="374" height="306" fill="white"/>
<path d="M154 54V106.597H219V157" stroke="#ED9B26" stroke-width="10" stroke-miterlimit="10"/>
<path d="M154 157V125" stroke="#ED9B26" stroke-width="10" stroke-miterlimit="10"/>
<path d="M110.155 249V241.3H111.255V249H110.155ZM115.408 249.066C114.822 249.066 114.367 248.908 114.044 248.593C113.722 248.278 113.56 247.827 113.56 247.24V241.894H114.616V247.196C114.616 247.511 114.693 247.753 114.847 247.922C115.009 248.091 115.236 248.175 115.529 248.175C115.859 248.175 116.134 248.083 116.354 247.9L116.684 248.659C116.523 248.798 116.329 248.901 116.101 248.967C115.881 249.033 115.65 249.066 115.408 249.066ZM112.57 244.039V243.17H116.288V244.039H112.57ZM117.543 243.841L118.093 241.608L118.236 242.246C118.023 242.246 117.844 242.18 117.697 242.048C117.558 241.916 117.488 241.74 117.488 241.52C117.488 241.293 117.558 241.113 117.697 240.981C117.844 240.842 118.02 240.772 118.225 240.772C118.438 240.772 118.61 240.845 118.742 240.992C118.874 241.131 118.94 241.307 118.94 241.52C118.94 241.586 118.936 241.656 118.929 241.729C118.922 241.795 118.903 241.872 118.874 241.96C118.852 242.048 118.815 242.162 118.764 242.301L118.236 243.841H117.543ZM121.943 249.066C121.459 249.066 120.997 249 120.557 248.868C120.124 248.736 119.783 248.575 119.534 248.384L119.974 247.548C120.223 247.717 120.531 247.86 120.898 247.977C121.264 248.094 121.638 248.153 122.02 248.153C122.511 248.153 122.863 248.083 123.076 247.944C123.296 247.805 123.406 247.61 123.406 247.361C123.406 247.178 123.34 247.035 123.208 246.932C123.076 246.829 122.9 246.752 122.68 246.701C122.467 246.65 122.229 246.606 121.965 246.569C121.701 246.525 121.437 246.474 121.173 246.415C120.909 246.349 120.667 246.261 120.447 246.151C120.227 246.034 120.051 245.876 119.919 245.678C119.787 245.473 119.721 245.201 119.721 244.864C119.721 244.512 119.82 244.204 120.018 243.94C120.216 243.676 120.494 243.474 120.854 243.335C121.22 243.188 121.653 243.115 122.152 243.115C122.533 243.115 122.918 243.163 123.307 243.258C123.703 243.346 124.025 243.474 124.275 243.643L123.824 244.479C123.56 244.303 123.285 244.182 122.999 244.116C122.713 244.05 122.427 244.017 122.141 244.017C121.679 244.017 121.334 244.094 121.107 244.248C120.879 244.395 120.766 244.585 120.766 244.82C120.766 245.018 120.832 245.172 120.964 245.282C121.103 245.385 121.279 245.465 121.492 245.524C121.712 245.583 121.954 245.634 122.218 245.678C122.482 245.715 122.746 245.766 123.01 245.832C123.274 245.891 123.512 245.975 123.725 246.085C123.945 246.195 124.121 246.349 124.253 246.547C124.392 246.745 124.462 247.009 124.462 247.339C124.462 247.691 124.359 247.995 124.154 248.252C123.948 248.509 123.659 248.71 123.285 248.857C122.911 248.996 122.463 249.066 121.943 249.066ZM130.737 249.066C130.151 249.066 129.696 248.908 129.373 248.593C129.051 248.278 128.889 247.827 128.889 247.24V241.894H129.945V247.196C129.945 247.511 130.022 247.753 130.176 247.922C130.338 248.091 130.565 248.175 130.858 248.175C131.188 248.175 131.463 248.083 131.683 247.9L132.013 248.659C131.852 248.798 131.658 248.901 131.43 248.967C131.21 249.033 130.979 249.066 130.737 249.066ZM127.899 244.039V243.17H131.617V244.039H127.899ZM136.403 243.115C136.88 243.115 137.298 243.207 137.657 243.39C138.024 243.573 138.31 243.852 138.515 244.226C138.72 244.6 138.823 245.073 138.823 245.645V249H137.767V245.766C137.767 245.201 137.628 244.776 137.349 244.49C137.078 244.204 136.693 244.061 136.194 244.061C135.82 244.061 135.494 244.134 135.215 244.281C134.936 244.428 134.72 244.644 134.566 244.93C134.419 245.216 134.346 245.572 134.346 245.997V249H133.29V240.838H134.346V244.743L134.137 244.325C134.328 243.944 134.621 243.647 135.017 243.434C135.413 243.221 135.875 243.115 136.403 243.115ZM143.373 249.066C142.75 249.066 142.2 248.938 141.723 248.681C141.254 248.424 140.887 248.072 140.623 247.625C140.367 247.178 140.238 246.664 140.238 246.085C140.238 245.506 140.363 244.992 140.612 244.545C140.869 244.098 141.217 243.749 141.657 243.5C142.105 243.243 142.607 243.115 143.164 243.115C143.729 243.115 144.228 243.24 144.66 243.489C145.093 243.738 145.43 244.09 145.672 244.545C145.922 244.992 146.046 245.517 146.046 246.118C146.046 246.162 146.043 246.213 146.035 246.272C146.035 246.331 146.032 246.386 146.024 246.437H141.063V245.678H145.474L145.045 245.942C145.053 245.568 144.976 245.234 144.814 244.941C144.653 244.648 144.429 244.42 144.143 244.259C143.865 244.09 143.538 244.006 143.164 244.006C142.798 244.006 142.471 244.09 142.185 244.259C141.899 244.42 141.676 244.651 141.514 244.952C141.353 245.245 141.272 245.583 141.272 245.964V246.14C141.272 246.529 141.36 246.877 141.536 247.185C141.72 247.486 141.973 247.72 142.295 247.889C142.618 248.058 142.988 248.142 143.406 248.142C143.751 248.142 144.063 248.083 144.341 247.966C144.627 247.849 144.877 247.673 145.089 247.438L145.672 248.12C145.408 248.428 145.078 248.663 144.682 248.824C144.294 248.985 143.857 249.066 143.373 249.066ZM154.086 249V247.768L154.031 247.537V245.436C154.031 244.989 153.899 244.644 153.635 244.402C153.378 244.153 152.989 244.028 152.469 244.028C152.124 244.028 151.787 244.087 151.457 244.204C151.127 244.314 150.848 244.464 150.621 244.655L150.181 243.863C150.481 243.621 150.841 243.438 151.259 243.313C151.684 243.181 152.128 243.115 152.59 243.115C153.389 243.115 154.005 243.309 154.438 243.698C154.87 244.087 155.087 244.681 155.087 245.48V249H154.086ZM152.172 249.066C151.739 249.066 151.358 248.993 151.028 248.846C150.705 248.699 150.456 248.498 150.28 248.241C150.104 247.977 150.016 247.68 150.016 247.35C150.016 247.035 150.089 246.749 150.236 246.492C150.39 246.235 150.635 246.03 150.973 245.876C151.317 245.722 151.779 245.645 152.359 245.645H154.207V246.404H152.403C151.875 246.404 151.519 246.492 151.336 246.668C151.152 246.844 151.061 247.057 151.061 247.306C151.061 247.592 151.174 247.823 151.402 247.999C151.629 248.168 151.944 248.252 152.348 248.252C152.744 248.252 153.088 248.164 153.382 247.988C153.682 247.812 153.899 247.555 154.031 247.218L154.24 247.944C154.1 248.289 153.855 248.564 153.503 248.769C153.151 248.967 152.707 249.066 152.172 249.066ZM157.041 249V243.17H158.053V244.754L157.954 244.358C158.115 243.955 158.387 243.647 158.768 243.434C159.149 243.221 159.619 243.115 160.176 243.115V244.138C160.132 244.131 160.088 244.127 160.044 244.127C160.007 244.127 159.971 244.127 159.934 244.127C159.369 244.127 158.922 244.296 158.592 244.633C158.262 244.97 158.097 245.458 158.097 246.096V249H157.041ZM163.716 249.066C163.129 249.066 162.675 248.908 162.352 248.593C162.029 248.278 161.868 247.827 161.868 247.24V241.894H162.924V247.196C162.924 247.511 163.001 247.753 163.155 247.922C163.316 248.091 163.544 248.175 163.837 248.175C164.167 248.175 164.442 248.083 164.662 247.9L164.992 248.659C164.831 248.798 164.636 248.901 164.409 248.967C164.189 249.033 163.958 249.066 163.716 249.066ZM160.878 244.039V243.17H164.596V244.039H160.878ZM165.958 250.628L166.508 248.406L166.651 249.044C166.438 249.044 166.259 248.978 166.112 248.846C165.973 248.714 165.903 248.534 165.903 248.307C165.903 248.087 165.973 247.907 166.112 247.768C166.259 247.629 166.435 247.559 166.64 247.559C166.853 247.559 167.025 247.632 167.157 247.779C167.289 247.918 167.355 248.094 167.355 248.307C167.355 248.38 167.348 248.454 167.333 248.527C167.326 248.593 167.307 248.674 167.278 248.769C167.256 248.857 167.219 248.967 167.168 249.099L166.651 250.628H165.958ZM174.935 243.115C175.412 243.115 175.83 243.207 176.189 243.39C176.556 243.573 176.842 243.852 177.047 244.226C177.253 244.6 177.355 245.073 177.355 245.645V249H176.299V245.766C176.299 245.201 176.16 244.776 175.881 244.49C175.61 244.204 175.225 244.061 174.726 244.061C174.352 244.061 174.026 244.134 173.747 244.281C173.469 244.428 173.252 244.644 173.098 244.93C172.952 245.216 172.878 245.572 172.878 245.997V249H171.822V243.17H172.834V244.743L172.669 244.325C172.86 243.944 173.153 243.647 173.549 243.434C173.945 243.221 174.407 243.115 174.935 243.115ZM181.807 249.066C181.22 249.066 180.699 248.938 180.245 248.681C179.79 248.424 179.431 248.072 179.167 247.625C178.903 247.17 178.771 246.657 178.771 246.085C178.771 245.506 178.903 244.992 179.167 244.545C179.431 244.098 179.79 243.749 180.245 243.5C180.699 243.243 181.22 243.115 181.807 243.115C182.386 243.115 182.903 243.243 183.358 243.5C183.82 243.749 184.179 244.098 184.436 244.545C184.7 244.985 184.832 245.498 184.832 246.085C184.832 246.664 184.7 247.178 184.436 247.625C184.179 248.072 183.82 248.424 183.358 248.681C182.903 248.938 182.386 249.066 181.807 249.066ZM181.807 248.142C182.181 248.142 182.514 248.058 182.808 247.889C183.108 247.72 183.343 247.482 183.512 247.174C183.68 246.859 183.765 246.496 183.765 246.085C183.765 245.667 183.68 245.308 183.512 245.007C183.343 244.699 183.108 244.461 182.808 244.292C182.514 244.123 182.181 244.039 181.807 244.039C181.433 244.039 181.099 244.123 180.806 244.292C180.512 244.461 180.278 244.699 180.102 245.007C179.926 245.308 179.838 245.667 179.838 246.085C179.838 246.496 179.926 246.859 180.102 247.174C180.278 247.482 180.512 247.72 180.806 247.889C181.099 248.058 181.433 248.142 181.807 248.142ZM188.294 249.066C187.707 249.066 187.253 248.908 186.93 248.593C186.607 248.278 186.446 247.827 186.446 247.24V241.894H187.502V247.196C187.502 247.511 187.579 247.753 187.733 247.922C187.894 248.091 188.122 248.175 188.415 248.175C188.745 248.175 189.02 248.083 189.24 247.9L189.57 248.659C189.409 248.798 189.214 248.901 188.987 248.967C188.767 249.033 188.536 249.066 188.294 249.066ZM185.456 244.039V243.17H189.174V244.039H185.456ZM193.053 251.2C192.811 251.2 192.58 251.171 192.36 251.112C192.132 251.053 191.942 250.965 191.788 250.848L192.129 250.034C192.349 250.217 192.635 250.309 192.987 250.309C193.265 250.309 193.478 250.221 193.625 250.045C193.779 249.876 193.856 249.623 193.856 249.286V243.17H194.912V249.264C194.912 249.858 194.75 250.327 194.428 250.672C194.112 251.024 193.654 251.2 193.053 251.2ZM194.384 242.048C194.178 242.048 194.006 241.982 193.867 241.85C193.735 241.718 193.669 241.557 193.669 241.366C193.669 241.168 193.735 241.003 193.867 240.871C194.006 240.739 194.178 240.673 194.384 240.673C194.589 240.673 194.758 240.739 194.89 240.871C195.029 240.996 195.099 241.153 195.099 241.344C195.099 241.542 195.033 241.711 194.901 241.85C194.769 241.982 194.596 242.048 194.384 242.048ZM199.38 249.066C198.881 249.066 198.441 248.974 198.06 248.791C197.686 248.608 197.392 248.329 197.18 247.955C196.974 247.574 196.872 247.097 196.872 246.525V243.17H197.928V246.404C197.928 246.976 198.063 247.405 198.335 247.691C198.613 247.977 199.002 248.12 199.501 248.12C199.867 248.12 200.186 248.047 200.458 247.9C200.729 247.746 200.938 247.526 201.085 247.24C201.231 246.947 201.305 246.595 201.305 246.184V243.17H202.361V249H201.36V247.427L201.525 247.845C201.334 248.234 201.048 248.534 200.667 248.747C200.285 248.96 199.856 249.066 199.38 249.066ZM206.043 249.066C205.559 249.066 205.097 249 204.657 248.868C204.224 248.736 203.883 248.575 203.634 248.384L204.074 247.548C204.323 247.717 204.631 247.86 204.998 247.977C205.365 248.094 205.739 248.153 206.12 248.153C206.611 248.153 206.963 248.083 207.176 247.944C207.396 247.805 207.506 247.61 207.506 247.361C207.506 247.178 207.44 247.035 207.308 246.932C207.176 246.829 207 246.752 206.78 246.701C206.567 246.65 206.329 246.606 206.065 246.569C205.801 246.525 205.537 246.474 205.273 246.415C205.009 246.349 204.767 246.261 204.547 246.151C204.327 246.034 204.151 245.876 204.019 245.678C203.887 245.473 203.821 245.201 203.821 244.864C203.821 244.512 203.92 244.204 204.118 243.94C204.316 243.676 204.595 243.474 204.954 243.335C205.321 243.188 205.753 243.115 206.252 243.115C206.633 243.115 207.018 243.163 207.407 243.258C207.803 243.346 208.126 243.474 208.375 243.643L207.924 244.479C207.66 244.303 207.385 244.182 207.099 244.116C206.813 244.05 206.527 244.017 206.241 244.017C205.779 244.017 205.434 244.094 205.207 244.248C204.98 244.395 204.866 244.585 204.866 244.82C204.866 245.018 204.932 245.172 205.064 245.282C205.203 245.385 205.379 245.465 205.592 245.524C205.812 245.583 206.054 245.634 206.318 245.678C206.582 245.715 206.846 245.766 207.11 245.832C207.374 245.891 207.612 245.975 207.825 246.085C208.045 246.195 208.221 246.349 208.353 246.547C208.492 246.745 208.562 247.009 208.562 247.339C208.562 247.691 208.459 247.995 208.254 248.252C208.049 248.509 207.759 248.71 207.385 248.857C207.011 248.996 206.564 249.066 206.043 249.066ZM211.884 249.066C211.297 249.066 210.843 248.908 210.52 248.593C210.197 248.278 210.036 247.827 210.036 247.24V241.894H211.092V247.196C211.092 247.511 211.169 247.753 211.323 247.922C211.484 248.091 211.712 248.175 212.005 248.175C212.335 248.175 212.61 248.083 212.83 247.9L213.16 248.659C212.999 248.798 212.804 248.901 212.577 248.967C212.357 249.033 212.126 249.066 211.884 249.066ZM209.046 244.039V243.17H212.764V244.039H209.046ZM221.01 249V247.768L220.955 247.537V245.436C220.955 244.989 220.823 244.644 220.559 244.402C220.302 244.153 219.913 244.028 219.393 244.028C219.048 244.028 218.711 244.087 218.381 244.204C218.051 244.314 217.772 244.464 217.545 244.655L217.105 243.863C217.405 243.621 217.765 243.438 218.183 243.313C218.608 243.181 219.052 243.115 219.514 243.115C220.313 243.115 220.929 243.309 221.362 243.698C221.794 244.087 222.011 244.681 222.011 245.48V249H221.01ZM219.096 249.066C218.663 249.066 218.282 248.993 217.952 248.846C217.629 248.699 217.38 248.498 217.204 248.241C217.028 247.977 216.94 247.68 216.94 247.35C216.94 247.035 217.013 246.749 217.16 246.492C217.314 246.235 217.559 246.03 217.897 245.876C218.241 245.722 218.703 245.645 219.283 245.645H221.131V246.404H219.327C218.799 246.404 218.443 246.492 218.26 246.668C218.076 246.844 217.985 247.057 217.985 247.306C217.985 247.592 218.098 247.823 218.326 247.999C218.553 248.168 218.868 248.252 219.272 248.252C219.668 248.252 220.012 248.164 220.306 247.988C220.606 247.812 220.823 247.555 220.955 247.218L221.164 247.944C221.024 248.289 220.779 248.564 220.427 248.769C220.075 248.967 219.631 249.066 219.096 249.066ZM229.328 249.066C228.763 249.066 228.257 248.941 227.81 248.692C227.37 248.443 227.022 248.094 226.765 247.647C226.508 247.2 226.38 246.679 226.38 246.085C226.38 245.491 226.508 244.974 226.765 244.534C227.022 244.087 227.37 243.738 227.81 243.489C228.257 243.24 228.763 243.115 229.328 243.115C229.819 243.115 230.263 243.225 230.659 243.445C231.055 243.665 231.37 243.995 231.605 244.435C231.847 244.875 231.968 245.425 231.968 246.085C231.968 246.745 231.851 247.295 231.616 247.735C231.389 248.175 231.077 248.509 230.681 248.736C230.285 248.956 229.834 249.066 229.328 249.066ZM229.416 248.142C229.783 248.142 230.113 248.058 230.406 247.889C230.707 247.72 230.941 247.482 231.11 247.174C231.286 246.859 231.374 246.496 231.374 246.085C231.374 245.667 231.286 245.308 231.11 245.007C230.941 244.699 230.707 244.461 230.406 244.292C230.113 244.123 229.783 244.039 229.416 244.039C229.042 244.039 228.708 244.123 228.415 244.292C228.122 244.461 227.887 244.699 227.711 245.007C227.535 245.308 227.447 245.667 227.447 246.085C227.447 246.496 227.535 246.859 227.711 247.174C227.887 247.482 228.122 247.72 228.415 247.889C228.708 248.058 229.042 248.142 229.416 248.142ZM231.407 249V247.427L231.473 246.074L231.363 244.721V240.838H232.419V249H231.407ZM237.013 249.066C236.39 249.066 235.84 248.938 235.363 248.681C234.894 248.424 234.527 248.072 234.263 247.625C234.006 247.178 233.878 246.664 233.878 246.085C233.878 245.506 234.003 244.992 234.252 244.545C234.509 244.098 234.857 243.749 235.297 243.5C235.744 243.243 236.247 243.115 236.804 243.115C237.369 243.115 237.867 243.24 238.3 243.489C238.733 243.738 239.07 244.09 239.312 244.545C239.561 244.992 239.686 245.517 239.686 246.118C239.686 246.162 239.682 246.213 239.675 246.272C239.675 246.331 239.671 246.386 239.664 246.437H234.703V245.678H239.114L238.685 245.942C238.692 245.568 238.615 245.234 238.454 244.941C238.293 244.648 238.069 244.42 237.783 244.259C237.504 244.09 237.178 244.006 236.804 244.006C236.437 244.006 236.111 244.09 235.825 244.259C235.539 244.42 235.315 244.651 235.154 244.952C234.993 245.245 234.912 245.583 234.912 245.964V246.14C234.912 246.529 235 246.877 235.176 247.185C235.359 247.486 235.612 247.72 235.935 247.889C236.258 248.058 236.628 248.142 237.046 248.142C237.391 248.142 237.702 248.083 237.981 247.966C238.267 247.849 238.516 247.673 238.729 247.438L239.312 248.12C239.048 248.428 238.718 248.663 238.322 248.824C237.933 248.985 237.497 249.066 237.013 249.066ZM242.824 249.066C242.34 249.066 241.878 249 241.438 248.868C241.006 248.736 240.665 248.575 240.415 248.384L240.855 247.548C241.105 247.717 241.413 247.86 241.779 247.977C242.146 248.094 242.52 248.153 242.901 248.153C243.393 248.153 243.745 248.083 243.957 247.944C244.177 247.805 244.287 247.61 244.287 247.361C244.287 247.178 244.221 247.035 244.089 246.932C243.957 246.829 243.781 246.752 243.561 246.701C243.349 246.65 243.11 246.606 242.846 246.569C242.582 246.525 242.318 246.474 242.054 246.415C241.79 246.349 241.548 246.261 241.328 246.151C241.108 246.034 240.932 245.876 240.8 245.678C240.668 245.473 240.602 245.201 240.602 244.864C240.602 244.512 240.701 244.204 240.899 243.94C241.097 243.676 241.376 243.474 241.735 243.335C242.102 243.188 242.535 243.115 243.033 243.115C243.415 243.115 243.8 243.163 244.188 243.258C244.584 243.346 244.907 243.474 245.156 243.643L244.705 244.479C244.441 244.303 244.166 244.182 243.88 244.116C243.594 244.05 243.308 244.017 243.022 244.017C242.56 244.017 242.216 244.094 241.988 244.248C241.761 244.395 241.647 244.585 241.647 244.82C241.647 245.018 241.713 245.172 241.845 245.282C241.985 245.385 242.161 245.465 242.373 245.524C242.593 245.583 242.835 245.634 243.099 245.678C243.363 245.715 243.627 245.766 243.891 245.832C244.155 245.891 244.394 245.975 244.606 246.085C244.826 246.195 245.002 246.349 245.134 246.547C245.274 246.745 245.343 247.009 245.343 247.339C245.343 247.691 245.241 247.995 245.035 248.252C244.83 248.509 244.54 248.71 244.166 248.857C243.792 248.996 243.345 249.066 242.824 249.066ZM246.663 249V243.17H247.719V249H246.663ZM247.191 242.048C246.986 242.048 246.813 241.982 246.674 241.85C246.542 241.718 246.476 241.557 246.476 241.366C246.476 241.168 246.542 241.003 246.674 240.871C246.813 240.739 246.986 240.673 247.191 240.673C247.396 240.673 247.565 240.739 247.697 240.871C247.836 240.996 247.906 241.153 247.906 241.344C247.906 241.542 247.84 241.711 247.708 241.85C247.576 241.982 247.404 242.048 247.191 242.048ZM252.287 251.2C251.752 251.2 251.231 251.123 250.725 250.969C250.227 250.822 249.82 250.61 249.504 250.331L250.01 249.517C250.282 249.752 250.615 249.935 251.011 250.067C251.407 250.206 251.822 250.276 252.254 250.276C252.944 250.276 253.45 250.115 253.772 249.792C254.095 249.469 254.256 248.978 254.256 248.318V247.086L254.366 245.931L254.311 244.765V243.17H255.312V248.208C255.312 249.235 255.056 249.99 254.542 250.474C254.029 250.958 253.277 251.2 252.287 251.2ZM252.155 248.758C251.591 248.758 251.085 248.641 250.637 248.406C250.197 248.164 249.845 247.83 249.581 247.405C249.325 246.98 249.196 246.488 249.196 245.931C249.196 245.366 249.325 244.875 249.581 244.457C249.845 244.032 250.197 243.702 250.637 243.467C251.085 243.232 251.591 243.115 252.155 243.115C252.654 243.115 253.109 243.218 253.519 243.423C253.93 243.621 254.256 243.929 254.498 244.347C254.748 244.765 254.872 245.293 254.872 245.931C254.872 246.562 254.748 247.086 254.498 247.504C254.256 247.922 253.93 248.237 253.519 248.45C253.109 248.655 252.654 248.758 252.155 248.758ZM252.276 247.834C252.665 247.834 253.01 247.753 253.31 247.592C253.611 247.431 253.846 247.207 254.014 246.921C254.19 246.635 254.278 246.305 254.278 245.931C254.278 245.557 254.19 245.227 254.014 244.941C253.846 244.655 253.611 244.435 253.31 244.281C253.01 244.12 252.665 244.039 252.276 244.039C251.888 244.039 251.539 244.12 251.231 244.281C250.931 244.435 250.692 244.655 250.516 244.941C250.348 245.227 250.263 245.557 250.263 245.931C250.263 246.305 250.348 246.635 250.516 246.921C250.692 247.207 250.931 247.431 251.231 247.592C251.539 247.753 251.888 247.834 252.276 247.834ZM260.443 243.115C260.92 243.115 261.338 243.207 261.697 243.39C262.064 243.573 262.35 243.852 262.555 244.226C262.76 244.6 262.863 245.073 262.863 245.645V249H261.807V245.766C261.807 245.201 261.668 244.776 261.389 244.49C261.118 244.204 260.733 244.061 260.234 244.061C259.86 244.061 259.534 244.134 259.255 244.281C258.976 244.428 258.76 244.644 258.606 244.93C258.459 245.216 258.386 245.572 258.386 245.997V249H257.33V243.17H258.342V244.743L258.177 244.325C258.368 243.944 258.661 243.647 259.057 243.434C259.453 243.221 259.915 243.115 260.443 243.115Z" fill="#3B3B3B"/>
<path d="M92.528 221V194.638H100.172V221H92.528ZM96.35 190.963C94.9453 190.963 93.802 190.555 92.92 189.738C92.038 188.921 91.597 187.909 91.597 186.7C91.597 185.491 92.038 184.479 92.92 183.662C93.802 182.845 94.9453 182.437 96.35 182.437C97.7547 182.437 98.898 182.829 99.78 183.613C100.662 184.364 101.103 185.344 101.103 186.553C101.103 187.827 100.662 188.889 99.78 189.738C98.9307 190.555 97.7873 190.963 96.35 190.963ZM123.289 194.246C125.38 194.246 127.242 194.671 128.875 195.52C130.541 196.337 131.848 197.611 132.795 199.342C133.743 201.041 134.216 203.229 134.216 205.908V221H126.572V207.084C126.572 204.961 126.099 203.393 125.151 202.38C124.237 201.367 122.93 200.861 121.231 200.861C120.023 200.861 118.928 201.122 117.948 201.645C117.001 202.135 116.25 202.903 115.694 203.948C115.172 204.993 114.91 206.333 114.91 207.966V221H107.266V194.638H114.567V201.939L113.195 199.734C114.143 197.97 115.498 196.614 117.262 195.667C119.026 194.72 121.035 194.246 123.289 194.246ZM151.925 221.392C148.822 221.392 146.405 220.608 144.673 219.04C142.942 217.439 142.076 215.071 142.076 211.935V188.807H149.72V211.837C149.72 212.948 150.014 213.813 150.602 214.434C151.19 215.022 151.991 215.316 153.003 215.316C154.212 215.316 155.241 214.989 156.09 214.336L158.148 219.726C157.364 220.281 156.417 220.706 155.306 221C154.228 221.261 153.101 221.392 151.925 221.392ZM138.009 201.106V195.226H156.286V201.106H138.009ZM172.945 221.392C170.462 221.392 168.224 220.837 166.232 219.726C164.239 218.583 162.655 216.998 161.479 214.973C160.335 212.948 159.764 210.563 159.764 207.819C159.764 205.042 160.335 202.641 161.479 200.616C162.655 198.591 164.239 197.023 166.232 195.912C168.224 194.801 170.462 194.246 172.945 194.246C175.166 194.246 177.11 194.736 178.776 195.716C180.442 196.696 181.732 198.182 182.647 200.175C183.561 202.168 184.019 204.716 184.019 207.819C184.019 210.89 183.578 213.438 182.696 215.463C181.814 217.456 180.54 218.942 178.874 219.922C177.24 220.902 175.264 221.392 172.945 221.392ZM174.268 215.12C175.509 215.12 176.636 214.826 177.649 214.238C178.661 213.65 179.462 212.817 180.05 211.739C180.67 210.628 180.981 209.322 180.981 207.819C180.981 206.284 180.67 204.977 180.05 203.899C179.462 202.821 178.661 201.988 177.649 201.4C176.636 200.812 175.509 200.518 174.268 200.518C172.994 200.518 171.85 200.812 170.838 201.4C169.825 201.988 169.008 202.821 168.388 203.899C167.8 204.977 167.506 206.284 167.506 207.819C167.506 209.322 167.8 210.628 168.388 211.739C169.008 212.817 169.825 213.65 170.838 214.238C171.85 214.826 172.994 215.12 174.268 215.12ZM181.177 221V215.61L181.324 207.77L180.834 199.979V184.642H188.478V221H181.177ZM208.635 221.392C205.63 221.392 202.984 220.804 200.697 219.628C198.443 218.452 196.696 216.851 195.454 214.826C194.213 212.768 193.592 210.432 193.592 207.819C193.592 205.173 194.197 202.837 195.405 200.812C196.647 198.754 198.329 197.153 200.452 196.01C202.576 194.834 204.977 194.246 207.655 194.246C210.236 194.246 212.555 194.801 214.613 195.912C216.704 196.99 218.354 198.558 219.562 200.616C220.771 202.641 221.375 205.075 221.375 207.917C221.375 208.211 221.359 208.554 221.326 208.946C221.294 209.305 221.261 209.648 221.228 209.975H199.815V205.516H217.21L214.27 206.839C214.27 205.467 213.993 204.275 213.437 203.262C212.882 202.249 212.114 201.465 211.134 200.91C210.154 200.322 209.011 200.028 207.704 200.028C206.398 200.028 205.238 200.322 204.225 200.91C203.245 201.465 202.478 202.266 201.922 203.311C201.367 204.324 201.089 205.532 201.089 206.937V208.113C201.089 209.55 201.4 210.824 202.02 211.935C202.674 213.013 203.572 213.846 204.715 214.434C205.891 214.989 207.263 215.267 208.831 215.267C210.236 215.267 211.461 215.055 212.506 214.63C213.584 214.205 214.564 213.568 215.446 212.719L219.513 217.129C218.305 218.501 216.786 219.563 214.956 220.314C213.127 221.033 211.02 221.392 208.635 221.392ZM239.205 221.392C236.363 221.392 233.831 220.82 231.61 219.677C229.388 218.501 227.641 216.884 226.367 214.826C225.125 212.768 224.505 210.432 224.505 207.819C224.505 205.173 225.125 202.837 226.367 200.812C227.641 198.754 229.388 197.153 231.61 196.01C233.831 194.834 236.363 194.246 239.205 194.246C241.981 194.246 244.399 194.834 246.457 196.01C248.515 197.153 250.034 198.803 251.014 200.959L245.085 204.144C244.399 202.903 243.533 201.988 242.488 201.4C241.475 200.812 240.364 200.518 239.156 200.518C237.849 200.518 236.673 200.812 235.628 201.4C234.582 201.988 233.749 202.821 233.129 203.899C232.541 204.977 232.247 206.284 232.247 207.819C232.247 209.354 232.541 210.661 233.129 211.739C233.749 212.817 234.582 213.65 235.628 214.238C236.673 214.826 237.849 215.12 239.156 215.12C240.364 215.12 241.475 214.842 242.488 214.287C243.533 213.699 244.399 212.768 245.085 211.494L251.014 214.728C250.034 216.851 248.515 218.501 246.457 219.677C244.399 220.82 241.981 221.392 239.205 221.392ZM267.624 221.392C264.814 221.392 262.315 220.804 260.127 219.628C257.971 218.452 256.256 216.851 254.982 214.826C253.74 212.768 253.12 210.432 253.12 207.819C253.12 205.173 253.74 202.837 254.982 200.812C256.256 198.754 257.971 197.153 260.127 196.01C262.315 194.834 264.814 194.246 267.624 194.246C270.4 194.246 272.883 194.834 275.072 196.01C277.26 197.153 278.975 198.738 280.217 200.763C281.458 202.788 282.079 205.14 282.079 207.819C282.079 210.432 281.458 212.768 280.217 214.826C278.975 216.851 277.26 218.452 275.072 219.628C272.883 220.804 270.4 221.392 267.624 221.392ZM267.624 215.12C268.898 215.12 270.041 214.826 271.054 214.238C272.066 213.65 272.867 212.817 273.455 211.739C274.043 210.628 274.337 209.322 274.337 207.819C274.337 206.284 274.043 204.977 273.455 203.899C272.867 202.821 272.066 201.988 271.054 201.4C270.041 200.812 268.898 200.518 267.624 200.518C266.35 200.518 265.206 200.812 264.194 201.4C263.181 201.988 262.364 202.821 261.744 203.899C261.156 204.977 260.862 206.284 260.862 207.819C260.862 209.322 261.156 210.628 261.744 211.739C262.364 212.817 263.181 213.65 264.194 214.238C265.206 214.826 266.35 215.12 267.624 215.12Z" fill="#3B3B3B"/>
</svg>
