<svg width="460" height="351" viewBox="0 0 460 351" fill="none" xmlns="http://www.w3.org/2000/svg">
<path d="M417.055 273.68H33.1891C24.9076 273.68 18.1938 266.966 18.1938 258.684V14.9953C18.1938 6.71376 24.9076 0 33.1891 0H417.055C425.337 0 432.05 6.71376 432.05 14.9953V258.684C432.05 266.966 425.337 273.68 417.055 273.68Z" fill="#263238"/>
<path d="M430.949 277.384H19.2077C9.08973 277.384 0.886414 269.182 0.886414 259.063V253.437H449.269V259.063C449.269 269.182 441.067 277.384 430.949 277.384Z" fill="#263238"/>
<path d="M419.784 10.8726H29.3021V241.991H419.784V10.8726Z" fill="#E0E0E0"/>
<path d="M184.324 253.437L189.888 262.288H268.182L273.348 253.437H184.324Z" fill="#455A64"/>
<path d="M409.176 241.251H40.7151C38.8539 241.251 37.3458 239.742 37.3458 237.882V22.0663C37.3458 20.2051 38.8539 18.697 40.7151 18.697H409.177C411.037 18.697 412.545 20.2051 412.545 22.0663V237.883C412.545 239.743 411.036 241.251 409.176 241.251Z" fill="#455A64"/>
<path d="M412.545 35.0039H37.3458V241.252H412.545V35.0039Z" fill="#FAFAFA"/>
<path d="M68.1178 27.2915C68.1178 28.9468 66.7765 30.2881 65.1212 30.2881C63.4659 30.2881 62.1256 28.9468 62.1256 27.2915C62.1256 25.6362 63.467 24.2959 65.1212 24.2959C66.7755 24.2959 68.1178 25.6372 68.1178 27.2915Z" fill="#E8505B"/>
<path d="M49.9571 27.2915C49.9571 28.9468 48.6157 30.2881 46.9605 30.2881C45.3062 30.2881 43.9639 28.9468 43.9639 27.2915C43.9639 25.6362 45.3062 24.2959 46.9605 24.2959C48.6157 24.2959 49.9571 25.6372 49.9571 27.2915Z" fill="#E8505B"/>
<path d="M58.674 27.2915C58.674 28.9468 57.3327 30.2881 55.6775 30.2881C54.0222 30.2881 52.6808 28.9468 52.6808 27.2915C52.6808 25.6362 54.0222 24.2959 55.6775 24.2959C57.3327 24.2959 58.674 25.6372 58.674 27.2915Z" fill="#E8505B"/>
<path d="M317.984 120.909C317.984 120.909 318.378 120.871 319.146 120.822C319.528 120.784 320 120.694 320.561 120.603C321.11 120.452 321.758 120.315 322.452 120.026C323.837 119.484 325.508 118.573 327.025 116.99C327.788 116.205 328.481 115.243 329.088 114.143C329.676 113.031 330.118 111.751 330.359 110.356C330.861 107.579 330.364 104.241 328.461 101.353C326.598 98.4729 323.203 96.166 319.185 95.781C318.189 95.712 317.154 95.7202 316.104 95.7254C315.054 95.7274 313.988 95.7285 312.904 95.7305C310.736 95.7336 308.5 95.7367 306.198 95.7408C301.595 95.747 296.729 95.7532 291.62 95.7604C250.737 95.7799 194.276 95.8077 131.917 95.8386C128.099 95.8427 124.332 97.6689 122.072 100.705C120.929 102.2 120.12 103.947 119.749 105.783C119.39 107.62 119.444 109.53 119.906 111.328C120.798 114.952 123.441 118.022 126.779 119.526C128.443 120.298 130.266 120.665 132.091 120.645C133.945 120.645 135.792 120.646 137.63 120.646C152.335 120.651 166.521 120.657 180.034 120.662C207.057 120.683 231.392 120.703 251.833 120.719C272.263 120.755 288.797 120.784 300.236 120.805C305.943 120.826 310.376 120.844 313.396 120.855C314.893 120.867 316.036 120.876 316.819 120.882C317.589 120.89 317.984 120.909 317.984 120.909C317.984 120.909 317.589 120.927 316.818 120.937C316.035 120.943 314.892 120.951 313.395 120.963C310.375 120.975 305.942 120.992 300.235 121.014C288.795 121.034 272.261 121.063 251.832 121.099C231.391 121.116 207.057 121.135 180.033 121.157C166.52 121.162 152.335 121.167 137.629 121.172C135.791 121.172 133.945 121.173 132.09 121.173C130.205 121.195 128.291 120.813 126.559 120.009C123.077 118.442 120.32 115.242 119.388 111.461C118.906 109.584 118.85 107.594 119.224 105.677C119.61 103.761 120.454 101.938 121.646 100.378C124.001 97.2129 127.934 95.3044 131.915 95.3013C194.274 95.3322 250.735 95.3599 291.618 95.3795C296.727 95.3867 301.593 95.3929 306.196 95.398C308.498 95.4011 310.734 95.4052 312.902 95.4083C313.986 95.4104 315.053 95.4114 316.102 95.4135C317.151 95.4124 318.182 95.4063 319.212 95.4804C323.326 95.8891 326.786 98.2639 328.673 101.211C330.603 104.166 331.089 107.571 330.563 110.39C330.311 111.807 329.854 113.104 329.251 114.229C328.627 115.342 327.919 116.311 327.14 117.1C325.591 118.692 323.894 119.596 322.49 120.126C321.788 120.409 321.132 120.54 320.577 120.683C320.01 120.767 319.535 120.848 319.15 120.878C318.378 120.908 317.984 120.909 317.984 120.909Z" fill="#263238"/>
<path d="M317.984 120.909H293.635V95.5688H317.984C324.982 95.5688 330.654 101.241 330.654 108.239C330.654 115.237 324.982 120.909 317.984 120.909Z" fill="#E8505B"/>
<path d="M313.728 105.855C313.676 105.857 313.681 105.425 313.475 104.703C313.272 103.993 312.778 102.961 311.708 102.171C310.672 101.38 308.979 100.943 307.346 101.557C305.727 102.12 304.332 103.844 304.35 105.854C304.331 107.865 305.726 109.589 307.346 110.152C308.98 110.766 310.673 110.329 311.709 109.538C312.779 108.749 313.273 107.716 313.476 107.006C313.681 106.284 313.676 105.851 313.728 105.855C313.746 105.855 313.758 105.961 313.766 106.165C313.777 106.369 313.757 106.675 313.678 107.058C313.529 107.813 313.066 108.945 311.937 109.839C310.849 110.735 308.998 111.27 307.176 110.618C305.371 110.023 303.791 108.105 303.812 105.855C303.791 103.605 305.371 101.688 307.176 101.094C308.998 100.441 310.848 100.975 311.936 101.871C313.064 102.765 313.527 103.897 313.677 104.652C313.757 105.035 313.776 105.34 313.766 105.545C313.758 105.749 313.746 105.855 313.728 105.855Z" fill="white"/>
<path d="M320.208 113.907C320.125 114.029 318.372 112.998 316.294 111.603C314.214 110.207 312.596 108.977 312.679 108.853C312.761 108.731 314.513 109.762 316.592 111.157C318.672 112.552 320.29 113.783 320.208 113.907Z" fill="white"/>
<path d="M134.973 115.363C134.825 115.363 134.706 112.155 134.706 108.198C134.706 104.239 134.826 101.031 134.973 101.031C135.121 101.031 135.241 104.239 135.241 108.198C135.242 112.155 135.122 115.363 134.973 115.363Z" fill="#455A64"/>
<path d="M164.986 164.622H104.159V223.472H164.986V164.622Z" fill="#E0E0E0"/>
<path d="M108.875 218.435L125.702 188.151L139.465 207.508L147.828 197.229L160.27 218.435H108.875Z" fill="#E8505B"/>
<path d="M145.327 182.262C145.327 184.68 143.368 186.639 140.95 186.639C138.532 186.639 136.572 184.679 136.572 182.262C136.572 179.845 138.532 177.885 140.95 177.885C143.368 177.884 145.327 179.844 145.327 182.262Z" fill="#E8505B"/>
<path d="M160.27 218.599C160.266 218.595 160.261 218.514 160.256 218.358C160.253 218.182 160.247 217.958 160.242 217.672C160.235 217.046 160.225 216.162 160.213 215.023C160.198 212.689 160.176 209.314 160.149 205.029C160.119 196.433 160.075 184.192 160.022 169.496L160.27 169.744C145.385 169.756 127.74 169.769 108.88 169.785C108.811 169.846 109.424 169.24 109.165 169.504V169.517V169.543V169.595V169.7V169.91V170.33V171.168V172.84C109.165 173.953 109.165 175.059 109.164 176.163C109.164 178.368 109.163 180.553 109.163 182.715C109.16 187.04 109.158 191.274 109.156 195.396C109.147 203.638 109.136 211.43 109.128 218.599L108.876 218.347C124.214 218.401 137.028 218.445 146.037 218.476C150.528 218.503 154.07 218.526 156.518 218.542C157.714 218.554 158.643 218.564 159.298 218.571C159.599 218.578 159.835 218.582 160.018 218.586C160.181 218.59 160.265 218.594 160.27 218.599C160.275 218.603 160.2 218.608 160.046 218.614C159.868 218.617 159.641 218.622 159.352 218.628C158.707 218.634 157.795 218.644 156.621 218.657C154.186 218.672 150.664 218.695 146.197 218.723C137.15 218.754 124.281 218.798 108.875 218.851L108.623 218.852V218.598C108.615 211.43 108.605 203.638 108.595 195.395C108.593 191.274 108.591 187.039 108.588 182.714C108.587 180.551 108.586 178.367 108.586 176.162C108.586 175.059 108.585 173.952 108.585 172.839V171.167V170.329V169.909V169.699V169.594V169.542V169.516V169.503C108.326 169.757 108.936 169.14 108.879 169.205C127.74 169.221 145.384 169.234 160.269 169.245L160.519 169.246L160.518 169.496C160.465 184.257 160.421 196.552 160.391 205.187C160.363 209.449 160.341 212.805 160.326 215.125C160.312 216.243 160.303 217.111 160.297 217.725C160.291 218 160.287 218.215 160.282 218.385C160.279 218.532 160.275 218.603 160.27 218.599Z" fill="#455A64"/>
<path d="M261.807 164.622H200.981V223.472H261.807V164.622Z" fill="#E8505B"/>
<path d="M205.697 218.435L222.523 188.151L236.287 207.508L244.649 197.229L257.092 218.435H205.697Z" fill="#E0E0E0"/>
<path d="M242.149 182.262C242.149 184.68 240.19 186.639 237.772 186.639C235.354 186.639 233.394 184.679 233.394 182.262C233.394 179.845 235.354 177.885 237.772 177.885C240.19 177.884 242.149 179.844 242.149 182.262Z" fill="#E0E0E0"/>
<path d="M257.092 218.599C257.088 218.595 257.083 218.514 257.077 218.358C257.074 218.182 257.069 217.958 257.064 217.672C257.057 217.046 257.047 216.162 257.035 215.023C257.02 212.689 256.998 209.314 256.97 205.029C256.94 196.433 256.896 184.192 256.844 169.496L257.092 169.744C242.207 169.756 224.562 169.769 205.702 169.785C205.633 169.846 206.245 169.24 205.987 169.504V169.517V169.543V169.595V169.7V169.91V170.33V171.168V172.84C205.987 173.953 205.987 175.059 205.986 176.163C205.986 178.368 205.985 180.553 205.985 182.715C205.982 187.04 205.98 191.274 205.978 195.396C205.969 203.638 205.958 211.43 205.95 218.599L205.698 218.347C221.036 218.401 233.85 218.445 242.858 218.476C247.35 218.503 250.892 218.526 253.34 218.542C254.536 218.554 255.464 218.564 256.12 218.571C256.421 218.578 256.656 218.582 256.84 218.586C257.002 218.59 257.087 218.594 257.092 218.599C257.097 218.603 257.022 218.608 256.867 218.614C256.689 218.617 256.463 218.622 256.174 218.628C255.529 218.634 254.617 218.644 253.443 218.657C251.008 218.672 247.485 218.695 243.019 218.723C233.971 218.754 221.103 218.798 205.697 218.851L205.445 218.852V218.598C205.436 211.43 205.427 203.638 205.417 195.395C205.415 191.274 205.413 187.039 205.41 182.714C205.409 180.551 205.407 178.367 205.407 176.162C205.407 175.059 205.406 173.952 205.406 172.839V171.167V170.329V169.909V169.699V169.594V169.542V169.516V169.503C205.148 169.757 205.757 169.14 205.701 169.205C224.562 169.221 242.206 169.234 257.091 169.245L257.341 169.246L257.34 169.496C257.286 184.257 257.243 196.552 257.212 205.187C257.184 209.449 257.163 212.805 257.147 215.125C257.134 216.243 257.125 217.111 257.119 217.725C257.112 218 257.108 218.215 257.104 218.385C257.101 218.532 257.097 218.603 257.092 218.599Z" fill="#455A64"/>
<path d="M358.629 164.622H297.803V223.472H358.629V164.622Z" fill="#E0E0E0"/>
<path d="M302.518 218.435L319.345 188.151L333.108 207.508L341.471 197.229L353.913 218.435H302.518Z" fill="#E8505B"/>
<path d="M338.971 182.262C338.971 184.68 337.012 186.639 334.594 186.639C332.176 186.639 330.216 184.679 330.216 182.262C330.216 179.845 332.176 177.885 334.594 177.885C337.012 177.884 338.971 179.844 338.971 182.262Z" fill="#E8505B"/>
<path d="M353.913 218.599C353.909 218.595 353.904 218.514 353.899 218.358C353.896 218.182 353.891 217.958 353.886 217.672C353.878 217.046 353.868 216.162 353.857 215.023C353.841 212.689 353.82 209.314 353.792 205.029C353.762 196.433 353.718 184.192 353.665 169.496L353.913 169.744C339.028 169.756 321.383 169.769 302.524 169.785C302.455 169.846 303.067 169.24 302.809 169.504V169.517V169.543V169.595V169.7V169.91V170.33V171.168V172.84C302.809 173.953 302.809 175.059 302.808 176.163C302.808 178.368 302.807 180.553 302.807 182.715C302.804 187.04 302.801 191.274 302.799 195.396C302.79 203.638 302.78 211.43 302.772 218.599L302.519 218.347C317.858 218.401 330.672 218.445 339.68 218.476C344.171 218.503 347.713 218.526 350.161 218.542C351.357 218.554 352.286 218.564 352.942 218.571C353.242 218.578 353.478 218.582 353.661 218.586C353.824 218.59 353.908 218.594 353.913 218.599C353.919 218.603 353.843 218.608 353.689 218.614C353.511 218.617 353.284 218.622 352.995 218.628C352.351 218.634 351.439 218.644 350.264 218.657C347.83 218.672 344.307 218.695 339.84 218.723C330.793 218.754 317.924 218.798 302.518 218.851L302.266 218.852V218.598C302.258 211.43 302.249 203.638 302.238 195.395C302.236 191.274 302.234 187.039 302.231 182.714C302.23 180.551 302.229 178.367 302.229 176.162C302.229 175.059 302.228 173.952 302.228 172.839V171.167V170.329V169.909V169.699V169.594V169.542V169.516V169.503C301.97 169.757 302.579 169.14 302.522 169.205C321.383 169.221 339.027 169.234 353.912 169.245L354.163 169.246L354.162 169.496C354.108 184.257 354.065 196.552 354.034 205.187C354.006 209.449 353.984 212.805 353.969 215.125C353.956 216.243 353.947 217.111 353.94 217.725C353.934 218 353.93 218.215 353.926 218.385C353.923 218.532 353.919 218.603 353.913 218.599Z" fill="#455A64"/>
<path d="M263.463 65.7778H186.427V72.2343H263.463V65.7778Z" fill="#455A64"/>
<path d="M428.494 253.437C428.494 253.586 336.638 253.705 223.353 253.705C110.029 253.705 18.1927 253.585 18.1927 253.437C18.1927 253.289 110.029 253.17 223.353 253.17C336.638 253.17 428.494 253.289 428.494 253.437Z" fill="#455A64"/>
<path d="M355.144 149.265C355.144 149.265 356.062 139.493 356.991 139.573C357.921 139.652 358.063 141.384 357.955 142.226C357.847 143.066 357.995 146.33 357.995 146.33L355.144 149.265Z" fill="#FFBE9D"/>
<path d="M438.963 141.262L434.285 174.172L455.919 268.607L396.208 273.387L421.902 121.307C421.902 121.307 438.919 119.411 438.963 141.262Z" fill="#263238"/>
<path d="M365.558 307.5L362.111 346.475H376.846L383.34 307.5H365.558Z" fill="#FFBE9D"/>
<path d="M362.111 346.475C362.111 346.475 352.171 347.758 350.396 349.042L376.447 348.728L376.846 346.476H362.111V346.475Z" fill="#FFBE9D"/>
<path d="M350.396 349.042V350.083L377.225 349.798V348.677L350.396 349.042Z" fill="#E8505B"/>
<path d="M359.886 349.643C359.749 349.703 359.322 348.905 358.457 348.278C357.606 347.633 356.719 347.457 356.736 347.308C356.725 347.171 357.777 347.125 358.764 347.864C359.757 348.594 360.02 349.614 359.886 349.643Z" fill="#E8505B"/>
<path d="M377.181 345.698C377.208 345.85 375.391 346.206 373.356 347.17C371.311 348.116 369.873 349.281 369.774 349.163C369.679 349.074 371.013 347.687 373.138 346.703C375.254 345.705 377.174 345.568 377.181 345.698Z" fill="#E8505B"/>
<path d="M376.578 345.064C376.571 345.206 373.325 345.158 369.329 344.956C365.332 344.754 362.098 344.476 362.105 344.333C362.113 344.191 365.357 344.24 369.355 344.442C373.351 344.643 376.585 344.922 376.578 345.064Z" fill="#E8505B"/>
<path d="M378.307 339.941C378.333 340.081 374.761 340.85 370.33 341.659C365.899 342.468 362.287 343.01 362.261 342.87C362.235 342.73 365.806 341.961 370.238 341.152C374.668 340.343 378.282 339.801 378.307 339.941Z" fill="#E8505B"/>
<path d="M378.044 340.123C378.034 340.182 377.261 340.136 376.098 339.7C375.521 339.479 374.849 339.158 374.168 338.696C373.825 338.462 373.488 338.209 373.144 337.897C372.973 337.734 372.796 337.533 372.696 337.262C372.6 336.986 372.595 336.665 372.777 336.373C372.967 336.068 373.353 335.976 373.616 336.01C373.892 336.035 374.122 336.126 374.329 336.212C374.752 336.386 375.137 336.604 375.478 336.846C376.161 337.332 376.663 337.907 377 338.434C377.678 339.502 377.741 340.305 377.691 340.308C377.605 340.336 377.415 339.59 376.701 338.643C376.347 338.173 375.852 337.664 375.209 337.237C374.887 337.025 374.529 336.832 374.14 336.681C373.759 336.51 373.322 336.438 373.208 336.656C373.051 336.9 373.195 337.271 373.494 337.534C373.793 337.814 374.125 338.079 374.44 338.307C375.076 338.77 375.702 339.109 376.241 339.366C377.326 339.869 378.062 340.043 378.044 340.123Z" fill="#E8505B"/>
<path d="M377.911 340.473C377.867 340.496 377.516 339.789 377.544 338.551C377.559 337.938 377.684 337.203 377.997 336.445C378.153 336.066 378.361 335.687 378.618 335.32C378.746 335.133 378.885 334.964 379.047 334.781C379.212 334.611 379.455 334.394 379.817 334.397C380.18 334.413 380.431 334.653 380.564 334.905C380.695 335.169 380.71 335.434 380.705 335.665C380.684 336.12 380.611 336.545 380.497 336.941C380.271 337.734 379.886 338.379 379.504 338.859C378.715 339.818 377.981 340.113 377.961 340.065C377.909 339.993 378.548 339.592 379.212 338.642C379.534 338.165 379.857 337.551 380.038 336.818C380.13 336.455 380.187 336.058 380.199 335.657C380.231 335.271 380.045 334.92 379.802 334.914C379.577 334.888 379.261 335.304 379.027 335.617C378.787 335.948 378.586 336.292 378.432 336.637C378.119 337.327 377.966 338.004 377.907 338.578C377.788 339.731 378 340.454 377.911 340.473Z" fill="#E8505B"/>
<path d="M379.895 346.555C379.774 346.619 378.985 345.316 378.413 343.538C377.835 341.761 377.711 340.243 377.846 340.224C377.992 340.199 378.338 341.646 378.903 343.379C379.46 345.115 380.027 346.49 379.895 346.555Z" fill="#E8505B"/>
<path d="M381.654 345.172C381.577 345.281 380.245 344.406 379.05 342.87C377.847 341.341 377.319 339.836 377.444 339.789C377.581 339.725 378.297 341.082 379.456 342.553C380.604 344.031 381.749 345.054 381.654 345.172Z" fill="#E8505B"/>
<path d="M420.544 310.695L450.723 334.619L457.904 324.117L430.915 294.745L420.544 310.695Z" fill="#FFBE9D"/>
<path d="M448.592 335.205C448.592 335.205 443.952 344.089 443.988 346.279L458.649 324.742L457.03 323.126L448.592 335.205Z" fill="#FFBE9D"/>
<path d="M443.988 346.279L444.842 346.876L459.971 324.718L459.053 324.076L443.988 346.279Z" fill="#E8505B"/>
<path d="M449.916 338.844C449.886 338.991 448.988 338.884 447.978 339.234C446.961 339.563 446.309 340.188 446.196 340.09C446.078 340.021 446.643 339.132 447.815 338.746C448.982 338.349 449.968 338.719 449.916 338.844Z" fill="#E8505B"/>
<path d="M456.585 322.407C456.725 322.471 455.978 324.166 455.601 326.386C455.206 328.604 455.338 330.45 455.183 330.464C455.056 330.491 454.684 328.603 455.094 326.298C455.487 323.99 456.474 322.338 456.585 322.407Z" fill="#E8505B"/>
<path d="M455.761 321.837C455.873 321.925 454.159 324.32 451.933 327.188C449.707 330.056 447.811 332.311 447.698 332.223C447.586 332.136 449.299 329.741 451.527 326.872C453.752 324.004 455.649 321.75 455.761 321.837Z" fill="#E8505B"/>
<path d="M452.51 318.187C452.64 318.246 451.402 321.227 449.747 324.843C448.092 328.46 446.645 331.344 446.516 331.285C446.387 331.226 447.623 328.246 449.279 324.629C450.934 321.012 452.381 318.127 452.51 318.187Z" fill="#E8505B"/>
<path d="M452.509 318.506C452.552 318.547 452.071 319.154 451.048 319.859C450.535 320.205 449.888 320.572 449.119 320.867C448.731 321.014 448.33 321.146 447.878 321.25C447.647 321.296 447.381 321.327 447.1 321.253C446.819 321.172 446.553 320.993 446.418 320.677C446.276 320.347 446.422 319.978 446.6 319.782C446.778 319.569 446.985 319.434 447.174 319.313C447.559 319.065 447.959 318.875 448.352 318.734C449.142 318.453 449.9 318.369 450.525 318.395C451.789 318.45 452.483 318.858 452.456 318.902C452.431 318.988 451.711 318.717 450.525 318.759C449.937 318.78 449.236 318.895 448.518 319.177C448.16 319.319 447.797 319.503 447.45 319.734C447.092 319.948 446.783 320.266 446.895 320.485C447.006 320.752 447.393 320.847 447.78 320.753C448.181 320.668 448.588 320.548 448.955 320.42C449.699 320.164 450.336 319.844 450.855 319.549C451.889 318.95 452.453 318.447 452.509 318.506Z" fill="#E8505B"/>
<path d="M452.72 318.816C452.713 318.865 451.932 318.748 450.934 318.016C450.44 317.653 449.909 317.13 449.467 316.438C449.246 316.093 449.053 315.705 448.9 315.285C448.818 315.073 448.761 314.862 448.703 314.624C448.658 314.392 448.619 314.068 448.829 313.773C449.05 313.485 449.39 313.417 449.673 313.452C449.964 313.494 450.191 313.635 450.376 313.771C450.737 314.048 451.044 314.351 451.303 314.672C451.824 315.311 452.132 315.994 452.307 316.583C452.641 317.779 452.462 318.55 452.412 318.538C452.324 318.54 452.362 317.787 451.961 316.699C451.754 316.161 451.435 315.546 450.938 314.976C450.693 314.691 450.401 314.419 450.078 314.179C449.78 313.93 449.387 313.883 449.241 314.079C449.091 314.25 449.252 314.746 449.374 315.116C449.508 315.502 449.676 315.865 449.869 316.189C450.256 316.841 450.723 317.354 451.16 317.731C452.041 318.492 452.756 318.732 452.72 318.816Z" fill="#E8505B"/>
<path d="M458.842 320.673C458.825 320.809 457.305 320.709 455.52 320.159C453.732 319.616 452.416 318.848 452.478 318.726C452.542 318.593 453.925 319.137 455.67 319.666C457.412 320.204 458.864 320.527 458.842 320.673Z" fill="#E8505B"/>
<path d="M458.715 318.438C458.76 318.564 457.28 319.155 455.338 319.254C453.395 319.365 451.859 318.936 451.891 318.808C451.918 318.658 453.44 318.848 455.31 318.741C457.179 318.646 458.673 318.293 458.715 318.438Z" fill="#E8505B"/>
<path d="M391.446 193.117C391.446 193.117 379.92 269.687 381.597 273.387C383.274 277.089 420.605 315.312 420.605 315.312L434.615 291.317C434.615 291.317 409.911 263.949 410.265 262.528C410.62 261.107 428.076 186.959 428.076 186.959L391.446 193.117Z" fill="#E8505B"/>
<path d="M394.111 287.88L403.95 266.268L415.327 241.985C408.532 251.928 402.543 262.414 397.788 273.731C395.911 278.375 394.683 283.091 394.111 287.88Z" fill="#E8505B"/>
<path opacity="0.4" d="M394.111 287.88L403.95 266.268L415.327 241.985C408.532 251.928 402.543 262.414 397.788 273.731C395.911 278.375 394.683 283.091 394.111 287.88Z" fill="black"/>
<path d="M387.35 221.382C387.465 220.57 396.762 199.658 396.762 199.658L392.247 193.29L391.446 193.117L387.35 221.382Z" fill="#E8505B"/>
<path opacity="0.4" d="M387.35 221.382C387.465 220.57 396.762 199.658 396.762 199.658L392.247 193.29L391.446 193.117L387.35 221.382Z" fill="black"/>
<path d="M434.62 185.91L435.317 188.752C437.368 197.123 436.109 205.963 431.802 213.428L400.551 267.598C398.337 271.434 396.722 275.587 395.762 279.912L387.98 314.941C387.98 314.941 363.414 315.774 362.348 314.941C361.283 314.107 365.518 290.938 368.34 273.387C370.468 260.15 388.182 219.061 396.763 199.658L391.448 193.117L400.683 191.575L434.62 185.91Z" fill="#E8505B"/>
<path d="M387.98 314.941C387.982 314.976 387.623 315.033 386.971 315.105C386.319 315.179 385.374 315.257 384.204 315.333C381.865 315.487 378.626 315.6 375.051 315.593C371.474 315.583 368.24 315.473 365.9 315.359C364.73 315.301 363.784 315.244 363.131 315.191C362.478 315.139 362.117 315.092 362.118 315.057C362.119 315.021 362.482 315 363.137 314.99C363.907 314.991 364.83 314.994 365.91 314.995C368.381 315.017 371.548 315.045 375.052 315.077C378.62 315.084 381.849 315.03 384.188 314.969C385.266 314.943 386.189 314.921 386.958 314.904C387.613 314.895 387.976 314.906 387.98 314.941Z" fill="#263238"/>
<path d="M389.332 308.367C389.331 308.509 383.424 308.603 376.14 308.576C368.853 308.549 362.949 308.412 362.95 308.269C362.951 308.127 368.856 308.034 376.142 308.062C383.428 308.088 389.333 308.225 389.332 308.367Z" fill="#263238"/>
<path d="M430.322 286.378C430.352 286.398 430.163 286.742 429.794 287.345C429.36 288.039 428.829 288.885 428.206 289.88C426.783 292.114 424.941 295.006 422.904 298.203C420.879 301.41 419.049 304.309 417.635 306.547C417 307.537 416.46 308.377 416.019 309.065C415.629 309.655 415.399 309.973 415.369 309.955C415.338 309.936 415.51 309.584 415.847 308.962C416.183 308.341 416.688 307.45 417.324 306.358C418.596 304.174 420.404 301.185 422.47 297.927C424.536 294.67 426.468 291.762 427.902 289.68C428.618 288.639 429.208 287.803 429.628 287.234C430.046 286.665 430.292 286.359 430.322 286.378Z" fill="#263238"/>
<path d="M419.132 313.261C418.998 313.306 418.462 311.865 417.936 310.044C417.411 308.223 417.097 306.719 417.235 306.685C417.373 306.651 417.908 308.092 418.431 309.902C418.954 311.712 419.267 313.217 419.132 313.261Z" fill="#263238"/>
<path d="M421.31 313.194C421.17 313.218 420.652 310.803 420.155 307.802C419.656 304.801 419.367 302.349 419.507 302.325C419.647 302.301 420.165 304.716 420.663 307.718C421.16 310.719 421.451 313.171 421.31 313.194Z" fill="#263238"/>
<path d="M424.17 309.123C424.027 309.15 423.517 307.031 422.877 304.425C422.241 301.817 421.716 299.703 421.855 299.661C421.988 299.62 422.737 301.679 423.378 304.302C424.021 306.924 424.307 309.098 424.17 309.123Z" fill="#263238"/>
<path d="M426.594 303.501C426.455 303.533 425.934 301.497 425.429 298.955C424.925 296.411 424.629 294.331 424.769 294.307C424.909 294.283 425.431 296.318 425.935 298.854C426.437 301.389 426.733 303.47 426.594 303.501Z" fill="#263238"/>
<path d="M429.737 298.837C429.591 298.857 429.216 296.823 428.636 294.346C428.062 291.867 427.5 289.876 427.64 289.829C427.769 289.784 428.557 291.721 429.137 294.229C429.724 296.734 429.873 298.821 429.737 298.837Z" fill="#263238"/>
<path d="M432.531 294.883C432.393 294.917 431.867 293.279 431.357 291.224C430.846 289.168 430.543 287.474 430.681 287.439C430.819 287.406 431.345 289.043 431.856 291.099C432.367 293.155 432.669 294.849 432.531 294.883Z" fill="#263238"/>
<path d="M375.191 308.109C375.253 308.242 372.473 309.657 369.078 311.458C365.678 313.254 362.944 314.756 362.869 314.63C362.834 314.571 363.473 314.116 364.546 313.448C365.62 312.781 367.132 311.905 368.837 311.003C370.541 310.101 372.115 309.343 373.271 308.832C374.426 308.319 375.161 308.046 375.191 308.109Z" fill="#263238"/>
<path d="M382.758 308.224C382.792 308.285 382.057 308.771 380.826 309.485C379.596 310.2 377.868 311.135 375.922 312.098C373.976 313.059 372.181 313.863 370.867 314.407C369.552 314.95 368.719 315.24 368.692 315.176C368.663 315.109 369.443 314.702 370.716 314.075C372.167 313.364 373.843 312.544 375.694 311.636C377.538 310.717 379.208 309.885 380.654 309.164C381.926 308.534 382.723 308.161 382.758 308.224Z" fill="#263238"/>
<path d="M388.532 308.222C388.619 308.331 386.499 310.162 383.708 312.191C380.918 314.224 378.524 315.678 378.448 315.562C378.368 315.441 380.624 313.799 383.405 311.774C386.185 309.752 388.442 308.108 388.532 308.222Z" fill="#263238"/>
<path d="M389.158 311.845C389.245 311.958 388.285 312.841 387.016 313.818C385.746 314.795 384.646 315.496 384.559 315.383C384.472 315.27 385.432 314.387 386.702 313.409C387.971 312.432 389.072 311.731 389.158 311.845Z" fill="#263238"/>
<path d="M368.467 307.981C368.54 308.104 367.117 309.087 365.288 310.177C363.46 311.267 361.919 312.053 361.846 311.93C361.773 311.808 363.196 310.826 365.025 309.734C366.853 308.644 368.394 307.859 368.467 307.981Z" fill="#263238"/>
<path d="M396.087 199.51C396.154 199.54 395.634 200.841 394.781 202.935C393.927 205.028 392.752 207.921 391.501 211.135C390.251 214.351 389.164 217.277 388.379 219.398C387.593 221.518 387.098 222.828 387.028 222.805C386.994 222.794 387.074 222.451 387.246 221.842C387.416 221.231 387.685 220.355 388.035 219.278C388.734 217.124 389.77 214.171 391.021 210.947C392.275 207.726 393.506 204.849 394.447 202.789C394.918 201.759 395.311 200.931 395.597 200.366C395.881 199.801 396.054 199.495 396.087 199.51Z" fill="#263238"/>
<path d="M393.518 290.33C393.5 290.328 393.515 290.119 393.56 289.723C393.618 289.272 393.691 288.699 393.78 287.992C393.871 287.239 394.008 286.322 394.239 285.27C394.459 284.216 394.667 283.004 395.038 281.699C395.211 281.041 395.391 280.354 395.579 279.64C395.779 278.927 396.029 278.199 396.266 277.437C396.718 275.906 397.348 274.321 397.966 272.638C399.298 269.308 400.945 265.721 402.885 262.068C406.803 254.774 410.997 248.559 414.074 244.11C415.616 241.885 416.889 240.105 417.781 238.882C418.204 238.309 418.548 237.845 418.817 237.481C419.059 237.164 419.193 237.002 419.208 237.012C419.222 237.022 419.117 237.204 418.903 237.54C418.654 237.919 418.337 238.402 417.945 238.997C417.065 240.308 415.855 242.112 414.376 244.316C411.379 248.814 407.243 255.047 403.34 262.312C401.408 265.951 399.757 269.513 398.407 272.815C397.78 274.485 397.139 276.055 396.673 277.572C396.429 278.326 396.17 279.049 395.96 279.754C395.763 280.462 395.572 281.143 395.391 281.793C394.999 283.086 394.767 284.286 394.522 285.329C394.265 286.371 394.1 287.28 393.98 288.026C393.851 288.726 393.746 289.293 393.665 289.738C393.585 290.127 393.535 290.332 393.518 290.33Z" fill="#263238"/>
<path d="M424.164 121.414L399.986 123.471C399.986 123.471 392.731 123.639 384.877 142.038L379.193 160.259L389.415 162.437L389.437 163.437L391.447 193.117L435.084 186.049C435.183 182.281 433.063 176.789 431.457 171.623C433.086 167.551 439.979 149.807 439.966 141.261C439.938 122.992 424.164 121.414 424.164 121.414Z" fill="white"/>
<path d="M434.615 291.317C434.646 291.334 434.486 291.689 434.17 292.318C433.855 292.948 433.376 293.846 432.769 294.946C431.555 297.148 429.804 300.148 427.831 303.434C425.885 306.663 424.126 309.582 422.765 311.84C422.16 312.838 421.645 313.687 421.223 314.383C420.854 314.982 420.634 315.304 420.603 315.286C420.573 315.269 420.732 314.914 421.048 314.285C421.363 313.656 421.842 312.758 422.449 311.658C423.663 309.456 425.414 306.456 427.388 303.169C429.334 299.941 431.093 297.021 432.453 294.765C433.058 293.767 433.573 292.917 433.995 292.221C434.364 291.622 434.584 291.3 434.615 291.317Z" fill="#263238"/>
<path d="M428.881 165.053C428.916 165.185 427.411 165.69 425.478 165.946C423.544 166.208 421.96 166.117 421.959 165.979C421.956 165.833 423.511 165.693 425.41 165.436C427.308 165.184 428.845 164.911 428.881 165.053Z" fill="white"/>
<path d="M391.557 163.604L391.055 195.811L404.131 122.452C399.788 121.681 391.686 125.103 388.641 129.437C386.463 132.026 385.264 137.999 379.193 155.971L375.464 168.168L360.358 151.625L350.166 160.828C350.166 160.828 367.737 189.518 375.07 191.107C385.062 193.273 391.557 163.604 391.557 163.604Z" fill="#455A64"/>
<path d="M393.646 133.798C393.681 133.805 393.632 134.252 393.513 135.053C393.373 135.957 393.198 137.092 392.989 138.443C392.542 141.303 391.953 145.258 391.411 149.641C390.87 154.026 390.479 158.006 390.216 160.89C390.091 162.251 389.985 163.394 389.9 164.305C389.821 165.111 389.76 165.557 389.724 165.555C389.689 165.553 389.682 165.104 389.7 164.293C389.716 163.482 389.767 162.309 389.852 160.862C390.022 157.967 390.356 153.972 390.898 149.579C391.441 145.186 392.089 141.231 392.628 138.382C392.897 136.957 393.133 135.807 393.315 135.017C393.495 134.225 393.611 133.791 393.646 133.798Z" fill="#263238"/>
<path d="M390.258 132.384C390.202 132.241 392.235 131.382 394.534 129.958C396.841 128.547 398.524 127.12 398.626 127.233C398.719 127.326 397.161 128.954 394.803 130.397C392.454 131.85 390.298 132.509 390.258 132.384Z" fill="white"/>
<path d="M386.074 153.626C385.93 153.656 385.478 151.975 384.812 149.943C384.152 147.909 383.526 146.285 383.66 146.224C383.784 146.165 384.631 147.717 385.301 149.784C385.977 151.848 386.209 153.601 386.074 153.626Z" fill="white"/>
<path d="M396.682 142.038C396.818 142.045 396.819 143.98 396.376 146.317C395.941 148.655 395.237 150.458 395.108 150.415C394.967 150.37 395.442 148.525 395.87 146.222C396.306 143.921 396.534 142.028 396.682 142.038Z" fill="white"/>
<path d="M381.972 170.112C382.116 170.143 381.87 171.823 381.657 173.898C381.439 175.974 381.334 177.668 381.188 177.668C381.05 177.67 380.923 175.952 381.145 173.845C381.36 171.739 381.837 170.082 381.972 170.112Z" fill="white"/>
<path d="M362.643 169.86C362.532 169.938 361.177 168.169 359.909 165.74C358.633 163.313 357.951 161.192 358.077 161.145C358.216 161.092 359.105 163.105 360.365 165.501C361.617 167.899 362.766 169.777 362.643 169.86Z" fill="white"/>
<path d="M373.705 170.618C373.779 170.734 372.562 171.621 370.881 172.385C369.201 173.154 367.734 173.491 367.695 173.359C367.651 173.219 369.021 172.671 370.667 171.917C372.315 171.167 373.628 170.492 373.705 170.618Z" fill="white"/>
<path d="M426.063 180.826L433.63 270.758L456.414 268.608L434.78 174.173L437.423 148.82L426.063 180.826Z" fill="#455A64"/>
<path d="M433.63 270.76C433.487 270.771 431.815 250.819 429.893 226.202C427.971 201.577 426.528 181.611 426.67 181.6C426.812 181.589 428.485 201.537 430.406 226.162C432.328 250.779 433.772 270.749 433.63 270.76Z" fill="#263238"/>
<path d="M431.432 182.905C431.301 182.85 431.732 181.522 432.395 179.94C433.059 178.357 433.703 177.119 433.834 177.174C433.965 177.228 433.534 178.556 432.871 180.139C432.207 181.721 431.562 182.959 431.432 182.905Z" fill="white"/>
<path d="M437.72 196.28C437.602 196.372 436.462 195.063 434.873 193.651C433.291 192.231 431.861 191.247 431.94 191.119C432.006 191.002 433.591 191.811 435.217 193.268C436.846 194.716 437.829 196.201 437.72 196.28Z" fill="white"/>
<path d="M436.336 214.33C436.212 214.246 437.004 212.926 437.76 211.202C438.525 209.481 438.968 208.007 439.114 208.042C439.247 208.068 439.02 209.637 438.231 211.41C437.451 213.186 436.444 214.41 436.336 214.33Z" fill="white"/>
<path d="M441.239 228.816C441.145 228.923 439.738 227.857 438.095 226.434C436.451 225.01 435.195 223.77 435.288 223.662C435.381 223.555 436.789 224.621 438.432 226.044C440.076 227.467 441.332 228.708 441.239 228.816Z" fill="white"/>
<path d="M445.383 238.759C445.241 238.758 445.138 236.811 445.154 234.413C445.169 232.012 445.297 230.069 445.439 230.069C445.581 230.07 445.684 232.015 445.668 234.416C445.653 236.815 445.525 238.76 445.383 238.759Z" fill="white"/>
<path d="M438.057 245.514C437.91 245.516 437.782 243.959 437.511 242.063C437.247 240.165 436.938 238.635 437.08 238.596C437.212 238.558 437.751 240.056 438.021 241.991C438.298 243.925 438.194 245.515 438.057 245.514Z" fill="white"/>
<path d="M445.606 254.117C445.585 254.258 444.126 254.157 442.349 253.892C440.571 253.628 439.146 253.299 439.168 253.158C439.188 253.017 440.647 253.118 442.425 253.383C444.203 253.647 445.626 253.976 445.606 254.117Z" fill="white"/>
<path d="M444.383 265.559C444.264 265.48 445.089 264.025 446.224 262.308C447.36 260.591 448.377 259.263 448.495 259.341C448.614 259.419 447.79 260.875 446.654 262.592C445.518 264.309 444.501 265.638 444.383 265.559Z" fill="white"/>
<path d="M392.476 191.732L354.202 139.586C356.444 137.851 358.569 135.933 360.544 133.821C370.16 123.529 375.193 110.107 374.716 96.029C374.239 81.9519 368.308 68.9021 358.016 59.2865C347.724 49.6698 334.299 44.6381 320.225 45.1136C306.147 45.5913 293.098 51.5227 283.482 61.8147C273.865 72.1067 268.831 85.5281 269.31 99.6052C270.232 126.761 291.637 148.485 318.151 150.411C320.01 150.546 321.897 150.585 323.801 150.52C331.595 150.255 339.07 148.312 345.826 144.89L384.503 197.583C386.119 199.785 389.215 200.259 391.417 198.643C393.618 197.028 394.092 193.934 392.476 191.732ZM323.465 140.635C321.915 140.689 320.387 140.658 318.873 140.548C297.333 138.98 279.941 121.331 279.192 99.2706C278.391 75.6602 296.948 55.8009 320.558 54.999C322.117 54.9465 323.664 54.9764 325.198 55.0875C334.919 55.7937 344.039 59.7641 351.261 66.5129C359.623 74.3261 364.441 84.9279 364.829 96.3646C365.217 107.802 361.129 118.706 353.316 127.069C345.503 135.429 334.902 140.247 323.465 140.635Z" fill="#263238"/>
<path d="M377.278 163.377L372.741 178.862C372.741 178.862 396.495 187.502 409.36 187.343C421.414 187.195 424.867 185.829 429.109 176.094C433.352 166.359 438.164 155.179 439.173 148.738C439.173 148.738 445.977 119.096 420.021 121.742L419.319 144.929C419.319 144.929 416.444 154.43 416.237 154.98C414.299 160.109 411.79 167.617 409.361 168.525C406.932 169.433 377.278 163.377 377.278 163.377Z" fill="#455A64"/>
<path d="M414.558 175.784C414.444 175.862 413.235 174.294 412.01 172.19C410.781 170.087 410.01 168.264 410.135 168.203C410.266 168.139 411.236 169.845 412.455 171.931C413.669 174.019 414.678 175.703 414.558 175.784Z" fill="#263238"/>
<path d="M416.994 173.361C416.907 173.473 415.362 172.422 413.544 171.013C411.725 169.603 410.321 168.369 410.408 168.257C410.496 168.145 412.04 169.196 413.859 170.605C415.678 172.014 417.082 173.248 416.994 173.361Z" fill="#263238"/>
<path d="M425.057 131.092C425.188 131.147 423.965 134.396 422.327 138.348C420.687 142.302 419.252 145.461 419.12 145.406C418.988 145.352 420.211 142.104 421.851 138.15C423.49 134.198 424.926 131.038 425.057 131.092Z" fill="#263238"/>
<path d="M438.135 153.153C438.168 153.165 438.048 153.585 437.8 154.333C437.507 155.178 437.143 156.235 436.71 157.488C435.768 160.144 434.441 163.806 432.87 167.811C431.297 171.818 429.745 175.396 428.526 177.942C427.918 179.215 427.407 180.235 427.03 180.929C426.656 181.624 426.435 182.001 426.403 181.984C426.371 181.969 426.532 181.562 426.85 180.841C427.21 180.023 427.66 179.002 428.195 177.789C429.327 175.212 430.82 171.622 432.391 167.622C433.924 163.667 435.311 160.09 436.369 157.36C436.884 156.048 437.307 154.989 437.612 154.262C437.917 153.537 438.101 153.14 438.135 153.153Z" fill="#263238"/>
<path d="M399.984 167.833C399.959 167.973 394.787 167.152 388.434 165.999C382.078 164.846 376.947 163.797 376.973 163.657C376.999 163.517 382.17 164.338 388.525 165.491C394.88 166.645 400.01 167.693 399.984 167.833Z" fill="#263238"/>
<path d="M426.921 153.692C426.779 153.69 426.689 151.815 426.72 149.504C426.752 147.193 426.892 145.322 427.035 145.323C427.177 145.325 427.267 147.2 427.236 149.511C427.204 151.822 427.063 153.693 426.921 153.692Z" fill="white"/>
<path d="M417.674 182.177C417.549 182.096 418.298 180.76 419.038 179.038C419.787 177.319 420.249 175.859 420.393 175.895C420.526 175.923 420.279 177.476 419.51 179.243C418.748 181.011 417.785 182.254 417.674 182.177Z" fill="white"/>
<path d="M405.104 181.376C404.969 181.433 404.143 179.775 403.041 177.784C401.943 175.789 400.98 174.207 401.101 174.124C401.214 174.044 402.38 175.513 403.492 177.535C404.609 179.553 405.23 181.323 405.104 181.376Z" fill="white"/>
<path d="M387.752 173.361C387.805 173.494 386.299 174.214 384.389 174.972C382.478 175.73 380.888 176.237 380.835 176.104C380.783 175.973 382.289 175.251 384.199 174.493C386.109 173.736 387.7 173.229 387.752 173.361Z" fill="white"/>
<path d="M436.463 136.985C436.35 137.087 435.208 135.915 433.56 134.791C431.92 133.654 430.418 133.005 430.472 132.863C430.509 132.736 432.148 133.187 433.852 134.367C435.562 135.536 436.569 136.904 436.463 136.985Z" fill="white"/>
<path d="M429.053 162.581C429.088 162.714 427.279 163.282 424.967 163.571C422.655 163.867 420.763 163.766 420.763 163.629C420.761 163.482 422.624 163.352 424.902 163.06C427.18 162.776 429.018 162.438 429.053 162.581Z" fill="white"/>
<path d="M426.614 83.2264C427.833 80.622 431.173 79.4166 433.941 80.1938C436.709 80.97 438.819 83.3942 439.735 86.1201C440.651 88.8449 440.504 91.8291 439.89 94.6384C439.444 96.6828 438.835 99.0772 440.199 100.663C441.466 102.138 443.83 102.103 445.294 103.382C446.746 104.651 446.829 107.178 445.463 108.539C444.096 109.901 441.57 109.81 440.306 108.354C440.322 109.789 441.082 111.092 441.535 112.454C441.987 113.816 442.039 115.535 440.939 116.457C440.123 117.141 438.899 117.145 437.912 116.746C436.925 116.345 436.119 115.607 435.336 114.884C435.779 116.368 435.851 118.006 435.278 119.445C434.704 120.884 433.418 122.082 431.885 122.307C429.969 122.587 428.076 121.299 427.154 119.597C426.231 117.896 426.114 115.872 426.252 113.941C426.467 110.934 427.249 107.996 427.617 105.003C427.984 102.011 427.903 98.8394 426.502 96.1691" fill="#E8505B"/>
<path d="M444.062 100.772C444.067 100.781 443.936 100.851 443.671 100.819C443.416 100.785 443.017 100.61 442.763 100.153C442.483 99.7082 442.597 98.9166 443.189 98.4564C443.748 97.9448 444.81 97.9592 445.502 98.5882C446.23 99.2017 446.481 100.329 446.2 101.351C446.061 101.865 445.79 102.376 445.359 102.774C444.926 103.173 444.333 103.409 443.727 103.444C443.12 103.483 442.493 103.349 441.932 103.048C441.368 102.74 440.906 102.264 440.568 101.711C439.883 100.599 439.717 99.2007 439.902 97.8862C440.287 95.2396 441.56 93.0202 441.532 90.8018C441.59 88.5978 440.856 86.6605 439.989 85.2451C439.101 83.8224 438.075 82.8929 437.316 82.3442C436.555 81.7873 436.069 81.5742 436.095 81.5238C436.102 81.5073 436.227 81.5536 436.457 81.6555C436.693 81.7482 437.02 81.9252 437.43 82.1795C438.241 82.689 439.338 83.6032 440.298 85.0495C441.235 86.4886 442.042 88.4908 442.009 90.8111C442.05 93.1715 440.762 95.4568 440.414 97.9531C440.24 99.1956 440.399 100.458 441.001 101.45C441.573 102.455 442.654 103.042 443.7 102.971C444.76 102.95 445.555 102.142 445.791 101.238C446.054 100.345 445.847 99.3767 445.264 98.863C444.687 98.3236 443.85 98.2856 443.37 98.685C442.862 99.0556 442.741 99.6783 442.947 100.065C443.136 100.469 443.474 100.658 443.697 100.719C443.924 100.778 444.058 100.748 444.062 100.772Z" fill="#E8505B"/>
<path d="M420.246 122.323L421.62 90.9058L409.145 81.4548L397.804 86.9992C397.804 86.9992 397.425 101.238 397.804 107.413C398.182 113.588 404.408 114.248 404.408 114.248C404.408 114.248 404.263 117.866 404.12 121.669C403.947 126.27 407.655 130.084 412.259 130.04C416.55 129.998 420.058 126.609 420.246 122.323Z" fill="#FFBE9D"/>
<path d="M399.038 97.3787C399.038 97.8152 399.393 98.1693 399.829 98.1693C400.264 98.1693 400.62 97.8162 400.62 97.3787C400.62 96.9412 400.265 96.5881 399.829 96.5881C399.394 96.5881 399.038 96.9423 399.038 97.3787Z" fill="#263238"/>
<path d="M398.274 96.5171C398.377 96.619 398.959 96.1228 399.811 96.0775C400.661 96.0188 401.3 96.4409 401.389 96.3266C401.432 96.2762 401.327 96.0878 401.047 95.8963C400.773 95.7059 400.309 95.5309 399.779 95.5638C399.25 95.5968 398.81 95.8253 398.561 96.0487C398.307 96.2721 398.224 96.4718 398.274 96.5171Z" fill="#263238"/>
<path d="M408.197 97.3787C408.197 97.8152 408.55 98.1693 408.988 98.1693C409.424 98.1693 409.778 97.8162 409.778 97.3787C409.778 96.9412 409.425 96.5881 408.988 96.5881C408.551 96.5881 408.197 96.9423 408.197 97.3787Z" fill="#263238"/>
<path d="M407.706 96.5171C407.808 96.619 408.392 96.1228 409.243 96.0775C410.093 96.0188 410.732 96.4409 410.821 96.3266C410.864 96.2762 410.759 96.0878 410.479 95.8963C410.205 95.7059 409.741 95.5309 409.211 95.5638C408.682 95.5968 408.242 95.8253 407.993 96.0487C407.739 96.2721 407.657 96.4718 407.706 96.5171Z" fill="#263238"/>
<path d="M407.447 104.508C406.388 105.032 404.512 105.788 403.333 105.925C403.333 105.925 404.382 107.423 406.154 106.725C407.989 106.003 407.447 104.508 407.447 104.508Z" fill="white"/>
<path d="M404.405 114.246C404.405 114.246 408.562 114.293 412.585 111.483C412.585 111.483 410.73 116.017 404.54 115.762L404.405 114.246Z" fill="#EB996E"/>
<path d="M439.585 108.657C439.037 108.688 438.222 108.598 437.347 108.15C436.466 107.719 435.595 106.903 434.907 105.785C434.208 104.677 433.665 103.305 433.083 101.873C431.93 99.003 431.059 96.3389 430.47 94.3974C430.378 94.0907 430.293 93.8096 430.213 93.541C430.16 93.2105 430.108 92.9151 430.05 92.6989C426.681 79.8221 415.364 77.4215 413.125 77.4215C410.723 77.4215 406.523 76.1008 400.4 82.4635C399.374 83.531 398.632 84.6099 398.077 85.6701C396.499 87.6507 395.665 89.8382 395.348 91.4853C394.975 93.366 395.133 94.5549 395.205 94.5498C395.321 94.5549 395.34 93.3835 395.821 91.5975C396.056 90.7019 396.438 89.6467 397.004 88.5576C396.111 92.5445 397.632 95.6698 397.632 95.6698L399.829 95.0655L407.693 92.3901C406.978 89.9545 408.03 86.9301 408.625 85.5209L408.684 85.4663C410.484 94.7093 419.08 95.5617 419.08 95.5617L420.533 115.784C430.987 113.551 430.749 99.562 430.683 96.7198C431.157 98.3225 431.774 100.161 432.549 102.089C433.135 103.526 433.697 104.917 434.461 106.074C435.207 107.234 436.197 108.106 437.174 108.521C438.143 108.956 439.038 108.985 439.611 108.881C440.192 108.77 440.467 108.584 440.453 108.557C440.435 108.509 440.135 108.619 439.585 108.657Z" fill="#E8505B"/>
<path d="M404.637 103.703C404.638 103.656 404.106 103.593 403.245 103.529C403.028 103.519 402.814 103.487 402.769 103.327C402.71 103.161 402.794 102.909 402.889 102.64C403.074 102.081 403.268 101.493 403.473 100.877C403.878 99.6217 404.226 98.4811 404.461 97.6494C404.697 96.8176 404.82 96.2968 404.774 96.2813C404.73 96.2669 404.525 96.762 404.231 97.5742C403.936 98.3864 403.551 99.5157 403.147 100.771C402.952 101.39 402.765 101.981 402.589 102.542C402.516 102.805 402.385 103.103 402.504 103.432C402.568 103.595 402.729 103.706 402.867 103.738C403.006 103.774 403.128 103.77 403.236 103.771C404.099 103.773 404.635 103.751 404.637 103.703Z" fill="#263238"/>
<path d="M422.276 103.446C422.239 102.416 422.236 101.357 422.608 100.397C422.978 99.4362 423.805 98.5859 424.828 98.4789C426.007 98.3564 427.147 99.3353 427.336 100.506C427.523 101.675 426.842 102.894 425.808 103.475C424.776 104.056 423.467 104.039 422.378 103.57" fill="#FFBE9D"/>
<path d="M424.077 102.547C424.115 102.479 424.411 102.631 424.847 102.498C425.285 102.392 425.735 101.893 425.772 101.185C425.797 100.839 425.722 100.518 425.552 100.363C425.379 100.197 425.1 100.15 424.879 100.162C424.415 100.202 424.09 100.326 424.063 100.248C424.044 100.196 424.272 99.9593 424.824 99.8029C425.099 99.7411 425.497 99.7246 425.861 100.004C426.224 100.301 426.316 100.794 426.286 101.22C426.258 101.661 426.09 102.078 425.825 102.374C425.563 102.676 425.205 102.828 424.916 102.856C424.306 102.915 424.026 102.584 424.077 102.547Z" fill="#EB996E"/>
<path d="M425.929 103.388C425.96 103.341 426.393 103.707 426.386 104.538C426.378 104.935 426.217 105.448 425.804 105.826C425.406 106.201 424.789 106.444 424.14 106.343C423.493 106.232 422.987 105.804 422.729 105.321C422.458 104.83 422.47 104.293 422.59 103.914C422.849 103.126 423.376 102.916 423.391 102.971C423.449 103.03 423.066 103.333 422.944 104C422.888 104.326 422.918 104.728 423.142 105.087C423.357 105.444 423.758 105.757 424.224 105.834C424.691 105.909 425.17 105.741 425.488 105.472C425.814 105.204 425.972 104.832 426.022 104.505C426.121 103.835 425.854 103.425 425.929 103.388Z" fill="#263238"/>
<path d="M422.304 99.1347C422.317 99.1542 422.06 99.3745 421.508 99.6247C420.96 99.8748 420.097 100.123 419.005 100.133C417.919 100.137 416.607 99.8861 415.323 99.2139C414.036 98.5459 412.839 97.4444 411.892 96.0887C409.989 93.3371 409.458 90.3044 409.157 88.2209C409.016 87.1637 408.942 86.3052 408.902 85.7112C408.863 85.1173 408.86 84.7879 408.895 84.7838C408.974 84.7735 409.154 86.0798 409.517 88.1643C409.906 90.2211 410.491 93.161 412.314 95.7943C413.221 97.0934 414.349 98.1454 415.547 98.796C416.745 99.4517 417.978 99.7286 419.011 99.7698C421.113 99.8429 422.27 99.0276 422.304 99.1347Z" fill="#E8505B"/>
<path d="M429.23 90.2892C429.078 90.3283 428.616 88.5031 427.405 86.573C426.214 84.6305 424.784 83.4066 424.886 83.2871C424.952 83.177 426.594 84.2682 427.843 86.3012C429.108 88.323 429.359 90.2799 429.23 90.2892Z" fill="#263238"/>
<path d="M373.198 177.303L369.566 177.263C366.264 176.941 364.414 176.889 363.493 176.011C362.259 174.834 363.955 173.679 363.955 173.679C363.955 173.679 361.565 172.86 361.789 171.402C361.942 170.409 363.075 170.296 363.075 170.296C363.075 170.296 360.967 169.474 360.55 168.596C359.982 167.398 361.47 166.758 361.47 166.758C358.595 164.986 358.857 163.234 359.52 163.059C360.184 162.884 362.428 163.914 362.428 163.914C364.322 164.456 369.487 166.033 367.573 163.183C365.658 160.333 365.261 157.422 365.7 156.559C366.141 155.696 367.502 155.995 367.671 157.047C367.808 157.898 368.477 159.244 369.021 160.234C369.47 161.051 370.049 161.792 370.744 162.411C371.556 163.134 372.272 163.713 372.893 164.192L376.125 167.312L373.198 177.303Z" fill="#FFBE9D"/>
<path d="M350.588 141.037C350.853 140.254 351.497 139.696 352.2 140.064C352.531 140.43 352.54 140.932 352.431 141.272L350.188 148.576L350.191 148.582L352.316 143.42C352.58 142.637 353.29 142.166 353.778 142.59C354.047 142.825 354.058 143.435 353.95 143.775L352.012 149.837L353.589 146.048C353.919 145.182 354.306 144.952 354.745 145.14C355.18 145.326 355.198 145.972 355.089 146.311L353.754 150.788C354.041 151.647 355.029 154.354 354.079 155.878C354.031 155.955 354.174 156.206 354.171 156.29L354.622 156.806L351.644 159.495C351.644 159.495 348.894 152.542 348.373 150.459C347.918 148.637 348.333 147.439 348.536 146.811L350.588 141.037Z" fill="#FFBE9D"/>
</svg>
