<svg width="377" height="306" viewBox="0 0 377 306" fill="none" xmlns="http://www.w3.org/2000/svg">
<path d="M130.907 96.7983H194.092C201.326 96.7983 207.19 102.677 207.19 109.929V148.641C207.19 155.893 201.326 161.772 194.092 161.772L194.81 173.925L174.526 161.772H130.908C123.674 161.772 117.81 155.893 117.81 148.641V109.929C117.809 102.677 123.672 96.7983 130.907 96.7983Z" fill="#C5D2F9"/>
<path d="M132.602 118.458H192.396C193.48 118.458 194.358 117.58 194.358 116.498V116.493C194.358 115.41 193.48 114.532 192.396 114.532H132.602C131.518 114.532 130.64 115.411 130.64 116.493V116.498C130.641 117.581 131.519 118.458 132.602 118.458Z" fill="#232335"/>
<path d="M132.602 130.061H192.396C193.48 130.061 194.358 129.183 194.358 128.101V128.096C194.358 127.013 193.48 126.134 192.396 126.134H132.602C131.518 126.134 130.64 127.013 130.64 128.096V128.101C130.641 129.183 131.519 130.061 132.602 130.061Z" fill="#232335"/>
<path d="M132.602 141.665H192.396C193.48 141.665 194.358 140.787 194.358 139.704V139.699C194.358 138.616 193.48 137.739 192.396 137.739H132.602C131.518 137.739 130.64 138.617 130.64 139.699V139.704C130.641 140.787 131.519 141.665 132.602 141.665Z" fill="#232335"/>
<path d="M35.2845 132.85H86.7517V64.0723H47.1545C42.5191 68.7077 39.9199 71.3068 35.2845 75.9422V132.85Z" fill="#C5D2F9"/>
<path d="M69.208 64.0723H86.7517V94.2117H69.208V64.0723Z" fill="#85A0D6"/>
<path d="M47.1391 64.0723V75.7026H35.2845L47.1391 64.0723Z" fill="white"/>
<path d="M48.2292 82.0024H74.9843C75.5864 82.0024 76.0743 81.5144 76.0743 80.9123V80.9094C76.0743 80.3073 75.5864 79.8194 74.9843 79.8194H48.2292C47.6271 79.8194 47.1391 80.3073 47.1391 80.9094V80.9123C47.1391 81.5144 47.6271 82.0024 48.2292 82.0024Z" fill="#232335"/>
<path d="M48.2292 89.8311H74.9843C75.5864 89.8311 76.0744 89.3432 76.0744 88.7411V88.7382C76.0744 88.1361 75.5864 87.6481 74.9843 87.6481H48.2292C47.6271 87.6481 47.1391 88.1361 47.1391 88.7382V88.7411C47.1391 89.3432 47.6271 89.8311 48.2292 89.8311Z" fill="#232335"/>
<path d="M48.2292 97.6604H74.9843C75.5864 97.6604 76.0744 97.1724 76.0744 96.5712V96.5684C76.0744 95.9663 75.5864 95.4793 74.9843 95.4793H48.2292C47.6271 95.4793 47.1391 95.9673 47.1391 96.5684V96.5712C47.1391 97.1733 47.6271 97.6604 48.2292 97.6604Z" fill="#232335"/>
<path d="M48.2292 105.49H74.9843C75.5864 105.49 76.0744 105.002 76.0744 104.4V104.397C76.0744 103.795 75.5864 103.307 74.9843 103.307H48.2292C47.6271 103.307 47.1391 103.795 47.1391 104.397V104.4C47.1391 105.002 47.6271 105.49 48.2292 105.49Z" fill="#232335"/>
<path d="M48.2292 113.319H74.9843C75.5864 113.319 76.0744 112.831 76.0744 112.23V112.227C76.0744 111.625 75.5864 111.137 74.9843 111.137H48.2292C47.6271 111.137 47.1391 111.625 47.1391 112.227V112.23C47.1391 112.831 47.6271 113.319 48.2292 113.319Z" fill="#232335"/>
<path d="M48.2292 121.148H74.9843C75.5864 121.148 76.0744 120.66 76.0744 120.059V120.056C76.0744 119.454 75.5864 118.966 74.9843 118.966H48.2292C47.6271 118.966 47.1391 119.454 47.1391 120.056V120.059C47.1391 120.661 47.6271 121.148 48.2292 121.148Z" fill="#232335"/>
<path d="M72.9681 88.7403H124.435V19.9624H84.8371C80.2017 24.5978 77.6026 27.1969 72.9672 31.8323V88.7403H72.9681Z" fill="#C5D2F9"/>
<path d="M84.8217 19.9623V31.5925H72.9681L84.8217 19.9623Z" fill="white"/>
<path d="M85.9118 37.8923H112.667C113.269 37.8923 113.757 37.4043 113.757 36.8022V36.7993C113.757 36.1972 113.269 35.7102 112.667 35.7102H85.9118C85.3097 35.7102 84.8217 36.1982 84.8217 36.7993V36.8022C84.8217 37.4043 85.3097 37.8923 85.9118 37.8923Z" fill="#232335"/>
<path d="M85.9118 45.7223H112.667C113.269 45.7223 113.757 45.2343 113.757 44.6322V44.6293C113.757 44.0273 113.269 43.5393 112.667 43.5393H85.9118C85.3097 43.5393 84.8217 44.0273 84.8217 44.6293V44.6322C84.8217 45.2343 85.3097 45.7223 85.9118 45.7223Z" fill="#232335"/>
<path d="M85.9118 53.551H112.667C113.269 53.551 113.757 53.0631 113.757 52.461V52.4581C113.757 51.856 113.269 51.369 112.667 51.369H85.9118C85.3097 51.369 84.8217 51.857 84.8217 52.4581V52.461C84.8217 53.0631 85.3097 53.551 85.9118 53.551Z" fill="#232335"/>
<path d="M85.9118 61.3798H112.667C113.269 61.3798 113.757 60.8918 113.757 60.2897V60.2869C113.757 59.6848 113.269 59.1978 112.667 59.1978H85.9118C85.3097 59.1978 84.8217 59.6858 84.8217 60.2869V60.2897C84.8217 60.8928 85.3097 61.3798 85.9118 61.3798Z" fill="#232335"/>
<path d="M85.9118 69.2095H112.667C113.269 69.2095 113.757 68.7216 113.757 68.1195V68.1166C113.757 67.5145 113.269 67.0265 112.667 67.0265H85.9118C85.3097 67.0265 84.8217 67.5145 84.8217 68.1166V68.1195C84.8217 68.7216 85.3097 69.2095 85.9118 69.2095Z" fill="#232335"/>
<path d="M85.9118 77.0388H112.667C113.269 77.0388 113.757 76.5508 113.757 75.9487V75.9458C113.757 75.3438 113.269 74.8567 112.667 74.8567H85.9118C85.3097 74.8567 84.8217 75.3447 84.8217 75.9458V75.9487C84.8217 76.5508 85.3097 77.0388 85.9118 77.0388Z" fill="#232335"/>
<path d="M322.805 114.531C316.492 108.705 312.533 100.354 312.533 91.0744C312.533 73.4694 326.768 59.1978 344.329 59.1978C361.889 59.1978 376.125 73.4694 376.125 91.0744C376.125 108.679 361.89 122.951 344.329 122.951C341.527 122.951 338.81 122.584 336.221 121.901V121.902C336.221 121.902 328.185 132.657 314.937 128.097C314.937 128.097 322.424 124.319 322.805 114.531Z" fill="#C5D2F9"/>
<path d="M343.165 81.4923L347.992 69.8266C347.992 69.8266 358.093 71.9818 356.578 83.7607C354.654 98.7311 345.461 114.285 331.925 108.656L336.956 96.4983C336.956 96.4983 338.92 96.0189 342.549 98.6545C342.549 98.6545 345.009 99.2268 347.699 93.8119C350.389 88.3971 349.697 85.1805 348.434 84.4299C348.434 84.4299 344.451 84.4356 343.165 81.4923Z" fill="#232335"/>
<path d="M154.942 21.4616H179.141V45.7221H154.942V21.4616Z" stroke="#C9726F" stroke-width="1.8661" stroke-miterlimit="10"/>
<path d="M173.989 29.9805L167.575 39.7519C167.575 39.7519 161.823 24.7191 147.328 15.4482" stroke="#C9726F" stroke-width="2.2032" stroke-miterlimit="10"/>
<path d="M290.793 75.7022H186.601C180.717 75.7022 175.948 80.4834 175.948 86.3814V91.2096" stroke="#C9726F" stroke-width="1.8661" stroke-miterlimit="10"/>
<path d="M288.438 75.1712C288.438 77.1088 290.005 78.6802 291.938 78.6802C293.871 78.6802 295.437 77.1098 295.437 75.1712C295.437 73.2337 293.871 71.6623 291.938 71.6623C290.006 71.6623 288.438 73.2337 288.438 75.1712Z" fill="#C9726F"/>
<path d="M175.948 94.7187C174.016 94.7187 172.449 93.1477 172.449 91.2098C172.449 89.2718 174.016 87.7008 175.948 87.7008C177.881 87.7008 179.448 89.2718 179.448 91.2098C179.448 93.1477 177.881 94.7187 175.948 94.7187Z" fill="#C9726F"/>
<path d="M186.447 33.5916H221.042C226.429 33.5916 230.796 37.9701 230.796 43.3706V75.7017" stroke="#C9726F" stroke-width="1.8661" stroke-miterlimit="10"/>
<path d="M184.292 33.5914C184.292 35.529 185.859 37.1003 187.792 37.1003C189.724 37.1003 191.291 35.529 191.291 33.5914C191.291 31.6538 189.724 30.0825 187.792 30.0825C185.859 30.0834 184.292 31.6538 184.292 33.5914Z" fill="#C9726F"/>
<path d="M24.4854 109.836H18.6573C10.5369 109.836 3.9534 116.436 3.9534 124.577V172.738" stroke="#C9726F" stroke-width="1.8661" stroke-miterlimit="10"/>
<path d="M20.9851 109.836C20.9851 111.774 22.5517 113.345 24.4845 113.345C26.4172 113.345 27.9838 111.775 27.9838 109.836C27.9838 107.899 26.4172 106.327 24.4845 106.327C22.5526 106.327 20.9851 107.899 20.9851 109.836Z" fill="#C9726F"/>
<path d="M0.453094 172.737C0.453094 174.674 2.01964 176.246 3.95243 176.246C5.88522 176.246 7.45177 174.675 7.45177 172.737C7.45177 170.799 5.88522 169.228 3.95243 169.228C2.01964 169.228 0.453094 170.799 0.453094 172.737Z" fill="#C9726F"/>
<path d="M89.6835 13.2687C81.7021 5.78971 70.9816 1.2118 59.1951 1.2118C34.53 1.2118 14.5358 21.2568 14.5358 45.9842C14.5358 57.6874 19.015 68.3426 26.3482 76.3192" stroke="#C9726F" stroke-width="1.932" stroke-miterlimit="10"/>
<path d="M86.1832 12.9493C86.1832 14.8869 87.7497 16.4582 89.6825 16.4582C91.6153 16.4582 93.1818 14.8878 93.1818 12.9493C93.1818 11.0108 91.6153 9.44037 89.6825 9.44037C87.7507 9.44133 86.1832 11.0117 86.1832 12.9493Z" fill="#C9726F"/>
<path d="M22.5891 76.3164C22.5891 78.254 24.1556 79.8254 26.0884 79.8254C28.0212 79.8254 29.5877 78.254 29.5877 76.3164C29.5877 74.3789 28.0212 72.8075 26.0884 72.8075C24.1566 72.8075 22.5891 74.3779 22.5891 76.3164Z" fill="#C9726F"/>
<path d="M20.1922 268.399H136.353L118.224 179.998H2.06277L20.1922 268.399Z" fill="#9EB6F2"/>
<path d="M66.8581 213.096H39.9918L24.819 274.025C23.0799 281.008 28.3481 287.77 35.527 287.77H65.8409L53.5165 269.085L66.8581 213.096Z" fill="#4D61E6"/>
<path d="M66.8581 213.096L52.9623 271.411C50.974 279.755 57.2843 287.77 65.8409 287.77H104.123V280.894H65.1966C61.4058 280.894 58.5968 277.363 59.4404 273.657L73.2355 213.096H66.8581Z" fill="#121D5F"/>
<path d="M118.224 179.998H112.516L131.059 268.399H136.353L118.224 179.998Z" fill="#85A0D6"/>
<path d="M85.1247 190.113C84.117 190.113 83.3577 191.032 83.5447 192.024L86.5215 207.844C86.6653 208.605 87.3288 209.157 88.1015 209.157H88.3786C89.3977 209.157 90.1589 208.22 89.9528 207.22L86.6979 191.4C86.5455 190.651 85.8878 190.113 85.1247 190.113Z" fill="#85A0D6"/>
<path d="M78.6916 190.113C77.684 190.113 76.9247 191.032 77.1116 192.024L80.0885 207.844C80.2313 208.605 80.8957 209.157 81.6685 209.157H81.9465C82.9647 209.157 83.7268 208.22 83.5207 207.22L80.2659 191.4C80.1115 190.651 79.4538 190.113 78.6916 190.113Z" fill="#85A0D6"/>
<path d="M72.2577 190.113C71.25 190.113 70.4907 191.032 70.6777 192.024L73.6545 207.844C73.7983 208.605 74.4618 209.157 75.2345 209.157H75.5125C76.5307 209.157 77.2929 208.22 77.0877 207.22L73.8329 191.4C73.6785 190.651 73.0208 190.113 72.2577 190.113Z" fill="#85A0D6"/>
<path d="M65.8246 190.113C64.817 190.113 64.0577 191.032 64.2447 192.024L67.2215 207.844C67.3653 208.605 68.0287 209.157 68.8015 209.157H69.0795C70.0977 209.157 70.8599 208.22 70.6547 207.22L67.3998 191.4C67.2455 190.651 66.5868 190.113 65.8246 190.113Z" fill="#85A0D6"/>
<path d="M59.3906 190.113C58.383 190.113 57.6237 191.032 57.8106 192.024L60.7875 207.844C60.9313 208.605 61.5947 209.157 62.3675 209.157H62.6455C63.6637 209.157 64.4258 208.22 64.2197 207.22L60.9649 191.4C60.8115 190.651 60.1538 190.113 59.3906 190.113Z" fill="#85A0D6"/>
<path d="M52.9576 190.113C51.9499 190.113 51.1906 191.032 51.3776 192.024L54.3544 207.844C54.4982 208.605 55.1617 209.157 55.9344 209.157H56.2124C57.2306 209.157 57.9928 208.22 57.7876 207.22L54.5327 191.4C54.3784 190.651 53.7207 190.113 52.9576 190.113Z" fill="#85A0D6"/>
<path d="M46.5245 190.113C45.5169 190.113 44.7576 191.032 44.9446 192.024L47.9214 207.844C48.0652 208.605 48.7287 209.157 49.5014 209.157H49.7794C50.7976 209.157 51.5598 208.22 51.3536 207.22L48.0988 191.4C47.9444 190.651 47.2867 190.113 46.5245 190.113Z" fill="#85A0D6"/>
<path d="M40.0905 190.113C39.0829 190.113 38.3236 191.032 38.5106 192.024L41.4874 207.844C41.6302 208.605 42.2947 209.157 43.0674 209.157H43.3444C44.3626 209.157 45.1248 208.22 44.9196 207.22L41.6648 191.4C41.5114 190.651 40.8537 190.113 40.0905 190.113Z" fill="#85A0D6"/>
<path d="M33.6575 190.113C32.6499 190.113 31.8906 191.032 32.0775 192.024L35.0544 207.844C35.1972 208.605 35.8616 209.157 36.6343 209.157H36.9114C37.9295 209.157 38.6917 208.22 38.4866 207.22L35.2317 191.4C35.0783 190.651 34.4197 190.113 33.6575 190.113Z" fill="#85A0D6"/>
<path d="M27.2235 190.113C26.2159 190.113 25.4566 191.032 25.6435 192.024L28.6204 207.844C28.7642 208.605 29.4276 209.157 30.2003 209.157H30.4774C31.4956 209.157 32.2578 208.22 32.0516 207.22L28.7968 191.4C28.6443 190.651 27.9867 190.113 27.2235 190.113Z" fill="#85A0D6"/>
<path d="M108.942 280.893H174.445V287.769H108.942V280.893Z" fill="#9EB6F2"/>
<path d="M210.903 287.77H180.825C180.825 287.77 181.607 275.47 191.903 275.47C202.198 275.47 210.842 278.985 210.903 287.77Z" fill="#9EB6F2"/>
<path d="M2.06281 288.063H348.215V305.181H2.06281V288.063Z" fill="#232335"/>
<path d="M219.705 288.063H335.223L344.869 201.764C345.68 194.508 340.016 188.157 332.731 188.157H249.622C243.936 188.157 239.158 192.441 238.525 198.106L219.705 288.063Z" fill="#DB908C"/>
<path d="M332.731 188.157C332.731 188.157 346.253 189.372 344.869 201.764C343.484 214.158 335.223 288.063 335.223 288.063H315.922L326.005 202.363C326.005 202.363 328.224 189.774 332.731 188.157Z" fill="#C9726F"/>
<path d="M284.235 197.316L309.18 207.417C314.572 209.6 318.419 214.471 319.301 220.234L327.441 273.383C328.623 281.103 322.666 288.063 314.875 288.063H213.4C203.777 288.063 196.856 278.793 199.568 269.538L215.049 216.687C216.566 211.508 220.511 207.398 225.614 205.678L253.055 196.432L259.109 207.09L284.235 197.316Z" fill="#4D61E6"/>
<path d="M190.245 208.654H165.725L174.995 270.334C176.784 282.208 182.379 286.397 190.575 286.94L213.084 288.43L190.245 208.654Z" fill="#4D61E6"/>
<path d="M193.213 219.485H167.354L165.726 208.654H190.245L193.213 219.485Z" fill="#9EB6F2"/>
<path d="M188.914 208.654L182.302 194.821H156.589L151.877 184.27C151.309 183.027 150.072 182.23 148.708 182.23H146.045L150.919 200.278L166.237 203.568L166.833 208.653H188.914V208.654Z" fill="url(#paint0_linear_0_2969)"/>
<path d="M163.452 194.819L155.464 181.145C154.805 180.024 153.603 179.337 152.305 179.337H149.626L156.588 194.819H163.452Z" fill="#DA8676"/>
<path d="M156.122 182.229H158.979C160.521 182.229 161.951 183.034 162.753 184.354L169.119 194.819H163.452L156.122 182.229Z" fill="#DA8676"/>
<path d="M173.894 194.82L178.189 188.286C179.223 186.685 180.997 185.719 182.899 185.719C183.744 185.719 184.364 186.515 184.157 187.337L182.207 194.82H173.894Z" fill="#DA8676"/>
<path d="M256.599 177.791L253.056 196.431L259.11 207.089L283.179 190.954L280.549 177.246C280.549 177.246 278.662 177.791 277.967 177.791C277.271 177.791 256.599 177.791 256.599 177.791Z" fill="url(#paint1_linear_0_2969)"/>
<path d="M283.178 190.955L284.792 200.669L250.988 262.897L250.587 203.046L253.056 196.432L259.109 207.09L283.178 190.955Z" fill="white"/>
<path d="M283.178 190.954L287.312 215.824L259.109 207.09L283.178 190.954Z" fill="#9EB6F2"/>
<path d="M253.056 196.431L259.109 207.089L245.82 215.823L253.056 196.431Z" fill="#9EB6F2"/>
<path d="M259.109 207.09L268.116 209.879L263.613 216.859H255.123L254.177 210.331L259.109 207.09Z" fill="#C9726F"/>
<path d="M263.613 216.859L263.123 240.559L250.988 262.897L250.587 240.692L255.123 216.859H263.613Z" fill="#C9726F"/>
<path d="M284.235 197.316L297.16 202.55L287.312 221.698L277.035 223.294L280.957 233.884L250.988 262.898L284.792 196.432" fill="#121D5F"/>
<path d="M253.056 196.432L250.988 262.898L242.629 229.665L247.842 222.939L242.629 222.762L240.957 200.509L253.056 196.432Z" fill="#121D5F"/>
<path d="M244.327 139.954L242.286 164.017C242.286 164.017 231.353 164.284 233.095 150.358C234.748 137.134 244.327 139.954 244.327 139.954Z" fill="#121D5F"/>
<path d="M241.309 139.75C241.309 139.75 243.139 139.67 244.327 139.954L242.286 164.017C242.286 164.017 240.656 164.057 239.296 163.496L241.309 139.75Z" fill="#4D61E6"/>
<path d="M277.966 122.952H249.901C246.563 122.952 243.78 125.51 243.49 128.843L239.844 170.781C239.516 174.551 242.48 177.792 246.254 177.792H277.965C281.519 177.792 284.4 174.903 284.4 171.341V129.403C284.401 125.84 281.52 122.952 277.966 122.952Z" fill="url(#paint2_linear_0_2969)"/>
<path d="M277.879 149.263V135.522C277.879 134.359 277.052 133.362 275.912 133.15L263.602 130.852C261.611 130.48 259.58 131.262 258.346 132.873L255.243 136.925C253.859 138.733 251.69 139.763 249.417 139.69L241.746 139.677C237.818 139.551 234.697 136.321 234.697 132.381V123.363C234.697 121.401 235.362 119.499 236.585 117.967L236.704 117.818C236.704 117.818 235.45 109.768 237.708 106.749C239.967 103.73 245.236 114.799 245.236 114.799L286.246 114.399C292.756 114.399 297.818 120.076 297.091 126.563L294.444 150.149C294.156 152.711 291.994 154.649 289.422 154.649H283.251C280.284 154.647 277.879 152.237 277.879 149.263Z" fill="#232335"/>
<path d="M290.781 145.722L292.997 117.486C293.233 114.485 290.868 111.919 287.865 111.919H243.718L245.236 114.797L283.87 114.774C286.865 114.774 289.228 117.328 289.004 120.323L287.16 144.895L290.781 145.722Z" fill="#4D61E6"/>
<path d="M284.401 142.359V166.509C284.401 166.509 297.851 167.703 297.16 153.679C296.504 140.363 284.401 142.359 284.401 142.359Z" fill="#121D5F"/>
<path d="M288.141 142.412C288.141 142.412 285.895 142.177 284.401 142.359V166.508C284.401 166.508 286.407 166.685 288.141 166.243V142.412Z" fill="#4D61E6"/>
<path d="M288.141 166.243L287.711 170.137C287.434 172.64 285.323 174.535 282.812 174.535H265.928V171.727H279.912C282.457 171.727 284.163 169.785 284.401 167.247V166.508L288.141 166.243Z" fill="#4D61E6"/>
<path d="M262.608 175.722H267.445C268.791 175.722 269.882 174.631 269.882 173.285V172.825C269.882 171.479 268.791 170.388 267.445 170.388H262.608C261.262 170.388 260.172 171.479 260.172 172.825V173.285C260.172 174.631 261.263 175.722 262.608 175.722Z" fill="#121D5F"/>
<path d="M266.398 162.436H249.885C249.885 162.436 251.824 168.592 258.142 168.592C264.211 168.591 266.398 162.436 266.398 162.436Z" fill="white"/>
<path d="M256.599 177.79L274.074 177.247L254.903 186.711L256.599 177.79Z" fill="#DA8676"/>
<path d="M227.665 271.809L234.303 252.092H230.02L222.638 272.956L227.665 271.809Z" fill="#121D5F"/>
<path d="M247.887 261.862L244.196 288.064H314.693C322.907 288.064 329.135 280.635 327.722 272.523L323.221 246.68L247.887 261.862Z" fill="#4D61E6"/>
<path d="M259.109 259.599V288.063H244.196L247.887 261.861L259.109 259.599Z" fill="#9EB6F2"/>
<path d="M290.793 233.884L293.936 252.582L247.887 261.861L247.111 267.372" stroke="#1E2D8B" stroke-width="1.1016" stroke-miterlimit="10"/>
<path d="M247.111 267.372L221.912 273.122C220.091 273.537 218.799 275.16 218.799 277.032V278.589L217.444 278.861C215.656 279.219 214.369 280.793 214.369 282.621V284.954H216.289L215.993 288.063H244.196L247.111 267.372Z" fill="url(#paint3_linear_0_2969)"/>
<path d="M226.477 276.813L218.799 278.59" stroke="#DA8676" stroke-width="1.1016" stroke-miterlimit="10"/>
<path d="M225.591 283.623L216.289 284.955" stroke="#DA8676" stroke-width="1.1016" stroke-miterlimit="10"/>
<defs>
<linearGradient id="paint0_linear_0_2969" x1="188.914" y1="195.441" x2="146.045" y2="195.441" gradientUnits="userSpaceOnUse">
<stop stop-color="#DA8676"/>
<stop offset="0.3566" stop-color="#E39E91"/>
<stop offset="0.753" stop-color="#EAB2A8"/>
<stop offset="1" stop-color="#EDBAB1"/>
</linearGradient>
<linearGradient id="paint1_linear_0_2969" x1="268.117" y1="124.825" x2="268.117" y2="199.907" gradientUnits="userSpaceOnUse">
<stop stop-color="#DA8676"/>
<stop offset="0.3566" stop-color="#E39E91"/>
<stop offset="0.753" stop-color="#EAB2A8"/>
<stop offset="1" stop-color="#EDBAB1"/>
</linearGradient>
<linearGradient id="paint2_linear_0_2969" x1="262.11" y1="124.825" x2="262.11" y2="199.907" gradientUnits="userSpaceOnUse">
<stop stop-color="#DA8676"/>
<stop offset="0.3566" stop-color="#E39E91"/>
<stop offset="0.753" stop-color="#EAB2A8"/>
<stop offset="1" stop-color="#EDBAB1"/>
</linearGradient>
<linearGradient id="paint3_linear_0_2969" x1="214.345" y1="278.903" x2="237.29" y2="278.034" gradientUnits="userSpaceOnUse">
<stop stop-color="#DA8676"/>
<stop offset="0.3566" stop-color="#E39E91"/>
<stop offset="0.753" stop-color="#EAB2A8"/>
<stop offset="1" stop-color="#EDBAB1"/>
</linearGradient>
</defs>
</svg>
