<svg width="468" height="373" viewBox="0 0 468 373" fill="none" xmlns="http://www.w3.org/2000/svg">
<path opacity="0.7" d="M460.43 247.422H373.6V334.27H460.43V247.422Z" fill="#FFDF82"/>
<path opacity="0.7" d="M403.241 247.422H373.6V334.27H403.241V247.422Z" fill="#FFDF82"/>
<mask id="mask0_0_1573" style="mask-type:luminance" maskUnits="userSpaceOnUse" x="373" y="173" width="88" height="75">
<path d="M460.43 173.585H373.6V247.422H460.43V173.585Z" fill="white"/>
</mask>
<g mask="url(#mask0_0_1573)">
<path d="M406.08 332.693L403.378 199.008L419.794 198.027L422.496 331.712L406.08 332.693Z" fill="#FFDF82"/>
<path d="M411.773 201.777C407.227 202.048 403.46 200.899 403.359 199.209C403.258 197.519 406.862 195.928 411.407 195.656C415.953 195.384 419.721 196.534 419.821 198.224C419.923 199.914 416.32 201.504 411.773 201.777Z" fill="#FFCC31"/>
<path opacity="0.5" d="M416.577 199.459C417.057 199.545 417.519 199.085 417.542 198.598C417.565 198.11 417.243 197.657 416.83 197.396C416.417 197.135 415.926 197.034 415.444 196.958C412.815 196.544 410.092 196.745 407.553 197.54C406.901 197.743 406.153 198.124 406.109 198.805C406.084 199.184 406.308 199.546 406.609 199.778C406.909 200.01 407.28 200.132 407.646 200.231C409.536 200.747 411.554 200.783 413.461 200.337C413.982 200.215 414.511 200.049 414.914 199.699C415.154 199.491 415.351 199.172 415.263 198.867C415.173 198.548 414.824 198.388 414.51 198.288C413.235 197.885 411.852 197.832 410.55 198.135C410.211 198.213 409.792 198.473 409.919 198.797C409.988 198.972 410.191 199.049 410.375 199.09C410.929 199.216 411.514 199.2 412.061 199.044" stroke="#E6E6E6" stroke-width="0.3089" stroke-miterlimit="10" stroke-linecap="round" stroke-linejoin="round"/>
</g>
<mask id="mask1_0_1573" style="mask-type:luminance" maskUnits="userSpaceOnUse" x="373" y="173" width="88" height="75">
<path d="M460.43 173.585H373.6V247.422H460.43V173.585Z" fill="white"/>
</mask>
<g mask="url(#mask1_0_1573)">
<path d="M424.76 313.093L440.969 180.366L457.36 181.714L441.15 314.44L424.76 313.093Z" fill="#263447"/>
<path d="M448.89 184.293C444.35 183.92 440.784 182.249 440.923 180.562C441.061 178.874 444.854 177.809 449.392 178.182C453.931 178.554 457.498 180.225 457.359 181.912C457.221 183.601 453.429 184.667 448.89 184.293Z" fill="#1B2433"/>
<path opacity="0.5" d="M453.972 182.678C454.436 182.831 454.957 182.44 455.048 181.961C455.14 181.481 454.885 180.987 454.514 180.671C454.143 180.355 453.671 180.185 453.204 180.042C450.661 179.261 447.936 179.075 445.309 179.503C444.636 179.613 443.841 179.884 443.701 180.551C443.623 180.923 443.793 181.313 444.058 181.585C444.324 181.858 444.672 182.031 445.02 182.181C446.819 182.959 448.811 183.28 450.763 183.108C451.296 183.061 451.843 182.971 452.292 182.681C452.559 182.508 452.798 182.222 452.755 181.907C452.71 181.579 452.388 181.371 452.09 181.227C450.885 180.648 449.524 180.4 448.191 180.516C447.845 180.546 447.394 180.743 447.474 181.082C447.517 181.265 447.707 181.369 447.884 181.437C448.414 181.639 448.996 181.706 449.559 181.629" stroke="#E6E6E6" stroke-width="0.3089" stroke-miterlimit="10" stroke-linecap="round" stroke-linejoin="round"/>
</g>
<mask id="mask2_0_1573" style="mask-type:luminance" maskUnits="userSpaceOnUse" x="373" y="173" width="88" height="75">
<path d="M460.43 173.585H373.6V247.422H460.43V173.585Z" fill="white"/>
</mask>
<g mask="url(#mask2_0_1573)">
<path d="M421.017 348.509L422.691 214.807L439.13 214.363L437.457 348.065L421.017 348.509Z" fill="#355FFC"/>
<path d="M430.991 217.848C426.439 217.971 422.711 216.699 422.665 215.006C422.62 213.313 426.273 211.842 430.826 211.719C435.378 211.596 439.106 212.868 439.151 214.561C439.197 216.254 435.544 217.726 430.991 217.848Z" fill="#302DB8"/>
<path opacity="0.5" d="M435.868 215.69C436.345 215.792 436.821 215.347 436.86 214.861C436.9 214.374 436.592 213.91 436.188 213.636C435.785 213.362 435.297 213.245 434.817 213.153C432.203 212.653 429.475 212.765 426.911 213.476C426.254 213.659 425.493 214.014 425.427 214.694C425.39 215.072 425.601 215.441 425.895 215.683C426.187 215.925 426.553 216.059 426.917 216.171C428.789 216.748 430.805 216.85 432.725 216.467C433.249 216.362 433.784 216.213 434.199 215.876C434.445 215.676 434.652 215.364 434.575 215.056C434.495 214.735 434.152 214.563 433.841 214.453C432.58 214.009 431.199 213.91 429.888 214.17C429.546 214.238 429.12 214.483 429.236 214.811C429.299 214.988 429.5 215.072 429.682 215.12C430.231 215.263 430.817 215.266 431.368 215.129" stroke="#E6E6E6" stroke-width="0.3089" stroke-miterlimit="10" stroke-linecap="round" stroke-linejoin="round"/>
</g>
<mask id="mask3_0_1573" style="mask-type:luminance" maskUnits="userSpaceOnUse" x="373" y="173" width="88" height="75">
<path d="M460.43 173.585H373.6V247.422H460.43V173.585Z" fill="white"/>
</mask>
<g mask="url(#mask3_0_1573)">
<path d="M425.87 353.742L443.358 221.177L459.734 222.682L442.247 355.247L425.87 353.742Z" fill="#F36543"/>
<path d="M451.24 225.18C446.705 224.763 443.154 223.058 443.309 221.372C443.464 219.686 447.266 218.657 451.802 219.074C456.336 219.491 459.888 221.196 459.732 222.881C459.576 224.568 455.775 225.597 451.24 225.18Z" fill="#F53102"/>
<path opacity="0.5" d="M456.337 223.614C456.799 223.772 457.325 223.387 457.421 222.908C457.518 222.43 457.267 221.933 456.899 221.613C456.53 221.293 456.061 221.119 455.595 220.971C453.059 220.165 450.336 219.953 447.706 220.357C447.031 220.46 446.233 220.723 446.087 221.39C446.006 221.761 446.172 222.153 446.434 222.428C446.697 222.702 447.043 222.878 447.391 223.032C449.181 223.827 451.171 224.168 453.124 224.014C453.656 223.971 454.205 223.888 454.656 223.602C454.925 223.432 455.167 223.147 455.127 222.832C455.085 222.504 454.765 222.293 454.469 222.146C453.27 221.556 451.911 221.294 450.578 221.397C450.231 221.423 449.778 221.617 449.855 221.956C449.896 222.139 450.086 222.246 450.261 222.315C450.79 222.522 451.371 222.594 451.935 222.523" stroke="#E6E6E6" stroke-width="0.3089" stroke-miterlimit="10" stroke-linecap="round" stroke-linejoin="round"/>
</g>
<path d="M379.552 311.664L378.178 335.003C378.14 335.648 377.72 336.204 377.108 336.413C375.448 336.976 371.916 337.998 367.787 338.029C363.55 338.06 359.863 337.063 358.123 336.516C357.493 336.317 357.051 335.753 357.012 335.094L355.625 311.665L379.552 311.664Z" fill="#F0FAFF"/>
<path d="M380.744 308.043L380.329 312.732C380.184 312.769 374.031 314.358 367.809 314.404C361.539 314.451 355.201 312.953 354.869 312.865L354.437 308.042L380.744 308.043Z" fill="#92CEFF"/>
<path d="M379.095 319.451L378.613 327.572C376.332 328.058 372.086 328.821 367.809 328.847C363.389 328.879 358.932 328.148 356.576 327.677L356.095 319.557C358.954 320.076 363.41 320.716 367.841 320.685C372.107 320.653 376.348 319.991 379.095 319.451Z" fill="#263447"/>
<path d="M380.745 308.075C380.745 309.495 374.848 310.645 367.573 310.645C360.298 310.645 354.401 309.495 354.401 308.075C354.401 306.656 360.298 305.505 367.573 305.505C374.848 305.505 380.745 306.655 380.745 308.075Z" fill="#263447"/>
<path d="M443.12 313.389L441.746 336.727C441.708 337.373 441.288 337.929 440.676 338.137C439.016 338.7 435.484 339.722 431.355 339.753C427.118 339.785 423.431 338.788 421.691 338.24C421.061 338.042 420.619 337.477 420.58 336.818L419.193 313.389H443.12V313.389Z" fill="#F0FAFF"/>
<path d="M444.312 309.769L443.897 314.457C443.752 314.494 437.599 316.084 431.377 316.129C425.107 316.176 418.769 314.678 418.437 314.59L418.005 309.768L444.312 309.769Z" fill="#92CEFF"/>
<path d="M442.663 321.176L442.181 329.296C439.9 329.784 435.654 330.546 431.377 330.572C426.957 330.604 422.5 329.873 420.144 329.402L419.663 321.282C422.521 321.8 426.978 322.441 431.409 322.409C435.675 322.378 439.915 321.716 442.663 321.176Z" fill="#F53102"/>
<path d="M444.312 309.799C444.312 311.219 438.415 312.369 431.14 312.369C423.865 312.369 417.968 311.219 417.968 309.799C417.968 308.38 423.865 307.229 431.14 307.229C438.415 307.229 444.312 308.38 444.312 309.799Z" fill="#F53102"/>
<path d="M466.653 319.482L465.279 342.821C465.241 343.466 464.82 344.023 464.208 344.231C462.548 344.794 459.017 345.816 454.888 345.847C450.651 345.877 446.963 344.88 445.224 344.334C444.594 344.135 444.152 343.571 444.113 342.912L442.725 319.483H466.653V319.482Z" fill="#F0FAFF"/>
<path d="M467.845 315.861L467.431 320.55C467.285 320.588 461.132 322.176 454.911 322.222C448.641 322.268 442.302 320.771 441.971 320.683L441.539 315.86H467.845V315.861Z" fill="#92CEFF"/>
<path d="M466.195 327.27L465.714 335.39C463.433 335.877 459.187 336.639 454.91 336.666C450.49 336.697 446.032 335.967 443.677 335.496L443.195 327.375C446.054 327.894 450.511 328.535 454.942 328.503C459.208 328.47 463.448 327.809 466.195 327.27Z" fill="#FFCC31"/>
<path d="M467.846 315.892C467.846 317.312 461.949 318.462 454.674 318.462C447.399 318.462 441.502 317.312 441.502 315.892C441.502 314.473 447.399 313.322 454.674 313.322C461.949 313.322 467.846 314.473 467.846 315.892Z" fill="#FFCC31"/>
<path d="M265.552 147.698H258.052V165.239H265.552V147.698Z" fill="#BBE4FF"/>
<path d="M261.223 147.698H258.052V165.239H261.223V147.698Z" fill="#BBE4FF"/>
<path d="M283.904 148.8H240.121C239.153 148.8 238.367 148.014 238.367 147.045V118.749C238.367 117.781 239.153 116.995 240.121 116.995H283.904C284.873 116.995 285.658 117.781 285.658 118.749V147.045C285.657 148.014 284.872 148.8 283.904 148.8Z" fill="#BBE4FF"/>
<path d="M283.852 119.311H243.756V146.483H283.852V119.311Z" fill="#1B2433"/>
<path d="M242.311 148.8H240.121C239.153 148.8 238.367 148.014 238.367 147.045V118.749C238.367 117.781 239.153 116.995 240.121 116.995H242.311V148.8Z" fill="#BBE4FF"/>
<g opacity="0.75">
<path d="M262.443 121.986H245.574V123.17H262.443V121.986Z" fill="#BBE4FF"/>
<path d="M262.443 124.989H245.574V126.173H262.443V124.989Z" fill="#BBE4FF"/>
<path d="M257.278 130.996H245.574V132.18H257.278V130.996Z" fill="#BBE4FF"/>
<path d="M257.278 133.999H245.574V135.183H257.278V133.999Z" fill="#BBE4FF"/>
<path d="M255.845 137.003H245.574V138.187H255.845V137.003Z" fill="#BBE4FF"/>
<path d="M271.764 127.993H245.574V129.177H271.764V127.993Z" fill="#BBE4FF"/>
</g>
<path d="M46.9437 231.828H14.2565V350.817H46.9437V231.828Z" fill="#BBE4FF"/>
<path d="M28.0765 231.828H14.2565V350.817H28.0765V231.828Z" fill="#BBE4FF"/>
<path d="M58.8717 363.014H2.32837V352.638C2.32837 349.937 4.51826 347.747 7.2195 347.747H53.9806C56.6819 347.747 58.8717 349.937 58.8717 352.638V363.014Z" fill="#92CEFF"/>
<path d="M26.2348 363.014H2.32837V352.638C2.32837 349.937 4.51826 347.747 7.2195 347.747H26.2348V363.014Z" fill="#BBE4FF"/>
<path d="M303.221 231.828H270.533V350.817H303.221V231.828Z" fill="#BBE4FF"/>
<path d="M284.353 231.828H270.533V350.817H284.353V231.828Z" fill="#BBE4FF"/>
<path d="M315.149 363.014H258.605V352.638C258.605 349.937 260.795 347.747 263.496 347.747H310.258C312.959 347.747 315.149 349.937 315.149 352.638V363.014Z" fill="#92CEFF"/>
<path d="M282.511 363.014H258.604V352.638C258.604 349.937 260.794 347.747 263.495 347.747H282.511V363.014Z" fill="#BBE4FF"/>
<path d="M313.617 247.294H228.639V166.344C228.639 164.213 230.367 162.485 232.498 162.485H288.712L317.475 189.251V243.435C317.476 245.567 315.748 247.294 313.617 247.294Z" fill="#BBE4FF"/>
<path d="M317.478 189.255V243.435C317.478 245.565 315.75 247.293 313.619 247.293H228.639V166.339C228.639 164.208 230.367 162.48 232.498 162.48H288.713L317.373 189.159L317.478 189.255Z" fill="#BBE4FF"/>
<path d="M317.476 189.154V243.436C317.476 245.566 315.748 247.294 313.617 247.294H251.832V189.154H317.476Z" fill="#BBE4FF"/>
<path d="M309.659 202.019V234.429C309.659 236.477 307.999 238.137 305.951 238.137H268.399C266.351 238.137 264.691 236.477 264.691 234.429V202.019C264.691 199.971 266.351 198.311 268.399 198.311H305.951C307.999 198.311 309.659 199.971 309.659 202.019Z" stroke="#BBE4FF" stroke-width="0.9948" stroke-miterlimit="10"/>
<path opacity="0.5" d="M317.478 189.159H251.897L228.639 167.585V166.339C228.639 164.208 230.367 162.48 232.498 162.48H288.713L317.478 189.159Z" fill="#BBE4FF"/>
<path d="M80.6693 179.869H0V160.255C0 158.13 1.72178 156.408 3.84644 156.408H76.8229C78.9476 156.408 80.6693 158.131 80.6693 160.255V179.869Z" fill="#BBE4FF"/>
<path d="M16.5865 179.869H0V160.255C0 158.13 1.72178 156.408 3.84644 156.408H12.7401C14.8647 156.408 16.5865 158.131 16.5865 160.255V179.869Z" fill="#BBE4FF"/>
<path d="M54.5836 247.294H3.85878C1.72794 247.294 0 245.566 0 243.435V176.733H54.5836V247.294Z" fill="#BBE4FF"/>
<path d="M54.2468 247.294H3.85878C1.72794 247.294 0 245.566 0 243.435V176.733H31.4926L54.2477 197.908L54.2468 247.294Z" fill="#BBE4FF"/>
<path d="M251.746 197.916H54.2486V247.294H251.746V197.916Z" fill="#BBE4FF"/>
<path d="M251.745 197.908L228.991 176.733H31.4918L54.2468 197.908H54.2486V247.294H251.987V197.908H251.745Z" fill="#BBE4FF"/>
<g opacity="0.55">
<path d="M228.991 176.733L251.745 197.908H54.2468L31.4918 176.733H228.991Z" fill="#BBE4FF"/>
</g>
<path d="M287.781 169.099H280.12C279.899 169.099 279.686 169.015 279.524 168.865L276.92 166.453C276.334 165.911 276.718 164.932 277.516 164.932H285.181C285.402 164.932 285.615 165.016 285.778 165.166L288.378 167.578C288.962 168.121 288.578 169.099 287.781 169.099Z" fill="#FFCC31"/>
<path d="M293.83 174.78H286.168C285.947 174.78 285.735 174.696 285.573 174.546L282.968 172.134C282.383 171.592 282.766 170.613 283.564 170.613H291.23C291.451 170.613 291.664 170.697 291.827 170.847L294.426 173.258C295.011 173.801 294.627 174.78 293.83 174.78Z" fill="#355FFC"/>
<path d="M300.235 180.737H292.574C292.353 180.737 292.14 180.653 291.978 180.503L289.374 178.091C288.789 177.549 289.172 176.57 289.97 176.57H297.635C297.857 176.57 298.069 176.654 298.231 176.804L300.832 179.216C301.416 179.759 301.032 180.737 300.235 180.737Z" fill="#FFDF82"/>
<path d="M306.553 186.556H298.892C298.67 186.556 298.458 186.472 298.296 186.322L295.692 183.91C295.106 183.368 295.49 182.39 296.288 182.39H303.953C304.174 182.39 304.387 182.473 304.549 182.623L307.15 185.035C307.734 185.578 307.35 186.556 306.553 186.556Z" fill="#F53102"/>
<path d="M271.621 169.099H263.96C263.739 169.099 263.526 169.015 263.364 168.865L260.76 166.453C260.174 165.911 260.558 164.932 261.356 164.932H269.021C269.243 164.932 269.455 165.016 269.618 165.166L272.218 167.578C272.803 168.121 272.419 169.099 271.621 169.099Z" fill="#FFCC31"/>
<path d="M277.671 174.78H270.01C269.788 174.78 269.576 174.696 269.414 174.546L266.809 172.134C266.224 171.592 266.607 170.613 267.405 170.613H275.071C275.292 170.613 275.505 170.697 275.667 170.847L278.268 173.258C278.851 173.801 278.468 174.78 277.671 174.78Z" fill="#355FFC"/>
<path d="M284.076 180.737H276.414C276.193 180.737 275.981 180.653 275.818 180.503L273.214 178.091C272.629 177.549 273.012 176.57 273.81 176.57H281.476C281.697 176.57 281.909 176.654 282.073 176.804L284.672 179.216C285.256 179.759 284.873 180.737 284.076 180.737Z" fill="#FFDF82"/>
<path d="M290.393 186.556H282.732C282.511 186.556 282.298 186.472 282.136 186.322L279.532 183.91C278.946 183.368 279.33 182.39 280.128 182.39H287.793C288.015 182.39 288.227 182.473 288.389 182.623L290.99 185.035C291.574 185.578 291.191 186.556 290.393 186.556Z" fill="#F53102"/>
<path d="M269.892 179.426C269.797 180.276 267.795 180.75 265.422 180.483C263.048 180.217 261.201 179.312 261.297 178.461C261.392 177.611 263.394 177.138 265.767 177.404C268.141 177.67 269.988 178.576 269.892 179.426Z" fill="#BBE4FF"/>
<path d="M263.297 173.388C263.202 174.237 261.2 174.711 258.826 174.445C256.452 174.178 254.606 173.273 254.701 172.422C254.797 171.572 256.799 171.099 259.172 171.365C261.545 171.632 263.392 172.538 263.297 173.388Z" fill="#BBE4FF"/>
<path d="M257.073 167.536C256.978 168.386 254.976 168.859 252.602 168.593C250.228 168.326 248.382 167.421 248.477 166.57C248.572 165.719 250.575 165.247 252.948 165.513C255.321 165.78 257.168 166.686 257.073 167.536Z" fill="#BBE4FF"/>
<path d="M276.395 185.371C276.3 186.221 274.298 186.695 271.924 186.428C269.551 186.162 267.704 185.257 267.799 184.406C267.895 183.555 269.897 183.083 272.27 183.349C274.644 183.616 276.491 184.521 276.395 185.371Z" fill="#BBE4FF"/>
<path d="M257.266 179.426C257.171 180.276 255.169 180.75 252.795 180.484C250.421 180.217 248.574 179.312 248.67 178.461C248.766 177.61 250.768 177.138 253.141 177.404C255.514 177.67 257.361 178.576 257.266 179.426Z" fill="#FFDF82"/>
<path d="M250.671 173.388C250.576 174.237 248.573 174.711 246.2 174.445C243.827 174.178 241.98 173.273 242.075 172.422C242.17 171.572 244.172 171.099 246.546 171.365C248.919 171.632 250.766 172.538 250.671 173.388Z" fill="#FFDF82"/>
<path d="M244.447 167.536C244.351 168.386 242.349 168.859 239.976 168.593C237.602 168.326 235.755 167.421 235.851 166.57C235.946 165.719 237.948 165.247 240.322 165.513C242.695 165.78 244.542 166.686 244.447 167.536Z" fill="#FFDF82"/>
<path d="M263.769 185.371C263.673 186.221 261.671 186.695 259.298 186.428C256.924 186.162 255.077 185.257 255.173 184.406C255.268 183.555 257.27 183.083 259.644 183.349C262.017 183.616 263.864 184.521 263.769 185.371Z" fill="#FFDF82"/>
<path d="M29.8793 173.592H27.3183C26.1307 173.592 25.168 172.629 25.168 171.442V162.242C25.168 161.055 26.1307 160.092 27.3183 160.092H29.8793C31.0668 160.092 32.0295 161.055 32.0295 162.242V171.442C32.0295 172.629 31.0668 173.592 29.8793 173.592Z" fill="#BBE4FF"/>
<path d="M43.3617 173.592H40.8007C39.6131 173.592 38.6513 172.629 38.6513 171.442V162.242C38.6513 161.055 39.614 160.092 40.8007 160.092H43.3617C44.5492 160.092 45.5119 161.055 45.5119 162.242V171.442C45.5119 172.629 44.5492 173.592 43.3617 173.592Z" fill="#355FFC"/>
<path d="M56.844 173.592H54.283C53.0955 173.592 52.1336 172.629 52.1336 171.442V162.242C52.1336 161.055 53.0963 160.092 54.283 160.092H56.844C58.0316 160.092 58.9943 161.055 58.9943 162.242V171.442C58.9943 172.629 58.0316 173.592 56.844 173.592Z" fill="#F53102"/>
<path d="M70.3264 173.592H67.7662C66.5787 173.592 65.616 172.629 65.616 171.442V162.242C65.616 161.055 66.5787 160.092 67.7662 160.092H70.3264C71.5139 160.092 72.4766 161.055 72.4766 162.242V171.442C72.4766 172.629 71.5139 173.592 70.3264 173.592Z" fill="#FFCC31"/>
<path d="M243.702 214.609H63.3618V247.294H243.702V214.609Z" fill="#1B2433"/>
<path d="M243.702 214.609H63.3618V221.336H243.702V214.609Z" fill="#302DB8"/>
<path d="M114.729 364.067C114.729 364.067 96.5056 365.463 92.6856 360.067C89.5603 355.653 90.2832 349.464 93.4764 345.098C96.6696 340.733 101.388 337.775 105.308 334.048C109.226 330.32 112.525 325.099 111.492 319.79C110.124 312.762 102.061 309.257 94.9354 308.566C87.8086 307.874 80.2276 308.726 73.8439 305.484C71.7052 304.397 69.7604 302.843 68.4864 300.809C65.2809 295.691 67.0556 288.746 70.6913 283.922C74.3271 279.099 79.4994 275.715 83.9877 271.673C86.5258 269.388 88.9185 266.782 90.091 263.575C91.0634 260.914 91.1322 257.989 90.709 255.188C88.9943 243.833 78.5191 234.442 67.045 233.974H220.807C232.281 234.442 242.757 243.833 244.471 255.188C244.894 257.989 244.826 260.914 243.853 263.575C242.681 266.782 240.287 269.388 237.75 271.673C233.262 275.715 228.089 279.099 224.454 283.922C220.818 288.746 219.043 295.691 222.249 300.809C223.522 302.842 225.467 304.397 227.606 305.484C233.99 308.726 241.571 307.875 248.698 308.566C255.825 309.258 263.887 312.762 265.254 319.79C266.287 325.099 262.989 330.319 259.07 334.048C255.151 337.775 250.432 340.733 247.239 345.098C244.046 349.464 242.749 356.121 246.449 360.067C249.653 363.486 254.782 364.067 254.782 364.067H114.729Z" fill="#355FFC"/>
<path d="M114.729 364.067C114.729 364.067 96.5056 365.463 92.6856 360.067C89.5603 355.653 90.2832 349.464 93.4764 345.098C96.6696 340.733 101.388 337.775 105.308 334.048C109.226 330.32 112.525 325.099 111.492 319.79C110.124 312.762 102.061 309.257 94.9354 308.566C87.8086 307.874 80.2276 308.726 73.8439 305.484C71.7052 304.397 69.7604 302.843 68.4864 300.809C65.2809 295.691 67.0556 288.746 70.6913 283.922C74.3271 279.099 79.4994 275.715 83.9877 271.673C86.5258 269.388 88.9185 266.782 90.091 263.575C91.0634 260.914 91.1322 257.989 90.709 255.188C88.9943 243.833 78.5191 234.442 67.045 233.974H119.262C130.736 234.442 141.212 243.833 142.926 255.188C143.35 257.989 143.281 260.914 142.308 263.575C141.136 266.782 138.742 269.388 136.205 271.673C131.717 275.715 126.544 279.099 122.909 283.922C119.273 288.746 117.498 295.691 120.704 300.809C121.977 302.842 123.922 304.397 126.061 305.484C132.445 308.726 140.026 307.875 147.153 308.566C154.28 309.258 162.342 312.762 163.709 319.79C164.743 325.099 161.444 330.319 157.525 334.048C153.606 337.775 148.887 340.733 145.695 345.098C142.501 349.464 141.205 356.121 144.904 360.067C148.108 363.486 153.237 364.067 153.237 364.067H114.729Z" fill="#F53102"/>
<path d="M158.715 364.067C158.715 364.067 140.491 365.463 136.671 360.067C133.546 355.653 134.27 349.464 137.462 345.098C140.655 340.733 145.374 337.775 149.293 334.048C153.212 330.32 156.511 325.099 155.478 319.79C154.11 312.762 146.047 309.257 138.921 308.566C131.794 307.874 124.214 308.726 117.83 305.484C115.691 304.397 113.746 302.843 112.472 300.809C109.267 295.691 111.041 288.746 114.677 283.922C118.313 279.099 123.485 275.715 127.974 271.673C130.511 269.388 132.904 266.782 134.077 263.575C135.049 260.914 135.118 257.989 134.695 255.188C132.98 243.833 122.505 234.442 111.031 233.974H163.247C174.721 234.442 185.197 243.833 186.911 255.188C187.335 257.989 187.266 260.914 186.293 263.575C185.121 266.782 182.727 269.388 180.19 271.673C175.702 275.715 170.529 279.099 166.894 283.922C163.258 288.746 161.483 295.691 164.689 300.809C165.962 302.842 167.907 304.397 170.046 305.484C176.43 308.726 184.011 307.875 191.138 308.566C198.265 309.258 206.327 312.762 207.694 319.79C208.728 325.099 205.429 330.319 201.51 334.048C197.591 337.775 192.872 340.733 189.68 345.098C186.486 349.464 185.19 356.121 188.889 360.067C192.093 363.486 197.222 364.067 197.222 364.067H158.715Z" fill="#FFCC31"/>
<path d="M211.112 364.067C211.112 364.067 192.889 365.463 189.069 360.067C185.943 355.653 186.666 349.464 189.859 345.098C193.053 340.733 197.771 337.775 201.691 334.048C205.609 330.32 208.908 325.099 207.875 319.79C206.507 312.762 198.444 309.257 191.318 308.566C184.192 307.874 176.611 308.726 170.227 305.484C168.088 304.397 166.143 302.843 164.87 300.809C161.664 295.691 163.439 288.746 167.074 283.922C170.71 279.099 175.883 275.715 180.371 271.673C182.908 269.388 185.302 266.782 186.474 263.575C187.447 260.914 187.515 257.989 187.092 255.188C185.377 243.833 174.902 234.442 163.428 233.974H189.785C201.259 234.442 211.734 243.833 213.449 255.188C213.872 257.989 213.803 260.914 212.831 263.575C211.658 266.782 209.264 269.388 206.727 271.673C202.239 275.715 197.067 279.099 193.431 283.922C189.795 288.746 188.02 295.691 191.226 300.809C192.499 302.842 194.444 304.397 196.583 305.484C202.967 308.726 210.548 307.875 217.675 308.566C224.802 309.258 232.864 312.762 234.231 319.79C235.265 325.099 231.967 330.319 228.047 334.048C224.128 337.775 219.409 340.733 216.216 345.098C213.023 349.464 211.726 356.121 215.425 360.067C218.629 363.486 223.758 364.067 223.758 364.067H211.112Z" fill="#263447"/>
<g opacity="0.5">
<path opacity="0.2" d="M239.093 308.061H85.3295C81.3209 307.821 77.3951 307.289 73.8422 305.48C71.7008 304.393 69.7587 302.84 68.4892 300.807C65.2854 295.686 67.053 288.748 70.6887 283.926C72.5727 281.419 74.872 279.311 77.2787 277.285H231.042C228.635 279.31 226.336 281.418 224.452 283.926C220.817 288.748 219.041 295.686 222.252 300.807C223.522 302.841 225.465 304.393 227.605 305.48C231.157 307.289 235.083 307.821 239.093 308.061Z" fill="#1B2433"/>
<path opacity="0.2" d="M254.779 364.069H114.727C114.727 364.069 96.5091 365.464 92.683 360.068C89.5621 355.653 90.2841 349.461 93.4799 345.095C94.418 343.817 95.4803 342.655 96.6176 341.568H250.381C249.243 342.655 248.181 343.817 247.243 345.095C244.047 349.461 242.753 356.117 246.446 360.068C249.65 363.488 254.779 364.069 254.779 364.069Z" fill="#1B2433"/>
<path opacity="0.2" d="M234.643 239.131H80.8889C76.897 236.093 72.0746 234.176 67.0451 233.978H220.808C225.829 234.176 230.651 236.093 234.643 239.131Z" fill="#1B2433"/>
</g>
<path d="M399.457 342.106C405.116 341.977 410.779 342.025 416.434 342.254C416.486 342.892 416.539 343.523 416.593 344.14C419.434 361.174 400.183 357.029 399.445 345.998C399.555 344.97 399.544 343.604 399.457 342.106Z" fill="#92CEFF"/>
<path d="M397.833 331.192C397.713 330.772 415.747 329.309 415.753 329.719C415.752 332.745 416.061 337.681 416.434 342.254C410.779 342.025 405.116 341.978 399.457 342.105C399.235 338.301 398.497 333.61 397.833 331.192Z" fill="#FFAB88"/>
<path d="M421.564 357.937C422.104 359.115 422.381 360.412 422.37 361.707C422.364 362.486 422.187 363.371 421.518 363.768C421.518 363.768 389.218 370.982 384.459 371.823C379.903 372.629 374.747 372.442 372.255 371.722C371.531 371.513 370.995 370.906 370.875 370.162L370.555 368.177C370.501 367.822 370.777 367.502 371.136 367.504C371.136 367.504 382.924 368.076 391.649 365.541C400.374 363.006 421.564 357.937 421.564 357.937Z" fill="#FFCC31"/>
<path d="M377.751 362.319L377.764 362.31C378.016 362.332 378.27 362.331 378.517 362.305C379.683 362.185 398.702 349.993 399.73 349.614C400.692 349.258 402.284 351.164 403.246 350.809C403.286 350.847 406.279 353.289 409.141 352.996C416.454 352.247 416.886 345.474 416.886 345.474C419.89 349.101 421.332 353.283 421.681 357.98C421.681 357.98 401.679 363.003 395.928 364.681C390.177 366.358 374.981 369.346 371.136 367.506C371.136 367.506 369.981 365.243 375.925 363.2C376.403 363.034 377.34 362.613 377.751 362.319Z" fill="#FFDF82"/>
<path d="M385.687 359.176C384.393 359.826 383.1 360.476 381.807 361.124C380.76 361.65 379.684 362.185 378.518 362.304C378.27 362.33 378.017 362.33 377.764 362.309C380.989 360.007 395.218 349.769 399.793 345.063C399.793 345.063 402.542 344.795 405.041 348.472C405.041 348.472 405.668 349.92 403.245 350.806L403.247 350.808C402.284 351.163 399.014 350.789 398.051 351.144C397.022 351.524 387.183 358.424 385.687 359.176Z" fill="#FCD575"/>
<path d="M391.506 355.647C390.569 354.81 389.223 354.412 387.941 354.592" stroke="#FFCC31" stroke-width="0.9661" stroke-miterlimit="10" stroke-linecap="round" stroke-linejoin="round"/>
<path d="M387.103 358.574C386.166 357.738 384.82 357.339 383.538 357.52" stroke="#FFCC31" stroke-width="0.9661" stroke-miterlimit="10" stroke-linecap="round" stroke-linejoin="round"/>
<path d="M389.559 356.971C388.621 356.134 387.275 355.736 385.993 355.917" stroke="#FFCC31" stroke-width="0.9661" stroke-miterlimit="10" stroke-linecap="round" stroke-linejoin="round"/>
<path d="M393.62 353.975C392.683 353.139 391.336 352.74 390.055 352.921" stroke="#FFCC31" stroke-width="0.9661" stroke-miterlimit="10" stroke-linecap="round" stroke-linejoin="round"/>
<path d="M395.768 352.477C394.831 351.641 393.484 351.242 392.202 351.423" stroke="#FFCC31" stroke-width="0.9661" stroke-miterlimit="10" stroke-linecap="round" stroke-linejoin="round"/>
<path opacity="0.5" d="M416.593 344.14L399.68 344.248" stroke="#355FFC" stroke-width="0.9414" stroke-miterlimit="10"/>
<path d="M340.132 342.986C345.732 343.809 351.307 344.807 356.843 345.983C356.788 346.62 356.734 347.251 356.683 347.869C356.624 365.138 338.341 357.82 339.466 346.821C339.748 345.826 339.967 344.478 340.132 342.986Z" fill="#92CEFF"/>
<path d="M340.365 331.955C340.317 331.521 358.341 333.106 358.277 333.512C357.768 336.495 357.244 341.412 356.844 345.983C351.307 344.808 345.733 343.81 340.133 342.986C340.552 339.198 340.612 334.45 340.365 331.955Z" fill="#FFAB88"/>
<path d="M359.267 362.305C359.601 363.557 359.656 364.881 359.428 366.157C359.29 366.923 358.968 367.767 358.241 368.046C358.241 368.046 325.189 369.733 320.357 369.764C315.73 369.793 310.678 368.742 308.343 367.614C307.665 367.286 307.238 366.598 307.244 365.845L307.262 363.835C307.268 363.475 307.594 363.207 307.948 363.268C307.948 363.268 319.472 365.812 328.5 364.777C337.527 363.743 359.267 362.305 359.267 362.305Z" fill="#FFCC31"/>
<path d="M315.341 359.268L315.355 359.261C315.6 359.324 315.85 359.365 316.099 359.381C317.268 359.459 338.063 350.634 339.141 350.432C340.15 350.244 341.399 352.389 342.408 352.201C342.44 352.245 344.981 355.155 347.851 355.346C355.187 355.836 356.75 349.231 356.75 349.231C359.101 353.312 359.821 357.676 359.376 362.365C359.376 362.365 338.814 363.959 332.864 364.646C326.913 365.334 311.431 365.727 307.949 363.267C307.949 363.267 307.189 360.844 313.392 359.827C313.891 359.745 314.886 359.488 315.341 359.268Z" fill="#FFDF82"/>
<path d="M323.69 357.501C322.306 357.924 320.922 358.347 319.538 358.77C318.418 359.112 317.267 359.459 316.098 359.381C315.849 359.364 315.599 359.323 315.354 359.26C318.92 357.532 334.666 349.829 339.966 345.957C339.966 345.957 342.721 346.155 344.567 350.199C344.567 350.199 344.941 351.732 342.404 352.199L342.406 352.201C341.397 352.389 338.236 351.471 337.227 351.659C336.15 351.861 325.292 357.011 323.69 357.501Z" fill="#FCD575"/>
<path d="M330.02 354.999C329.237 354.017 327.977 353.398 326.683 353.361" stroke="#FFCC31" stroke-width="0.9661" stroke-miterlimit="10" stroke-linecap="round" stroke-linejoin="round"/>
<path d="M325.188 357.146C324.405 356.164 323.145 355.545 321.85 355.508" stroke="#FFCC31" stroke-width="0.9661" stroke-miterlimit="10" stroke-linecap="round" stroke-linejoin="round"/>
<path d="M327.879 355.978C327.096 354.996 325.835 354.377 324.541 354.34" stroke="#FFCC31" stroke-width="0.9661" stroke-miterlimit="10" stroke-linecap="round" stroke-linejoin="round"/>
<path d="M332.385 353.707C331.602 352.725 330.341 352.106 329.047 352.069" stroke="#FFCC31" stroke-width="0.9661" stroke-miterlimit="10" stroke-linecap="round" stroke-linejoin="round"/>
<path d="M334.754 352.59C333.971 351.608 332.71 350.989 331.416 350.952" stroke="#FFCC31" stroke-width="0.9661" stroke-miterlimit="10" stroke-linecap="round" stroke-linejoin="round"/>
<path opacity="0.5" d="M356.684 347.869L339.993 345.134" stroke="#355FFC" stroke-width="0.9414" stroke-miterlimit="10"/>
<path d="M335.884 338.61C335.882 339.022 363.519 341.113 363.519 341.113C363.519 341.113 365.426 271.261 365.359 270.813C365.234 269.943 372.292 233.566 378.052 212.879C378.062 212.841 378.07 212.792 378.09 212.755C379.904 206.232 381.499 200.864 382.989 195.993C383.772 193.462 384.517 191.065 385.243 188.706C386.685 184.027 388.07 179.509 389.484 174.428C389.589 174.055 389.684 173.711 389.78 173.349L356.897 173.855C355.397 178.076 353.917 182.326 352.475 186.576C351.749 188.706 351.032 190.845 350.335 192.965C345.789 206.737 339.16 254.144 337.602 266.263C334.648 289.242 335.966 313.936 335.884 338.61Z" fill="#5E83EA"/>
<path d="M376.991 174.371C377.125 179.977 377.345 184.513 377.555 189.021C377.66 191.351 377.764 193.672 377.851 196.137C378.023 200.835 378.128 206.04 378.09 212.755V212.965C378.003 225.991 378.62 262.533 379.549 271.209C381.413 288.615 393.75 339.779 393.75 339.779C393.75 339.779 413.468 337.76 417.892 336.983C418.735 336.833 419.72 336.645 419.768 336.632C419.776 336.622 408.49 271.48 408.48 271.423C408.462 271.385 411.737 215.533 409.97 191.437C409.808 189.174 409.598 186.948 409.34 184.789C408.911 181.132 408.346 177.664 407.621 174.504H407.478L389.484 174.427L376.991 174.371Z" fill="#5E83EA"/>
<path opacity="0.2" d="M406.365 277.456L415.715 337.307C416.621 337.185 417.363 337.076 417.892 336.984C418.732 336.832 419.717 336.644 419.766 336.631C419.772 336.625 408.487 271.481 408.48 271.42C408.462 271.389 410.835 230.842 410.446 203.94C410.446 203.83 410.445 203.721 410.439 203.617C410.421 202.065 410.385 200.557 410.342 199.109C410.336 198.981 410.33 198.86 410.33 198.738C410.3 197.685 410.257 196.67 410.215 195.69C410.19 195.24 410.172 194.796 410.148 194.364C410.111 193.695 410.074 193.045 410.032 192.418C410.014 192.083 409.99 191.761 409.965 191.438C409.892 190.404 409.807 189.376 409.709 188.36C409.703 188.263 409.697 188.171 409.685 188.074L409.143 181.304C409.064 181.371 408.986 181.431 408.906 181.498L408.9 181.505C408.675 179.971 408.426 178.481 408.152 177.039C408.091 176.723 408.03 176.412 407.963 176.102C407.908 175.846 407.86 175.585 407.799 175.335C407.744 175.056 407.677 174.775 407.616 174.502H407.476C409.588 202.262 406.138 255.348 405.146 269.487C404.996 271.597 405.896 275.387 406.365 277.456Z" fill="#5E83EA"/>
<path opacity="0.2" d="M357.997 340.66C361.744 340.87 363.522 341.118 363.522 341.118C363.522 341.118 365.423 271.261 365.357 270.813C365.238 269.943 372.288 233.565 378.047 212.877C377.559 211.758 377.138 210.861 376.768 210.229C376.768 210.229 376.768 210.216 376.755 210.216C376.148 209.135 375.687 208.806 375.49 209.373C368.955 227.082 358.458 336.822 357.997 340.66Z" fill="#5E83EA"/>
<path d="M415.599 337.073L415.386 335.797" stroke="#355FFC" stroke-width="0.8804" stroke-linecap="round" stroke-linejoin="round"/>
<path d="M414.71 331.749L404.877 272.879C404.877 272.879 408.673 199.929 406.935 174.588" stroke="#355FFC" stroke-width="0.8804" stroke-linecap="round" stroke-linejoin="round" stroke-dasharray="2.91 4.66"/>
<path d="M406.773 172.543C406.731 172.095 406.688 171.667 406.643 171.26" stroke="#355FFC" stroke-width="0.8804" stroke-linecap="round" stroke-linejoin="round"/>
<path d="M375.655 208.058L362.342 271.047L357.642 337.915" stroke="#355FFC" stroke-width="0.8804" stroke-miterlimit="10" stroke-linecap="round" stroke-linejoin="round" stroke-dasharray="2.93 4.7"/>
<path d="M285.137 160.129C285.137 160.129 283.238 168.265 288.605 176.752C288.605 176.752 290.417 173.653 289.006 168.013C287.596 162.374 285.137 160.129 285.137 160.129Z" fill="#D12B0B"/>
<path d="M285.102 163.04C285.739 166.723 286.742 170.365 287.231 174.07C285.861 175.599 283.661 177.58 281.816 178.244C281.359 178.408 280.904 178.548 280.457 178.657C280.325 178.69 280.008 178.692 279.56 178.669C277.135 178.549 270.889 177.725 269.69 177.17L270.42 162.378C271.657 161.893 276.605 160.769 278.363 161.1C280.415 161.486 283.144 162.315 285.102 163.04Z" fill="#FFAB88"/>
<path d="M283.786 163.435L291.83 161.344L293.984 172.936L284.736 174.52L283.786 163.435Z" fill="#FFAB88"/>
<path opacity="0.1" d="M275.369 176.844C274.404 175.222 273.945 171.833 273.83 169.951C274.238 169.689 274.649 169.452 275.061 169.246C275.182 169.185 275.49 169.112 275.933 169.033C276.123 169.825 276.264 170.627 276.372 170.986C277.192 173.693 278.169 176.374 279.869 178.678C277.993 178.592 276.348 178.489 275.369 176.844Z" fill="#D3835B"/>
<path d="M264.319 164.247C263.346 164.859 262.587 165.942 262.705 167.07C262.822 168.199 264.08 169.163 265.146 168.731C264.139 168.887 263.399 169.962 263.554 170.954C263.708 171.946 264.671 172.723 265.687 172.751C264.861 173.226 264.47 174.329 264.819 175.202C265.168 176.075 266.213 176.609 267.141 176.389C266.388 176.677 265.851 177.449 265.85 178.245C265.849 179.041 266.385 179.806 267.137 180.085C267.659 180.278 268.237 180.247 268.796 180.212C269.374 180.177 275.659 179.009 276.33 178.62C277.001 178.232 277.483 177.404 277.209 176.689C276.854 175.766 275.026 175.892 272.513 175.826C273.744 175.643 274.95 175.283 276.08 174.761C276.527 174.555 276.985 174.304 277.241 173.887C277.707 173.128 277.299 172.09 276.588 171.558C275.877 171.025 273.729 170.928 272.846 170.789C274.402 170.924 277.084 169.26 276.775 167.749C276.467 166.238 274.341 165.514 271.974 166.234C273.247 165.75 274.649 165.229 275.11 164.507C275.483 163.923 275.214 163.103 274.673 162.674C274.132 162.244 273.4 162.127 272.704 162.116C270.658 162.079 266.056 163.152 264.319 164.247Z" fill="#FFAB88"/>
<path d="M260.775 169.792C259.453 170.121 258.005 170.492 257.214 170.164C256.574 169.897 256.327 169.07 256.526 168.407C256.726 167.746 257.26 167.233 257.825 166.826C259.484 165.63 263.593 164.104 266.338 163.356C267.447 163.054 268.105 163.499 268.652 164.492C269.199 165.486 268.69 167.822 267.568 168.075L260.775 169.792Z" fill="#FFAB88"/>
<path d="M267.14 176.389C267.14 176.389 268.501 176.341 272.512 175.827C272.512 175.827 269.817 176.965 267.14 176.389Z" fill="#D3835B"/>
<path d="M265.686 172.751C265.686 172.751 269.329 171.267 272.844 170.789C272.844 170.789 267.092 172.721 265.686 172.751Z" fill="#D3835B"/>
<path d="M264.804 168.818C264.804 168.818 268.446 167.335 271.961 166.856C271.961 166.856 266.209 168.788 264.804 168.818Z" fill="#D3835B"/>
<g opacity="0.2">
<path d="M274.244 176.778C274.238 176.605 274.254 176.395 274.408 176.309C274.462 176.28 274.524 176.271 274.585 176.264C274.996 176.219 275.412 176.221 275.821 176.271C276.084 176.303 276.349 176.358 276.577 176.49C276.804 176.622 276.989 176.846 277.017 177.106C277.061 177.506 276.74 177.854 276.406 178.087C275.897 178.443 275.3 178.676 274.683 178.757C274.22 178.818 274.253 177.031 274.244 176.778Z" fill="#D3835B"/>
<path d="M273.577 172.493C273.57 172.295 273.588 172.057 273.764 171.96C273.825 171.926 273.897 171.916 273.965 171.909C274.433 171.857 274.906 171.86 275.371 171.917C275.67 171.954 275.973 172.015 276.231 172.166C276.489 172.317 276.741 172.505 276.802 173.245C276.839 173.7 276.317 174.079 275.939 174.344C275.36 174.75 274.816 174.772 274.078 174.744C273.547 174.723 273.587 172.78 273.577 172.493Z" fill="#D3835B"/>
<path d="M273.008 167.637C273.001 167.439 273.018 167.201 273.194 167.104C273.256 167.07 273.326 167.061 273.396 167.053C273.863 167.001 274.336 167.004 274.802 167.061C275.101 167.098 275.402 167.159 275.662 167.31C275.92 167.461 276.171 167.649 276.233 168.389C276.27 168.844 275.748 169.223 275.37 169.488C274.791 169.894 274.247 169.916 273.51 169.888C272.977 169.868 273.018 167.924 273.008 167.637Z" fill="#D3835B"/>
</g>
<path opacity="0.5" d="M278.61 163.245C278.411 164.262 279.081 169.221 277.987 168.183C276.956 167.207 276.043 167.037 274.836 167.413C273.772 167.746 273.768 169.304 273.418 170.353C273.139 171.189 272.714 171.976 272.167 172.668C271.818 173.11 271.062 173.492 270.532 173.689C270.001 173.885 269.338 173.811 268.962 173.391C268.758 173.162 268.666 172.876 268.631 172.57C268.6 172.304 268.613 172.023 268.633 171.758C268.734 170.472 268.901 169.19 269.136 167.921C269.363 166.692 270.192 162.429 271.598 161.54C273.054 160.621 276.043 161.064 277.117 161.212C279.692 161.565 278.791 162.318 278.61 163.245Z" fill="#B3B3B3"/>
<path d="M280.615 162.669C280.62 163.199 279.104 169.34 278.037 168.333C277.033 167.386 275.754 166.564 274.572 166.936C273.53 167.265 273.519 168.782 273.172 169.807C272.896 170.622 272.477 171.39 271.938 172.066C271.595 172.498 271.184 172.905 270.664 173.099C270.144 173.292 269.496 173.222 269.131 172.815C268.932 172.594 268.842 172.314 268.81 172.017C268.781 171.758 268.795 171.484 268.816 171.226C268.92 169.973 269.088 168.723 269.325 167.486C269.552 166.288 270.382 162.13 271.76 161.259C273.187 160.356 276.11 160.776 277.159 160.915C279.676 161.247 280.61 162.017 280.615 162.669Z" fill="#FFAB88"/>
<path opacity="0.2" d="M270.971 170.445C270.748 171.218 269.631 172.129 268.81 172.016C268.781 171.757 268.795 171.484 268.816 171.225C268.92 169.972 269.088 168.722 269.325 167.486C269.62 167.516 269.921 167.678 270.148 167.876C270.867 168.499 271.234 169.53 270.971 170.445Z" fill="#D3835B"/>
<path d="M288.604 176.752C289.31 176.651 330.303 174.885 337.531 168.72C346.356 161.192 360.638 126.261 360.638 126.261L362.91 105.88C362.91 105.88 353.695 106.566 348.299 111.19C337.24 120.67 324.186 152.78 324.186 152.78C305.488 156.864 285.953 159.69 285.135 160.128C288.304 165.432 288.986 175.26 288.604 176.752Z" fill="#F53102"/>
<path opacity="0.75" d="M288.604 176.752C289.447 176.713 291.516 176.613 292.63 176.514C292.63 176.514 292.65 172.317 291.783 167.275C291.032 162.907 289.173 159.35 289.173 159.35C288.071 159.536 286.155 159.829 285.136 160.129C287.758 163.589 289.191 175.191 288.604 176.752Z" fill="#F53102"/>
<path d="M348.863 198.805C360.846 200.598 382.21 200.63 398.087 200.591C415.84 199.837 411.419 202.215 410.109 189.167C404.982 162.374 405.498 125.411 402.093 103.364C395.212 101.947 384.267 102.651 372.081 104.169C364.9 105.063 354.472 107.729 354.472 107.729C354.472 107.978 352.755 163.359 352.755 163.359C352.755 163.359 349.752 190.443 348.863 198.805Z" fill="#F53102"/>
<path opacity="0.8" d="M366.243 200.2C376.646 200.613 388.387 200.62 398.085 200.595C415.837 199.834 411.42 202.214 410.106 189.17C406.943 172.635 405.651 152.377 404.538 133.992C404.41 133.938 402.963 138.712 402.732 140.36C401.57 148.792 403.889 155.831 399.162 163.533C397.191 166.745 376.299 191.074 373.914 193.325C372.314 194.84 370.191 195.698 368.537 197.151C367.569 198.003 366.803 199.049 366.243 200.2Z" fill="#F53102"/>
<path d="M358.644 71.7793C372.205 75.3507 370.429 67.1192 381.585 79.7367C387.687 81.2883 388.867 61.1146 381.002 61.5043C381.22 60.0805 381.044 58.5897 380.473 57.2699C379.712 55.512 378.264 54.0574 376.506 53.2974C373.69 52.0746 368.732 52.1478 367.326 55.2078C366.332 54.4558 365.21 53.9295 364.022 53.5954C359.151 52.2271 353.855 54.3307 351.796 58.952C351.477 59.6688 351.242 60.4234 351.107 61.2001C350.834 61.0793 350.548 60.9912 350.254 60.9347C348.925 60.6808 347.703 61.7961 347.778 63.1458C348.077 68.4707 353.684 70.4746 358.644 71.7793Z" fill="#211D19"/>
<path d="M350.611 67.1764C350.611 67.1764 382.165 55.8099 383.166 70.1007C383.304 72.0816 384.625 86.6686 381.131 87.7865C379.138 88.4239 366.091 92.3691 362.955 91.6479C361.493 91.3112 350.981 82.7349 350.329 78.6655C349.948 76.9058 350.611 67.1764 350.611 67.1764Z" fill="#211D19"/>
<path d="M365.549 106.481C365.169 100.421 364.861 91.455 364.861 91.455C364.861 91.455 376.704 87.0707 380.482 85.5879C380.998 87.8783 382.458 98.5695 383.064 102.946C383.243 104.236 382.792 105.54 381.84 106.43C380.356 107.815 378.216 109.169 375.452 109.708C372.308 110.32 365.738 109.477 365.549 106.481Z" fill="#FFAB88"/>
<path opacity="0.3" d="M365.363 102.95C365.07 97.1219 364.861 91.4549 364.861 91.4549C364.861 91.4549 376.769 86.9261 380.547 85.4424C380.81 100.13 365.574 102.841 365.363 102.95Z" fill="#FFAB88"/>
<path d="M381.567 82.7641C381.617 88.4284 380.454 92.8523 375.399 95.4557C370.344 98.0661 364.188 98.5113 358.8 96.6555C355.918 95.6593 353.119 93.8864 351.836 91.1552C351.836 91.1552 351.836 91.1552 351.836 91.1473C351.505 90.4385 351.285 89.6909 351.127 88.9221C350.961 88.0767 350.878 87.2171 350.81 86.3646C350.757 85.6778 350.719 84.984 350.69 84.2972C350.66 83.5047 350.644 82.4785 350.644 81.2865C350.652 75.4468 351.044 69.637 351.829 65.8118L381.986 66.4836L381.567 82.7641Z" fill="#FFAB88"/>
<path d="M354.98 76.1697C355.633 75.8461 356.425 75.7941 357.104 76.0612C357.522 76.2252 357.923 76.5585 357.958 77.0002C357.968 77.1245 357.939 77.2655 357.832 77.3343C357.768 77.3757 357.687 77.3828 357.61 77.3863C357.004 77.4172 356.393 77.3581 355.79 77.4313C355.307 77.4903 354.836 77.6349 354.403 77.8562C354.177 77.9717 353.228 78.3517 353.713 77.411C354.003 76.8529 354.387 76.4641 354.98 76.1697Z" fill="#211D19"/>
<path d="M371.108 76.1697C370.456 75.8461 369.663 75.7941 368.985 76.0612C368.567 76.2252 368.165 76.5585 368.13 77.0002C368.121 77.1245 368.15 77.2655 368.255 77.3343C368.32 77.3757 368.401 77.3828 368.478 77.3863C369.085 77.4172 369.696 77.3581 370.298 77.4313C370.781 77.4903 371.254 77.6349 371.686 77.8562C371.911 77.9717 372.861 78.3517 372.374 77.411C372.085 76.8529 371.702 76.4641 371.108 76.1697Z" fill="#211D19"/>
<path d="M355.678 80.2357C355.782 80.5126 356.034 80.695 356.293 80.8044C356.823 81.0283 357.517 80.9648 357.846 80.4694C358.367 79.6865 358.157 78.5836 356.898 78.4285C356.021 78.32 355.38 79.4414 355.678 80.2357Z" fill="#211D19"/>
<path d="M367.964 80.2357C368.068 80.5126 368.32 80.695 368.579 80.8044C369.109 81.0283 369.803 80.9648 370.132 80.4694C370.653 79.6865 370.443 78.5836 369.183 78.4285C368.307 78.32 367.666 79.4414 367.964 80.2357Z" fill="#211D19"/>
<path d="M362.693 76.5874C362.262 78.5005 362.015 79.4553 361.497 81.937C361.378 82.51 361.126 82.9676 361.46 83.5538C361.75 84.0616 362.897 84.4152 363.595 83.486" stroke="#E9B0A7" stroke-width="0.6231" stroke-miterlimit="10" stroke-linecap="round" stroke-linejoin="round"/>
<g opacity="0.3">
<path d="M377.394 80.8749C378.643 81.2998 379.395 82.4979 379.554 83.6845C379.737 85.0554 379.211 86.5189 378.057 87.4357C376.903 88.3526 375.121 88.6347 373.747 88.0053C372.571 87.4666 371.806 86.3267 371.695 85.1497C371.589 84.0001 372.133 82.4256 373.047 81.5669C374.043 80.6324 376.106 80.4367 377.394 80.8749Z" fill="#FFAB88"/>
</g>
<path opacity="0.3" d="M353.429 88.0388C352.795 88.5439 351.972 88.8534 351.128 88.9213C350.962 88.0758 350.879 87.2162 350.811 86.3637C350.758 85.677 350.72 84.9831 350.69 84.2964C350.66 83.5038 350.645 82.4776 350.645 81.2857C351.391 81.2028 352.169 81.2707 352.765 81.4744C354.01 81.8967 354.764 83.0965 354.923 84.2814C355.104 85.654 354.583 87.1184 353.429 88.0388Z" fill="#FFAB88"/>
<path d="M350.575 78.8499C350.986 73.7419 352.516 67.7328 359.585 67.4075C366.6 67.0849 373.076 67.173 375.845 71.3924C376.499 72.3886 376.846 73.5558 376.946 74.7434C377.093 76.4766 377.546 80.0136 378.851 80.993C380.909 82.5359 382.419 73.5312 382.419 73.5312L382.388 65.7581L350.796 64.1624L350.343 73.1556L350.575 78.8499Z" fill="#35302B"/>
<path d="M348.241 63.7789C350.066 74.9612 361.522 64.1254 372.418 68.6216C377.619 70.7692 378.203 75.3262 379.742 77.0109C380.697 78.0636 384.323 76.6151 384.712 74.955C388.8 57.4279 358.814 57.3794 357.244 56.9721C355.784 56.5948 354.233 56.6926 352.809 57.1731C351.957 58.3712 351.355 59.7465 351.106 61.2003C351.097 61.1967 351.089 61.1923 351.08 61.1888C349.586 60.5452 347.987 61.8738 348.198 63.4871C348.211 63.5841 348.225 63.682 348.241 63.7789Z" fill="#211D19"/>
<path d="M360.668 87.2992C361.369 89.3242 365.336 89.0597 365.715 86.772L360.668 87.2992Z" fill="white"/>
<path d="M379.555 81.9849C380.265 82.9626 381.561 83.4536 382.778 83.3902C383.996 83.3267 385.166 82.6637 385.833 81.6578C386.535 80.6008 386.665 79.2757 386.65 78.0124C386.633 76.6221 386.43 75.1498 385.544 74.0672C385.352 73.8327 385.125 73.6176 384.848 73.4889C384.564 73.3575 384.244 73.324 383.93 73.317C381.732 73.2649 379.864 74.7919 379.146 77.6254C379.146 77.6254 378.258 80.1979 379.555 81.9849Z" fill="#FFAB88"/>
<path d="M381.674 81.2989C381.909 80.5311 382.265 79.7896 382.793 79.1804C383.322 78.5704 384.033 78.0978 384.828 77.9294" stroke="#E9B0A7" stroke-width="0.6231" stroke-miterlimit="10" stroke-linecap="round" stroke-linejoin="round"/>
<path d="M382.629 76.8486C382.336 77.5601 382.441 78.417 382.898 79.0394" stroke="#E9B0A7" stroke-width="0.6231" stroke-miterlimit="10" stroke-linecap="round" stroke-linejoin="round"/>
<path d="M404.216 134.006L406.949 166.288L411.504 197.754C411.504 197.754 412.011 199.984 409.882 200.137" stroke="#D12B0B" stroke-width="0.6901" stroke-miterlimit="10"/>
<path d="M404.048 130.442C404.048 130.442 405.255 148.878 408.4 160.526C409.396 163.785 423.603 183.027 429.62 169.813C433.843 160.539 419.276 121.44 417.356 116.781C413.74 108.002 408.237 103.666 399.552 103.021L404.048 130.442Z" fill="#F53102"/>
<path d="M390.152 205.486C390.152 205.486 378.821 198.641 378.069 192.217C378.069 192.217 382.903 194.71 385.209 196.914C387.515 199.118 389.714 203.347 390.152 205.486Z" fill="#D12B0B"/>
<path d="M372.3 197.68C369.222 199.047 367.029 201.777 364.961 204.408C364.657 204.795 364.468 206.042 364.473 206.541C364.473 206.547 364.474 206.551 364.48 206.555C364.858 206.805 366.491 207.718 366.911 207.599C367.834 207.339 367.461 205.215 368.383 204.955C372.492 203.797 376.844 202.489 379.634 199.296C380.002 198.876 380.351 198.39 380.374 197.836C380.403 197.122 379.87 196.479 379.306 196.089C378.575 195.583 378.034 196.007 377.209 196.236C375.566 196.692 373.866 196.986 372.3 197.68Z" fill="#D3835B"/>
<path d="M378.088 195.459C381.279 197.682 384.243 200.906 387.344 203.252C387.349 203.256 387.352 203.263 387.351 203.269C387.064 205.311 387 206.899 385.077 209.669C383.66 211.71 377.647 217.96 376.331 218.443C376.324 218.446 376.318 218.444 376.312 218.439L363.313 206.651C363.306 206.644 363.304 206.633 363.311 206.626C364.599 205.242 367.591 201.124 369.151 200.079C370.353 199.274 370.807 198.665 372.133 198.079C374.113 197.205 376.092 196.332 378.071 195.458C378.076 195.455 378.082 195.455 378.088 195.459Z" fill="#FFAB88"/>
<path d="M386.446 204.59L391.201 199.146L381.539 190.941L375.788 198.149L386.446 204.59Z" fill="#FFAB88"/>
<path d="M362.06 208.975C361.673 210.085 361.767 211.436 362.603 212.268C363.438 213.1 365.092 213.076 365.674 212.053C364.959 212.816 365.064 214.15 365.84 214.849C366.603 215.537 367.864 215.561 368.709 214.97C368.723 214.96 368.739 214.972 368.732 214.988C368.407 215.886 368.814 216.988 369.655 217.459C370.467 217.915 371.59 217.727 372.222 217.051C372.237 217.035 372.257 217.049 372.248 217.069C371.907 217.762 371.999 218.649 372.489 219.25C373.01 219.889 373.947 220.164 374.741 219.911C375.292 219.735 375.739 219.343 376.17 218.962C376.617 218.566 380.952 213.639 381.242 212.902C381.532 212.164 381.38 211.193 380.69 210.793C379.818 210.288 378.463 211.478 376.462 212.967C376.445 212.98 376.423 212.959 376.438 212.943C377.263 212.048 377.961 211.041 378.508 209.961C378.736 209.511 378.942 209.019 378.877 208.521C378.757 207.615 377.745 207.04 376.818 207.064C375.979 207.085 374.418 208.139 373.531 208.672C373.512 208.683 373.496 208.657 373.512 208.643C374.748 207.59 375.641 204.842 374.472 203.884C373.292 202.917 371.248 203.561 369.802 205.411C369.788 205.429 369.76 205.41 369.772 205.39C370.429 204.287 371.082 203.13 370.992 202.335C370.912 201.629 370.155 201.141 369.433 201.139C368.712 201.137 368.042 201.508 367.468 201.94C365.784 203.211 362.752 206.992 362.06 208.975Z" fill="#FFAB88"/>
<path d="M372.318 216.94C372.318 216.94 373.392 216.039 376.311 213.08C376.311 213.08 374.87 215.705 372.318 216.94Z" fill="#D3835B"/>
<path d="M368.752 214.94C368.752 214.94 370.735 211.436 373.274 208.822C373.274 208.822 369.874 214.024 368.752 214.94Z" fill="#D3835B"/>
<path d="M365.424 212.421C365.424 212.421 368.161 206.925 369.745 205.459C369.745 205.459 366.639 211.512 365.424 212.421Z" fill="#D3835B"/>
<path d="M428.749 171.417C418.586 184.101 398.228 198.935 390.153 205.485C386.81 197.495 378.251 192.265 378.068 192.216C386.684 184.22 404.952 164.664 411.501 157.737" fill="#F53102"/>
<path d="M404.216 134.006L406.033 155.468" stroke="#D12B0B" stroke-width="0.6901" stroke-miterlimit="10"/>
<path opacity="0.75" d="M378.069 192.218C378.252 192.266 386.811 197.499 390.152 205.487C390.985 204.812 391.953 204.046 393.023 203.199C391.271 199.239 387.749 193.124 381.476 188.951C380.229 190.173 379.08 191.275 378.069 192.218Z" fill="#F53102"/>
<path d="M353.212 133.544L352.754 163.36C352.754 163.36 349.495 192.013 348.895 198.264" stroke="#D12B0B" stroke-width="0.6901" stroke-miterlimit="10"/>
<path d="M218.171 0H0V137.432H218.171V0Z" fill="#DCF3FF"/>
<path d="M99.4916 102.955H18.6097V124.165H99.4916V102.955Z" fill="white"/>
<path d="M35.7993 106.852H22.3724V120.269H35.7993V106.852Z" fill="#263447"/>
<path d="M55.2722 106.852H41.8453V120.269H55.2722V106.852Z" fill="#438FF3"/>
<path d="M74.745 106.852H61.3182V120.269H74.745V106.852Z" fill="#73AAF3"/>
<path d="M94.2178 106.852H80.791V120.269H94.2178V106.852Z" fill="#96C1F3"/>
<path d="M43.2761 75.5527H19.8713V98.9575H43.2761V75.5527Z" fill="#263447"/>
<path d="M44.0026 80.5716L38.3453 74.9143H44.0026V80.5716Z" fill="#92CEFF"/>
<path d="M18.6097 94.6499L24.267 100.307H18.6097V94.6499Z" fill="#92CEFF"/>
<path d="M82.5906 98.9585H94.1669V75.5537H82.5906V98.9585Z" fill="#263447"/>
<path d="M48.0969 98.9585H59.6732V75.5537H48.0969V98.9585Z" fill="#96C1F3"/>
<path d="M59.6532 98.9585H71.2295V75.5537H59.6532V98.9585Z" fill="#73AAF3"/>
<path d="M71.12 98.9585H82.6964V75.5537H71.12V98.9585Z" fill="#438FF3"/>
<path d="M100.478 42.1584H19.5963V63.3689H100.478V42.1584Z" fill="white"/>
<path d="M36.7858 46.0549H23.3589V59.4721H36.7858V46.0549Z" fill="#F53102"/>
<path d="M56.2586 46.0549H42.8318V59.4721H56.2586V46.0549Z" fill="#F36543"/>
<path d="M75.7315 46.0549H62.3047V59.4721H75.7315V46.0549Z" fill="#F38B73"/>
<path d="M95.2043 46.0549H81.7775V59.4721H95.2043V46.0549Z" fill="#F3A796"/>
<path d="M43.2761 14.4106H19.8713V37.8155H43.2761V14.4106Z" fill="#F53102"/>
<path d="M44.0026 19.011L38.3453 13.3538H44.0026V19.011Z" fill="#92CEFF"/>
<path d="M18.6097 33.0894L24.267 38.7466H18.6097V33.0894Z" fill="#92CEFF"/>
<path d="M59.6739 14.3472H48.0976V37.7529H59.6739V14.3472Z" fill="#F3A796"/>
<path d="M94.1676 14.3472H82.5912V37.7529H94.1676V14.3472Z" fill="#F53102"/>
<path d="M82.6115 14.3472H71.0352V37.7529H82.6115V14.3472Z" fill="#F36543"/>
<path d="M71.1445 14.3472H59.5682V37.7529H71.1445V14.3472Z" fill="#F38B73"/>
<path d="M199.561 102.955H118.679V124.165H199.561V102.955Z" fill="white"/>
<path d="M135.868 106.852H122.441V120.269H135.868V106.852Z" fill="#355FFC"/>
<path opacity="0.9" d="M155.341 106.852H141.914V120.269H155.341V106.852Z" fill="#4368F3"/>
<path d="M174.814 106.852H161.387V120.269H174.814V106.852Z" fill="#738FF3"/>
<path d="M194.287 106.852H180.86V120.269H194.287V106.852Z" fill="#96ABF3"/>
<path d="M198.503 75.5527H175.098V98.9575H198.503V75.5527Z" fill="#355FFC"/>
<path d="M199.561 80.5716L193.903 74.9143H199.561V80.5716Z" fill="#92CEFF"/>
<path d="M174.168 94.6499L179.825 100.307H174.168V94.6499Z" fill="#92CEFF"/>
<path d="M157.235 98.9585H168.812V75.5537H157.235V98.9585Z" fill="#96ABF3"/>
<path d="M122.742 98.9585H134.318V75.5537H122.742V98.9585Z" fill="#355FFC"/>
<path opacity="0.9" d="M134.298 98.9585H145.874V75.5537H134.298V98.9585Z" fill="#4368F3"/>
<path d="M145.765 98.9585H157.341V75.5537H145.765V98.9585Z" fill="#738FF3"/>
<path d="M199.561 42.1584H118.679V63.3689H199.561V42.1584Z" fill="white"/>
<path d="M135.868 46.0549H122.441V59.4721H135.868V46.0549Z" fill="#FFCC31"/>
<path opacity="0.85" d="M155.341 46.0549H141.914V59.4721H155.341V46.0549Z" fill="#F3C743"/>
<path d="M174.814 46.0549H161.387V59.4721H174.814V46.0549Z" fill="#F3D373"/>
<path d="M194.287 46.0549H180.86V59.4721H194.287V46.0549Z" fill="#F3DB96"/>
<path d="M198.503 14.3242H175.098V37.729H198.503V14.3242Z" fill="#FFCC31"/>
<path d="M199.561 18.9246L193.903 13.2673H199.561V18.9246Z" fill="#92CEFF"/>
<path d="M174.168 33.0029L179.825 38.6602H174.168V33.0029Z" fill="#92CEFF"/>
<path d="M134.318 14.3474H122.742V37.7531H134.318V14.3474Z" fill="#FFCC31"/>
<path d="M168.812 14.3474H157.236V37.7531H168.812V14.3474Z" fill="#F3DB96"/>
<path d="M157.256 14.3474H145.68V37.7531H157.256V14.3474Z" fill="#F3D373"/>
<path opacity="0.85" d="M145.789 14.3474H134.213V37.7531H145.789V14.3474Z" fill="#F3C743"/>
</svg>
