<svg width="83" height="81" viewBox="0 0 83 81" fill="none" xmlns="http://www.w3.org/2000/svg">
<path d="M9.61173 50.5576H0.110519V47.1871C0.0582357 42.4612 1.34072 37.8126 3.81727 33.7512C6.29383 29.6897 9.86877 26.3724 14.1499 24.1632C18.3674 22.1338 22.935 20.888 27.6195 20.4893C25.5726 22.961 23.5199 25.5878 21.4615 28.3695C16.8252 35.3967 12.8587 42.8238 9.61173 50.5576ZM53.93 60.0388C46.7299 64.5692 39.1194 68.4457 31.1941 71.6199V80.8921H34.6478C39.4904 80.9432 44.2538 79.6916 48.4155 77.2747C52.5772 74.8578 55.9764 71.369 58.2402 67.191C60.3197 63.0752 61.5963 58.6177 62.0048 54.0461C59.4836 56.0347 56.792 58.0322 53.93 60.0388ZM83 10.0812C82.5407 24.753 71.7167 39.3035 49.9064 54.5719C43.9712 58.3267 37.7097 61.5658 31.1941 64.252V62.3544C31.1786 59.2303 29.9001 56.2385 27.6365 54.0294C25.3729 51.8204 22.3072 50.5727 19.106 50.5576H17.1616C19.9173 44.199 23.2411 38.0894 27.0945 32.2996C42.7019 11.0485 57.5875 0.485353 72.5974 0C80.0781 0 83 2.9829 83 10.0812ZM62.2776 28.6493C62.2776 26.4145 61.3679 24.2713 59.7487 22.691C58.1294 21.1108 55.9333 20.223 53.6433 20.223C51.3533 20.223 49.1572 21.1108 47.5379 22.691C45.9187 24.2713 45.009 26.4145 45.009 28.6493C45.009 30.8841 45.9187 33.0273 47.5379 34.6076C49.1572 36.1878 51.3533 37.0756 53.6433 37.0756C55.9333 37.0756 58.1294 36.1878 59.7487 34.6076C61.3679 33.0273 62.2776 30.8841 62.2776 28.6493ZM4.85594 80.1675C8.74484 79.4934 18.1217 77.6126 21.2542 74.559C22.2165 73.6199 22.9797 72.5052 23.5005 71.2783C24.0212 70.0514 24.2892 68.7364 24.2892 67.4084C24.2892 66.0805 24.0212 64.7655 23.5005 63.5386C22.9797 62.3117 22.2165 61.1969 21.2542 60.2579C20.292 59.3189 19.1497 58.574 17.8925 58.0658C16.6354 57.5576 15.2879 57.2961 13.9272 57.2961C11.179 57.2961 8.54334 58.3615 6.60007 60.2579C3.471 63.315 1.54036 72.4659 0.853071 76.2611L0 81L4.85594 80.1675Z" fill="#E4002B"/>
</svg>
