<svg width="83" height="83" viewBox="0 0 83 83" fill="none" xmlns="http://www.w3.org/2000/svg">
<path d="M41.0001 0.51875C42.5718 1.0375 44.0068 1.8675 45.2026 3.04333L58.5276 16.6692C59.6552 17.8104 60.441 19.1937 60.9193 20.7154H44.4168C42.5376 20.7154 41.0001 19.1592 41.0001 17.2571V0.51875ZM68.6068 43.8171C71.6819 40.7046 76.636 40.7046 79.711 43.8171C82.786 46.9296 82.786 51.9442 79.711 55.0567L56.4435 78.6079C53.676 81.4092 49.8835 83 45.9885 83H41.0343V77.9854C41.0343 74.0083 42.6059 70.2042 45.3735 67.4029L68.641 43.8517L68.6068 43.8171ZM20.5001 34.5833C18.6209 34.5833 17.0834 36.1396 17.0834 38.0417C17.0834 40.3933 18.6209 43.6096 20.9442 46.3417C22.6867 43.6787 23.9167 40.5317 23.9167 38.0417C23.9167 36.1396 22.3792 34.5833 20.5001 34.5833ZM61.5002 27.6667V41.2233L40.5218 62.4575C36.8659 66.1579 34.7134 70.9304 34.2693 76.0487H17.0834C7.65335 76.0487 0 68.3021 0 58.7571V17.2917C0 7.74667 7.65335 0 17.0834 0H34.1668V17.2917C34.1668 22.9979 38.7793 27.6667 44.4168 27.6667H61.5002ZM44.4168 46.6875C44.4168 43.8171 42.1276 41.5 39.2918 41.5C36.4559 41.5 34.1668 43.8171 34.1668 46.6875C34.1668 47.7942 34.5084 49.0046 35.1576 50.1112C34.0643 51.0796 32.6293 51.875 30.7501 51.875C29.2467 51.875 27.7434 51.4254 26.3084 50.6992C29.0759 46.6875 30.7501 41.8804 30.7501 38.0417C30.7501 32.3354 26.1376 27.6667 20.5001 27.6667C14.8625 27.6667 10.25 32.3354 10.25 38.0417C10.25 42.2608 12.5734 47.2062 16.0925 51.1833C15.2725 51.6329 14.4525 51.875 13.6667 51.875C11.7875 51.875 10.25 53.4312 10.25 55.3333C10.25 57.2354 11.7875 58.7917 13.6667 58.7917C16.5025 58.7917 19.1676 57.6504 21.5251 55.8521C24.3951 57.685 27.5384 58.7917 30.7501 58.7917C39.6334 58.7917 44.4168 50.215 44.4168 46.6875Z" fill="#E4002B"/>
</svg>
