<svg width="1440" height="4005" viewBox="0 0 1440 4005" fill="none" xmlns="http://www.w3.org/2000/svg">
<g filter="url(#filter0_ddii_0_6)">
<path fill-rule="evenodd" clip-rule="evenodd" d="M1439 44L1359.11 73C1279.22 102 1119.44 144.5 959.667 137.5C884.956 134.227 810.245 119.912 735.534 105.598C650.467 89.2988 565.4 73 480.333 73C320.556 73 212 80 80.8889 142L62.5 151.5L40.9445 163.25L1 184.5V245H-21V3745H0V3961L79.8889 3932C159.778 3903 319.556 3860.5 479.333 3867.5C554.044 3870.77 628.755 3885.09 703.466 3899.4C788.533 3915.7 873.6 3932 958.667 3932C1118.44 3932 1227 3925 1358.11 3863L1376.5 3853.5L1398.06 3841.75L1438 3820.5V3745H1461V245H1439V44Z" fill="white"/>
</g>
<defs>
<filter id="filter0_ddii_0_6" x="-52.6" y="0.4" width="1545.2" height="4004.2" filterUnits="userSpaceOnUse" color-interpolation-filters="sRGB">
<feFlood flood-opacity="0" result="BackgroundImageFix"/>
<feColorMatrix in="SourceAlpha" type="matrix" values="0 0 0 0 0 0 0 0 0 0 0 0 0 0 0 0 0 0 127 0" result="hardAlpha"/>
<feOffset dy="-12"/>
<feGaussianBlur stdDeviation="15.8"/>
<feComposite in2="hardAlpha" operator="out"/>
<feColorMatrix type="matrix" values="0 0 0 0 0 0 0 0 0 0 0 0 0 0 0 0 0 0 0.16 0"/>
<feBlend mode="normal" in2="BackgroundImageFix" result="effect1_dropShadow_0_6"/>
<feColorMatrix in="SourceAlpha" type="matrix" values="0 0 0 0 0 0 0 0 0 0 0 0 0 0 0 0 0 0 127 0" result="hardAlpha"/>
<feOffset dy="12"/>
<feGaussianBlur stdDeviation="15.8"/>
<feComposite in2="hardAlpha" operator="out"/>
<feColorMatrix type="matrix" values="0 0 0 0 0 0 0 0 0 0 0 0 0 0 0 0 0 0 0.16 0"/>
<feBlend mode="normal" in2="effect1_dropShadow_0_6" result="effect2_dropShadow_0_6"/>
<feBlend mode="normal" in="SourceGraphic" in2="effect2_dropShadow_0_6" result="shape"/>
<feColorMatrix in="SourceAlpha" type="matrix" values="0 0 0 0 0 0 0 0 0 0 0 0 0 0 0 0 0 0 127 0" result="hardAlpha"/>
<feOffset dy="17"/>
<feGaussianBlur stdDeviation="7.5"/>
<feComposite in2="hardAlpha" operator="arithmetic" k2="-1" k3="1"/>
<feColorMatrix type="matrix" values="0 0 0 0 0 0 0 0 0 0 0 0 0 0 0 0 0 0 0.25 0"/>
<feBlend mode="normal" in2="shape" result="effect3_innerShadow_0_6"/>
<feColorMatrix in="SourceAlpha" type="matrix" values="0 0 0 0 0 0 0 0 0 0 0 0 0 0 0 0 0 0 127 0" result="hardAlpha"/>
<feOffset dy="-17"/>
<feGaussianBlur stdDeviation="7.5"/>
<feComposite in2="hardAlpha" operator="arithmetic" k2="-1" k3="1"/>
<feColorMatrix type="matrix" values="0 0 0 0 0 0 0 0 0 0 0 0 0 0 0 0 0 0 0.25 0"/>
<feBlend mode="normal" in2="effect3_innerShadow_0_6" result="effect4_innerShadow_0_6"/>
</filter>
</defs>
</svg>
