<svg width="18" height="17" viewBox="0 0 18 17" fill="none" xmlns="http://www.w3.org/2000/svg">
<path d="M8.63459 5.66546C7.07379 5.66546 5.80005 6.9392 5.80005 8.5C5.80005 10.0608 7.07379 11.3345 8.63459 11.3345C10.1954 11.3345 11.4691 10.0608 11.4691 8.5C11.4691 6.9392 10.1954 5.66546 8.63459 5.66546ZM17.1361 8.5C17.1361 7.32621 17.1467 6.16305 17.0808 4.99138C17.0149 3.63046 16.7044 2.42264 15.7092 1.42747C14.7119 0.430173 13.5063 0.121839 12.1453 0.0559198C10.9715 -0.00999972 9.80838 0.000632496 8.63672 0.000632496C7.46292 0.000632496 6.29976 -0.00999972 5.1281 0.0559198C3.76718 0.121839 2.55936 0.432299 1.56419 1.42747C0.566891 2.42477 0.258558 3.63046 0.192639 4.99138C0.126719 6.16517 0.137351 7.32833 0.137351 8.5C0.137351 9.67167 0.126719 10.837 0.192639 12.0086C0.258558 13.3695 0.569018 14.5774 1.56419 15.5725C2.56149 16.5698 3.76718 16.8782 5.1281 16.9441C6.30189 17.01 7.46505 16.9994 8.63672 16.9994C9.81051 16.9994 10.9737 17.01 12.1453 16.9441C13.5063 16.8782 14.7141 16.5677 15.7092 15.5725C16.7065 14.5752 17.0149 13.3695 17.0808 12.0086C17.1488 10.837 17.1361 9.67379 17.1361 8.5ZM8.63459 12.8613C6.22109 12.8613 4.27327 10.9135 4.27327 8.5C4.27327 6.08649 6.22109 4.13868 8.63459 4.13868C11.0481 4.13868 12.9959 6.08649 12.9959 8.5C12.9959 10.9135 11.0481 12.8613 8.63459 12.8613ZM13.1745 4.97862C12.611 4.97862 12.156 4.52356 12.156 3.96006C12.156 3.39655 12.611 2.94149 13.1745 2.94149C13.738 2.94149 14.1931 3.39655 14.1931 3.96006C14.1933 4.09386 14.167 4.22639 14.1159 4.35004C14.0648 4.4737 13.9898 4.58605 13.8951 4.68067C13.8005 4.77528 13.6882 4.8503 13.5645 4.90143C13.4409 4.95256 13.3083 4.97879 13.1745 4.97862Z" fill="#E4002B"/>
</svg>
