<svg width="20" height="15" viewBox="0 0 20 15" fill="none" xmlns="http://www.w3.org/2000/svg">
<path d="M19.1367 1.77927C18.438 2.07995 17.6874 2.28311 16.8983 2.37493C17.7125 1.90181 18.3216 1.15718 18.6121 0.279967C17.8471 0.721218 17.0099 1.03181 16.1369 1.19824C15.5497 0.58947 14.7721 0.185967 13.9247 0.050377C13.0772 -0.0852125 12.2074 0.0546982 11.4502 0.448387C10.6931 0.842076 10.0909 1.46752 9.73726 2.22761C9.38362 2.9877 9.29827 3.83991 9.49446 4.65193C7.94448 4.57635 6.42818 4.18511 5.04397 3.5036C3.65976 2.82209 2.43858 1.86554 1.45967 0.696035C1.12496 1.25675 0.9325 1.90686 0.9325 2.59922C0.932126 3.22251 1.09018 3.83624 1.39263 4.38598C1.69508 4.93572 2.13258 5.40446 2.66631 5.75061C2.04733 5.73148 1.44199 5.56905 0.900702 5.27684V5.3256C0.900639 6.19978 1.21201 7.04707 1.78199 7.72368C2.35196 8.40029 3.14543 8.86456 4.02776 9.03771C3.45355 9.18863 2.85153 9.21086 2.26717 9.10272C2.51611 9.8549 3.00102 10.5127 3.65403 10.9839C4.30703 11.4551 5.09543 11.7163 5.90885 11.7308C4.52802 12.7835 2.8227 13.3545 1.06722 13.352C0.756257 13.3521 0.445556 13.3344 0.136719 13.2992C1.91863 14.4118 3.9929 15.0023 6.11135 15C13.2826 15 17.2029 9.23193 17.2029 4.22936C17.2029 4.06683 17.1987 3.90268 17.1912 3.74016C17.9538 3.20461 18.612 2.54144 19.135 1.78171L19.1367 1.77927Z" fill="#E4002B"/>
</svg>
